<svg width="5" height="10" viewBox="0 0 5 10" fill="none" xmlns="http://www.w3.org/2000/svg">
<path d="M4.21978 9.66669C4.12019 9.66703 4.02178 9.64505 3.93179 9.60236C3.84181 9.55967 3.76253 9.49737 3.69978 9.42002L0.479784 5.42002C0.381729 5.30073 0.328125 5.1511 0.328125 4.99669C0.328125 4.84227 0.381729 4.69264 0.479784 4.57335L3.81312 0.573354C3.92628 0.43721 4.08888 0.351594 4.26517 0.335341C4.44145 0.319087 4.61697 0.373529 4.75312 0.486688C4.88926 0.599847 4.97488 0.762454 4.99113 0.938739C5.00738 1.11502 4.95294 1.29054 4.83978 1.42669L1.85978 5.00002L4.73978 8.57335C4.82131 8.67121 4.87309 8.79037 4.88901 8.91674C4.90493 9.0431 4.88432 9.17139 4.82961 9.2864C4.77491 9.40142 4.6884 9.49836 4.58033 9.56576C4.47226 9.63315 4.34714 9.66818 4.21978 9.66669Z" fill="currentColor"/>
</svg>
