<svg width="12" height="12" viewBox="0 0 12 12" fill="none" xmlns="http://www.w3.org/2000/svg">
<path d="M6.91496 9.50002C6.84026 9.50027 6.76646 9.48378 6.69897 9.45177C6.63148 9.41976 6.57202 9.37303 6.52496 9.31502L4.10996 6.31502C4.03642 6.22555 3.99622 6.11333 3.99622 5.99752C3.99622 5.8817 4.03642 5.76948 4.10996 5.68002L6.60996 2.68002C6.69483 2.57791 6.81678 2.5137 6.949 2.50151C7.08121 2.48932 7.21285 2.53015 7.31496 2.61502C7.41707 2.69989 7.48128 2.82184 7.49347 2.95405C7.50566 3.08627 7.46483 3.21791 7.37996 3.32002L5.14496 6.00002L7.30496 8.68002C7.3661 8.75341 7.40494 8.84278 7.41688 8.93755C7.42882 9.03233 7.41336 9.12854 7.37233 9.2148C7.3313 9.30107 7.26642 9.37377 7.18537 9.42432C7.10431 9.47486 7.01048 9.50113 6.91496 9.50002Z" fill="currentColor"/>
</svg>
