<svg width="72" height="72" viewBox="0 0 72 72" fill="none" xmlns="http://www.w3.org/2000/svg">
<path d="M20.28 66H51.72C60 66 63.3 60.93 63.69 54.75L65.25 29.97C65.67 23.49 60.51 18 54 18C52.17 18 50.49 16.95 49.65 15.33L47.49 10.98C46.11 8.25 42.51 6 39.45 6H32.58C29.49 6 25.89 8.25 24.51 10.98L22.35 15.33C21.51 16.95 19.83 18 18 18C11.49 18 6.33001 23.49 6.75001 29.97L8.31001 54.75C8.67001 60.93 12 66 20.28 66Z" stroke="currentColor" stroke-width="1.5" stroke-linecap="round" stroke-linejoin="round"/>
<path d="M31.5 24H40.5" stroke="currentColor" stroke-width="1.5" stroke-linecap="round" stroke-linejoin="round"/>
<path d="M36 54C41.37 54 45.75 49.62 45.75 44.25C45.75 38.88 41.37 34.5 36 34.5C30.63 34.5 26.25 38.88 26.25 44.25C26.25 49.62 30.63 54 36 54Z" stroke="currentColor" stroke-width="1.5" stroke-linecap="round" stroke-linejoin="round"/>
</svg>
