<svg width="28" height="20" viewBox="0 0 28 20" fill="none" xmlns="http://www.w3.org/2000/svg">
<rect width="28" height="20" rx="4" fill="#FFD2D9"/>
<path d="M19 10.3333C19 9.41329 19.7466 8.66663 20.6666 8.66663V7.99996C20.6666 5.33329 20 4.66663 17.3333 4.66663H10.6666C7.99998 4.66663 7.33331 5.33329 7.33331 7.99996V8.33329C8.25331 8.33329 8.99998 9.07996 8.99998 9.99996C8.99998 10.92 8.25331 11.6666 7.33331 11.6666V12C7.33331 14.6666 7.99998 15.3333 10.6666 15.3333H17.3333C20 15.3333 20.6666 14.6666 20.6666 12C19.7466 12 19 11.2533 19 10.3333Z" stroke="#D82F49" stroke-width="1.5" stroke-linecap="round" stroke-linejoin="round"/>
<path d="M12 11.8334L16 7.83337" stroke="#D82F49" stroke-width="1.5" stroke-linecap="round" stroke-linejoin="round"/>
<path d="M15.9964 11.8333H16.0023" stroke="#D82F49" stroke-width="2" stroke-linecap="round" stroke-linejoin="round"/>
<path d="M11.9964 8.16671H12.0023" stroke="#D82F49" stroke-width="2" stroke-linecap="round" stroke-linejoin="round"/>
</svg>
