<svg width="80" height="80" viewBox="0 0 80 80" fill="none" xmlns="http://www.w3.org/2000/svg">
<g clip-path="url(#clip0_2086_98250)">
<ellipse cx="13.3332" cy="46.6667" rx="8.88889" ry="8.88889" fill="#FAD0D3"/>
<circle cx="66.6667" cy="46.6667" r="8.88889" fill="#FAD0D3"/>
<path d="M39.2188 43.75H40.7812V50H39.2188V43.75Z" fill="black"/>
<path d="M19.8208 49.1039L20.2005 50.6196L13.9561 52.1839L13.5764 50.6683L19.8208 49.1039Z" fill="black"/>
<path d="M13.9189 44.3988L20.1633 45.9631L19.7836 47.4787L13.5393 45.9144L13.9189 44.3988Z" fill="black"/>
<path d="M66.0898 44.4085L66.4695 45.9241L60.2252 47.4884L59.8455 45.9728L66.0898 44.4085Z" fill="black"/>
<path d="M60.1602 49.1071L66.4045 50.6714L66.0248 52.187L59.7805 50.6227L60.1602 49.1071Z" fill="black"/>
<path d="M50 34.375H53.125V40.625H50V34.375Z" fill="black"/>
<path d="M40 44.5312C39.7969 44.5312 39.5938 44.4531 39.4531 44.2969L36.9688 41.8125C36.4063 41.25 36.0938 40.5 36.0938 39.7031C36.0938 38.0469 37.4375 36.7188 39.0781 36.7188H40.9062C42.5625 36.7188 43.8906 38.0625 43.8906 39.7031C43.8906 40.5 43.5781 41.25 43.0156 41.8125L40.5312 44.2969C40.4062 44.4531 40.2031 44.5312 40 44.5312V44.5312ZM39.0781 38.2812C38.2969 38.2812 37.6563 38.9219 37.6563 39.7031C37.6563 40.0781 37.8125 40.4375 38.0781 40.7188L40 42.6406L41.9219 40.7188C42.1875 40.4531 42.3438 40.0938 42.3438 39.7031C42.3438 38.9219 41.7031 38.2812 40.9219 38.2812H39.0781Z" fill="black"/>
<path d="M33.9062 31.25H32.3438C32.3438 29.9531 31.2969 28.9062 30 28.9062C28.7031 28.9062 27.6562 29.9531 27.6562 31.25H26.0938C26.0938 29.0937 27.8437 27.3438 30 27.3438C32.1563 27.3438 33.9062 29.0937 33.9062 31.25Z" fill="black"/>
<path d="M53.9062 31.25H52.3438C52.3438 29.9531 51.2969 28.9062 50 28.9062C48.7031 28.9062 47.6562 29.9531 47.6562 31.25H46.0938C46.0938 29.0937 47.8437 27.3438 50 27.3438C52.1563 27.3438 53.9062 29.0937 53.9062 31.25Z" fill="black"/>
<path d="M46.875 33.5938H53.125V35.1562H46.875V33.5938Z" fill="black"/>
<path d="M30 34.375H33.125V40.625H30V34.375Z" fill="black"/>
<path d="M26.875 33.5938H33.125V35.1562H26.875V33.5938Z" fill="black"/>
<path d="M47.5 50.7812H33.125V49.2188H47.5C48.7969 49.2188 49.8438 48.1719 49.8438 46.875H51.4062C51.4062 49.0313 49.6563 50.7812 47.5 50.7812Z" fill="black"/>
<path d="M32.1719 20.9375C29.9531 20.9375 27.5625 16.2656 26.4219 13.2812L27.875 12.7187C29.6719 17.4531 31.625 19.3594 32.1406 19.3594H32.1563C32.5156 19.125 32.8437 16.7188 31.4062 12.2344L32.8906 11.7656C33.3281 13.1094 35.3281 19.8594 32.6875 20.8281C32.5156 20.9063 32.3437 20.9375 32.1719 20.9375Z" fill="black"/>
<path d="M47.8282 20.9375C47.6563 20.9375 47.4688 20.9062 47.2969 20.8437C44.6407 19.875 46.6563 13.125 47.0938 11.7812L48.5782 12.25C47.1407 16.7344 47.4688 19.125 47.8438 19.375H47.8594C48.3594 19.375 50.3126 17.4687 52.1094 12.7344L53.5626 13.2969C52.4532 16.2656 50.0626 20.9375 47.8282 20.9375V20.9375Z" fill="black"/>
<path d="M40 23.4375C36.9531 23.4375 35.3125 17.4063 35.3125 11.7188H36.875C36.875 17.9219 38.7188 21.875 40 21.875C41.2812 21.875 43.125 17.9219 43.125 11.7188H44.6875C44.6875 17.4063 43.0469 23.4375 40 23.4375Z" fill="black"/>
<path d="M7.9375 25.8906C7.84375 25.7344 7.75 25.5937 7.65625 25.4375C5.375 21.7187 4.17188 17.4531 4.17188 13.0937C4.17188 8.71875 5.39062 4.45312 7.70313 0.75L7.9375 0.375C8.07813 0.140625 8.32813 0 8.59375 0H8.82813C17.4375 0 25.3438 4.6875 29.4531 12.2344L28.0781 12.9844C24.2656 6 16.9688 1.625 9.01563 1.5625C4.60937 8.67187 4.59375 17.5 8.96875 24.6094C9.0625 24.75 9.14063 24.8906 9.23438 25.0312L7.9375 25.8906Z" fill="black"/>
<path d="M9.14355 0.22052L22.9963 14.0733L21.8916 15.178L8.03887 1.32521L9.14355 0.22052Z" fill="black"/>
<path d="M9.14355 0.22052L22.9963 14.0733L21.8916 15.178L8.03887 1.32521L9.14355 0.22052Z" fill="black"/>
<path d="M72.0625 25.8906L70.75 25.0469C70.8438 24.9062 70.9219 24.7656 71.0156 24.625C75.3906 17.5156 75.375 8.67187 70.9688 1.57812C63.0156 1.65625 55.7188 6.01562 51.9063 13L50.5312 12.25C54.6563 4.6875 62.5625 0 71.1719 0H71.4063C71.6719 0 71.9219 0.140625 72.0781 0.375L72.3125 0.75C74.6094 4.46875 75.8281 8.73437 75.8438 13.0937C75.8438 17.4531 74.6406 21.7187 72.3594 25.4375C72.25 25.5937 72.1563 25.75 72.0625 25.8906V25.8906Z" fill="black"/>
<path d="M70.8569 0.217041L71.9616 1.32173L58.1088 15.1745L57.0042 14.0698L70.8569 0.217041Z" fill="black"/>
<path d="M41.2813 80H38.7344C32.8437 80 27.0781 78.9531 21.5625 76.8906C15.2031 74.5156 9.79688 70.2969 5.92188 64.7188C2.04688 59.1406 0 52.5938 0 45.8125C0 37.7344 2.9375 29.9687 8.25 23.9062C8.73437 23.3437 9.25 22.7969 9.78125 22.2656L10.8906 23.3594C10.3906 23.8594 9.89062 24.3906 9.42187 24.9375C4.35937 30.7031 1.5625 38.125 1.5625 45.8125C1.5625 58.9375 9.8125 70.8281 22.1094 75.4375C27.4375 77.4375 33.0312 78.4531 38.7344 78.4531H41.2813C46.9844 78.4531 52.5781 77.4375 57.9063 75.4375C70.1875 70.8281 78.4375 58.9219 78.4375 45.8125C78.4375 38.125 75.6406 30.7188 70.5625 24.9375C70.0313 24.3438 69.4844 23.75 68.9219 23.1875L70.0313 22.0781C70.625 22.6563 71.1875 23.2812 71.7344 23.9062C77.0625 29.9687 79.9844 37.75 79.9844 45.8125C79.9844 52.6094 77.9375 59.1406 74.0625 64.7188C70.1875 70.2969 64.7812 74.5156 58.4219 76.8906C52.9375 78.9531 47.1563 80 41.2813 80V80Z" fill="black"/>
<path d="M64.2344 19.2344C58.0312 14.8281 50.7187 12.5 43.0937 12.5H36.9063C29.2969 12.5 21.9844 14.8281 15.7656 19.2344L14.8594 17.9531C21.3438 13.3594 28.9688 10.9375 36.9063 10.9375H43.0937C51.0312 10.9375 58.6562 13.3594 65.1406 17.9531L64.2344 19.2344Z" fill="black"/>
</g>
<defs>
<clipPath id="clip0_2086_98250">
<rect width="80" height="80" fill="white"/>
</clipPath>
</defs>
</svg>
