<svg width="108" height="108" viewBox="0 0 108 108" fill="none" xmlns="http://www.w3.org/2000/svg">
<g clip-path="url(#clip0_1386_62649)">
<circle cx="90" cy="66" r="12" fill="#FAD0D3"/>
<circle cx="18" cy="66" r="12" fill="#FAD0D3"/>
<path d="M52.9453 59.0717H55.0547V67.5076H52.9453V59.0717Z" fill="#3A3A43"/>
<path d="M26.7585 66.2983L27.271 68.3444L18.8411 70.4562L18.3285 68.4101L26.7585 66.2983Z" fill="#3A3A43"/>
<path d="M18.7905 59.9473L27.2204 62.0591L26.7079 64.1052L18.2779 61.9934L18.7905 59.9473Z" fill="#3A3A43"/>
<path d="M89.2213 59.9604L89.7339 62.0065L81.304 64.1183L80.7914 62.0722L89.2213 59.9604Z" fill="#3A3A43"/>
<path d="M81.2162 66.3022L89.6461 68.4141L89.1335 70.4602L80.7036 68.3483L81.2162 66.3022Z" fill="#3A3A43"/>
<path d="M38.3906 46.4177H42.6094V54.8536H38.3906V46.4177Z" fill="#3A3A43"/>
<path d="M65.3906 46.4177H69.6094V54.8536H65.3906V46.4177Z" fill="#3A3A43"/>
<path d="M54 60.1261C53.7258 60.1261 53.4516 60.0207 53.2617 59.8098L49.9078 56.4565C49.1484 55.6973 48.7266 54.685 48.7266 53.6094C48.7266 51.3739 50.5406 49.5812 52.7555 49.5812H55.2234C57.4594 49.5812 59.2523 51.395 59.2523 53.6094C59.2523 54.685 58.8305 55.6973 58.0711 56.4565L54.7172 59.8098C54.5484 60.0207 54.2742 60.1261 54 60.1261ZM52.7555 51.6902C51.7008 51.6902 50.8359 52.5549 50.8359 53.6094C50.8359 54.1155 51.0469 54.6006 51.4055 54.9802L54 57.5743L56.5945 54.9802C56.9531 54.6217 57.1641 54.1366 57.1641 53.6094C57.1641 52.5549 56.2992 51.6902 55.2445 51.6902H52.7555Z" fill="#3A3A43"/>
<path d="M72.7734 42.2008H70.6641C70.6641 40.45 69.2508 39.0367 67.5 39.0367C65.7492 39.0367 64.3359 40.45 64.3359 42.2008H62.2266C62.2266 39.2899 64.5891 36.9274 67.5 36.9274C70.4109 36.9274 72.7734 39.2899 72.7734 42.2008Z" fill="#3A3A43"/>
<path d="M36.2812 43.2543V41.1453C38.7281 41.1453 41.0063 40.1963 42.7359 38.4669L43.9805 37.2226L45.4781 38.72L44.2336 39.9643C42.1031 42.0943 39.2766 43.2543 36.2812 43.2543Z" fill="#3A3A43"/>
<path d="M44.7188 66.4531H63.2812V68.5624H44.7188V66.4531Z" fill="#3A3A43"/>
<path d="M64.8538 72.856L66.3451 74.3473L59.3359 81.3566L57.8446 79.8653L64.8538 72.856Z" fill="#3A3A43"/>
<path d="M69.9252 77.9127L71.4165 79.404L64.4073 86.4133L62.9159 84.922L69.9252 77.9127Z" fill="#3A3A43"/>
<path d="M52.2492 108H22.4226C22.0008 108 21.6211 107.747 21.4523 107.346C21.2836 106.945 21.3891 106.503 21.6844 106.207L52.9453 74.9522C57.4594 70.439 64.8211 70.439 69.3562 74.9522C73.8703 79.4655 73.8703 86.8258 69.3562 91.3601L53.0086 107.705C52.7976 107.895 52.5234 108 52.2492 108ZM24.975 105.891H51.8273L67.8586 89.8627C71.55 86.172 71.55 80.1403 67.8586 76.4496C64.1672 72.7589 58.1344 72.7589 54.443 76.4496L24.975 105.891Z" fill="#3A3A43"/>
<path d="M88.8047 29.1241H67.7109C62.4797 29.1241 58.2188 24.864 58.2188 19.6337V9.51061C58.2188 4.28034 62.4797 0.0202026 67.7109 0.0202026H88.8047C94.0359 0.0202026 98.2969 4.28034 98.2969 9.51061V19.6337C98.2969 24.864 94.0359 29.1241 88.8047 29.1241ZM67.7109 2.12918C63.6398 2.12918 60.3281 5.44028 60.3281 9.51061V19.6337C60.3281 23.704 63.6398 27.0151 67.7109 27.0151H88.8047C92.8758 27.0151 96.1875 23.704 96.1875 19.6337V9.51061C96.1875 5.44028 92.8758 2.12918 88.8047 2.12918H67.7109Z" fill="#3A3A43"/>
<path d="M85.4297 41.778C82.5187 41.778 80.1562 39.4159 80.1562 36.5055C80.1562 33.5952 82.5187 31.2331 85.4297 31.2331C88.3406 31.2331 90.7031 33.5952 90.7031 36.5055C90.7031 39.4159 88.3406 41.778 85.4297 41.778ZM85.4297 33.3421C83.6789 33.3421 82.2656 34.7551 82.2656 36.5055C82.2656 38.256 83.6789 39.669 85.4297 39.669C87.1805 39.669 88.5938 38.256 88.5938 36.5055C88.5938 34.7551 87.1805 33.3421 85.4297 33.3421Z" fill="#3A3A43"/>
<path d="M82.2656 52.3229C79.9453 52.3229 78.0469 50.4248 78.0469 48.1049C78.0469 45.785 79.9453 43.887 82.2656 43.887C84.5859 43.887 86.4844 45.785 86.4844 48.1049C86.4844 50.4248 84.5859 52.3229 82.2656 52.3229ZM82.2656 45.9959C81.1055 45.9959 80.1562 46.945 80.1562 48.1049C80.1562 49.2649 81.1055 50.2139 82.2656 50.2139C83.4258 50.2139 84.375 49.2649 84.375 48.1049C84.375 46.945 83.4258 45.9959 82.2656 45.9959Z" fill="#3A3A43"/>
<path d="M54 31.6549C49.8867 31.6549 47.6719 23.5143 47.6719 15.8587C47.6719 15.2892 48.1359 14.8253 48.7055 14.8042C49.0852 14.8042 49.4437 14.7831 49.8234 14.7831H58.1766C58.5562 14.7831 58.9148 14.7831 59.2945 14.8042C59.8641 14.8253 60.3281 15.2892 60.3281 15.8587C60.3281 23.5143 58.1133 31.6549 54 31.6549ZM49.8023 16.8921C49.9922 24.6953 52.3547 29.5459 54 29.5459C55.6453 29.5459 58.0078 24.6953 58.1977 16.8921H58.1766H49.8234C49.8023 16.8921 49.8023 16.8921 49.8023 16.8921Z" fill="#3A3A43"/>
<path d="M55.7297 108H52.3125V105.891H55.7297C63.4289 105.891 70.9594 104.52 78.1734 101.821C94.7531 95.6203 105.891 79.5498 105.891 61.8555C105.891 51.88 102.368 42.1576 95.9766 34.502C95.6813 34.1435 95.6602 33.6373 95.8922 33.2577L96.8203 31.8236C102.41 23.1768 105.511 13.2435 105.87 2.99387L103.971 4.13271C101.756 5.48246 99.4992 6.70567 97.3055 7.80234L96.3773 5.90426C98.5289 4.84977 100.723 3.62656 102.895 2.31899L106.418 0.188923C106.734 -0.000885174 107.156 -0.021975 107.473 0.167833C107.789 0.336552 108 0.695078 108 1.07469C108 12.3999 104.752 23.4299 98.5922 32.9414L98.0859 33.7217C104.498 41.6726 108 51.6269 108 61.8344C108 71.0085 105.237 79.824 100.005 87.3531C94.7742 94.8821 87.4758 100.576 78.8906 103.782C71.4656 106.587 63.6609 108 55.7297 108Z" fill="#3A3A43"/>
<path d="M26.9789 102.938C10.5891 95.8522 0 79.7185 0 61.8555C0 51.648 3.52266 41.6936 9.91406 33.7428L9.40781 32.9624C3.24844 23.4299 0 12.3999 0 1.07467C0 0.695056 0.210938 0.336529 0.527344 0.146721C0.864844 -0.0430872 1.26562 -0.0430872 1.58203 0.167811L5.10469 2.29788C18.6047 10.4596 34.0664 14.783 49.8234 14.783H58.1766H59.2523L59.2734 16.892C58.9148 16.892 58.5352 16.892 58.1766 16.892H49.8234C33.6867 16.892 17.8453 12.4632 4.02891 4.1116L2.13047 2.97275C2.46797 13.2224 5.56875 23.1557 11.1797 31.8025L12.1078 33.2366C12.3609 33.6162 12.3188 34.1224 12.0234 34.4809C5.63203 42.1365 2.10938 51.8589 2.10938 61.8344C2.10938 78.8539 12.1922 94.2283 27.8016 100.998L26.9789 102.938Z" fill="#3A3A43"/>
<path d="M11.2219 34.8605C11.2008 34.8605 11.1797 34.8605 11.1586 34.8605C10.8211 34.8394 10.5258 34.6707 10.3359 34.3755L9.40781 32.9414C3.24844 23.4299 0 12.3999 0 1.07469C0 0.61071 0.316406 0.188914 0.759375 0.0623753C1.20234 -0.0641634 1.6875 0.104555 1.94062 0.505261C7.69922 9.34189 15.1031 16.7233 23.9625 22.4387C24.2578 22.6285 24.4477 22.9659 24.4477 23.3455C24.4477 23.704 24.2578 24.0415 23.9414 24.2313C19.7437 26.8042 15.968 29.9888 12.7195 33.7006C12.5086 33.9537 12.2766 34.2068 12.0234 34.5231C11.8336 34.734 11.5383 34.8605 11.2219 34.8605ZM2.21484 4.63886C2.82656 14.298 5.88516 23.6197 11.1797 31.8025L11.3484 32.0556C14.3227 28.7023 17.7188 25.7708 21.4734 23.3033C13.943 18.2207 7.48828 11.957 2.21484 4.63886Z" fill="#3A3A43"/>
<path d="M96.7781 34.8605C96.4617 34.8605 96.1664 34.7129 95.9766 34.4809C95.7234 34.1856 95.4914 33.9115 95.2805 33.6584C93.6562 31.8025 91.8844 30.0731 89.9859 28.4914L91.3359 26.8675C93.2133 28.4492 95.0062 30.1997 96.6516 32.0345L96.8203 31.7814C102.115 23.5986 105.173 14.2769 105.785 4.61774C103.444 7.86557 100.828 10.9447 98.0016 13.7918L96.5039 12.3155C100.09 8.70916 103.296 4.74428 106.08 0.484143C106.334 0.0834368 106.819 -0.0852816 107.262 0.0412572C107.705 0.167796 108 0.610682 108 1.07466C108 12.3999 104.752 23.4298 98.5922 32.9413L97.6641 34.3754C97.4742 34.6496 97.1789 34.8394 96.8414 34.8605C96.8203 34.8605 96.7992 34.8605 96.7781 34.8605Z" fill="#3A3A43"/>
<path d="M43.4109 28.2805C42.2086 28.2805 40.8797 27.2682 39.4453 25.2858C38.0109 23.2822 36.5766 20.4773 35.4586 17.356C35.1633 16.5757 34.9102 15.7743 34.6781 14.9939L36.7031 14.3823C36.9352 15.1205 37.1672 15.8797 37.4414 16.6389C39.9094 23.4509 42.7781 26.2559 43.4531 26.1715C43.9594 25.8341 44.3813 22.291 42.2297 15.9219L44.2336 15.247C46.0266 20.5405 47.0813 27.0995 44.1703 28.154C43.8961 28.2383 43.6641 28.2805 43.4109 28.2805Z" fill="#3A3A43"/>
<path d="M76.997 16.8591C76.997 16.3958 77.0735 15.9904 77.2265 15.6429C77.3913 15.2838 77.5855 14.9826 77.8091 14.7394C78.0445 14.4962 78.3505 14.2066 78.7272 13.8707C79.198 13.4653 79.5452 13.1178 79.7688 12.8282C79.9924 12.527 80.1042 12.168 80.1042 11.751C80.1042 11.1834 79.8806 10.7317 79.4333 10.3958C78.9861 10.0483 78.3682 9.87454 77.5796 9.87454C76.2025 9.87454 75.1491 10.3321 74.4194 11.2471L73.1306 10.3437C73.6249 9.71817 74.2546 9.23747 75.0197 8.90157C75.7965 8.56566 76.691 8.39771 77.7032 8.39771C78.9861 8.39771 80.0042 8.6757 80.7575 9.23168C81.5107 9.77608 81.8874 10.529 81.8874 11.4904C81.8874 11.9653 81.805 12.3881 81.6402 12.7587C81.4872 13.1178 81.2989 13.4189 81.0752 13.6622C80.8516 13.9054 80.5515 14.195 80.1748 14.5309C79.6923 14.9595 79.3333 15.3359 79.0979 15.6603C78.8743 15.9846 78.7625 16.3842 78.7625 16.8591H76.997ZM77.8974 20.8031C77.5678 20.8031 77.2912 20.6989 77.0676 20.4904C76.8558 20.2703 76.7498 20.0039 76.7498 19.6911C76.7498 19.3784 76.8558 19.1178 77.0676 18.9093C77.2912 18.6892 77.5678 18.5792 77.8974 18.5792C78.2269 18.5792 78.4976 18.6892 78.7095 18.9093C78.9214 19.1178 79.0273 19.3784 79.0273 19.6911C79.0273 20.0039 78.9155 20.2703 78.6918 20.4904C78.48 20.6989 78.2152 20.8031 77.8974 20.8031Z" fill="#3A3A43"/>
</g>
<defs>
<clipPath id="clip0_1386_62649">
<rect width="108" height="108" fill="white"/>
</clipPath>
</defs>
</svg>
