<svg width="36" height="36" viewBox="0 0 36 36" fill="none" xmlns="http://www.w3.org/2000/svg">
<g clip-path="url(#clip0_3441_23525)">
<circle cx="6" cy="21" r="4" fill="#FAD0D3"/>
<circle cx="30" cy="21" r="4" fill="#FAD0D3"/>
<path d="M18 10.5469C16.6289 10.5469 15.8906 7.83281 15.8906 5.27344H16.5938C16.5938 8.06484 17.4234 9.84375 18 9.84375C18.5766 9.84375 19.4062 8.06484 19.4062 5.27344H20.1094C20.1094 7.83281 19.3711 10.5469 18 10.5469Z" fill="black"/>
<path d="M14.4701 9.42188C14.0693 9.42188 13.6263 9.08438 13.1482 8.42344C12.6701 7.75547 12.192 6.82031 11.8193 5.77969C11.7701 5.64609 11.7279 5.5125 11.6787 5.38594C11.6435 5.28047 11.6576 5.16094 11.7279 5.06953C11.7912 4.97812 11.8966 4.92188 12.0091 4.92188H12.0865H12.5435H14.4349C14.5896 4.92188 14.7232 5.02031 14.7654 5.16094C15.342 6.89063 15.6724 9.03516 14.7162 9.37969C14.6318 9.40781 14.5545 9.42188 14.4701 9.42188ZM12.5084 5.625C13.324 7.83281 14.2591 8.74688 14.4771 8.71875C14.6388 8.61328 14.7724 7.54453 14.1748 5.625H12.5435C12.5295 5.625 12.5154 5.625 12.5084 5.625Z" fill="black"/>
<path d="M21.5296 9.42188C21.4452 9.42188 21.3679 9.40781 21.2835 9.37969C20.3343 9.03516 20.6647 6.89063 21.2343 5.16094C21.2835 5.02031 21.4171 4.92188 21.5647 4.92188H23.4562H23.9132H23.9905C24.103 4.92188 24.2085 4.97812 24.2718 5.06953C24.3351 5.16094 24.3562 5.28047 24.321 5.38594C24.2788 5.51953 24.2296 5.65312 24.1804 5.77969C23.8007 6.82031 23.3296 7.75547 22.8515 8.42344C22.3733 9.09141 21.9304 9.42188 21.5296 9.42188ZM21.8249 5.625C21.2272 7.54453 21.3608 8.61328 21.5226 8.72578C21.7405 8.74687 22.6687 7.80469 23.4843 5.625C23.4772 5.625 23.4632 5.625 23.4562 5.625H21.8249Z" fill="black"/>
<path d="M18.5766 36H17.4305C14.7797 36 12.1852 35.5289 9.70312 34.6008C6.84141 33.532 4.40859 31.6336 2.66484 29.1234C0.921094 26.6133 0 23.6672 0 20.6156C0 17.2195 1.16719 13.9148 3.29062 11.2711L0.0703125 6.89062C0 6.79219 -0.0140625 6.67266 0.0210938 6.56016C0.05625 6.44766 0.154688 6.36328 0.274219 6.34219C4.28906 5.4 8.41641 4.92188 12.5367 4.92188H23.4633C27.5836 4.92188 31.7109 5.4 35.7258 6.33516C35.8383 6.36328 35.9367 6.44766 35.9789 6.55312C36.0211 6.65859 36 6.78516 35.9297 6.88359L32.7094 11.2641C34.8328 13.9078 36 17.2195 36 20.6086C36 23.6672 35.0789 26.6063 33.3352 29.1164C31.5914 31.6266 29.1586 33.525 26.2969 34.5938C23.8219 35.5289 21.2203 36 18.5766 36ZM0.949219 6.90469L4.01484 11.0742C4.11328 11.2078 4.10625 11.3836 4.00078 11.5102C1.87734 14.0555 0.703125 17.2898 0.703125 20.6156C0.703125 26.5219 4.41563 31.8727 9.94922 33.9469C12.3469 34.8469 14.8641 35.3039 17.4305 35.3039H18.5766C21.143 35.3039 23.6531 34.8469 26.0578 33.9469C31.5844 31.8727 35.2969 26.5148 35.2969 20.6156C35.2969 17.2898 34.1227 14.0555 31.9992 11.5031C31.8938 11.3766 31.8937 11.2008 31.9852 11.0672L35.0508 6.89766C31.2469 6.05391 27.3516 5.625 23.4633 5.625H12.5367C8.64844 5.625 4.75312 6.05391 0.949219 6.90469Z" fill="black"/>
<path d="M3.73379 11.6297C3.72676 11.6297 3.72676 11.6297 3.71973 11.6297C3.61426 11.6297 3.50879 11.5735 3.44551 11.4891L0.0705078 6.89065C-0.0208984 6.76409 -0.0208984 6.60237 0.0705078 6.47581C0.161914 6.34924 0.316602 6.30003 0.464258 6.34925L6.58145 8.34612C6.70801 8.38831 6.79941 8.49378 6.82051 8.62034C6.8416 8.7469 6.79238 8.88049 6.68691 8.95784C5.80098 9.62581 4.97832 10.3922 4.2541 11.2219C4.17676 11.3063 4.09941 11.3977 4.01504 11.5032C3.9377 11.5805 3.83926 11.6297 3.73379 11.6297ZM1.28691 7.35471L3.75488 10.7157C4.35957 10.0336 5.02051 9.39378 5.73066 8.81018L1.28691 7.35471Z" fill="black"/>
<path d="M32.2664 11.6297C32.1609 11.6297 32.0625 11.5805 31.9992 11.5031C31.9078 11.3977 31.8305 11.3063 31.7602 11.2219C31.0289 10.3922 30.2133 9.63282 29.3274 8.95782C29.2219 8.88047 29.1727 8.74688 29.1938 8.62032C29.2149 8.49376 29.3063 8.38829 29.4328 8.3461L35.55 6.34922C35.6977 6.30001 35.8524 6.35626 35.9438 6.47579C36.0352 6.59532 36.0352 6.76407 35.9438 6.89063L32.5617 11.4891C32.4984 11.5734 32.4 11.6297 32.2875 11.6297C32.2734 11.6297 32.2734 11.6297 32.2664 11.6297ZM30.2695 8.81016C30.9797 9.39376 31.6477 10.0336 32.2453 10.7156L34.7133 7.35469L30.2695 8.81016Z" fill="black"/>
<path d="M17.6484 19.6875H18.3516V22.5H17.6484V19.6875Z" fill="black"/>
<path d="M8.91943 22.0968L9.09029 22.7788L6.28032 23.4828L6.10946 22.8007L8.91943 22.0968Z" fill="black"/>
<path d="M6.26367 19.9794L9.07364 20.6834L8.90278 21.3654L6.09281 20.6615L6.26367 19.9794Z" fill="black"/>
<path d="M29.7407 19.9838L29.9116 20.6659L27.1016 21.3698L26.9308 20.6878L29.7407 19.9838Z" fill="black"/>
<path d="M27.0723 22.0982L29.8822 22.8021L29.7114 23.4842L26.9014 22.7802L27.0723 22.0982Z" fill="black"/>
<path d="M18 20.0391C17.9086 20.0391 17.8172 20.0039 17.7539 19.9336L16.6359 18.8156C16.3828 18.5625 16.2422 18.225 16.2422 17.8664C16.2422 17.1211 16.8469 16.5234 17.5852 16.5234H18.4078C19.1531 16.5234 19.7508 17.1281 19.7508 17.8664C19.7508 18.225 19.6102 18.5625 19.357 18.8156L18.2391 19.9336C18.1828 20.0039 18.0914 20.0391 18 20.0391ZM17.5852 17.2266C17.2336 17.2266 16.9453 17.5148 16.9453 17.8664C16.9453 18.0352 17.0156 18.1969 17.1352 18.3234L18 19.1883L18.8648 18.3234C18.9844 18.2039 19.0547 18.0422 19.0547 17.8664C19.0547 17.5148 18.7664 17.2266 18.4148 17.2266H17.5852Z" fill="black"/>
<path d="M22.5703 26.2969L18 22.936L13.4297 26.2969L13.0078 25.7344L17.7891 22.2188C17.9156 22.1274 18.0844 22.1274 18.2039 22.2188L22.9852 25.7344L22.5703 26.2969Z" fill="black"/>
<path d="M12.0938 14.4141V13.711C12.9094 13.711 13.6688 13.3945 14.2453 12.818L14.6602 12.4031L15.1594 12.9024L14.7445 13.3172C14.0344 14.0274 13.0922 14.4141 12.0938 14.4141Z" fill="black"/>
<path d="M23.9064 14.4141C22.908 14.4141 21.9658 14.0274 21.2557 13.3172L20.8408 12.9024L21.34 12.4031L21.7549 12.818C22.3314 13.3945 23.0908 13.711 23.9064 13.711V14.4141Z" fill="black"/>
<path d="M12.7969 15.4688H14.2031V18.2812H12.7969V15.4688Z" fill="black"/>
<path d="M21.7969 15.4688H23.2031V18.2812H21.7969V15.4688Z" fill="black"/>
</g>
<defs>
<clipPath id="clip0_3441_23525">
<rect width="36" height="36" fill="white"/>
</clipPath>
</defs>
</svg>
