<svg width="28" height="28" viewBox="0 0 28 28" fill="none" xmlns="http://www.w3.org/2000/svg">
<g clip-path="url(#clip0_3783_28520)">
<path d="M23.7217 0.322981C23.4469 0.0939936 22.966 -0.123544 22.4966 0.0825442C21.6036 0.689361 25.6337 3.17387 23.5957 11.4861C23.1721 13.2035 22.1302 12.3105 20.8937 11.9326C18.0772 11.051 15.066 10.8564 12.1464 10.5473C11.1159 10.4328 10.0626 10.3526 9.0665 10.0778C8.01316 9.79161 7.96736 9.73436 8.2307 8.77261C8.96346 7.84522 8.66577 6.57434 8.63143 6.04766C9.181 4.83403 9.38708 3.78069 8.95201 3.24257C7.77272 1.84575 7.57808 5.46375 6.04387 5.4752C5.34546 5.4065 4.88748 5.46375 4.71574 5.08592C4.40661 4.4333 3.92574 3.58605 3.30747 3.18532C2.35717 2.55561 2.16253 4.29591 2.56326 5.94462C2.43732 6.95217 2.52891 7.63913 3.04413 8.37189C3.30747 8.73827 3.36472 9.19624 3.44486 9.63132C3.5937 10.387 3.6853 11.3258 3.6853 12.0929C3.6853 12.528 3.76544 13.879 3.83414 14.3141C4.15472 16.2834 4.25777 16.6727 5.73474 18.1153C6.353 18.7221 7.29185 19.2488 7.68113 20.0617C7.96736 20.68 8.21925 21.3555 8.48258 21.9737C8.99781 23.1645 9.31839 24.3781 9.53593 25.649C9.66187 26.3359 8.02461 26.4848 8.29939 27.4351C8.51693 28.2136 10.6007 28.2022 10.7267 27.3091C10.8068 26.8054 11.0472 25.8894 11.1617 25.191C11.7686 22.5691 10.8755 21.5501 11.5739 19.1686C11.7571 18.3099 15.1118 19.9701 15.5697 20.2792C16.4971 20.9089 17.4932 21.4127 18.4321 22.0195C19.8862 22.9584 18.8786 23.7827 17.9398 24.5498C17.436 24.962 17.436 24.9849 16.7948 24.8361C16.2682 24.733 15.856 25.0536 15.7415 25.4314C15.5697 25.9696 16.3483 26.3359 16.8864 26.2672C18.5008 26.0955 20.7334 24.4124 21.4318 22.9584C21.9012 23.5079 21.7066 24.0232 21.4433 24.7216C21.3288 25.0193 21.2028 25.3055 21.0998 25.6032C20.8708 26.2787 20.6533 26.0955 20.1037 26.2215C19.2908 26.4848 19.6572 27.6755 20.5502 27.5381C20.8594 27.4923 22.0272 27.3549 22.1531 26.8168C22.2104 26.5764 22.4508 26.0841 22.5653 25.8436C22.8172 25.2483 24.214 22.134 23.5957 21.5387C23.2752 21.241 23.0233 20.9318 22.7828 20.5655C22.405 19.9701 22.5768 19.9014 22.9088 19.3976C23.2523 18.871 23.5614 18.2527 23.8591 17.7031C24.5346 16.3979 24.0308 15.2759 24.6262 13.5356C26.4695 7.95971 25.5536 1.8572 23.7217 0.322981Z" fill="currentColor"/>
</g>
</svg>
