<svg width="60" height="60" viewBox="0 0 60 60" fill="none" xmlns="http://www.w3.org/2000/svg">
<circle cx="30" cy="30" r="27" fill="#F9DBC0" stroke="white" stroke-width="2"/>
<circle cx="30" cy="30" r="29" stroke="#D26925" stroke-width="2"/>
<g clip-path="url(#clip0_1199_46669)">
<path d="M39.7216 16.323C39.4468 16.094 38.9659 15.8764 38.4965 16.0825C37.6035 16.6893 41.6336 19.1739 39.5957 27.4861C39.172 29.2035 38.1301 28.3105 36.8936 27.9326C34.0771 27.051 31.0659 26.8564 28.1463 26.5473C27.1158 26.4328 26.0625 26.3526 25.0664 26.0778C24.0131 25.7916 23.9673 25.7343 24.2306 24.7726C24.9634 23.8452 24.6657 22.5743 24.6313 22.0476C25.1809 20.834 25.387 19.7807 24.9519 19.2426C23.7726 17.8457 23.578 21.4637 22.0438 21.4752C21.3454 21.4065 20.8874 21.4637 20.7157 21.0859C20.4065 20.4333 19.9256 19.586 19.3074 19.1853C18.3571 18.5556 18.1624 20.2959 18.5632 21.9446C18.4372 22.9521 18.5288 23.6391 19.044 24.3719C19.3074 24.7383 19.3646 25.1962 19.4448 25.6313C19.5936 26.387 19.6852 27.3258 19.6852 28.0929C19.6852 28.528 19.7654 29.879 19.834 30.3141C20.1546 32.2834 20.2577 32.6727 21.7346 34.1153C22.3529 34.7221 23.2918 35.2488 23.681 36.0617C23.9673 36.6799 24.2192 37.3555 24.4825 37.9737C24.9977 39.1645 25.3183 40.3781 25.5358 41.649C25.6618 42.3359 24.0245 42.4848 24.2993 43.4351C24.5168 44.2136 26.6006 44.2022 26.7266 43.3091C26.8067 42.8054 27.0472 41.8894 27.1616 41.191C27.7685 38.5691 26.8754 37.5501 27.5738 35.1686C27.757 34.3099 31.1117 35.9701 31.5697 36.2792C32.4971 36.9089 33.4931 37.4127 34.432 38.0195C35.8861 38.9584 34.8785 39.7827 33.9397 40.5498C33.4359 40.962 33.4359 40.9849 32.7947 40.8361C32.2681 40.733 31.8559 41.0536 31.7414 41.4314C31.5697 41.9695 32.3482 42.3359 32.8863 42.2672C34.5007 42.0955 36.7333 40.4124 37.4317 38.9584C37.9011 39.5079 37.7065 40.0232 37.4432 40.7216C37.3287 41.0193 37.2027 41.3055 37.0997 41.6032C36.8707 42.2787 36.6532 42.0955 36.1036 42.2214C35.2907 42.4848 35.6571 43.6755 36.5501 43.5381C36.8593 43.4923 38.0271 43.3549 38.153 42.8168C38.2103 42.5764 38.4507 42.084 38.5652 41.8436C38.8171 41.2482 40.2139 38.134 39.5957 37.5386C39.2751 37.241 39.0232 36.9318 38.7828 36.5654C38.4049 35.9701 38.5767 35.9014 38.9087 35.3976C39.2522 34.8709 39.5613 34.2527 39.859 33.7031C40.5345 32.3979 40.0307 31.2758 40.6261 29.5355C42.4694 23.9597 41.5535 17.8572 39.7216 16.323Z" fill="#D26925"/>
</g>
<defs>
<clipPath id="clip0_1199_46669">
<rect width="28" height="28" fill="white" transform="translate(16 16)"/>
</clipPath>
</defs>
</svg>
