<svg width="36" height="36" viewBox="0 0 36 36" fill="none" xmlns="http://www.w3.org/2000/svg">
<path d="M26.7701 32.4643H9.44194C9.10234 32.4665 8.76819 32.379 8.47327 32.2106C8.17834 32.0422 7.93311 31.799 7.76236 31.5054C7.59161 31.2119 7.5014 30.8784 7.50086 30.5388C7.50031 30.1992 7.58945 29.8655 7.75926 29.5714L14.625 17.6577V8.29446C14.1718 8.17602 13.7771 7.89667 13.5148 7.50857C13.2525 7.12047 13.1404 6.65017 13.1994 6.18546C13.2585 5.72076 13.4846 5.29344 13.8357 4.98328C14.1867 4.67312 14.6387 4.50134 15.1071 4.5H20.8928C21.3613 4.50134 21.8132 4.67312 22.1643 4.98328C22.5153 5.29344 22.7415 5.72076 22.8005 6.18546C22.8596 6.65017 22.7475 7.12047 22.4851 7.50857C22.2228 7.89667 21.8282 8.17602 21.375 8.29446V17.2864L28.4576 29.5714C28.6277 29.8659 28.7168 30.2001 28.7161 30.5401C28.7153 30.8801 28.6247 31.2139 28.4534 31.5075C28.282 31.8012 28.0361 32.0444 27.7405 32.2124C27.4449 32.3805 27.1101 32.4673 26.7701 32.4643ZM15.1071 5.46429C14.8514 5.46429 14.6061 5.56588 14.4253 5.74672C14.2444 5.92756 14.1428 6.17283 14.1428 6.42857C14.1428 6.68432 14.2444 6.92959 14.4253 7.11042C14.6061 7.29126 14.8514 7.39286 15.1071 7.39286C15.235 7.39286 15.3576 7.44365 15.448 7.53407C15.5385 7.62449 15.5893 7.74713 15.5893 7.875V17.7879C15.5886 17.8722 15.567 17.955 15.5266 18.0289L8.59819 30.0536C8.51318 30.2008 8.4686 30.3679 8.46898 30.5379C8.46935 30.7079 8.51467 30.8748 8.60033 31.0216C8.68599 31.1685 8.80895 31.2901 8.95675 31.3741C9.10455 31.4581 9.27194 31.5015 9.44194 31.5H26.7701C26.9426 31.5068 27.1137 31.4672 27.2656 31.3854C27.4175 31.3035 27.5447 31.1824 27.6338 31.0346C27.723 30.8869 27.7708 30.7179 27.7724 30.5453C27.774 30.3728 27.7292 30.2029 27.6428 30.0536L20.4734 17.6577C20.4329 17.5837 20.4114 17.5009 20.4107 17.4166V7.875C20.4107 7.74713 20.4615 7.62449 20.5519 7.53407C20.6423 7.44365 20.765 7.39286 20.8928 7.39286C21.1486 7.39286 21.3938 7.29126 21.5747 7.11042C21.7555 6.92959 21.8571 6.68432 21.8571 6.42857C21.8571 6.17283 21.7555 5.92756 21.5747 5.74672C21.3938 5.56588 21.1486 5.46429 20.8928 5.46429H15.1071Z" fill="currentColor"/>
<path d="M25.883 30.5358H10.5027C10.4177 30.5361 10.3342 30.514 10.2605 30.4717C10.1869 30.4294 10.1257 30.3683 10.0832 30.2947C10.0409 30.2214 10.0186 30.1383 10.0186 30.0537C10.0186 29.969 10.0409 29.8859 10.0832 29.8126L14.4852 22.1899C14.5085 22.1489 14.5378 22.1115 14.572 22.079C15.2614 21.4378 16.9345 20.594 18.3423 21.9971C19.5718 23.2265 21.7173 22.6238 21.7173 22.6142C21.8212 22.5835 21.9324 22.5887 22.033 22.6289C22.1336 22.6691 22.2177 22.7421 22.2718 22.836L26.2977 29.8126C26.3399 29.8857 26.3621 29.9685 26.3623 30.0529C26.3624 30.1373 26.3404 30.2203 26.2984 30.2935C26.2564 30.3667 26.196 30.4276 26.1231 30.4701C26.0502 30.5126 25.9674 30.5353 25.883 30.5358ZM11.3368 29.5715H25.0441L21.6161 23.6267C20.8205 23.781 18.9402 23.9642 17.6577 22.6624C16.6645 21.6644 15.5314 22.5081 15.2807 22.7203L11.3368 29.5715Z" fill="currentColor"/>
</svg>
