<svg width="20" height="20" viewBox="0 0 20 20" fill="none" xmlns="http://www.w3.org/2000/svg">
<path d="M9.99984 18.9582C5.05817 18.9582 1.0415 14.9415 1.0415 9.99984C1.0415 5.05817 5.05817 1.0415 9.99984 1.0415C14.9415 1.0415 18.9582 5.05817 18.9582 9.99984C18.9582 14.9415 14.9415 18.9582 9.99984 18.9582ZM9.99984 2.2915C5.74984 2.2915 2.2915 5.74984 2.2915 9.99984C2.2915 14.2498 5.74984 17.7082 9.99984 17.7082C14.2498 17.7082 17.7082 14.2498 17.7082 9.99984C17.7082 5.74984 14.2498 2.2915 9.99984 2.2915Z" fill="currentColor"/>
<path d="M13.0919 13.275C12.9835 13.275 12.8752 13.25 12.7752 13.1833L10.1919 11.6416C9.55019 11.2583 9.0752 10.4166 9.0752 9.67497V6.2583C9.0752 5.91663 9.35853 5.6333 9.7002 5.6333C10.0419 5.6333 10.3252 5.91663 10.3252 6.2583V9.67497C10.3252 9.97497 10.5752 10.4166 10.8335 10.5666L13.4169 12.1083C13.7169 12.2833 13.8085 12.6666 13.6335 12.9666C13.5085 13.1666 13.3002 13.275 13.0919 13.275Z" fill="currentColor"/>
</svg>
