<svg width="20" height="20" viewBox="0 0 20 20" fill="none" xmlns="http://www.w3.org/2000/svg">
<path d="M14.1667 17.5337H5.83333C3.19166 17.5337 1.04166 15.3837 1.04166 12.742V4.75866C1.04166 3.67533 1.54166 3.30033 1.84166 3.17533C2.14166 3.05033 2.75833 2.95866 3.525 3.72533L5.68333 5.88366C5.76666 5.96699 5.9 5.96699 5.975 5.88366L8.96666 2.89199C9.51666 2.34199 10.4833 2.34199 11.025 2.89199L14.0167 5.88366C14.1 5.96699 14.2333 5.96699 14.3083 5.88366L16.4667 3.72533C17.2333 2.95866 17.85 3.05866 18.15 3.17533C18.45 3.30033 18.95 3.66699 18.95 4.75866V12.7503C18.9583 15.6087 17.0333 17.5337 14.1667 17.5337ZM2.34166 4.36699C2.31666 4.43366 2.29166 4.55866 2.29166 4.75866V12.7503C2.29166 14.7003 3.88333 16.292 5.83333 16.292H14.1667C16.3167 16.292 17.7083 14.9003 17.7083 12.7503V4.75866C17.7083 4.55866 17.6833 4.44199 17.6583 4.37533C17.5917 4.40866 17.4917 4.47533 17.35 4.61699L15.1917 6.77533C14.6417 7.32533 13.675 7.32533 13.1333 6.77533L10.1417 3.78366C10.0583 3.70033 9.925 3.70033 9.85 3.78366L6.86666 6.76699C6.31666 7.31699 5.35 7.31699 4.80833 6.76699L2.65 4.60866C2.50833 4.46699 2.4 4.40033 2.34166 4.36699Z" fill="currentColor"/>
</svg>
