<svg width="28" height="28" viewBox="0 0 28 28" fill="none" xmlns="http://www.w3.org/2000/svg">
<path d="M14.1748 22.575C13.6965 22.575 13.2998 22.1783 13.2998 21.7V19.25C13.2998 18.7717 13.6965 18.375 14.1748 18.375C14.6531 18.375 15.0498 18.7717 15.0498 19.25V21.7C15.0498 22.1783 14.6531 22.575 14.1748 22.575Z" fill="currentColor"/>
<path d="M20.8835 26.5417H7.4668V24.5001C7.4668 22.7267 8.9018 21.2917 10.6751 21.2917H17.6751C19.4485 21.2917 20.8835 22.7267 20.8835 24.5001V26.5417ZM9.2168 24.7917H19.1335V24.5001C19.1335 23.6951 18.4801 23.0417 17.6751 23.0417H10.6751C9.87013 23.0417 9.2168 23.6951 9.2168 24.5001V24.7917Z" fill="currentColor"/>
<path d="M21.1748 26.5417H7.1748C6.69647 26.5417 6.2998 26.1451 6.2998 25.6667C6.2998 25.1884 6.69647 24.7917 7.1748 24.7917H21.1748C21.6531 24.7917 22.0498 25.1884 22.0498 25.6667C22.0498 26.1451 21.6531 26.5417 21.1748 26.5417Z" fill="currentColor"/>
<path d="M21.5018 14.5133C21.2568 14.5133 21.0118 14.4083 20.8368 14.21C20.6152 13.9533 20.5568 13.5917 20.6968 13.2883C21.0935 12.3783 21.2918 11.41 21.2918 10.395V6.89499C21.2918 6.48665 21.2218 6.08999 21.0818 5.66999C21.0702 5.63499 21.0585 5.58832 21.0468 5.54165C21.0118 5.36665 21.0002 5.19165 21.0002 5.02832C21.0002 4.54999 21.3968 4.15332 21.8752 4.15332H22.5752C24.6635 4.15332 26.3668 5.90332 26.3668 8.06165C26.3668 9.84665 25.6318 11.6083 24.3602 12.88C24.3368 12.9033 24.2668 12.9617 24.2552 12.9733C23.5668 13.545 22.7852 14.1867 21.7352 14.4783C21.6535 14.5017 21.5835 14.5133 21.5018 14.5133ZM22.9602 5.93832C23.0185 6.25332 23.0418 6.57999 23.0418 6.89499V10.395C23.0418 10.8733 23.0068 11.3283 22.9368 11.795C23.0068 11.7367 23.0652 11.69 23.1352 11.6317C24.0685 10.6983 24.6168 9.39165 24.6168 8.06165C24.6168 7.01165 23.9052 6.12499 22.9602 5.93832Z" fill="currentColor"/>
<path d="M6.50997 14.4666C6.41663 14.4666 6.33497 14.455 6.24163 14.42C5.28497 14.1166 4.38663 13.5566 3.63997 12.81C2.2983 11.3283 1.6333 9.70662 1.6333 7.99162C1.6333 5.86828 3.30163 4.19995 5.42497 4.19995H6.1833C6.47497 4.19995 6.75497 4.35162 6.9183 4.59662C7.08163 4.84162 7.10497 5.15662 6.9883 5.42495C6.80163 5.84495 6.7083 6.32328 6.7083 6.82495V10.325C6.7083 11.3283 6.90663 12.3083 7.31497 13.2416C7.45497 13.5566 7.38497 13.9183 7.1633 14.1749C6.9883 14.3616 6.75497 14.4666 6.50997 14.4666ZM5.01663 5.98495C4.07163 6.17162 3.3833 6.98828 3.3833 7.99162C3.3833 9.26328 3.89663 10.4883 4.91163 11.6083C4.9583 11.6666 5.01663 11.7133 5.07497 11.76C4.9933 11.2816 4.9583 10.8033 4.9583 10.325V6.82495C4.9583 6.54495 4.98163 6.26495 5.01663 5.98495Z" fill="currentColor"/>
<path d="M14.0002 19.5416C9.0185 19.5416 4.9585 15.4816 4.9585 10.4999V6.99992C4.9585 3.94325 7.4435 1.45825 10.5002 1.45825H17.5002C20.5568 1.45825 23.0418 3.94325 23.0418 6.99992V10.4999C23.0418 15.4816 18.9818 19.5416 14.0002 19.5416ZM10.5002 3.20825C8.41183 3.20825 6.7085 4.91159 6.7085 6.99992V10.4999C6.7085 14.5249 9.97516 17.7916 14.0002 17.7916C18.0252 17.7916 21.2918 14.5249 21.2918 10.4999V6.99992C21.2918 4.91159 19.5885 3.20825 17.5002 3.20825H10.5002Z" fill="currentColor"/>
</svg>
