<svg width="36" height="36" viewBox="0 0 36 36" fill="none" xmlns="http://www.w3.org/2000/svg">
<path d="M28.6875 6.75H23.0625V5.625C23.0625 5.47582 23.0032 5.33274 22.8977 5.22725C22.7923 5.12176 22.6492 5.0625 22.5 5.0625H20.25V3.375C20.25 2.77826 20.0129 2.20597 19.591 1.78401C19.169 1.36205 18.5967 1.125 18 1.125C17.4033 1.125 16.831 1.36205 16.409 1.78401C15.9871 2.20597 15.75 2.77826 15.75 3.375V5.0625H13.5C13.3508 5.0625 13.2077 5.12176 13.1023 5.22725C12.9968 5.33274 12.9375 5.47582 12.9375 5.625V6.75H7.3125C7.16332 6.75 7.02024 6.80926 6.91475 6.91475C6.80926 7.02024 6.75 7.16332 6.75 7.3125V33.75C6.75 33.8992 6.80926 34.0423 6.91475 34.1477C7.02024 34.2532 7.16332 34.3125 7.3125 34.3125H28.6875C28.8367 34.3125 28.9798 34.2532 29.0852 34.1477C29.1907 34.0423 29.25 33.8992 29.25 33.75V7.3125C29.25 7.16332 29.1907 7.02024 29.0852 6.91475C28.9798 6.80926 28.8367 6.75 28.6875 6.75ZM13.5 12.375H22.5C22.6492 12.375 22.7923 12.3157 22.8977 12.2102C23.0032 12.1048 23.0625 11.9617 23.0625 11.8125V10.125H25.875V30.9375H10.125V10.125H12.9375V11.8125C12.9375 11.9617 12.9968 12.1048 13.1023 12.2102C13.2077 12.3157 13.3508 12.375 13.5 12.375ZM16.875 3.375C16.875 3.07663 16.9935 2.79048 17.2045 2.5795C17.4155 2.36853 17.7016 2.25 18 2.25C18.2984 2.25 18.5845 2.36853 18.7955 2.5795C19.0065 2.79048 19.125 3.07663 19.125 3.375V5.0625H16.875V3.375ZM14.0625 6.1875H21.9375V11.25H14.0625V6.1875ZM28.125 33.1875H7.875V7.875H12.9375V9H9.5625C9.41332 9 9.27024 9.05926 9.16475 9.16475C9.05926 9.27024 9 9.41332 9 9.5625V31.5C9 31.6492 9.05926 31.7923 9.16475 31.8977C9.27024 32.0032 9.41332 32.0625 9.5625 32.0625H26.4375C26.5867 32.0625 26.7298 32.0032 26.8352 31.8977C26.9407 31.7923 27 31.6492 27 31.5V9.5625C27 9.41332 26.9407 9.27024 26.8352 9.16475C26.7298 9.05926 26.5867 9 26.4375 9H23.0625V7.875H28.125V33.1875Z" fill="currentColor"/>
<path d="M17.6006 23.4572C17.6532 23.5093 17.7155 23.5506 17.784 23.5786C17.8526 23.6066 17.926 23.6208 18 23.6203H18.0619C18.1463 23.6114 18.2276 23.5835 18.2996 23.5387C18.3717 23.4939 18.4327 23.4333 18.4781 23.3616L21.2906 18.8616C21.3298 18.7988 21.3562 18.7289 21.3683 18.6559C21.3804 18.5829 21.3781 18.5083 21.3614 18.4362C21.3447 18.3641 21.3139 18.296 21.2709 18.2358C21.2279 18.1756 21.1734 18.1245 21.1106 18.0853C21.0478 18.0462 20.9779 18.0198 20.9049 18.0076C20.832 17.9955 20.7573 17.9978 20.6852 18.0146C20.6131 18.0313 20.545 18.062 20.4848 18.1051C20.4246 18.1481 20.3735 18.2025 20.3344 18.2653L17.8987 22.1578L16.7119 20.971C16.6594 20.9185 16.5971 20.8769 16.5286 20.8485C16.4601 20.8201 16.3867 20.8055 16.3125 20.8055C16.2383 20.8055 16.1649 20.8201 16.0963 20.8485C16.0278 20.8769 15.9656 20.9185 15.9131 20.971C15.8607 21.0234 15.8191 21.0857 15.7907 21.1542C15.7623 21.2227 15.7477 21.2962 15.7477 21.3703C15.7477 21.4445 15.7623 21.5179 15.7907 21.5865C15.8191 21.655 15.8607 21.7173 15.9131 21.7697L17.6006 23.4572Z" fill="currentColor"/>
</svg>
