<svg width="36" height="36" viewBox="0 0 36 36" fill="none" xmlns="http://www.w3.org/2000/svg">
<path d="M34.3125 19.6875C34.3128 18.3908 33.865 17.1338 33.045 16.1292C32.2249 15.1247 31.083 14.4343 29.8125 14.175V5.625C29.8125 5.47582 29.7532 5.33274 29.6477 5.22725C29.5423 5.12176 29.3992 5.0625 29.25 5.0625H2.25C2.10082 5.0625 1.95774 5.12176 1.85225 5.22725C1.74676 5.33274 1.6875 5.47582 1.6875 5.625V25.875C1.6875 26.0242 1.74676 26.1673 1.85225 26.2727C1.95774 26.3782 2.10082 26.4375 2.25 26.4375H24.75V30.9375C24.7503 31.0393 24.7781 31.139 24.8306 31.2262C24.8831 31.3134 24.9583 31.3847 25.0481 31.4325C25.1361 31.4777 25.2344 31.4988 25.3331 31.4939C25.4319 31.489 25.5276 31.4581 25.6106 31.4044L28.6875 29.3625L31.7531 31.4044C31.8377 31.4601 31.9358 31.4919 32.037 31.4965C32.1382 31.5011 32.2387 31.4783 32.328 31.4305C32.4173 31.3827 32.4921 31.3116 32.5443 31.2248C32.5966 31.1381 32.6245 31.0388 32.625 30.9375V23.6981C33.1585 23.1752 33.5825 22.5512 33.8722 21.8626C34.162 21.174 34.3116 20.4346 34.3125 19.6875ZM33.1875 19.6875C33.1875 20.5775 32.9236 21.4475 32.4291 22.1876C31.9346 22.9276 31.2318 23.5044 30.4096 23.845C29.5873 24.1856 28.6825 24.2747 27.8096 24.101C26.9367 23.9274 26.1349 23.4988 25.5055 22.8695C24.8762 22.2401 24.4476 21.4383 24.274 20.5654C24.1003 19.6925 24.1894 18.7877 24.53 17.9654C24.8706 17.1432 25.4474 16.4404 26.1874 15.9459C26.9275 15.4514 27.7975 15.1875 28.6875 15.1875C29.881 15.1875 31.0256 15.6616 31.8695 16.5055C32.7134 17.3494 33.1875 18.494 33.1875 19.6875ZM25.875 14.8219C24.5856 15.5687 23.6452 16.7967 23.2602 18.2363C22.8753 19.6758 23.0773 21.2092 23.8219 22.5H5.625V9H25.875V14.8219ZM2.8125 25.3125V6.1875H28.6875V14.0625C28.1151 14.0624 27.5461 14.1496 27 14.3212V8.4375C27 8.28832 26.9407 8.14524 26.8352 8.03975C26.7298 7.93426 26.5867 7.875 26.4375 7.875H5.0625C4.91332 7.875 4.77024 7.93426 4.66475 8.03975C4.55926 8.14524 4.5 8.28832 4.5 8.4375V23.0625C4.5 23.2117 4.55926 23.3548 4.66475 23.4602C4.77024 23.5657 4.91332 23.625 5.0625 23.625H24.6769L24.75 23.6981V25.3125H2.8125ZM31.5 29.8856L28.9969 28.1981C28.905 28.1376 28.7975 28.1054 28.6875 28.1054C28.5775 28.1054 28.47 28.1376 28.3781 28.1981L25.875 29.8856V24.5531C26.7288 25.0507 27.6993 25.3129 28.6875 25.3129C29.6757 25.3129 30.6462 25.0507 31.5 24.5531V29.8856Z" fill="currentColor"/>
<path d="M7.875 16.3125H23.0625C23.2117 16.3125 23.3548 16.2532 23.4602 16.1477C23.5657 16.0423 23.625 15.8992 23.625 15.75C23.625 15.6008 23.5657 15.4577 23.4602 15.3523C23.3548 15.2468 23.2117 15.1875 23.0625 15.1875H7.875C7.72582 15.1875 7.58274 15.2468 7.47725 15.3523C7.37176 15.4577 7.3125 15.6008 7.3125 15.75C7.3125 15.8992 7.37176 16.0423 7.47725 16.1477C7.58274 16.2532 7.72582 16.3125 7.875 16.3125Z" fill="currentColor"/>
<path d="M11.25 13.5H20.25C20.3992 13.5 20.5423 13.4407 20.6477 13.3352C20.7532 13.2298 20.8125 13.0867 20.8125 12.9375C20.8125 12.7883 20.7532 12.6452 20.6477 12.5398C20.5423 12.4343 20.3992 12.375 20.25 12.375H11.25C11.1008 12.375 10.9577 12.4343 10.8523 12.5398C10.7468 12.6452 10.6875 12.7883 10.6875 12.9375C10.6875 13.0867 10.7468 13.2298 10.8523 13.3352C10.9577 13.4407 11.1008 13.5 11.25 13.5Z" fill="currentColor"/>
</svg>
