<svg width="28" height="28" viewBox="0 0 28 28" fill="none" xmlns="http://www.w3.org/2000/svg">
<g clip-path="url(#clip0_3783_45507)">
<path d="M27.0556 6.44864L24.1965 5.29513C24.0219 4.37217 23.3205 3.63322 22.418 3.40387L22.2633 1.62212C22.2412 1.36797 22.0707 1.15102 21.829 1.06961C21.5871 0.988189 21.3201 1.05763 21.1488 1.2467L20.4008 2.0717L19.9418 0.4654C19.8654 0.19791 19.6252 0.0101246 19.3472 0.000428812C19.0693 -0.00819761 18.8166 0.161408 18.7217 0.423052L14.7624 11.3458C11.9142 12.0854 9.42716 13.9079 7.89957 16.3879C6.50038 18.6594 6.06578 21.2619 6.67583 23.7158C7.03237 25.15 7.70929 26.0951 8.40176 26.7147H7.85715C7.85202 26.7147 7.84689 26.7148 7.84175 26.7149C5.26559 26.7778 2.87821 25.3131 1.76341 22.9858C1.61034 22.6662 1.22715 22.5314 0.90754 22.6843C0.587935 22.8375 0.452978 23.2206 0.606115 23.5402C1.91148 26.2654 4.67536 28.0001 7.68448 28.0001C7.74451 28.0001 19.9346 28.0001 19.9346 28.0001C20.289 28.0001 20.5763 27.7128 20.5763 27.3584C20.5763 25.6313 19.1987 24.8441 17.9829 24.5551C18.5513 23.4468 18.6005 22.4721 18.536 21.8345L18.7037 21.8121L22.5494 27.7089C22.6679 27.8905 22.87 28 23.0869 28H25.4221C25.6557 28 25.871 27.873 25.9838 27.6684C26.0968 27.4639 26.0895 27.2141 25.9649 27.0164C25.9401 26.977 23.5291 23.149 22.233 21.0058V10.2245C22.4238 10.2465 22.6381 10.2575 22.8273 10.2575C24.6886 10.2575 26.4392 9.20738 27.3818 7.34536C27.3826 7.34386 27.4068 7.29339 27.4106 7.28369C27.5432 6.9551 27.3843 6.58117 27.0556 6.44864Z" fill="currentColor"/>
</g>
</svg>
