<svg width="60" height="60" viewBox="0 0 60 60" fill="none" xmlns="http://www.w3.org/2000/svg">
<circle cx="30" cy="30" r="27" fill="#D0EDFE" stroke="white" stroke-width="2"/>
<circle cx="30" cy="30" r="29" stroke="#3887B5" stroke-width="2"/>
<g clip-path="url(#clip0_2729_51347)">
<path d="M40.5127 22.4485L37.6535 21.295C37.479 20.3721 36.7776 19.6331 35.875 19.4038L35.7204 17.622C35.6983 17.3679 35.5277 17.1509 35.286 17.0695C35.0442 16.9881 34.7771 17.0575 34.6058 17.2466L33.8578 18.0716L33.3989 16.4653C33.3224 16.1978 33.0823 16.01 32.8042 16.0003C32.5263 15.9917 32.2736 16.1613 32.1787 16.4229L28.2194 27.3457C25.3712 28.0853 22.8842 29.9078 21.3566 32.3878C19.9574 34.6593 19.5228 37.2618 20.1329 39.7157C20.4894 41.1499 21.1663 42.0949 21.8588 42.7146H21.3142C21.3091 42.7146 21.3039 42.7147 21.2988 42.7148C18.7226 42.7776 16.3352 41.313 15.2204 38.9857C15.0674 38.6661 14.6842 38.5312 14.3646 38.6842C14.045 38.8374 13.91 39.2205 14.0631 39.5401C15.3685 42.2653 18.1324 44 21.1415 44C21.2015 44 33.3917 44 33.3917 44C33.7461 44 34.0333 43.7127 34.0333 43.3583C34.0333 41.6312 32.6557 40.844 31.4399 40.555C32.0084 39.4467 32.0575 38.472 31.993 37.8344L32.1607 37.812L36.0065 43.7088C36.125 43.8904 36.3271 43.9999 36.5439 43.9999H38.8791C39.1128 43.9999 39.328 43.8728 39.4409 43.6683C39.5538 43.4638 39.5465 43.214 39.422 43.0163C39.3972 42.9769 36.9862 39.1488 35.6901 37.0056V26.2244C35.8809 26.2464 36.0951 26.2574 36.2843 26.2574C38.1457 26.2574 39.8963 25.2073 40.8388 23.3452C40.8388 23.3452 40.8638 23.2933 40.8676 23.2836C41.0002 22.955 40.8413 22.5811 40.5127 22.4485Z" fill="#3887B5"/>
</g>
<defs>
<clipPath id="clip0_2729_51347">
<rect width="28" height="28" fill="white" transform="matrix(-1 0 0 1 44 16)"/>
</clipPath>
</defs>
</svg>
