<svg width="32" height="32" viewBox="0 0 32 32" fill="none" xmlns="http://www.w3.org/2000/svg">
<path d="M21.8326 15.4951C23.9242 15.4951 25.3359 16.9509 25.3359 19.1079C25.3359 21.0491 23.715 22.6667 21.519 22.6667C19.1137 22.6667 17.3359 20.7255 17.3359 17.7599C17.3359 11.0196 22.251 8.32353 25.3359 8V10.9657C23.2445 11.3431 20.8915 13.4461 20.7869 15.7647C20.8915 15.7108 21.3098 15.4951 21.8326 15.4951Z" fill="currentColor"/>
<path d="M11.1647 15.4951C13.2562 15.4951 14.668 16.9509 14.668 19.1079C14.668 21.0491 13.047 22.6667 10.851 22.6667C8.44574 22.6667 6.66797 20.7255 6.66797 17.7599C6.66797 11.0196 11.583 8.32353 14.668 8V10.9657C12.5765 11.3431 10.2235 13.4461 10.119 15.7647C10.2235 15.7108 10.6418 15.4951 11.1647 15.4951Z" fill="currentColor"/>
</svg>
