<svg width="32" height="32" viewBox="0 0 32 32" fill="none" xmlns="http://www.w3.org/2000/svg">
<circle cx="16" cy="16" r="16" fill="white"/>
<path d="M20.44 7.06909C18.63 7.06909 17.01 7.94767 16 9.2955C14.99 7.94767 13.37 7.06909 11.56 7.06909C8.49 7.06909 6 9.56507 6 12.6501C6 13.8382 6.19 14.9364 6.52 15.9548C8.1 20.9467 12.97 23.9319 15.38 24.7506C15.72 24.8704 16.28 24.8704 16.62 24.7506C19.03 23.9319 23.9 20.9467 25.48 15.9548C25.81 14.9364 26 13.8382 26 12.6501C26 9.56507 23.51 7.06909 20.44 7.06909Z" fill="#D82F49"/>
</svg>
