<svg width="32" height="32" viewBox="0 0 32 32" fill="none" xmlns="http://www.w3.org/2000/svg">
<circle cx="16" cy="16" r="16" fill=""/>
<path d="M20.44 7.06909C18.63 7.06909 17.01 7.94767 16 9.2955C14.99 7.94767 13.37 7.06909 11.56 7.06909C8.49 7.06909 6 9.56507 6 12.6501C6 13.8382 6.19 14.9364 6.52 15.9548C8.1 20.9467 12.97 23.9319 15.38 24.7506C15.72 24.8704 16.28 24.8704 16.62 24.7506C19.03 23.9319 23.9 20.9467 25.48 15.9548C25.81 14.9364 26 13.8382 26 12.6501C26 9.56507 23.51 7.06909 20.44 7.06909Z" fill="white"/>
<path d="M16 25.6501C15.69 25.6501 15.39 25.6101 15.14 25.5201C11.32 24.2101 5.25 19.5601 5.25 12.6901C5.25 9.1901 8.08 6.3501 11.56 6.3501C13.25 6.3501 14.83 7.0101 16 8.1901C17.17 7.0101 18.75 6.3501 20.44 6.3501C23.92 6.3501 26.75 9.2001 26.75 12.6901C26.75 19.5701 20.68 24.2101 16.86 25.5201C16.61 25.6101 16.31 25.6501 16 25.6501ZM11.56 7.8501C8.91 7.8501 6.75 10.0201 6.75 12.6901C6.75 19.5201 13.32 23.3201 15.63 24.1101C15.81 24.1701 16.2 24.1701 16.38 24.1101C18.68 23.3201 25.26 19.5301 25.26 12.6901C25.26 10.0201 23.1 7.8501 20.45 7.8501C18.93 7.8501 17.52 8.5601 16.61 9.7901C16.33 10.1701 15.69 10.1701 15.41 9.7901C14.48 8.5501 13.08 7.8501 11.56 7.8501Z" fill="currentColor"/>
</svg>
