<svg width="88" height="88" viewBox="0 0 88 88" fill="none" xmlns="http://www.w3.org/2000/svg">
<path d="M72.8061 28.875L56.1685 12.2375C55.9623 12.0313 55.6186 11.8938 55.3436 11.8938H31.3498C28.0498 11.8938 25.3686 14.575 25.3686 17.875V41.0438H15.3311C13.4061 41.0438 11.8936 42.5563 11.8936 44.4813V64.625C11.8936 66.55 13.4061 68.0625 15.3311 68.0625H25.4373V70.2625C25.4373 73.5625 28.1186 76.2438 31.4186 76.2438H67.3061C70.6061 76.2438 73.2873 73.5625 73.2873 70.2625V29.7688C73.1498 29.425 73.0123 29.0813 72.8061 28.875ZM56.5123 15.95C60.9123 20.35 64.6936 24.1313 69.0936 28.5313H60.0186C58.0936 28.5313 56.4436 26.95 56.4436 24.9563V15.95H56.5123ZM14.2998 64.5563V44.4125C14.2998 43.8625 14.7811 43.3813 15.3311 43.3813H56.5123C57.0623 43.3813 57.5435 43.8625 57.5435 44.4125V64.5563C57.5435 65.1063 57.0623 65.5876 56.5123 65.5876H15.3311C14.7123 65.5876 14.2998 65.1063 14.2998 64.5563ZM67.2373 73.7688H31.3498C29.4248 73.7688 27.7748 72.1875 27.7748 70.1938V67.9938H56.4436C58.3686 67.9938 59.8811 66.4813 59.8811 64.5563V44.4125C59.8811 42.4875 58.3686 40.975 56.4436 40.975H27.7748V17.8063C27.7748 15.8813 29.3561 14.2313 31.3498 14.2313H54.1061V24.9563C54.1061 28.2563 56.7873 30.9375 60.0873 30.9375H70.8123V70.1938C70.7436 72.1188 69.1623 73.7001 67.2373 73.7688Z" fill="currentColor"/>
<path d="M27.2761 49.5924V59.3924H25.0081V55.3744H20.5561V59.3924H18.2881V49.5924H20.5561V53.4564H25.0081V49.5924H27.2761Z" fill="currentColor"/>
<path d="M37.4627 57.5724V59.3924H29.8747V49.5924H37.2807V51.4124H32.1287V53.5404H36.6787V55.3044H32.1287V57.5724H37.4627Z" fill="currentColor"/>
<path d="M39.5473 49.5924H41.8153V59.3924H39.5473V49.5924Z" fill="currentColor"/>
<path d="M49.1111 59.5604C48.1124 59.5604 47.2071 59.3458 46.3951 58.9164C45.5924 58.4778 44.9577 57.8758 44.4911 57.1104C44.0337 56.3358 43.8051 55.4631 43.8051 54.4924C43.8051 53.5218 44.0337 52.6538 44.4911 51.8884C44.9577 51.1138 45.5924 50.5118 46.3951 50.0824C47.2071 49.6438 48.1171 49.4244 49.1251 49.4244C49.9744 49.4244 50.7397 49.5738 51.4211 49.8724C52.1117 50.1711 52.6904 50.6004 53.1571 51.1604L51.7011 52.5044C51.0384 51.7391 50.2171 51.3564 49.2371 51.3564C48.6304 51.3564 48.0891 51.4918 47.6131 51.7624C47.1371 52.0238 46.7637 52.3924 46.4931 52.8684C46.2317 53.3444 46.1011 53.8858 46.1011 54.4924C46.1011 55.0991 46.2317 55.6404 46.4931 56.1164C46.7637 56.5924 47.1371 56.9658 47.6131 57.2364C48.0891 57.4978 48.6304 57.6284 49.2371 57.6284C50.2171 57.6284 51.0384 57.2411 51.7011 56.4664L53.1571 57.8104C52.6904 58.3798 52.1117 58.8138 51.4211 59.1124C50.7304 59.4111 49.9604 59.5604 49.1111 59.5604Z" fill="currentColor"/>
</svg>
