<svg width="88" height="88" viewBox="0 0 88 88" fill="none" xmlns="http://www.w3.org/2000/svg">
<path d="M72.8061 28.875L56.1685 12.2375C55.9623 12.0313 55.6186 11.8938 55.3436 11.8938H31.3498C28.0498 11.8938 25.3686 14.575 25.3686 17.875V41.0438H15.3311C13.4061 41.0438 11.8936 42.5563 11.8936 44.4813V64.625C11.8936 66.55 13.4061 68.0625 15.3311 68.0625H25.4373V70.2625C25.4373 73.5625 28.1186 76.2438 31.4186 76.2438H67.3061C70.6061 76.2438 73.2873 73.5625 73.2873 70.2625V29.7688C73.1498 29.425 73.0123 29.0813 72.8061 28.875ZM56.5123 15.95C60.9123 20.35 64.6936 24.1313 69.0936 28.5313H60.0186C58.0936 28.5313 56.4436 26.95 56.4436 24.9563V15.95H56.5123ZM14.2998 64.5563V44.4125C14.2998 43.8625 14.7811 43.3813 15.3311 43.3813H56.5123C57.0623 43.3813 57.5435 43.8625 57.5435 44.4125V64.5563C57.5435 65.1063 57.0623 65.5876 56.5123 65.5876H15.3311C14.7123 65.5876 14.2998 65.1063 14.2998 64.5563ZM67.2373 73.7688H31.3498C29.4248 73.7688 27.7748 72.1875 27.7748 70.1938V67.9938H56.4436C58.3686 67.9938 59.8811 66.4813 59.8811 64.5563V44.4125C59.8811 42.4875 58.3686 40.975 56.4436 40.975H27.7748V17.8063C27.7748 15.8813 29.3561 14.2313 31.3498 14.2313H54.1061V24.9563C54.1061 28.2563 56.7873 30.9375 60.0873 30.9375H70.8123V70.1938C70.7436 72.1188 69.1623 73.7001 67.2373 73.7688Z" fill="currentColor"/>
<path d="M20.1637 59.5634C19.501 59.5634 18.8897 59.442 18.3297 59.1994C17.779 58.9474 17.3263 58.5927 16.9717 58.1354L18.2317 56.6234C18.7637 57.342 19.3703 57.7014 20.0517 57.7014C20.9757 57.7014 21.4377 57.16 21.4377 56.0774V51.4154H17.9937V49.5954H23.6917V55.9514C23.6917 57.1554 23.393 58.0607 22.7957 58.6674C22.1983 59.2647 21.321 59.5634 20.1637 59.5634Z" fill="currentColor"/>
<path d="M30.4539 49.5954C31.3219 49.5954 32.0732 49.74 32.7079 50.0294C33.3519 50.3187 33.8466 50.7294 34.1919 51.2614C34.5372 51.7934 34.7099 52.4234 34.7099 53.1514C34.7099 53.87 34.5372 54.5 34.1919 55.0414C33.8466 55.5734 33.3519 55.984 32.7079 56.2734C32.0732 56.5534 31.3219 56.6934 30.4539 56.6934H28.4799V59.3954H26.2119V49.5954H30.4539ZM30.3279 54.8454C31.0092 54.8454 31.5272 54.7007 31.8819 54.4114C32.2366 54.1127 32.4139 53.6927 32.4139 53.1514C32.4139 52.6007 32.2366 52.1807 31.8819 51.8914C31.5272 51.5927 31.0092 51.4434 30.3279 51.4434H28.4799V54.8454H30.3279Z" fill="currentColor"/>
<path d="M44.1971 57.5754V59.3954H36.6091V49.5954H44.0151V51.4154H38.8631V53.5434H43.4131V55.3074H38.8631V57.5754H44.1971Z" fill="currentColor"/>
<path d="M52.8763 54.3414H54.9483V58.3174C54.4163 58.7187 53.8003 59.0267 53.1003 59.2414C52.4003 59.456 51.6957 59.5634 50.9863 59.5634C49.969 59.5634 49.0543 59.3487 48.2423 58.9194C47.4303 58.4807 46.791 57.8787 46.3243 57.1134C45.867 56.3387 45.6383 55.466 45.6383 54.4954C45.6383 53.5247 45.867 52.6567 46.3243 51.8914C46.791 51.1167 47.435 50.5147 48.2563 50.0854C49.0777 49.6467 50.0017 49.4274 51.0283 49.4274C51.887 49.4274 52.6663 49.572 53.3663 49.8614C54.0663 50.1507 54.6543 50.5707 55.1303 51.1214L53.6743 52.4654C52.9743 51.728 52.1297 51.3594 51.1403 51.3594C50.515 51.3594 49.9597 51.49 49.4743 51.7514C48.989 52.0127 48.611 52.3814 48.3403 52.8574C48.0697 53.3334 47.9343 53.8794 47.9343 54.4954C47.9343 55.102 48.0697 55.6434 48.3403 56.1194C48.611 56.5954 48.9843 56.9687 49.4603 57.2394C49.9457 57.5007 50.4963 57.6314 51.1123 57.6314C51.7657 57.6314 52.3537 57.4914 52.8763 57.2114V54.3414Z" fill="currentColor"/>
</svg>
