<svg width="88" height="88" viewBox="0 0 88 88" fill="none" xmlns="http://www.w3.org/2000/svg">
<path d="M72.8059 28.875L56.1684 12.2375C55.9621 12.0313 55.6184 11.8938 55.3434 11.8938H31.3496C28.0496 11.8938 25.3684 14.575 25.3684 17.875V41.0438H18.2871C16.3621 41.0438 14.8496 42.5563 14.8496 44.4813V64.625C14.8496 66.55 16.3621 68.0625 18.2871 68.0625H25.3684V70.2625C25.3684 73.5625 28.0496 76.2438 31.3496 76.2438H67.2371C70.5371 76.2438 73.2184 73.5625 73.2184 70.2625V29.7C73.1496 29.425 73.0121 29.0813 72.8059 28.875ZM69.0246 28.5313H60.0184C58.0934 28.5313 56.4434 26.95 56.4434 24.9563V15.95L69.0246 28.5313ZM17.2559 64.5563V44.4125C17.2559 43.8625 17.7371 43.3813 18.2871 43.3813H53.0746C53.6246 43.3813 54.1059 43.8625 54.1059 44.4125V64.5563C54.1059 65.1063 53.6246 65.5875 53.0746 65.5875H18.2871C17.7371 65.5875 17.2559 65.1063 17.2559 64.5563ZM67.2371 73.7H31.3496C29.4246 73.7 27.7746 72.1188 27.7746 70.125V67.925H53.0059C54.9309 67.925 56.4434 66.4125 56.4434 64.4875V44.4125C56.4434 42.4875 54.9309 40.975 53.0059 40.975H27.7746V17.8063C27.7746 15.8813 29.3559 14.2313 31.3496 14.2313H54.1059V24.9563C54.1059 28.2563 56.7871 30.9375 60.0871 30.9375H70.8121V70.1938C70.7434 72.1188 69.1621 73.7 67.2371 73.7Z" fill="currentColor"/>
<path d="M24.5563 59.5604C23.8936 59.5604 23.2823 59.4391 22.7223 59.1964C22.1716 58.9444 21.7189 58.5898 21.3643 58.1324L22.6243 56.6204C23.1563 57.3391 23.7629 57.6984 24.4443 57.6984C25.3683 57.6984 25.8303 57.1571 25.8303 56.0744V51.4124H22.3863V49.5924H28.0843V55.9484C28.0843 57.1524 27.7856 58.0578 27.1883 58.6644C26.5909 59.2618 25.7136 59.5604 24.5563 59.5604Z" fill="currentColor"/>
<path d="M34.8465 49.5924C35.7145 49.5924 36.4658 49.7371 37.1005 50.0264C37.7445 50.3158 38.2391 50.7264 38.5845 51.2584C38.9298 51.7904 39.1025 52.4204 39.1025 53.1484C39.1025 53.8671 38.9298 54.4971 38.5845 55.0384C38.2391 55.5704 37.7445 55.9811 37.1005 56.2704C36.4658 56.5504 35.7145 56.6904 34.8465 56.6904H32.8725V59.3924H30.6045V49.5924H34.8465ZM34.7205 54.8424C35.4018 54.8424 35.9198 54.6978 36.2745 54.4084C36.6291 54.1098 36.8065 53.6898 36.8065 53.1484C36.8065 52.5978 36.6291 52.1778 36.2745 51.8884C35.9198 51.5898 35.4018 51.4404 34.7205 51.4404H32.8725V54.8424H34.7205Z" fill="currentColor"/>
<path d="M47.7604 54.3384H49.8324V58.3144C49.3004 58.7158 48.6844 59.0238 47.9844 59.2384C47.2844 59.4531 46.5797 59.5604 45.8704 59.5604C44.8531 59.5604 43.9384 59.3458 43.1264 58.9164C42.3144 58.4778 41.6751 57.8758 41.2084 57.1104C40.7511 56.3358 40.5224 55.4631 40.5224 54.4924C40.5224 53.5218 40.7511 52.6538 41.2084 51.8884C41.6751 51.1138 42.319 50.5118 43.1404 50.0824C43.9617 49.6438 44.8857 49.4244 45.9124 49.4244C46.7711 49.4244 47.5504 49.5691 48.2504 49.8584C48.9504 50.1478 49.5384 50.5678 50.0144 51.1184L48.5584 52.4624C47.8584 51.7251 47.0137 51.3564 46.0244 51.3564C45.399 51.3564 44.8437 51.4871 44.3584 51.7484C43.873 52.0098 43.495 52.3784 43.2244 52.8544C42.9537 53.3304 42.8184 53.8764 42.8184 54.4924C42.8184 55.0991 42.9537 55.6404 43.2244 56.1164C43.495 56.5924 43.8684 56.9658 44.3444 57.2364C44.8297 57.4978 45.3804 57.6284 45.9964 57.6284C46.6497 57.6284 47.2377 57.4884 47.7604 57.2084V54.3384Z" fill="currentColor"/>
</svg>
