<svg width="24" height="24" viewBox="0 0 24 24" fill="none" xmlns="http://www.w3.org/2000/svg">
<path d="M9 22H15C20 22 22 20 22 15V9C22 4 20 2 15 2H9C4 2 2 4 2 9V15C2 20 4 22 9 22Z" stroke="currentColor" stroke-width="1.5" stroke-linecap="round" stroke-linejoin="round"/>
<path d="M8.68452 11L6.89377 12.7908C6.61041 13.0741 6.38564 13.4105 6.23228 13.7807C6.07893 14.151 6 14.5478 6 14.9485C6 15.3492 6.07893 15.746 6.23228 16.1162C6.38564 16.4865 6.61041 16.8229 6.89377 17.1062C7.17713 17.3896 7.51352 17.6144 7.88375 17.7677C8.25397 17.9211 8.65078 18 9.05151 18C9.45224 18 9.84905 17.9211 10.2193 17.7677C10.5895 17.6144 10.9259 17.3896 11.2092 17.1062L13 15.3155" stroke="currentColor" stroke-width="1.5" stroke-miterlimit="10" stroke-linecap="round"/>
<path d="M15.3133 13L17.1067 11.2066C17.3899 10.9234 17.6145 10.5872 17.7678 10.2171C17.9211 9.84709 18 9.45049 18 9.04996C18 8.64944 17.9211 8.25284 17.7678 7.8828C17.6145 7.51277 17.3899 7.17655 17.1067 6.89334C16.8235 6.61012 16.4872 6.38545 16.1172 6.23217C15.7472 6.07889 15.3506 6 14.95 6C14.5495 6 14.1529 6.07889 13.7829 6.23217C13.4128 6.38545 13.0766 6.61012 12.7934 6.89334L11 8.68675" stroke="currentColor" stroke-width="1.5" stroke-miterlimit="10" stroke-linecap="round"/>
<path d="M15 9L9 15" stroke="currentColor" stroke-width="1.5" stroke-miterlimit="10" stroke-linecap="round"/>
</svg>
