<svg width="24" height="24" viewBox="0 0 24 24" fill="none" xmlns="http://www.w3.org/2000/svg">
<g clip-path="url(#clip0_2729_51357)">
<path d="M20.1891 7.73438V8.9416C20.1891 9.44164 20.5945 9.84703 21.0946 9.84703C21.5947 9.84703 22 9.44164 22 8.9416V7.73438H20.1891Z" fill="#3887B5"/>
<path d="M20.7928 2H15.0584C14.5583 2 14.1529 2.40539 14.1529 2.90543C14.1529 3.40547 14.5583 3.81086 15.0584 3.81086H18.9087L14.7185 8.00102C13.3802 6.93984 11.6877 6.30586 9.84707 6.30586C5.51324 6.30582 2 9.81906 2 14.1529C2 18.4868 5.51324 22 9.84707 22C14.1809 22 17.6941 18.4868 17.6941 14.1529C17.6941 12.3123 17.0602 10.6198 15.9989 9.28148L20.1891 5.09137V7.73441C20.1891 8.23445 20.5945 8.63984 21.0946 8.63984C21.5946 8.63984 22 8.23445 22 7.73441V3.20723C22 2.54324 21.4568 2 20.7928 2ZM9.84707 20.1891C6.51336 20.1891 3.81086 17.4866 3.81086 14.1529C3.81086 10.8192 6.51336 8.11672 9.84707 8.11672C13.1808 8.11672 15.8833 10.8192 15.8833 14.1529C15.8833 17.4866 13.1808 20.1891 9.84707 20.1891Z" fill="#3887B5"/>
</g>
</svg>
