<svg width="16" height="16" viewBox="0 0 16 16" fill="none" xmlns="http://www.w3.org/2000/svg">
<path d="M9.93337 1.33331H6.06671C5.61338 1.33331 4.97337 1.59998 4.65337 1.91998L1.92004 4.65332C1.60004 4.97332 1.33337 5.61332 1.33337 6.06665V9.93331C1.33337 10.3866 1.60004 11.0266 1.92004 11.3466L4.65337 14.08C4.97337 14.4 5.61338 14.6666 6.06671 14.6666H9.93337C10.3867 14.6666 11.0267 14.4 11.3467 14.08L14.08 11.3466C14.4 11.0266 14.6667 10.3866 14.6667 9.93331V6.06665C14.6667 5.61332 14.4 4.97332 14.08 4.65332L11.3467 1.91998C11.0267 1.59998 10.3867 1.33331 9.93337 1.33331Z" stroke="currentColor" stroke-width="1.5" stroke-linecap="round" stroke-linejoin="round"/>
<path d="M5.66663 10.3334L10.3333 5.66669" stroke="currentColor" stroke-width="1.5" stroke-linecap="round" stroke-linejoin="round"/>
<path d="M10.3333 10.3334L5.66663 5.66669" stroke="currentColor" stroke-width="1.5" stroke-linecap="round" stroke-linejoin="round"/>
</svg>
