<svg width="25" height="24" viewBox="0 0 25 24" fill="none" xmlns="http://www.w3.org/2000/svg">
<path d="M12.9678 2.90991C9.65784 2.90991 6.96784 5.59991 6.96784 8.90991V11.7999C6.96784 12.4099 6.70784 13.3399 6.39784 13.8599L5.24784 15.7699C4.53784 16.9499 5.02784 18.2599 6.32784 18.6999C10.6378 20.1399 15.2878 20.1399 19.5978 18.6999C20.8078 18.2999 21.3378 16.8699 20.6778 15.7699L19.5278 13.8599C19.2278 13.3399 18.9678 12.4099 18.9678 11.7999V8.90991C18.9678 5.60991 16.2678 2.90991 12.9678 2.90991Z" stroke="currentColor" stroke-width="1.5" stroke-miterlimit="10" stroke-linecap="round"/>
<path d="M14.8179 3.19994C14.5079 3.10994 14.1879 3.03994 13.8579 2.99994C12.8979 2.87994 11.9779 2.94994 11.1179 3.19994C11.4079 2.45994 12.1279 1.93994 12.9679 1.93994C13.8079 1.93994 14.5279 2.45994 14.8179 3.19994Z" stroke="currentColor" stroke-width="1.5" stroke-miterlimit="10" stroke-linecap="round" stroke-linejoin="round"/>
<path d="M15.9678 19.0601C15.9678 20.7101 14.6178 22.0601 12.9678 22.0601C12.1478 22.0601 11.3878 21.7201 10.8478 21.1801C10.3078 20.6401 9.96783 19.8801 9.96783 19.0601" stroke="currentColor" stroke-width="1.5" stroke-miterlimit="10"/>
</svg>
