<svg width="64" height="64" viewBox="0 0 64 64" fill="none" xmlns="http://www.w3.org/2000/svg">
<path d="M52.9498 20.9999L40.8498 8.8999C40.6998 8.7499 40.4498 8.6499 40.2498 8.6499H22.7998C20.3998 8.6499 18.4498 10.5999 18.4498 12.9999V29.8499H13.2998C11.8998 29.8499 10.7998 30.9499 10.7998 32.3499V46.9999C10.7998 48.3999 11.8998 49.4999 13.2998 49.4999H18.4498V51.0999C18.4498 53.4999 20.3998 55.4499 22.7998 55.4499H48.8998C51.2998 55.4499 53.2498 53.4999 53.2498 51.0999V21.5999C53.1998 21.3999 53.0998 21.1499 52.9498 20.9999ZM50.1998 20.7499H43.6498C42.2498 20.7499 41.0498 19.5999 41.0498 18.1499V11.5999L50.1998 20.7499ZM12.5498 46.9499V32.2999C12.5498 31.8999 12.8998 31.5499 13.2998 31.5499H38.5998C38.9998 31.5499 39.3498 31.8999 39.3498 32.2999V46.9499C39.3498 47.3499 38.9998 47.6999 38.5998 47.6999H13.2998C12.8998 47.6999 12.5498 47.3499 12.5498 46.9499ZM48.8998 53.5999H22.7998C21.3998 53.5999 20.1998 52.4499 20.1998 50.9999V49.3999H38.5498C39.9498 49.3999 41.0498 48.2999 41.0498 46.8999V32.2999C41.0498 30.8999 39.9498 29.7999 38.5498 29.7999H20.1998V12.9499C20.1998 11.5499 21.3498 10.3499 22.7998 10.3499H39.3498V18.1499C39.3498 20.5499 41.2998 22.4999 43.6998 22.4999H51.4998V51.0499C51.4498 52.4499 50.2998 53.5999 48.8998 53.5999Z" fill="currentColor"/>
<path d="M21.1502 38.45C21.1502 37 20.0002 36 18.4502 36H15.2002V43.2H16.7502V40.85H18.4502C20.0002 40.9 21.1502 39.9 21.1502 38.45ZM18.2502 39.45H16.7002V37.4H18.2502C19.0002 37.4 19.5502 37.8 19.5502 38.4C19.5502 39 19.0002 39.45 18.2502 39.45Z" fill="currentColor"/>
<path d="M29.3999 39.6C29.3999 37.5 27.6999 36 25.2499 36H22.6499V43.2H25.2499C27.6999 43.25 29.3999 41.75 29.3999 39.6ZM24.2499 37.4H25.4999C26.6999 37.3 27.7499 38.25 27.8499 39.45C27.9499 40.8 26.8499 41.9 25.4999 41.8H24.2499V37.4Z" fill="currentColor"/>
<path d="M32.6999 40.4H36.2999V39H32.6999V37.4H36.6999V36H31.1499V43.25H32.6999V40.4Z" fill="currentColor"/>
</svg>
