<svg width="16" height="16" viewBox="0 0 16 16" fill="none" xmlns="http://www.w3.org/2000/svg">
<path d="M13 8.33335C13 7.41335 13.7466 6.66669 14.6666 6.66669V6.00002C14.6666 3.33335 14 2.66669 11.3333 2.66669H4.66665C1.99998 2.66669 1.33331 3.33335 1.33331 6.00002V6.33335C2.25331 6.33335 2.99998 7.08002 2.99998 8.00002C2.99998 8.92002 2.25331 9.66669 1.33331 9.66669V10C1.33331 12.6667 1.99998 13.3334 4.66665 13.3334H11.3333C14 13.3334 14.6666 12.6667 14.6666 10C13.7466 10 13 9.25335 13 8.33335Z" stroke="currentColor" stroke-width="1.5" stroke-linecap="round" stroke-linejoin="round"/>
<path d="M6 9.83331L10 5.83331" stroke="currentColor" stroke-width="1.5" stroke-linecap="round" stroke-linejoin="round"/>
<path d="M9.99636 9.83333H10.0023" stroke="currentColor" stroke-width="2" stroke-linecap="round" stroke-linejoin="round"/>
<path d="M5.99636 6.16665H6.00235" stroke="currentColor" stroke-width="2" stroke-linecap="round" stroke-linejoin="round"/>
</svg>
