<svg width="24" height="24" viewBox="0 0 24 24" fill="none" xmlns="http://www.w3.org/2000/svg">
<circle cx="11.9996" cy="12.0001" r="10.2857" fill="#F4F3F6" stroke="white" stroke-width="2"/>
<circle cx="12" cy="12" r="11" stroke="#69676D" stroke-width="2"/>
<path d="M15.3721 13.7713C15.0911 12.0903 13.4768 10.7236 11.7721 10.7236C9.91969 10.7236 8.29112 12.2236 8.13398 14.0713C8.07207 14.7855 8.30064 15.4617 8.77207 15.9713C9.23874 16.4808 9.89588 16.7617 10.6102 16.7617H12.8387C13.6435 16.7617 14.3483 16.4474 14.8292 15.8808C15.3102 15.3141 15.5006 14.5617 15.3721 13.7713Z" fill="#69676D"/>
<path d="M11.1814 10.0283C11.9519 10.0283 12.5766 9.4036 12.5766 8.63303C12.5766 7.86246 11.9519 7.23779 11.1814 7.23779C10.4108 7.23779 9.78613 7.86246 9.78613 8.63303C9.78613 9.4036 10.4108 10.0283 11.1814 10.0283Z" fill="#69676D"/>
<path d="M14.3523 10.5855C14.994 10.5855 15.5142 10.0653 15.5142 9.42362C15.5142 8.78192 14.994 8.26172 14.3523 8.26172C13.7106 8.26172 13.1904 8.78192 13.1904 9.42362C13.1904 10.0653 13.7106 10.5855 14.3523 10.5855Z" fill="#69676D"/>
<path d="M16.0721 12.4426C16.585 12.4426 17.0007 12.0269 17.0007 11.514C17.0007 11.0012 16.585 10.5854 16.0721 10.5854C15.5593 10.5854 15.1436 11.0012 15.1436 11.514C15.1436 12.0269 15.5593 12.4426 16.0721 12.4426Z" fill="#69676D"/>
<path d="M8.1619 11.5142C8.80361 11.5142 9.32381 10.994 9.32381 10.3523C9.32381 9.71063 8.80361 9.19043 8.1619 9.19043C7.5202 9.19043 7 9.71063 7 10.3523C7 10.994 7.5202 11.5142 8.1619 11.5142Z" fill="#69676D"/>
</svg>
