<svg width="88" height="88" viewBox="0 0 88 88" fill="none" xmlns="http://www.w3.org/2000/svg">
<path d="M72.8059 28.875L56.1684 12.2375C55.9621 12.0313 55.6184 11.8938 55.3434 11.8938H31.3496C28.0496 11.8938 25.3684 14.575 25.3684 17.875V41.0438H18.2871C16.3621 41.0438 14.8496 42.5563 14.8496 44.4813V64.625C14.8496 66.55 16.3621 68.0625 18.2871 68.0625H25.3684V70.2625C25.3684 73.5625 28.0496 76.2438 31.3496 76.2438H67.2371C70.5371 76.2438 73.2184 73.5625 73.2184 70.2625V29.7C73.1496 29.425 73.0121 29.0813 72.8059 28.875ZM69.0246 28.5313H60.0184C58.0934 28.5313 56.4434 26.95 56.4434 24.9563V15.95L69.0246 28.5313ZM17.2559 64.5563V44.4125C17.2559 43.8625 17.7371 43.3813 18.2871 43.3813H53.0746C53.6246 43.3813 54.1059 43.8625 54.1059 44.4125V64.5563C54.1059 65.1063 53.6246 65.5875 53.0746 65.5875H18.2871C17.7371 65.5875 17.2559 65.1063 17.2559 64.5563ZM67.2371 73.7H31.3496C29.4246 73.7 27.7746 72.1188 27.7746 70.125V67.925H53.0059C54.9309 67.925 56.4434 66.4125 56.4434 64.4875V44.4125C56.4434 42.4875 54.9309 40.975 53.0059 40.975H27.7746V17.8063C27.7746 15.8813 29.3559 14.2313 31.3496 14.2313H54.1059V24.9563C54.1059 28.2563 56.7871 30.9375 60.0871 30.9375H70.8121V70.1938C70.7434 72.1188 69.1621 73.7 67.2371 73.7Z" fill="#3A3A43"/>
<path d="M24.4651 49.5924C25.3331 49.5924 26.0845 49.7371 26.7191 50.0264C27.3631 50.3158 27.8578 50.7264 28.2031 51.2584C28.5485 51.7904 28.7211 52.4204 28.7211 53.1484C28.7211 53.8671 28.5485 54.4971 28.2031 55.0384C27.8578 55.5704 27.3631 55.9811 26.7191 56.2704C26.0845 56.5504 25.3331 56.6904 24.4651 56.6904H22.4911V59.3924H20.2231V49.5924H24.4651ZM24.3391 54.8424C25.0205 54.8424 25.5385 54.6978 25.8931 54.4084C26.2478 54.1098 26.4251 53.6898 26.4251 53.1484C26.4251 52.5978 26.2478 52.1778 25.8931 51.8884C25.5385 51.5898 25.0205 51.4404 24.3391 51.4404H22.4911V54.8424H24.3391Z" fill="#3A3A43"/>
<path d="M39.6083 49.5924V59.3924H37.7463L32.8603 53.4424V59.3924H30.6203V49.5924H32.4963L37.3683 55.5424V49.5924H39.6083Z" fill="#3A3A43"/>
<path d="M48.829 54.3384H50.901V58.3144C50.369 58.7158 49.753 59.0238 49.053 59.2384C48.353 59.4531 47.6483 59.5604 46.939 59.5604C45.9216 59.5604 45.007 59.3458 44.195 58.9164C43.383 58.4778 42.7436 57.8758 42.277 57.1104C41.8196 56.3358 41.591 55.4631 41.591 54.4924C41.591 53.5218 41.8196 52.6538 42.277 51.8884C42.7436 51.1138 43.3876 50.5118 44.209 50.0824C45.0303 49.6438 45.9543 49.4244 46.981 49.4244C47.8396 49.4244 48.619 49.5691 49.319 49.8584C50.019 50.1478 50.607 50.5678 51.083 51.1184L49.627 52.4624C48.927 51.7251 48.0823 51.3564 47.093 51.3564C46.4676 51.3564 45.9123 51.4871 45.427 51.7484C44.9416 52.0098 44.5636 52.3784 44.293 52.8544C44.0223 53.3304 43.887 53.8764 43.887 54.4924C43.887 55.0991 44.0223 55.6404 44.293 56.1164C44.5636 56.5924 44.937 56.9658 45.413 57.2364C45.8983 57.4978 46.449 57.6284 47.065 57.6284C47.7183 57.6284 48.3063 57.4884 48.829 57.2084V54.3384Z" fill="#3A3A43"/>
</svg>
