<svg width="36" height="36" viewBox="0 0 36 36" fill="none" xmlns="http://www.w3.org/2000/svg">
<path d="M9.80359 15.4351C9.67572 15.4351 9.55309 15.3843 9.46267 15.2939C9.37225 15.2034 9.32145 15.0808 9.32145 14.9529V9.48061C9.31996 9.36505 9.36004 9.25279 9.43437 9.1643C9.50871 9.0758 9.61236 9.01695 9.72645 8.99847L14.302 8.23186C14.4299 8.21076 14.5609 8.24133 14.6662 8.31683C14.7716 8.39233 14.8426 8.50658 14.8637 8.63445C14.8848 8.76232 14.8542 8.89334 14.7787 8.99868C14.7032 9.10402 14.589 9.17505 14.4611 9.19615L10.2857 9.89043V14.9529C10.2857 15.0808 10.2349 15.2034 10.1445 15.2939C10.0541 15.3843 9.93147 15.4351 9.80359 15.4351Z" fill="currentColor"/>
<path d="M19.9286 28.125H19.4464C19.3186 28.125 19.1959 28.0742 19.1055 27.9838C19.0151 27.8934 18.9643 27.7708 18.9643 27.6429C18.9643 27.515 19.0151 27.3924 19.1055 27.302C19.1959 27.2115 19.3186 27.1608 19.4464 27.1608H19.9286C21.9247 27.1608 23.7568 25.589 24.8272 22.9613C24.8512 22.9027 24.8866 22.8495 24.9312 22.8046C24.9759 22.7597 25.0289 22.724 25.0873 22.6996C25.1458 22.6752 25.2084 22.6625 25.2717 22.6624C25.335 22.6622 25.3978 22.6745 25.4563 22.6985C25.5149 22.7226 25.5682 22.7579 25.6131 22.8026C25.658 22.8472 25.6936 22.9003 25.718 22.9587C25.7424 23.0171 25.7551 23.0798 25.7553 23.1431C25.7555 23.2064 25.7432 23.2691 25.7191 23.3277C24.4993 26.3315 22.3393 28.125 19.9286 28.125Z" fill="currentColor"/>
<path d="M18.7666 31.0179H17.2334C11.5441 31.0179 6.91072 25.5841 6.91072 18.9016V6.84807C6.90972 6.73035 6.95183 6.61634 7.0291 6.52752C7.10637 6.4387 7.21346 6.38123 7.33019 6.36593L17.9373 4.98218H18.0627L28.6698 6.37557C28.7866 6.39087 28.8936 6.44835 28.9709 6.53716C29.0482 6.62598 29.0903 6.73999 29.0893 6.85771V18.9113C29.0893 25.5841 24.4559 31.0179 18.7666 31.0179ZM7.87501 7.282V18.9016C7.87501 25.0538 12.0745 30.0536 17.2334 30.0536H18.7666C23.9255 30.0536 28.125 25.0538 28.125 18.9016V7.282L18 5.94646L7.87501 7.282Z" fill="currentColor"/>
<path d="M21.8571 17.5178H18.4821V14.1428C18.4821 14.0149 18.4313 13.8923 18.3409 13.8019C18.2505 13.7114 18.1279 13.6606 18 13.6606C17.8721 13.6606 17.7495 13.7114 17.6591 13.8019C17.5686 13.8923 17.5178 14.0149 17.5178 14.1428V17.5178H14.1428C14.015 17.5178 13.8923 17.5686 13.8019 17.659C13.7115 17.7494 13.6607 17.8721 13.6607 17.9999C13.6607 18.1278 13.7115 18.2504 13.8019 18.3409C13.8923 18.4313 14.015 18.4821 14.1428 18.4821H17.5178V21.8571C17.5178 21.9849 17.5686 22.1076 17.6591 22.198C17.7495 22.2884 17.8721 22.3392 18 22.3392C18.1279 22.3392 18.2505 22.2884 18.3409 22.198C18.4313 22.1076 18.4821 21.9849 18.4821 21.8571V18.4821H21.8571C21.985 18.4821 22.1076 18.4313 22.1981 18.3409C22.2885 18.2504 22.3393 18.1278 22.3393 17.9999C22.3393 17.8721 22.2885 17.7494 22.1981 17.659C22.1076 17.5686 21.985 17.5178 21.8571 17.5178Z" fill="currentColor"/>
</svg>
