<svg width="24" height="24" viewBox="0 0 24 24" fill="none" xmlns="http://www.w3.org/2000/svg">
<g clip-path="url(#clip0_2888_17784)">
<path d="M17.6645 8.39158C17.5595 7.98248 17.2554 7.51612 16.8736 7.11658C16.4045 6.62567 15.8045 6.22612 15.2795 6.10885C13.1124 5.69419 10.8862 5.69419 8.71906 6.10885C7.76452 6.32158 6.56861 7.47248 6.33543 8.39158C5.94564 10.1654 5.94564 12.0027 6.33543 13.7766C6.52361 14.5211 7.34043 15.4129 8.14906 15.8411C8.32827 15.9397 8.52002 16.0136 8.71906 16.0607C8.73966 16.0642 8.75834 16.0749 8.77181 16.0909C8.78528 16.1068 8.79268 16.127 8.7927 16.1479V18.7661C8.79266 18.7951 8.80131 18.8234 8.81753 18.8473C8.83376 18.8713 8.8568 18.8899 8.88369 18.9006C8.91058 18.9113 8.94006 18.9137 8.96833 18.9075C8.9966 18.9013 9.02235 18.8867 9.04225 18.8657L10.2872 17.5907L11.4545 16.3907C11.4628 16.3817 11.4729 16.3745 11.4842 16.3698C11.4956 16.3651 11.5077 16.3629 11.52 16.3634C12.7799 16.3973 14.0399 16.2958 15.2782 16.0607C16.2327 15.8479 17.4286 14.697 17.6632 13.7766C18.0534 12.0028 18.0539 10.1655 17.6645 8.39158ZM15.3136 13.9088C15.1366 14.3133 14.832 14.6486 14.4463 14.8634C14.3256 14.9158 14.2 14.956 14.0713 14.9834C13.9254 14.9384 13.7863 14.9098 13.6622 14.8552C12.6306 14.4525 11.6705 13.8861 10.8191 13.1779C10.5661 12.9609 10.3278 12.7272 10.1059 12.4784C9.55934 11.8491 9.10062 11.1486 8.74225 10.3961C8.5677 10.0416 8.42043 9.67203 8.27043 9.30521C8.13407 8.97112 8.33588 8.62339 8.54316 8.37521C8.74556 8.14326 8.99524 7.95728 9.27543 7.82976C9.37378 7.77973 9.48663 7.76597 9.59412 7.79092C9.70162 7.81586 9.79688 7.87789 9.86316 7.96612C10.2089 8.35813 10.5136 8.78443 10.7727 9.23839C10.8545 9.37064 10.8825 9.52925 10.8508 9.68151C10.8191 9.83376 10.7301 9.96802 10.6022 10.0566C10.5341 10.1029 10.4659 10.1588 10.4072 10.2107C10.3494 10.254 10.2996 10.307 10.26 10.3675C10.2256 10.4238 10.2047 10.4874 10.199 10.5532C10.1934 10.619 10.203 10.6852 10.2272 10.7466C10.4904 11.4707 10.89 12.0734 11.4872 12.4975C11.6893 12.6409 11.9071 12.7607 12.1363 12.8548C12.2859 12.9363 12.4542 12.9772 12.6245 12.9734C12.9218 12.9379 13.02 12.6107 13.2272 12.4402C13.3225 12.3625 13.4404 12.3176 13.5632 12.3122C13.686 12.3068 13.8073 12.3412 13.9091 12.4102C14.13 12.5466 14.3427 12.6993 14.5554 12.8507C14.7658 12.9938 14.9684 13.1481 15.1622 13.3129C15.2528 13.3792 15.3174 13.4749 15.3451 13.5837C15.3727 13.6924 15.3616 13.8074 15.3136 13.9088ZM13.3554 10.6361C13.3471 10.6137 13.3416 10.5903 13.3391 10.5666C13.332 10.4748 13.3183 10.3837 13.2982 10.2938C13.258 10.1115 13.1547 9.94915 13.0063 9.83567C12.9345 9.78484 12.8548 9.74614 12.7704 9.72112C12.6627 9.69112 12.5495 9.6993 12.4432 9.67339C12.3906 9.66408 12.3438 9.63431 12.3132 9.5906C12.2825 9.5469 12.2704 9.49282 12.2795 9.44021C12.2894 9.38957 12.3174 9.34428 12.3584 9.31288C12.3993 9.28148 12.4503 9.26614 12.5018 9.26976C13.1263 9.31612 13.5927 9.61612 13.7127 10.2857C13.7251 10.3478 13.7338 10.4107 13.7386 10.4738C13.7475 10.5303 13.7475 10.5878 13.7386 10.6443C13.7311 10.679 13.7132 10.7105 13.6874 10.7349C13.6616 10.7592 13.6291 10.7752 13.5941 10.7807H13.5641C13.5181 10.7836 13.4725 10.7709 13.4346 10.7447C13.3968 10.7184 13.3688 10.6802 13.3554 10.6361ZM13.1563 8.94658C12.9462 8.84784 12.723 8.77943 12.4936 8.74339C12.3927 8.72703 12.2918 8.71748 12.1909 8.70385C12.1645 8.70255 12.1386 8.69582 12.115 8.68408C12.0913 8.67234 12.0703 8.65585 12.0533 8.63563C12.0362 8.61541 12.0236 8.5919 12.0161 8.56657C12.0085 8.54124 12.0063 8.51462 12.0095 8.48839C12.0097 8.46179 12.0155 8.43552 12.0266 8.4113C12.0376 8.38708 12.0536 8.36546 12.0735 8.34784C12.0935 8.33022 12.1169 8.31699 12.1423 8.30902C12.1677 8.30105 12.1945 8.29851 12.2209 8.30158C12.6213 8.31703 13.0135 8.41939 13.3704 8.60158C13.806 8.82053 14.1615 9.17124 14.3863 9.60385C14.5128 9.85722 14.5976 10.1294 14.6372 10.4098C14.6447 10.4463 14.6502 10.4831 14.6536 10.5202C14.6604 10.602 14.6632 10.6825 14.67 10.7848V10.8229C14.669 10.8634 14.6635 10.9037 14.6536 10.9429C14.6415 10.9823 14.6176 11.017 14.5852 11.0423C14.5527 11.0676 14.5132 11.0823 14.4721 11.0844C14.431 11.0865 14.3902 11.0758 14.3554 11.0539C14.3205 11.0321 14.2932 11 14.2772 10.962C14.2621 10.907 14.2552 10.85 14.2568 10.7929C14.2598 10.4884 14.1995 10.1865 14.0795 9.90658C14.0523 9.84496 14.0218 9.78488 13.9882 9.72658C13.7926 9.39123 13.5035 9.12017 13.1563 8.94658ZM15.4091 11.4611C15.2727 11.4611 15.2059 11.3452 15.1963 11.2184C15.1786 10.9688 15.165 10.7179 15.1309 10.4698C15.0717 10.0506 14.9259 9.64847 14.7027 9.28885C14.4731 8.91483 14.1675 8.59315 13.8058 8.34464C13.4441 8.09612 13.0342 7.92629 12.6027 7.84612C12.4063 7.81203 12.2059 7.80385 12.0082 7.78203C11.8827 7.76976 11.7177 7.76158 11.6904 7.60476C11.6868 7.57471 11.6895 7.54423 11.6984 7.5153C11.7074 7.48638 11.7223 7.45966 11.7422 7.43689C11.7622 7.41412 11.7867 7.3958 11.8142 7.38314C11.8417 7.37048 11.8715 7.36375 11.9018 7.36339H12.0477C12.6357 7.37573 13.2119 7.53119 13.7263 7.81631C14.2407 8.10144 14.6779 8.50764 15 8.99976C15.2581 9.40099 15.4333 9.84979 15.5154 10.3198C15.5672 10.6157 15.5863 10.9184 15.6095 11.2184C15.614 11.2478 15.6121 11.2777 15.6042 11.3064C15.5963 11.335 15.5824 11.3616 15.5635 11.3845C15.5446 11.4074 15.5211 11.4261 15.4944 11.4393C15.4678 11.4525 15.4387 11.4599 15.4091 11.4611Z" fill="currentColor"/>
<path d="M11.9999 0C9.62657 0 7.30649 0.703788 5.3331 2.02236C3.35971 3.34094 1.82164 5.21509 0.91339 7.4078C0.00513842 9.60051 -0.232502 12.0133 0.230521 14.3411C0.693544 16.6689 1.83643 18.8071 3.51466 20.4853C5.19289 22.1635 7.33109 23.3064 9.65886 23.7694C11.9866 24.2324 14.3994 23.9948 16.5921 23.0866C18.7849 22.1783 20.659 20.6402 21.9776 18.6668C23.2962 16.6935 23.9999 14.3734 23.9999 12C23.9999 8.8174 22.7357 5.76516 20.4852 3.51472C18.2348 1.26428 15.1825 0 11.9999 0V0ZM18.9313 14.0632V14.0795C18.5822 15.4964 17.0031 17.0141 15.5536 17.3305H15.5372C14.3715 17.5549 13.1871 17.6685 11.9999 17.67C11.6536 17.67 11.3045 17.6591 10.9581 17.6386L9.35722 19.3036C9.26922 19.3941 9.15628 19.4563 9.03279 19.4823C8.90931 19.5083 8.78087 19.497 8.66385 19.4498C8.54683 19.4025 8.44653 19.3215 8.37573 19.217C8.30493 19.1126 8.26684 18.9894 8.26631 18.8632V17.2827C7.89024 17.171 7.5324 17.0051 7.20404 16.7905C6.19767 16.1509 5.32494 15.0886 5.07404 14.0795V14.0632C4.64178 12.1008 4.64178 10.0678 5.07404 8.10545V8.08773C5.42313 6.67227 7.00085 5.15455 8.45449 4.83818H8.47085C10.8051 4.39091 13.203 4.39091 15.5372 4.83818H15.5536C16.3363 5.00864 17.1559 5.52955 17.7995 6.20182C18.3449 6.76773 18.7704 7.44273 18.9313 8.09318V8.11091C19.3628 10.0715 19.3628 12.1025 18.9313 14.0632Z" fill="currentColor"/>
</g>
<defs>
<clipPath id="clip0_2888_17784">
<rect width="24" height="24" fill="currentColor"/>
</clipPath>
</defs>
</svg>
