<svg width="24" height="24" viewBox="0 0 24 24" fill="none" xmlns="http://www.w3.org/2000/svg">
<path d="M8.024 9.65199C8.088 12.772 9.648 14.644 12.384 14.644H12.544V12.86C13.548 12.96 14.308 13.696 14.612 14.644H16.032C15.8864 14.1053 15.6282 13.6036 15.2745 13.172C14.9208 12.7404 14.4796 12.3886 13.98 12.14C14.4277 11.8674 14.8143 11.5054 15.1157 11.0766C15.4172 10.6478 15.627 10.1615 15.732 9.64799H14.444C14.164 10.64 13.332 11.54 12.544 11.624V9.65199H11.252V13.108C10.452 12.908 9.444 11.94 9.4 9.65199H8.024Z" fill="currentColor"/>
<path fill-rule="evenodd" clip-rule="evenodd" d="M12 0C18.6274 0 24 5.37258 24 12C24 18.6274 18.6274 24 12 24C5.37258 24 0 18.6274 0 12C0 5.37258 5.37258 0 12 0ZM6 11.76C6 9.044 6 7.688 6.84 6.84C7.692 6 9.048 6 11.76 6H12.24C14.956 6 16.312 6 17.16 6.84C18 7.692 18 9.048 18 11.76V12.24C18 14.956 18 16.312 17.16 17.16C16.308 18 14.952 18 12.24 18H11.76C9.044 18 7.688 18 6.84 17.16C6 16.308 6 14.952 6 12.24V11.76Z" fill="currentColor"/>
</svg>
