<svg width="24" height="24" viewBox="0 0 24 24" fill="none" xmlns="http://www.w3.org/2000/svg">
<path fill-rule="evenodd" clip-rule="evenodd" d="M9.45 16.275C10.2 16.725 11.1 16.95 12 16.95C14.775 16.95 16.95 14.7 16.95 12.075C16.95 10.725 16.5 9.525 15.525 8.55C14.55 7.65 13.35 7.125 12 7.125C9.3 7.125 7.05 9.375 7.05 12.075C7.05 12.975 7.275 13.875 7.8 14.7L7.95 14.925L7.425 16.725L9.3 16.2L9.45 16.275ZM13.65 12.75C13.8 12.75 14.55 13.125 14.7 13.2C14.7234 13.2117 14.7467 13.2215 14.7698 13.2313C14.8949 13.2841 15.0117 13.3334 15.075 13.65C15.15 13.65 15.15 13.95 15 14.325C14.925 14.625 14.325 15 14.025 15C13.9742 15 13.9255 15.0043 13.8735 15.0089C13.6186 15.0314 13.284 15.0611 12.225 14.625C10.9106 14.0993 9.99938 12.8249 9.74349 12.4671C9.70735 12.4165 9.68428 12.3843 9.675 12.375C9.66222 12.3495 9.63641 12.3087 9.60236 12.2549C9.43644 11.993 9.075 11.4223 9.075 10.8C9.075 10.05 9.44999 9.675 9.59999 9.525C9.74999 9.375 9.89999 9.375 9.97499 9.375H10.275C10.35 9.375 10.5 9.375 10.575 9.6C10.725 9.9 11.025 10.65 11.025 10.725C11.025 10.75 11.0333 10.775 11.0417 10.8C11.0583 10.85 11.075 10.9 11.025 10.95C10.9875 10.9875 10.9688 11.025 10.95 11.0625C10.9313 11.1 10.9125 11.1375 10.875 11.175L10.65 11.4C10.575 11.475 10.5 11.55 10.575 11.7C10.65 11.85 10.95 12.375 11.4 12.75C11.9063 13.193 12.3058 13.369 12.5084 13.4582C12.5458 13.4748 12.5766 13.4883 12.6 13.5C12.75 13.5 12.825 13.5 12.9 13.425C12.9375 13.35 13.0313 13.2375 13.125 13.125C13.2187 13.0125 13.3125 12.9 13.35 12.825C13.425 12.675 13.5 12.675 13.65 12.75Z" fill="currentColor"/>
<path fill-rule="evenodd" clip-rule="evenodd" d="M0 12C0 5.37258 5.37258 0 12 0C18.6274 0 24 5.37258 24 12C24 18.6274 18.6274 24 12 24C5.37258 24 0 18.6274 0 12ZM12 6C13.575 6 15.075 6.6 16.2 7.725C17.325 8.85 18 10.35 18 11.925C18 15.225 15.3 17.925 12 17.925C11.025 17.925 10.05 17.625 9.15001 17.175L6 18L6.825 15C6.30001 14.1 6 13.05 6 12C6 8.7 8.7 6 12 6Z" fill="currentColor"/>
</svg>
