<svg width="24" height="24" viewBox="0 0 24 24" fill="none" xmlns="http://www.w3.org/2000/svg">
<g clip-path="url(#clip0_1199_46681)">
<path d="M14.9457 18.8813H13.497V21.0544H14.9457C15.5457 21.0544 16.0322 20.5679 16.0322 19.9679C16.0322 19.3678 15.5457 18.8813 14.9457 18.8813Z" fill="#D63D76"/>
<path d="M19.9678 7.96781C19.9678 3.56733 16.4005 0 12 0C7.59952 0 4.03219 3.56733 4.03219 7.96781C4.03219 11.9997 7.02708 15.3315 10.9135 15.8616V18.8813H9.05433C8.45428 18.8813 7.96781 19.3678 7.96781 19.9678C7.96781 20.5679 8.45428 21.0543 9.05433 21.0543H10.9135V22.9135C10.9135 23.5135 11.4 24 12 24C12.6 24 13.0865 23.5135 13.0865 22.9135V21.0543H13.497C14.097 21.0543 14.5835 20.5679 14.5835 19.9678C14.5835 19.3678 14.097 18.8813 13.497 18.8813H13.0865V15.8616C16.9729 15.3315 19.9678 11.9997 19.9678 7.96781ZM12 13.7626C8.79966 13.7626 6.20522 11.1682 6.20522 7.96781C6.20522 4.76747 8.79966 2.17303 12 2.17303C15.2003 2.17303 17.7948 4.76747 17.7948 7.96781C17.7948 11.1682 15.2003 13.7626 12 13.7626Z" fill="#C73C5E"/>
</g>
</svg>
