<svg width="64" height="64" viewBox="0 0 64 64" fill="none" xmlns="http://www.w3.org/2000/svg">
<g clip-path="url(#clip0_2133_120073)">
<path d="M25.6639 51.181C25.0752 51.181 24.5977 51.6585 24.5977 52.2478V53.314C24.5899 55.0931 25.6918 56.688 27.3575 57.311C29.0238 57.9339 30.902 57.4531 32.0634 56.1061C33.2249 57.4531 35.1025 57.9339 36.7688 57.311C38.435 56.688 39.5364 55.0931 39.5286 53.314V52.2478C39.5286 51.6585 39.0512 51.181 38.4624 51.181C37.8731 51.181 37.3956 51.6585 37.3956 52.2478V53.314C37.3956 54.4921 36.4407 55.447 35.2626 55.447C34.0846 55.447 33.1297 54.4921 33.1297 53.314V49.9141C33.5051 49.776 33.8444 49.5538 34.1217 49.2653L35.7181 47.5585C36.3225 46.9395 36.4944 46.0172 36.1527 45.2219C35.6957 44.2694 34.7178 43.6777 33.6618 43.7153H30.4645C29.4085 43.6777 28.4311 44.2694 27.9742 45.2219C27.6329 46.0167 27.8038 46.939 28.4077 47.5585L30.0061 49.2653C30.2829 49.5538 30.6217 49.776 30.9967 49.9141V53.314C30.9967 54.4921 30.0417 55.447 28.8637 55.447C27.6856 55.447 26.7307 54.4921 26.7307 53.314V52.2478C26.7307 51.6585 26.2532 51.181 25.6639 51.181V51.181ZM29.929 46.0753C29.9416 46.0255 30.1013 45.8483 30.4645 45.8483H33.6618C34.0255 45.8483 34.1847 46.0255 34.1608 46.1007L32.5643 47.807C32.2655 48.0228 31.8623 48.0228 31.5635 47.807L29.929 46.0753Z" fill="#D82F49"/>
<path d="M18.5869 40.0762C20.485 39.3341 21.9956 39.2462 23.0799 39.8194C23.8361 40.2548 24.3907 40.971 24.6221 41.8127C24.7564 42.3781 25.3183 42.732 25.8861 42.6085C26.4539 42.4855 26.8186 41.9299 26.7063 41.3601C26.3421 39.918 25.4052 38.6867 24.1119 37.9524C22.4525 37.0595 20.3332 37.1054 17.8096 38.0891C17.2609 38.304 16.9899 38.9225 17.2043 39.4713C17.4191 40.02 18.0376 40.291 18.5869 40.0762V40.0762Z" fill="#D82F49"/>
<path d="M37.1717 42.6256C37.448 42.6842 37.737 42.631 37.9743 42.4772C38.2115 42.3229 38.378 42.0808 38.4371 41.8044C38.6651 40.972 39.2114 40.2631 39.9574 39.8301C41.0417 39.2457 42.5605 39.3297 44.4714 40.0752C45.0201 40.29 45.6392 40.019 45.8535 39.4703C46.0683 38.9215 45.7974 38.3025 45.2486 38.0882C42.726 37.1039 40.6062 37.058 38.9463 37.951C37.653 38.6857 36.7157 39.917 36.352 41.3592C36.2924 41.6355 36.3456 41.9245 36.4989 42.1623C36.6527 42.3996 36.8948 42.5665 37.1717 42.6256Z" fill="#D82F49"/>
<path d="M4.33437 41.5823C5.30493 41.5833 6.275 41.6443 7.23824 41.7644C6.73685 43.4356 6.47712 45.1702 6.46736 46.915V46.9243C5.50607 47.208 4.58921 47.6244 3.74266 48.1605C3.4219 48.3704 3.23833 48.7361 3.26177 49.1188C3.2852 49.5016 3.51222 49.8418 3.85641 50.0108C4.2006 50.1797 4.60874 50.1509 4.92608 49.9356C5.46213 49.5929 6.03773 49.3156 6.64018 49.1095C6.82717 50.4048 7.19821 51.6668 7.74256 52.857C5.76775 54.1518 4.50817 56.2916 4.33437 58.6467C4.33437 61.9358 7.60342 63.9789 12.8663 63.9789C15.24 64.1249 17.5981 63.5034 19.5914 62.2067C23.6358 63.4243 27.8407 64.0219 32.0637 63.9789C36.2867 64.0219 40.4917 63.4243 44.5355 62.2067C46.5289 63.5034 48.887 64.1249 51.2606 63.9789C56.5235 63.9789 59.7926 61.9358 59.7926 58.6467C59.6193 56.2916 58.3592 54.1518 56.3844 52.857C56.9287 51.6668 57.2998 50.4048 57.4868 49.1095C58.0892 49.3156 58.6648 49.5929 59.2014 49.9356C59.5182 50.1509 59.9264 50.1797 60.2705 50.0108C60.6147 49.8418 60.8418 49.5016 60.8657 49.1188C60.8891 48.7361 60.7055 48.3704 60.3843 48.1605C59.5377 47.6244 58.6209 47.208 57.6596 46.9243V46.915C57.6503 45.1702 57.3906 43.4356 56.8887 41.7644C57.852 41.6443 58.822 41.5838 59.7926 41.5823C60.3819 41.5823 60.8593 41.1048 60.8593 40.5161C60.8593 39.9268 60.3819 39.4493 59.7926 39.4493C58.5755 39.4498 57.3598 39.5357 56.1544 39.7061C55.7063 38.6072 55.1756 37.5433 54.5678 36.524C55.2693 34.2465 58.0179 24.6644 55.6487 21.3968C55.1453 20.6679 54.3115 20.2387 53.4258 20.2524C51.8377 20.3735 50.2935 20.8314 48.8962 21.596C46.1676 17.7391 41.3563 15.0295 35.8722 14.1591C35.8542 12.7062 35.6716 11.2601 35.3284 9.84768C35.0892 8.66426 35.5281 7.44569 36.4669 6.68603C37.7973 5.78968 39.9698 7.17668 40.8412 7.8138C41.764 8.49876 42.9825 8.63643 44.0346 8.17458C45.0867 7.71323 45.8107 6.72265 45.9308 5.57975C46.0514 4.43734 45.5495 3.31787 44.6171 2.64707C38.7634 -1.63697 34.4755 0.320261 32.8966 1.36503C29.7311 3.62251 28.2391 7.56676 29.1183 11.3543C29.3302 12.2194 29.4533 13.1036 29.4845 13.9936C23.4908 14.6292 18.1585 17.4481 15.2332 21.5886C13.8447 20.83 12.3107 20.3745 10.7333 20.2524C9.84626 20.2387 9.01044 20.6689 8.50563 21.3982C6.14562 24.6522 8.88058 34.2064 9.58018 36.4805C8.96309 37.5131 8.42508 38.591 7.97104 39.7051C6.76614 39.5352 5.55099 39.4498 4.33437 39.4493C3.7451 39.4493 3.26763 39.9268 3.26763 40.5161C3.26763 41.1048 3.7451 41.5823 4.33437 41.5823V41.5823ZM6.46736 58.6467C6.46736 56.2462 9.42005 53.314 12.8663 53.314C16.3126 53.314 19.2653 56.2462 19.2653 58.6467C19.2653 60.1992 17.8309 61.0907 15.9704 61.5213C16.0314 61.2787 16.0636 61.0297 16.0661 60.7797V58.6467C16.0661 58.0574 15.5886 57.58 14.9993 57.58C14.4105 57.58 13.9331 58.0574 13.9331 58.6467V60.7797C13.9331 61.3685 13.4556 61.846 12.8663 61.846C12.2775 61.846 11.7996 61.3685 11.7996 60.7797V58.6467C11.7996 58.0574 11.3221 57.58 10.7333 57.58C10.1441 57.58 9.6666 58.0574 9.6666 58.6467V60.7797C9.66904 61.0297 9.70126 61.2787 9.76229 61.5213C7.90172 61.0907 6.46736 60.1992 6.46736 58.6467V58.6467ZM57.6596 58.6467C57.6596 60.1992 56.2252 61.0907 54.3652 61.5213C54.4257 61.2787 54.4579 61.0297 54.4604 60.7797V58.6467C54.4604 58.0574 53.9829 57.58 53.3936 57.58C52.8048 57.58 52.3274 58.0574 52.3274 58.6467V60.7797C52.3274 61.3685 51.8499 61.846 51.2606 61.846C50.6718 61.846 50.1944 61.3685 50.1944 60.7797V58.6467C50.1944 58.0574 49.7169 57.58 49.1276 57.58C48.5389 57.58 48.0614 58.0574 48.0614 58.6467V60.7797C48.0638 61.0297 48.0956 61.2787 48.1566 61.5213C46.296 61.0907 44.8617 60.1992 44.8617 58.6467C44.8617 56.2462 47.8144 53.314 51.2606 53.314C54.7069 53.314 57.6596 56.2472 57.6596 58.6467V58.6467ZM31.1898 10.8466C30.5049 7.92901 31.6463 4.886 34.081 3.13919C35.5715 2.15349 38.7561 1.00083 43.358 4.36899C43.6655 4.59405 43.8301 4.96558 43.7891 5.34492C43.7485 5.72377 43.5083 6.05185 43.1598 6.20612C42.8117 6.3604 42.4069 6.31646 42.0994 6.09188C39.4508 4.15515 37.0283 3.73773 35.2796 4.91383C33.5972 6.17292 32.8058 8.29957 33.2559 10.352C33.5425 11.5203 33.7051 12.7154 33.7422 13.9174C33.1861 13.8793 32.6276 13.853 32.0637 13.853C31.9124 13.853 31.763 13.8632 31.6121 13.8661C31.5736 12.8477 31.432 11.8362 31.1898 10.8466V10.8466ZM32.0637 15.9859C38.2811 15.9859 43.999 18.5534 46.9961 22.6036C45.5666 23.4126 43.9892 24.4144 42.2424 25.6388C35.7746 22.7379 28.3768 22.7345 21.9065 25.6296C20.1509 24.4046 18.5676 23.4028 17.1357 22.5948C20.125 18.55 25.8405 15.9859 32.0637 15.9859V15.9859ZM11.7571 36.2926C9.80232 30.3066 9.11785 24.1879 10.2319 22.651C10.3369 22.4757 10.5298 22.3737 10.7333 22.3854C12.2551 22.5543 13.7202 23.0596 15.0223 23.8642C15.0315 23.87 15.0359 23.8793 15.0452 23.8852C15.0799 23.9023 15.1155 23.9174 15.1516 23.9306C17.2402 25.0632 19.2526 26.3306 21.1761 27.7245C21.4901 27.9471 21.8992 27.9832 22.2468 27.8187C28.4617 24.8504 35.6862 24.8538 41.8982 27.828C42.2473 27.9944 42.6593 27.9588 42.9742 27.7337C47.7509 24.3348 51.5609 22.3854 53.4258 22.3854C53.627 22.3742 53.8179 22.4757 53.9214 22.6485C55.0413 24.1932 54.3539 30.3325 52.3903 36.3341C52.2917 36.6348 52.3318 36.9634 52.4997 37.2314C53.0729 38.1507 53.5767 39.111 54.0083 40.104C51.6571 40.5952 49.4211 41.5315 47.4213 42.8624C46.9619 43.2188 46.8731 43.8774 47.2212 44.3431C47.5693 44.8089 48.2264 44.91 48.698 44.5702C50.5508 43.3814 52.6105 42.5519 54.7699 42.1247C55.201 43.5054 55.448 44.9373 55.5046 46.3829C53.7529 46.0524 51.9763 45.8737 50.1944 45.8483C49.6051 45.8483 49.1276 46.3258 49.1276 46.915C49.1276 47.5038 49.6051 47.9813 50.1944 47.9813C51.951 48.0125 53.7017 48.1995 55.4251 48.5398C55.284 49.6729 54.9779 50.7792 54.5165 51.824C53.483 51.4012 52.3772 51.183 51.2606 51.181C46.4552 51.181 42.7287 55.1941 42.7287 58.6467C42.7248 59.2575 42.8502 59.8624 43.0963 60.4218C39.5016 61.4007 35.7893 61.8801 32.0637 61.846C28.3382 61.8801 24.6258 61.4007 21.0307 60.4218C21.2767 59.8624 21.4022 59.2575 21.3983 58.6467C21.3983 55.1941 17.6718 51.181 12.8663 51.181C11.7498 51.183 10.644 51.4012 9.61045 51.824C9.14909 50.7792 8.84299 49.6729 8.70189 48.5398C10.4258 48.1995 12.176 48.0125 13.9331 47.9813C14.5218 47.9813 14.9993 47.5038 14.9993 46.915C14.9993 46.3258 14.5218 45.8483 13.9331 45.8483C12.1506 45.8737 10.3735 46.0524 8.62231 46.3829C8.67846 44.9378 8.92549 43.5059 9.35658 42.1252C11.5159 42.5519 13.5757 43.3814 15.4285 44.5702C15.9001 44.9095 16.5572 44.8089 16.9053 44.3431C17.2539 43.8779 17.165 43.2188 16.7056 42.8624C14.7054 41.531 12.4694 40.5947 10.1172 40.1035C10.5542 39.0954 11.0658 38.1209 11.6482 37.1894C11.8157 36.9214 11.8557 36.5928 11.7571 36.2926V36.2926Z" fill="#D82F49"/>
</g>
<defs>
<clipPath id="clip0_2133_120073">
<rect width="64" height="64" fill="white"/>
</clipPath>
</defs>
</svg>
