<svg width="64" height="64" viewBox="0 0 64 64" fill="none" xmlns="http://www.w3.org/2000/svg">
<g clip-path="url(#clip0_2133_120081)">
<path d="M0 34.1333C0.00646502 39.4326 4.30075 43.7269 9.6 43.7333H20.2667V54.4C20.2731 59.6993 24.5674 63.9935 29.8667 64H34.1333C39.4326 63.9935 43.7269 59.6993 43.7333 54.4V48.1184C44.0828 48.036 44.441 47.9962 44.8 48C45.7561 47.9808 46.6892 48.2941 47.44 48.8864C48.553 49.7161 49.909 50.1545 51.2971 50.1333C53.3812 50.2153 55.2893 48.9707 56.0544 47.0304C57.0874 44.1238 56.3484 40.8822 54.1579 38.7104C53.2767 37.7762 52.5137 36.7373 51.8859 35.6171C50.4757 33.3141 49.0187 30.9333 44.8 30.9333C40.5813 30.9333 39.1243 33.3141 37.7141 35.616C37.0863 36.7363 36.3233 37.7752 35.4421 38.7093C33.2516 40.8811 32.5126 44.1228 33.5456 47.0293C34.3104 48.9701 36.2186 50.2151 38.3029 50.1333C39.4652 50.1613 40.6106 49.8511 41.6 49.2405V54.4C41.5953 58.5218 38.2551 61.862 34.1333 61.8667H29.8667C25.7449 61.862 22.4047 58.5218 22.4 54.4V43.7333C22.4 42.5551 21.4449 41.6 20.2667 41.6H9.6C5.47822 41.5953 2.13804 38.2551 2.13333 34.1333V29.8667C2.13804 25.7449 5.47822 22.4047 9.6 22.4H20.2667C21.4449 22.4 22.4 21.4449 22.4 20.2667V9.6C22.4047 5.47822 25.7449 2.13804 29.8667 2.13333H34.1333C38.2551 2.13804 41.5953 5.47822 41.6 9.6V17.7664C40.5575 16.539 38.9768 15.9045 37.3749 16.0704C35.8285 16.335 34.5089 17.3387 33.8411 18.7584C33.0782 20.283 32.8126 22.0083 33.0816 23.6917C33.2976 25.383 34.0385 26.964 35.2 28.2123C36.1067 29.2159 37.385 29.8042 38.7371 29.84C38.9412 29.8397 39.1451 29.8251 39.3472 29.7963C40.8937 29.5317 42.2132 28.528 42.8811 27.1083C43.4562 25.9814 43.7487 24.7317 43.7333 23.4667V9.6C43.7269 4.30075 39.4326 0.00646502 34.1333 0H29.8667C24.5674 0.00646502 20.2731 4.30075 20.2667 9.6V20.2667H9.6C4.30075 20.2731 0.00646502 24.5674 0 29.8667L0 34.1333ZM38.3029 48C37.0849 48.0811 35.9563 47.3587 35.52 46.2187C34.8358 44.111 35.3861 41.7977 36.9461 40.224C37.9506 39.1712 38.8206 37.9978 39.536 36.7307C40.8843 34.5237 41.7771 33.0667 44.8 33.0667C47.8229 33.0667 48.7157 34.5237 50.0661 36.7307C50.7816 37.9978 51.6515 39.1712 52.656 40.224C54.2153 41.7982 54.7648 44.1114 54.08 46.2187C53.6437 47.3587 52.5151 48.0811 51.2971 48C50.3244 48.0221 49.3744 47.7049 48.6101 47.1029C46.3375 45.4546 43.2626 45.4546 40.9899 47.1029C40.2256 47.7049 39.2756 48.0221 38.3029 48ZM40.9941 26.112C40.6814 26.9548 39.9329 27.559 39.0431 27.6869C38.1534 27.8148 37.2649 27.4459 36.7275 26.7253C35.8799 25.8006 35.3428 24.634 35.1915 23.3888C34.9849 22.1515 35.1714 20.8805 35.7248 19.7547C36.0819 18.9458 36.8085 18.3599 37.6747 18.1824C39.3963 17.9381 41.1552 19.9029 41.5253 22.4779C41.5717 22.7994 41.5955 23.1237 41.5968 23.4485V23.4667C41.6141 24.3843 41.4072 25.2924 40.9941 26.112Z" fill="#D82F49"/>
<path d="M27.7694 27.3814C25.6521 28.4075 24.9737 31.3952 26.2558 34.0427C27.0614 35.9174 28.8465 37.1851 30.882 37.328C31.4152 37.3305 31.942 37.2112 32.4222 36.9792C34.5396 35.9531 35.218 32.9643 33.9348 30.319C32.6516 27.6736 29.8868 26.3552 27.7694 27.3814ZM31.4921 35.0614C30.4489 35.567 28.9321 34.6731 28.1758 33.1126C27.4196 31.552 27.6596 29.8059 28.6996 29.3024C28.8991 29.2066 29.1182 29.158 29.3396 29.1606C30.5434 29.3256 31.5662 30.1236 32.019 31.2512C32.7721 32.8107 32.5332 34.56 31.4921 35.0603V35.0614Z" fill="#D82F49"/>
<path d="M50.2542 29.7962C50.4563 29.8251 50.6602 29.8397 50.8644 29.84C52.2163 29.8037 53.4945 29.2155 54.4014 28.2122C55.5629 26.964 56.3038 25.383 56.5198 23.6917C56.7888 22.0083 56.5232 20.2829 55.7604 18.7584C55.0925 17.3387 53.773 16.335 52.2265 16.0704C49.3198 15.6522 46.5049 18.3904 45.9609 22.1749C45.693 23.8583 45.9585 25.5834 46.7204 27.1082C47.3882 28.5279 48.7078 29.5316 50.2542 29.7962ZM48.0729 22.4778C48.4228 20.049 50.01 18.161 51.6302 18.161C51.7284 18.1612 51.8264 18.1684 51.9236 18.1824C52.7897 18.3599 53.5163 18.9458 53.8734 19.7546C54.4268 20.8805 54.6133 22.1514 54.4068 23.3888C54.2554 24.634 53.7183 25.8006 52.8708 26.7253C52.3333 27.4459 51.4449 27.8148 50.5551 27.6869C49.6654 27.559 48.9168 26.9547 48.6041 26.112C48.0519 24.9858 47.8662 23.715 48.0729 22.4778Z" fill="#D82F49"/>
<path d="M57.1724 36.9792C57.6526 37.2112 58.1794 37.3305 58.7127 37.328C60.7483 37.1847 62.5334 35.9166 63.3388 34.0416C64.6188 31.3952 63.9426 28.4075 61.8252 27.3814C59.7079 26.3552 56.9431 27.6736 55.6599 30.319C54.3767 32.9643 55.0594 35.9531 57.1724 36.9792ZM60.2658 29.1595C60.4872 29.1569 60.7062 29.2055 60.9058 29.3014C61.9458 29.8048 62.1858 31.551 61.4295 33.1115C60.6732 34.672 59.1532 35.5648 58.1143 35.0603C57.0754 34.5558 56.8343 32.8107 57.5906 31.2502C58.0426 30.1238 59.0635 29.3259 60.2658 29.1595Z" fill="#D82F49"/>
</g>
<defs>
<clipPath id="clip0_2133_120081">
<rect width="64" height="64" fill="white"/>
</clipPath>
</defs>
</svg>
