<svg width="64" height="64" viewBox="0 0 64 64" fill="none" xmlns="http://www.w3.org/2000/svg">
<g clip-path="url(#clip0_2133_120090)">
<path d="M47.4667 3.73335C45.2142 3.73586 42.9762 4.09368 40.8352 4.79362C39.6937 3.49048 38.0622 2.72012 36.3307 2.66669C33.1186 2.84095 29.9411 3.41754 26.8725 4.38295C26.1565 4.59242 25.4927 4.95083 24.9248 5.43469C22.2705 4.30913 19.4164 3.73048 16.5333 3.73335C7.26293 3.73335 0 12.6934 0 24.128C0 36.1344 7.7632 52.5984 29.4272 60.5078C29.4475 60.5174 29.4688 60.5238 29.4891 60.5312C30.2002 60.7915 30.9276 61.0404 31.6715 61.2779C31.7774 61.3133 31.8883 61.332 32 61.3334C32.1119 61.3335 32.2232 61.3159 32.3296 61.2811C34.3436 60.628 36.3224 59.8711 38.2581 59.0134C38.2848 59.0038 38.3125 59.008 38.3392 58.9963C38.3659 58.9846 38.3829 58.9622 38.4085 58.9494C57.1605 50.56 64 35.3792 64 24.128C64 12.6934 56.7371 3.73335 47.4667 3.73335ZM61.8667 24.128C61.7412 30.6016 59.6829 36.8898 55.9563 42.1846C53.1925 36.0491 49.6629 30.4843 47.7515 28.5792C46.3601 27.0327 44.5889 25.8763 42.6133 25.2246L42.1739 22.143C43.9967 20.878 45.0188 18.7467 44.864 16.5334C44.8966 13.0417 43.9813 9.60659 42.2155 6.59415C43.9242 6.11194 45.6912 5.86716 47.4667 5.86669C55.5413 5.86669 61.8667 13.888 61.8667 24.128ZM2.13333 24.128C2.13333 13.888 8.45867 5.86669 16.5333 5.86669C18.9191 5.87087 21.2833 6.31754 23.5061 7.18402L21.4251 10.3019C20.9831 10.9646 20.3112 11.44 19.5392 11.6363L13.3451 13.1744C12.4289 13.4062 11.7765 14.2161 11.7451 15.1606C11.6768 16.9739 11.9189 23.0272 17.8592 25.0112C17.9682 25.0478 18.0824 25.0665 18.1973 25.0667C21.3433 25.1029 24.4641 25.6334 27.4453 26.639L27.1851 27.2C25.47 30.4958 24.5613 34.1515 24.5333 37.8667C24.6045 41.949 26.1157 45.875 28.8 48.9515V57.9808C9.20747 50.271 2.13333 35.183 2.13333 24.128ZM13.8667 15.2438L16 14.7104V16.5334H13.9008C13.8645 16.1045 13.8531 15.6739 13.8667 15.2438ZM38.5664 56.5238C38.4546 56.001 38.3988 55.4679 38.4 54.9334C38.3444 52.2843 39.539 49.7635 41.6245 48.1291C43.3918 46.8979 45.6566 46.6291 47.6629 47.4123C48.025 47.5327 48.4237 47.4508 48.709 47.1975C48.9943 46.9442 49.1228 46.5579 49.0461 46.1842C48.9694 45.8105 48.6991 45.506 48.3371 45.3856C45.6789 44.3915 42.7015 44.7709 40.3776 46.4C37.7395 48.438 36.2161 51.6001 36.2667 54.9334C36.2625 55.7685 36.3701 56.6004 36.5867 57.407C35.1275 58.0278 33.6 58.6123 31.9947 59.1446C31.632 59.0251 31.2843 58.8971 30.928 58.7723V48.5334C30.9282 48.2512 30.8166 47.9804 30.6176 47.7803C28.1596 45.0533 26.7581 41.5369 26.6667 37.8667C26.6936 34.4625 27.5348 31.1141 29.12 28.1014L29.3803 27.5371C29.6251 27.0154 29.6443 26.4159 29.4336 25.8795C29.2154 25.3334 28.7823 24.901 28.2357 24.6838C25.0673 23.5703 21.7389 22.9792 18.3808 22.9334C16.411 22.2585 14.8934 20.6665 14.3136 18.6667H16C17.1782 18.6667 18.1333 17.7116 18.1333 16.5334V14.1867L20.0629 13.7078C21.3482 13.3812 22.4668 12.5895 23.2021 11.4859L25.6949 7.75255C25.7787 7.62823 25.871 7.5099 25.9712 7.39842C26.3665 6.94168 26.8849 6.6084 27.4645 6.43842C30.343 5.53676 33.32 4.98663 36.3307 4.80002C37.6712 4.91051 38.8956 5.60385 39.68 6.69655C41.7332 9.55968 42.8035 13.0109 42.7307 16.5334C42.7307 18.575 42.0032 19.9467 40.5664 20.5995C39.0488 21.1789 37.3651 21.1437 35.8731 20.5014C35.4665 20.34 35.1998 19.9467 35.2 19.5094V12.2667C35.2 11.6776 34.7224 11.2 34.1333 11.2C33.5442 11.2 33.0667 11.6776 33.0667 12.2667V19.5094C33.0715 20.8198 33.87 21.9966 35.0859 22.4854C36.6854 23.1374 38.4411 23.3058 40.1355 22.9696L40.5024 25.5296C40.6226 26.3711 41.2347 27.0588 42.0565 27.2758C43.6694 27.8394 45.1111 28.8066 46.2443 30.0854C47.9008 31.7323 51.6309 37.4816 54.4971 44.1654C50.2236 49.4696 44.7683 53.7004 38.5675 56.5195L38.5664 56.5238Z" fill="#D82F49"/>
</g>
<defs>
<clipPath id="clip0_2133_120090">
<rect width="64" height="64" fill="white"/>
</clipPath>
</defs>
</svg>
