<svg width="72" height="72" viewBox="0 0 72 72" fill="none" xmlns="http://www.w3.org/2000/svg">
<path d="M5.87221 53.0023H54.8744C55.3139 53.0023 55.7387 52.8486 56.0756 52.5683C56.5462 52.1742 67.2826 42.9381 67.9373 23.001H15.3099C14.6577 41.0985 4.77004 49.6049 4.66729 49.6898C4.06488 50.1988 3.84325 51.0302 4.11426 51.77C4.3834 52.5079 5.0848 53.0023 5.87221 53.0023Z" fill="#C73C5E"/>
<path d="M66.1248 11.7502H56.7494V9.87508C56.7494 8.82504 55.9243 8 54.8743 8C53.8242 8 52.9992 8.82504 52.9992 9.87508V11.7502H43.4988V9.87508C43.4988 8.82504 42.6737 8 41.6237 8C40.5736 8 39.7486 8.82504 39.7486 9.87508V11.7502H30.3732V9.87508C30.3732 8.82504 29.5481 8 28.4981 8C27.448 8 26.623 8.82504 26.623 9.87508V11.7502H17.2476C16.1975 11.7502 15.3725 12.5752 15.3725 13.6253V19.2505H67.9999V13.6253C67.9999 12.5752 67.1748 11.7502 66.1248 11.7502Z" fill="#C73C5E"/>
<path d="M58.4836 55.443C57.4654 56.2908 56.1873 56.7523 54.8744 56.7523H15.3726V62.3776C15.3726 63.414 16.2113 64.2527 17.2477 64.2527H66.1249C67.1613 64.2527 68 63.414 68 62.3776V41.3584C64.3848 50.2277 59.3401 54.7261 58.4836 55.443Z" fill="#C73C5E"/>
</svg>
