<svg width="108" height="108" viewBox="0 0 108 108" fill="none" xmlns="http://www.w3.org/2000/svg">
<g clip-path="url(#clip0_1318_57863)">
<circle cx="90" cy="66" r="15" fill="#FAD0D3"/>
<circle cx="21" cy="66" r="15" fill="#FAD0D3"/>
<path d="M108 58.8555C106.5 70.5 106.5 75 93.0887 71.7655C82.5 73.5 76.6862 74.8033 78.1773 58.8555C78.1773 48.2231 78.1773 43.667 93.0887 45.9452C105 45 108 50.4671 108 58.8555Z" fill="white"/>
<path d="M53.1562 59.0625H55.2656V70.2422H53.1562V59.0625Z" fill="black"/>
<path d="M64.7156 28.2656C64.4836 28.2656 64.2305 28.2234 63.9985 28.1391C60.4125 26.8313 63.1336 17.7188 63.7242 15.9047L65.7282 16.5375C63.7875 22.5914 64.2305 25.8188 64.7367 26.1563H64.7578C65.4328 26.1563 68.0696 23.5828 70.4953 17.1914L72.4571 17.9508C70.9383 21.9586 67.711 28.2656 64.7156 28.2656V28.2656Z" fill="black"/>
<path d="M26.8989 66.2998L27.4115 68.3459L18.9816 70.4577L18.469 68.4116L26.8989 66.2998Z" fill="black"/>
<path d="M18.918 59.9356L27.3479 62.0474L26.8353 64.0935L18.4054 61.9817L18.918 59.9356Z" fill="black"/>
<path d="M54.148 60.1172C53.8737 60.1172 53.5995 60.0117 53.4097 59.8008L50.0558 56.4469C49.2964 55.6875 48.8745 54.675 48.8745 53.5992C48.8745 51.3633 50.6886 49.5703 52.9034 49.5703H55.3714C57.6073 49.5703 59.4003 51.3844 59.4003 53.5992C59.4003 54.675 58.9784 55.6875 58.219 56.4469L54.8651 59.8008C54.6753 60.0117 54.4011 60.1172 54.148 60.1172V60.1172ZM52.9034 51.6797C51.8487 51.6797 50.9839 52.5445 50.9839 53.5992C50.9839 54.1055 51.1948 54.5906 51.5534 54.9703L54.148 57.5648L56.7425 54.9703C57.1011 54.6117 57.312 54.1266 57.312 53.5992C57.312 52.5445 56.4472 51.6797 55.3925 51.6797H52.9034Z" fill="black"/>
<path d="M12.4893 0.304626L31.1905 19.0059L29.6992 20.4972L10.9979 1.79595L12.4893 0.304626Z" fill="black"/>
<path d="M12.4893 0.304626L31.1905 19.0059L29.6992 20.4972L10.9979 1.79595L12.4893 0.304626Z" fill="black"/>
<path d="M97.4324 34.9523L95.6605 33.8133C95.7871 33.6234 95.8926 33.4336 96.0191 33.2438C101.925 23.6461 101.904 11.707 95.9559 2.13047C85.2191 2.23594 75.3684 8.12109 70.2215 17.55L68.3652 16.5375C73.934 6.32812 84.6074 0 96.2301 0H96.5465C96.9051 0 97.2426 0.189844 97.4535 0.50625L97.7699 1.0125C100.871 6.03281 102.516 11.7914 102.537 17.6766C102.537 23.5617 100.913 29.3203 97.8332 34.3406C97.6855 34.5516 97.559 34.7625 97.4324 34.9523Z" fill="black"/>
<path d="M95.7827 0.288635L97.274 1.77996L78.5728 20.4812L77.0815 18.9899L95.7827 0.288635Z" fill="black"/>
<path d="M45.9214 54.8438H43.812V50.625C43.812 48.8742 42.3987 47.4609 40.6479 47.4609C38.8972 47.4609 37.4839 48.8742 37.4839 50.625V54.8438H35.3745V50.625C35.3745 47.7141 37.737 45.3516 40.6479 45.3516C43.5589 45.3516 45.9214 47.7141 45.9214 50.625V54.8438Z" fill="black"/>
<path d="M72.9214 54.8438H70.812V50.625C70.812 48.8742 69.3987 47.4609 67.648 47.4609C65.8972 47.4609 64.4839 48.8742 64.4839 50.625V54.8438H62.3745V50.625C62.3745 47.7141 64.737 45.3516 67.648 45.3516C70.5589 45.3516 72.9214 47.7141 72.9214 50.625V54.8438Z" fill="black"/>
<path d="M37.0198 31.6406C35.4589 31.6406 34.0245 30.9445 33.0331 29.7422C32.0417 28.5398 31.6831 26.9789 31.9995 25.4602L37.294 0.84375C37.3784 0.50625 37.6104 0.210938 37.9479 0.084375C38.2854 -0.0421875 38.644 0 38.9393 0.210938L60.0331 14.9766C60.4339 15.2719 60.6026 15.7992 60.3917 16.2633C56.3628 25.5867 47.2081 31.6406 37.0198 31.6406V31.6406ZM39.0237 2.82656L34.0878 25.882C33.8979 26.768 34.1089 27.6961 34.6995 28.4133C35.269 29.1305 36.1339 29.5312 37.0409 29.5312C46.0901 29.5312 54.2745 24.3211 58.1135 16.1789L39.0237 2.82656Z" fill="black"/>
<path d="M48.2393 6.94034L48.2751 9.04971L36.8212 9.24443L36.7854 7.13505L48.2393 6.94034Z" fill="black"/>
<path d="M52.9482 10.7198L53.9164 12.5951L34.3765 22.6838L33.4083 20.8085L52.9482 10.7198Z" fill="black"/>
<path d="M44.0859 81.4219V79.3125C48.9375 79.3125 53.1562 75.2414 53.1562 70.2422C53.1562 65.243 48.9375 61.1719 44.0859 61.1719V59.0625C50.2031 59.0625 55.2656 64.0828 55.2656 70.2422C55.2656 76.4016 50.2031 81.4219 44.0859 81.4219Z" fill="black"/>
<path d="M70.3901 74.0391C68.3019 74.0391 66.5933 72.3305 66.5933 70.2422C66.5933 68.1539 68.3019 66.4453 70.3901 66.4453V68.5547C69.462 68.5547 68.7026 69.3141 68.7026 70.2422C68.7026 71.1703 69.462 71.9297 70.3901 71.9297V74.0391Z" fill="black"/>
<path d="M81.6753 74.0391C78.2159 74.0391 76.4019 66.825 76.4019 59.6953C76.4019 52.5656 78.2159 45.3516 81.6753 45.3516C85.1347 45.3516 86.9487 52.5656 86.9487 59.6953C86.9487 66.825 85.1347 74.0391 81.6753 74.0391ZM81.6753 47.4609C81.2745 47.4609 80.4308 48.3047 79.6925 50.625C78.9331 53.0297 78.5112 56.257 78.5112 59.6953C78.5112 63.1336 78.9331 66.3609 79.6925 68.7656C80.4308 71.0859 81.2745 71.9297 81.6753 71.9297C82.0761 71.9297 82.9198 71.0859 83.6581 68.7656C84.4175 66.3609 84.8394 63.1336 84.8394 59.6953C84.8394 56.257 84.4175 53.0297 83.6581 50.625C82.9198 48.3047 82.055 47.4609 81.6753 47.4609Z" fill="black"/>
<path d="M102.769 74.0391H81.6753C78.2159 74.0391 76.4019 66.825 76.4019 59.6953C76.4019 52.5656 78.2159 45.3516 81.6753 45.3516H102.769C106.228 45.3516 108.042 52.5656 108.042 59.6953C108.042 66.825 106.228 74.0391 102.769 74.0391V74.0391ZM81.6753 47.4609C81.2745 47.4609 80.4308 48.3047 79.6925 50.625C78.9331 53.0297 78.5112 56.257 78.5112 59.6953C78.5112 63.1336 78.9331 66.3609 79.6925 68.7656C80.4308 71.0859 81.2745 71.9297 81.6753 71.9297H102.769C103.17 71.9297 104.014 71.0859 104.752 68.7656C105.511 66.3609 105.933 63.1336 105.933 59.6953C105.933 56.257 105.511 53.0297 104.752 50.625C104.014 48.3047 103.17 47.4609 102.769 47.4609H81.6753Z" fill="black"/>
<path d="M80.7891 54.8438H82.8984V64.5469H80.7891V54.8438Z" fill="black"/>
<path d="M6.81354 27.4219H0.907294C0.485419 27.4219 0.105731 27.1688 -0.063019 26.768C-0.231769 26.3672 -0.1263 25.9242 0.169012 25.6289L1.8987 23.8992C4.38776 21.3891 5.75886 18.0773 5.75886 14.5547C5.75886 13.9641 6.22292 13.5 6.81354 13.5H12.7198C13.3104 13.5 13.7745 13.9641 13.7745 14.5547C13.7745 18.6469 12.1714 22.4859 9.28151 25.3758L7.55182 27.1055C7.36198 27.3164 7.10886 27.4219 6.81354 27.4219ZM3.45964 25.3125H6.39167L7.80495 23.8992C10.0409 21.6422 11.3909 18.7313 11.644 15.6094H7.84714C7.59401 19.2797 6.05417 22.6758 3.45964 25.3125V25.3125Z" fill="black"/>
<path d="M83.3629 99.1406H77.4566C77.0347 99.1406 76.655 98.8875 76.4863 98.4867C76.3175 98.0859 76.423 97.643 76.7183 97.3477L78.448 95.618C80.9371 93.1289 82.3082 89.8172 82.3082 86.2734C82.3082 85.6828 82.7722 85.2188 83.3629 85.2188H89.2691C89.8597 85.2188 90.3238 85.6828 90.3238 86.2734C90.3238 90.3656 88.7207 94.2047 85.8308 97.0945L84.1011 98.8242C83.9113 99.0352 83.6371 99.1406 83.3629 99.1406ZM79.9879 97.0312H82.9199L84.3332 95.618C86.5691 93.382 87.9191 90.4711 88.1511 87.3281H84.3543C84.1222 90.9984 82.6035 94.3945 79.9879 97.0312Z" fill="black"/>
<path d="M12.7197 59.2734H6.81348C6.53926 59.2734 6.26504 59.168 6.0752 58.957L4.34551 57.2273C1.45566 54.3375 -0.147461 50.4984 -0.147461 46.4062C-0.147461 45.8156 0.316602 45.3516 0.907227 45.3516H6.81348C7.4041 45.3516 7.86816 45.8156 7.86816 46.4062C7.86816 49.9289 9.23926 53.2406 11.7283 55.7508L13.458 57.4805C13.7533 57.7758 13.8588 58.2398 13.69 58.6195C13.5424 59.0203 13.1627 59.2734 12.7197 59.2734V59.2734ZM7.25645 57.1641H10.1885C7.59395 54.5273 6.0541 51.1312 5.80098 47.4609H2.0041C2.25723 50.5828 3.58613 53.4937 5.82207 55.7508L7.25645 57.1641Z" fill="black"/>
<path d="M85.9995 39.2344H80.0933C79.819 39.2344 79.5448 39.1289 79.355 38.918L77.6253 37.1883C74.7354 34.2984 73.1323 30.4594 73.1323 26.3672C73.1323 25.7766 73.5964 25.3125 74.187 25.3125H80.0933C80.6839 25.3125 81.1479 25.7766 81.1479 26.3672C81.1479 29.8898 82.519 33.2016 85.0081 35.7117L86.7378 37.4414C87.0331 37.7367 87.1386 38.2008 86.9698 38.5805C86.8011 38.9812 86.4214 39.2344 85.9995 39.2344ZM80.5151 37.125H83.4472C80.8526 34.4883 79.3128 31.0922 79.0597 27.4219H75.2628C75.5159 30.5438 76.8448 33.4547 79.0808 35.7117L80.5151 37.125Z" fill="black"/>
<path d="M8.03701 14.6602L5.94873 14.4492C6.43389 9.70312 8.01592 5.0625 10.5261 1.0125L10.8425 0.50625C11.0323 0.189844 11.3698 0 11.7495 0H12.0659C21.6847 0 30.6706 4.28203 36.7245 11.7492L35.0792 13.0781C29.4894 6.18047 21.1995 2.19375 12.3401 2.10938C9.97764 5.90625 8.50107 10.2305 8.03701 14.6602V14.6602Z" fill="black"/>
<path d="M10.8636 34.9523C10.737 34.7414 10.6104 34.5516 10.4839 34.3406C8.81748 31.6406 7.57295 28.7086 6.79248 25.65L8.83857 25.1227C9.57686 27.9914 10.737 30.7125 12.2769 33.2226C12.4034 33.4125 12.5089 33.6023 12.6354 33.7922L10.8636 34.9523Z" fill="black"/>
<path d="M54.1479 31.6406C52.8611 31.6406 51.0049 30.818 49.5283 26.8945L51.5111 26.1562C52.4393 28.6453 53.4939 29.5523 54.1689 29.5523C55.8986 29.5523 58.3877 24.2156 58.3877 15.8414H60.4971C60.476 23.4984 58.24 31.6406 54.1479 31.6406Z" fill="black"/>
<path d="M86.8644 25.9664C78.7855 20.25 69.2934 17.107 59.4004 16.8961L59.4426 14.7867C69.7574 15.0187 79.6715 18.2883 88.0879 24.2578L86.8644 25.9664Z" fill="black"/>
<path d="M21.4105 25.9664L20.187 24.2367C24.4901 21.1781 29.2362 18.8156 34.2565 17.2125L34.8894 19.2164C30.1011 20.7562 25.5448 23.0344 21.4105 25.9664Z" fill="black"/>
<path d="M4.99941 46.7859L3.0166 46.0477C4.93613 40.9852 7.69941 36.3445 11.2854 32.2734C11.9393 31.5141 12.6354 30.7758 13.3525 30.0586L14.8502 31.5352C14.1752 32.2102 13.5002 32.9273 12.8674 33.6656C9.47129 37.5469 6.81348 41.9555 4.99941 46.7859V46.7859Z" fill="black"/>
<path d="M55.8566 108H52.4184C44.466 108 36.6824 106.587 29.2363 103.802C20.6512 100.596 13.3527 94.9008 8.12148 87.3703C2.89023 79.8399 0.126953 71.0016 0.126953 61.8469C0.126953 58.5984 0.485547 55.3289 1.18164 52.1648L3.24883 52.6289C2.57383 55.6453 2.23633 58.7672 2.23633 61.868C2.23633 79.5867 13.3738 95.6391 29.9746 101.862C37.1676 104.52 44.7191 105.891 52.4184 105.891H55.8566C63.5559 105.891 71.1074 104.52 78.3004 101.82C94.8801 95.618 106.039 79.5445 106.039 61.8258C106.039 51.4477 102.263 41.4492 95.4074 33.6445C94.6902 32.843 93.9519 32.0414 93.1926 31.282L94.6902 29.7844C95.4918 30.5859 96.2512 31.4086 96.9894 32.2523C104.182 40.4367 108.127 50.9414 108.127 61.8258C108.127 71.0016 105.364 79.8188 100.132 87.3492C94.9012 94.8797 87.6027 100.575 79.0176 103.781C71.5926 106.587 63.809 108 55.8566 108Z" fill="black"/>
<path d="M94.2261 74.0391H54.148C53.5573 74.0391 53.0933 73.575 53.0933 72.9844V67.5C53.0933 66.9094 53.5573 66.4453 54.148 66.4453H78.2581V68.5547H55.2026V71.9297H94.2261V74.0391Z" fill="black"/>
</g>
<defs>
<clipPath id="clip0_1318_57863">
<rect width="108" height="108" fill="white"/>
</clipPath>
</defs>
</svg>
