<svg width="72" height="72" viewBox="0 0 72 72" fill="none" xmlns="http://www.w3.org/2000/svg">
<path d="M40.6217 49.9138C39.3402 50.6997 37.699 51.1326 36.0005 51.1326C34.302 51.1326 32.6608 50.6999 31.3794 49.9138L10.4577 37.0824C10.4577 37.0824 8.56934 35.9249 8.56934 38.547C8.56934 41.5247 8.56934 50.4577 8.56934 50.4577C8.56934 50.5768 8.56934 51.1747 8.56934 51.36C8.56934 58.1097 20.8505 65.3863 36 65.3863C51.1494 65.3863 63.4306 58.1099 63.4306 51.36C63.4306 51.1747 63.4306 50.5768 63.4306 50.4577C63.4306 50.4577 63.4306 40.9829 63.4306 37.8246C63.4306 35.7198 62.0881 36.7483 62.0881 36.7483L40.6217 49.9138Z" fill="#C99308"/>
<path d="M70.7943 26.8757C72.4019 25.8898 72.4019 24.2765 70.7943 23.2904L38.9228 7.35269C37.3152 6.36681 34.6846 6.36681 33.077 7.35269L1.20568 23.2904C-0.401895 24.2763 -0.401895 25.8897 1.20568 26.8757L33.077 46.4228C34.6846 47.4086 37.3152 47.4086 38.9228 46.4228" fill="#C99308"/>
<path d="M69.4762 55.8491C69.4762 50.4522 69.4762 34.2611 69.4762 34.2611C69.4762 34.2611 69.4912 33.2385 68.8845 33.5762C68.3977 33.8471 67.2047 34.5121 66.7844 34.8777C66.2991 35.2995 66.4085 36.2462 66.4085 36.2462C66.4085 36.2462 66.4085 50.9485 66.4085 55.8491C66.4085 56.1274 66.1694 56.2602 66.0553 56.3274C64.9536 56.9751 64.2128 58.1706 64.2128 59.5413C64.2128 61.6011 65.8824 63.2709 67.9424 63.2709C70.0023 63.2709 71.6719 61.6011 71.6719 59.5413C71.6719 58.1654 70.9257 56.966 69.8169 56.32C69.7067 56.2557 69.4762 56.1272 69.4762 55.8491Z" fill="#C99308"/>
</svg>
