<svg width="56" height="56" viewBox="0 0 56 56" fill="none" xmlns="http://www.w3.org/2000/svg">
<path d="M28 27.1333C24.0723 27.1333 15.9776 33.5163 14.1593 40.7894C13.2407 44.4666 13.4131 47.0476 14.688 48.6804C15.6474 49.9102 17.2109 50.5333 19.3333 50.5333C20.9978 50.4711 22.6204 49.9945 24.0541 49.1466C25.2496 48.4238 26.6049 48.0071 28 47.9333C29.3951 48.0071 30.7504 48.4238 31.9459 49.1466C33.3796 49.9945 35.0022 50.4711 36.6667 50.5333C38.7891 50.5333 40.3526 49.9102 41.312 48.6804C42.5869 47.0476 42.7593 44.4666 41.8407 40.7894C40.0224 33.5163 31.9277 27.1333 28 27.1333ZM39.9461 47.6135C39.3221 48.4117 38.2501 48.8 36.6667 48.8C35.2716 48.7262 33.9162 48.3095 32.7207 47.5866C31.287 46.7388 29.6644 46.2622 28 46.2C26.3356 46.2622 24.713 46.7388 23.2793 47.5866C22.0838 48.3095 20.7284 48.7262 19.3333 48.8C17.7499 48.8 16.6779 48.4117 16.0539 47.6135C15.1421 46.4461 15.0702 44.2916 15.8407 41.2106C17.4986 34.5806 25.0126 28.8666 28 28.8666C30.9874 28.8666 38.5014 34.5806 40.1593 41.2106C40.9298 44.2933 40.8579 46.4461 39.9461 47.6135Z" fill="#C99308"/>
<path d="M21.0667 25.4C24.4683 25.4 27.1333 21.2123 27.1333 15.8667C27.1333 10.5211 24.4683 6.33336 21.0667 6.33336C17.665 6.33336 15 10.5211 15 15.8667C15 21.2123 17.665 25.4 21.0667 25.4ZM21.0667 8.06669C23.4153 8.06669 25.4 11.6391 25.4 15.8667C25.4 20.0943 23.4153 23.6667 21.0667 23.6667C18.718 23.6667 16.7333 20.0943 16.7333 15.8667C16.7333 11.6391 18.718 8.06669 21.0667 8.06669Z" fill="#C99308"/>
<path d="M16.8244 29.9934C17.04 28.1233 16.7353 26.2301 15.9438 24.5221C14.1784 20.5198 10.7048 18.3064 8.03897 19.4824C5.3731 20.6585 4.65897 24.7154 6.42697 28.7176C7.15454 30.4535 8.34653 31.9553 9.87197 33.0579C10.7311 33.6821 11.7581 34.0336 12.8195 34.0667C13.3398 34.0688 13.8547 33.9617 14.331 33.7521C15.767 33.0268 16.7146 31.5984 16.8244 29.9934ZM13.6324 32.1687C12.6719 32.4812 11.6181 32.275 10.8461 31.6236C9.58917 30.7034 8.60914 29.4556 8.01297 28.0165C6.68697 25.0074 7.0189 21.825 8.7375 21.0667C8.99591 20.9547 9.27488 20.898 9.5565 20.9003C11.1954 20.9003 13.2286 22.6588 14.3578 25.2198C15.0184 26.6303 15.2783 28.1954 15.1092 29.7438C15.0694 30.7531 14.5109 31.6701 13.6324 32.1687Z" fill="#C99308"/>
<path d="M34.9339 25.4C38.3355 25.4 41.0005 21.2123 41.0005 15.8667C41.0005 10.5211 38.3355 6.33337 34.9339 6.33337C31.5322 6.33337 28.8672 10.5211 28.8672 15.8667C28.8672 21.2123 31.5322 25.4 34.9339 25.4ZM34.9339 8.06671C37.2825 8.06671 39.2672 11.6391 39.2672 15.8667C39.2672 20.0943 37.2825 23.6667 34.9339 23.6667C32.5852 23.6667 30.6005 20.0943 30.6005 15.8667C30.6005 11.6391 32.5852 8.06671 34.9339 8.06671Z" fill="#C99308"/>
<path d="M47.9603 19.4807C45.2988 18.3046 41.8208 20.5207 40.0554 24.5203C39.2637 26.2288 38.9589 28.1227 39.1749 29.9933C39.2832 31.6 40.231 33.0304 41.6683 33.7564C42.1449 33.9645 42.6598 34.0702 43.1798 34.0667C44.2414 34.0321 45.2681 33.6791 46.1264 33.0535C47.6519 31.9509 48.8439 30.4492 49.5714 28.7133C51.3368 24.7136 50.6279 20.6567 47.9603 19.4807ZM47.9863 28.0165C47.3901 29.4556 46.4101 30.7034 45.1532 31.6235C44.3814 32.2753 43.3274 32.4815 42.3668 32.1687C41.4892 31.6689 40.932 30.7512 40.8935 29.742C40.7244 28.1936 40.9844 26.6286 41.6449 25.218C42.9718 22.2089 45.5449 20.3049 47.2652 21.0649C48.9856 21.825 49.3123 25.0074 47.9863 28.0165Z" fill="#C99308"/>
<path d="M50.0541 15.9577C48.6406 15.2897 47.096 14.9457 45.5327 14.9506C46.0244 11.8451 45.2087 8.67464 43.2793 6.19207C41.2839 3.59305 38.2097 2.04894 34.9333 2C30.9623 2 28.9681 3.7498 28 5.185C27.0319 3.7498 25.0377 2 21.0667 2C17.7915 2.04999 14.7189 3.594 12.7241 6.19207C10.7947 8.67464 9.97906 11.8451 10.4708 14.9506C8.90755 14.9461 7.36297 15.2901 5.9494 15.9577C4.14587 16.8581 2 19.3775 2 26.2667C2 30.0115 3.144 33.9003 4.3556 38.0178C5.61313 42.2913 6.91313 46.7105 7.1584 51.5465C7.2313 52.9237 8.37054 54.0024 9.74973 54H46.2503C47.6298 54.0024 48.7691 52.9232 48.8416 51.5456C49.0869 46.7105 50.3869 42.2913 51.6444 38.0178C52.856 33.9003 54 30.0115 54 26.2667C54 19.3775 51.8541 16.8581 50.0541 15.9577ZM49.9813 37.5281C48.696 41.8987 47.3665 46.4175 47.11 51.4563C47.0846 51.9121 46.7068 52.2683 46.2503 52.2667H9.74973C9.29353 52.2683 8.9158 51.9127 8.89 51.4572C8.63 46.4175 7.304 41.8987 6.01873 37.5281C4.84267 33.5345 3.73333 29.7619 3.73333 26.2667C3.73333 19.7103 5.82287 17.9579 6.72073 17.5133C7.92551 16.9531 9.24107 16.6717 10.5696 16.69C10.8538 16.6873 11.138 16.7009 11.4207 16.7307C11.7052 16.7681 11.9897 16.6621 12.1806 16.4479C12.3715 16.2336 12.4439 15.9387 12.374 15.6604C11.6136 12.7464 12.2474 9.64452 14.09 7.2624C15.755 5.08283 18.3244 3.78314 21.0667 3.73333C26.3013 3.73333 27.1186 7.22773 27.1507 7.37333C27.2326 7.77469 27.5843 8.06388 27.9939 8.06667H28C28.4091 8.06661 28.7625 7.78045 28.8476 7.38027C28.8814 7.22773 29.6987 3.73333 34.9333 3.73333C37.6749 3.78211 40.2441 5.08012 41.91 7.25807C43.7526 9.64018 44.3864 12.7421 43.626 15.6561C43.5561 15.9344 43.6285 16.2292 43.8194 16.4435C44.0103 16.6578 44.2948 16.7637 44.5793 16.7264C46.188 16.5737 47.8086 16.8426 49.2819 17.5064C50.1771 17.9579 52.2667 19.7103 52.2667 26.2667C52.2667 29.7619 51.1573 33.5345 49.9813 37.5281Z" fill="#C99308"/>
</svg>
