<svg width="22" height="28" viewBox="0 0 22 28" fill="none" xmlns="http://www.w3.org/2000/svg">
<path d="M10.8485 15.9697C13.6769 15.9697 15.9697 13.6769 15.9697 10.8485C15.9697 8.02014 13.6769 5.72729 10.8485 5.72729C8.02014 5.72729 5.72729 8.02014 5.72729 10.8485C5.72729 13.6769 8.02014 15.9697 10.8485 15.9697Z" stroke="black" stroke-width="2" stroke-miterlimit="10"/>
<path d="M20.697 10.8421C20.6962 9.37669 20.3684 7.92993 19.7374 6.60732C19.1064 5.28471 18.1881 4.11959 17.0494 3.19693C15.9108 2.27427 14.5806 1.61733 13.1557 1.27403C11.7309 0.930729 10.2474 0.909719 8.81338 1.21253C7.37939 1.51534 6.03108 2.13433 4.86677 3.02438C3.70245 3.91442 2.7515 5.05306 2.08326 6.35727C1.41501 7.66148 1.04633 9.09837 1.00409 10.5632C0.961855 12.0279 1.24713 13.4837 1.83912 14.8242C2.54852 16.8244 4.74562 21.8938 10.0975 26.7108C10.304 26.8981 10.5731 27.0013 10.8519 27C11.1307 26.9987 11.3988 26.893 11.6035 26.7037C13.456 25.0015 18.2252 20.1753 20.1994 13.9366C20.5295 12.9383 20.6974 11.8935 20.697 10.8421Z" stroke="black" stroke-width="2" stroke-miterlimit="10"/>
</svg>
