<svg width="12" height="15" viewBox="0 0 12 15" fill="none" xmlns="http://www.w3.org/2000/svg">
<path d="M6 8C7.10457 8 8 7.10457 8 6C8 4.89543 7.10457 4 6 4C4.89543 4 4 4.89543 4 6C4 7.10457 4.89543 8 6 8Z" stroke="black" stroke-width="1.5" stroke-miterlimit="10"/>
<path d="M10.9935 5.92104C10.9931 5.18835 10.8268 4.46497 10.5066 3.80366C10.1865 3.14235 9.72055 2.55979 9.14285 2.09846C8.56515 1.63713 7.89024 1.30867 7.16733 1.13702C6.44442 0.965364 5.69175 0.954859 4.9642 1.10626C4.23665 1.25767 3.55257 1.56717 2.96185 2.01219C2.37112 2.45721 1.88864 3.02653 1.5496 3.67864C1.21056 4.33074 1.0235 5.04919 1.00208 5.78158C0.980647 6.51397 1.12538 7.24184 1.42573 7.91211C1.78566 8.9122 2.90038 11.4469 5.61573 13.8554C5.72047 13.9491 5.85702 14.0007 5.99846 14C6.13989 13.9993 6.27595 13.9465 6.37979 13.8519C7.3197 13.0007 9.7394 10.5876 10.741 7.4683C10.9085 6.96914 10.9937 6.44677 10.9935 5.92104Z" stroke="black" stroke-width="1.5" stroke-miterlimit="10"/>
</svg>
