<svg width="56" height="56" viewBox="0 0 56 56" fill="none" xmlns="http://www.w3.org/2000/svg">
<path d="M55.0882 16.3763C54.5073 15.8458 53.73 15.5841 52.9466 15.6553L48.1983 16.0869C46.267 16.2665 44.3561 15.5748 42.987 14.2006L39.9615 12.0605C39.7906 11.9409 39.6117 11.8328 39.4265 11.7369L36.9601 10.0735C34.9571 8.71955 32.5943 7.99732 30.1766 7.99999H22.0318C20.7832 7.99899 19.6172 8.62315 18.9255 9.66251L18.1271 10.8601L12.646 11.5455C11.7049 11.6634 10.7513 11.6368 9.81823 11.4667L3.3008 10.2818C2.48394 10.1332 1.64328 10.3549 1.00579 10.8869C0.368399 11.4189 0 12.2064 0 13.0366V29.4665C0.000889584 30.5461 0.621597 31.5292 1.59591 31.994L1.52842 32.1964C1.07595 33.5376 1.42578 35.0194 2.43034 36.0168L7.42692 41.0134C8.34986 41.9343 9.47363 42.629 10.71 43.0427L17.7497 45.3892C19.4086 45.9422 21.1992 45.9609 22.8693 45.4425L24.5664 47.0503C25.6022 48.0363 26.9773 48.5865 28.4073 48.5871C28.8689 48.5868 29.3286 48.53 29.7763 48.418L36.3903 46.7642C37.9035 46.3882 39.3207 45.6984 40.5503 44.7394L44.0037 42.0533C45.6679 40.7495 46.4573 38.6204 46.0453 36.5469L53.6534 33.837C55.0739 33.274 56.005 31.8987 55.9999 30.3707V18.4438C56 17.6572 55.6691 16.9068 55.0882 16.3763ZM18.3399 43.6184L11.3003 41.2719C10.3387 40.95 9.46473 40.4098 8.74684 39.6937L3.75027 34.6971C3.2481 34.1983 3.07329 33.4573 3.29958 32.7867L3.47283 32.2667H8.21776C8.69558 32.2662 9.15516 32.4494 9.50154 32.7785L21.2201 43.8803C20.2526 44.0091 19.2684 43.9196 18.3399 43.6184ZM42.8582 40.5796L42.5942 40.785L35.3282 28.9777C35.1538 28.6932 34.8407 28.5234 34.507 28.5325C34.1733 28.5416 33.8699 28.7283 33.7114 29.022C33.5528 29.3157 33.5631 29.6717 33.7386 29.9557L41.1121 41.9376L39.4047 43.2657C38.6875 43.8218 37.8925 44.2695 37.0452 44.5945L31.6003 35.5197C31.3349 35.0777 30.7616 34.9345 30.3197 35.1998C29.8777 35.4651 29.7345 36.0385 29.9998 36.4804L35.195 45.139L31.1903 46.1405L26.893 40.1244C26.6993 39.853 26.3754 39.7056 26.0435 39.7377C25.7115 39.7698 25.422 39.9765 25.2838 40.28C25.1455 40.5835 25.1798 40.9376 25.3736 41.2091L29.2404 46.6226C28.0264 46.9016 26.7532 46.5535 25.8503 45.6952L10.7853 31.4231C10.0927 30.7649 9.17328 30.3985 8.21776 30.3999H2.79997C2.28479 30.3993 1.86735 29.9818 1.86668 29.4667V13.0366C1.8649 12.7596 1.988 12.4965 2.20161 12.3201C2.41278 12.1398 2.69455 12.0655 2.96721 12.1182L9.48419 13.3031C10.6038 13.5073 11.7482 13.5391 12.8775 13.3974L16.8838 12.8966L16.3592 13.7674C15.4387 15.3135 15.7553 17.2966 17.1115 18.4792C18.4675 19.6618 20.4753 19.7057 21.8818 18.5835L24.6222 16.3997H27.8687C28.3259 16.3993 28.7673 16.5672 29.1088 16.8714L36.3836 23.3373C36.5291 23.4669 36.6537 23.6183 36.7527 23.7862L43.7842 35.7396C44.7304 37.3574 44.3348 39.4254 42.8582 40.5796ZM54.1333 30.3707C54.1389 31.1227 53.6882 31.8033 52.9935 32.0915L45.3948 34.7975L45.3929 34.7936L38.362 22.8403C38.1644 22.5043 37.9154 22.2014 37.6242 21.9424L30.3494 15.4761C29.666 14.8685 28.7833 14.5329 27.8689 14.5332H25.2293V13.5998C25.2293 13.0843 24.8114 12.6665 24.296 12.6665C23.7805 12.6665 23.3627 13.0844 23.3627 13.5998V15.0167L20.719 17.1236C20.0543 17.6523 19.1166 17.6662 18.4366 17.1573C17.6749 16.5929 17.4677 15.5418 17.9582 14.7305L19.4734 12.2148C19.4772 12.2086 19.4769 12.2015 19.4805 12.1953L20.4788 10.6978C20.8246 10.178 21.4076 9.86601 22.0319 9.86645H30.1767C32.2224 9.86423 34.2218 10.4754 35.9166 11.621L38.4304 13.3164L38.5348 13.3774C38.6587 13.4392 38.7778 13.5103 38.8912 13.5898L41.7267 15.579C43.4844 17.3062 45.9133 18.1719 48.3671 17.9461L53.1154 17.5145C53.3766 17.4906 53.6357 17.5778 53.8294 17.7546C54.0231 17.9314 54.1334 18.1815 54.1335 18.4438V30.3707H54.1333Z" fill="#2C877F"/>
</svg>
