<svg width="199" height="23" viewBox="0 0 199 23" fill="none" xmlns="http://www.w3.org/2000/svg">
<g clip-path="url(#clip0_88_891)">
<path d="M14.9552 4.53087H18.3792V21.9963H14.7668L14.3899 20.4434C12.8728 21.8129 10.9146 22.5506 8.89777 22.5124C7.72029 22.5467 6.54858 22.3307 5.45576 21.8778C4.36293 21.4249 3.37246 20.7448 2.54616 19.88C1.71082 19.0093 1.056 17.9727 0.621468 16.8333C0.186934 15.6939 -0.0182464 14.4754 0.0183894 13.2517C-0.0164082 12.0383 0.189504 10.8302 0.623522 9.70153C1.05754 8.57284 1.71054 7.54724 2.54257 6.68747C3.3746 5.82771 4.36818 5.15185 5.46249 4.70126C6.55681 4.25067 7.72887 4.03481 8.90695 4.0669C10.9553 4.02498 12.9422 4.7885 14.4635 6.20214L14.9552 4.53087ZM5.96095 16.6937C6.39035 17.1406 6.90461 17.4916 7.4716 17.7245C8.03858 17.9575 8.64612 18.0675 9.25625 18.0478C10.4886 18.0478 11.6704 17.5435 12.5418 16.6458C13.4132 15.7482 13.9028 14.5307 13.9028 13.2612C13.9028 11.9917 13.4132 10.7743 12.5418 9.87662C11.6704 8.97897 10.4886 8.47468 9.25625 8.47468C8.42533 8.46256 7.60644 8.68 6.88474 9.10436C6.19454 9.5137 5.62448 10.1075 5.23479 10.823C4.83193 11.5679 4.62591 12.4086 4.63732 13.2612C4.61984 13.8952 4.72731 14.5262 4.95323 15.1162C5.17915 15.7061 5.51884 16.2428 5.95176 16.6937H5.96095Z" fill="#3A3A43"/>
<path d="M42.0437 4.14264C42.8583 4.11728 43.6682 4.27821 44.4152 4.61385C45.1623 4.94949 45.8278 5.45149 46.3639 6.08376C47.5146 7.46587 48.1155 9.24503 48.046 11.0644V22.0294H43.4501V11.8409C43.4501 9.47048 42.5906 8.28371 40.8718 8.28055C40.2558 8.26703 39.6497 8.44166 39.1299 8.78241C38.6187 9.14121 38.2297 9.65621 38.0177 10.2548C37.7495 10.9996 37.6216 11.7901 37.6408 12.5842V22.0294H33.1506V11.8409C33.1506 9.47048 32.3233 8.28371 30.6687 8.28055C30.2029 8.25769 29.7383 8.34822 29.3127 8.54481C28.8871 8.7414 28.5124 9.03852 28.2191 9.41209C27.5852 10.3361 27.2757 11.4548 27.3413 12.5842V22.0294H22.7683V4.56401H25.9855L26.8357 6.72765C27.4538 5.93603 28.2296 5.29023 29.1107 4.83387C29.9797 4.37517 30.9424 4.13658 31.9188 4.1379C32.9289 4.12169 33.9255 4.37794 34.8097 4.88121C35.6543 5.36318 36.3503 6.08013 36.8181 6.95017C37.018 6.65861 37.2393 6.38321 37.4799 6.12638C37.7116 5.87711 37.9638 5.649 38.2337 5.44462C38.5026 5.24119 38.7852 5.05767 39.0793 4.89542C39.3738 4.734 39.6813 4.59934 39.9985 4.49299C40.3265 4.38351 40.6613 4.29652 41.0004 4.2326C41.3451 4.17225 41.6941 4.14216 42.0437 4.14264Z" fill="#3A3A43"/>
<path d="M68.6727 13.2328C68.6718 13.6969 68.6395 14.1605 68.5762 14.62H55.7673C55.8909 15.6738 56.3807 16.6459 57.1461 17.3565C57.9298 18.0109 58.9187 18.3476 59.9266 18.3034C60.6599 18.3153 61.3836 18.131 62.027 17.7684C62.6413 17.4295 63.152 16.9214 63.5023 16.3007H68.3418C67.7623 18.1226 66.6357 19.7076 65.1246 20.8269C63.6086 21.951 61.7805 22.5405 59.9128 22.5076C58.7442 22.5403 57.5818 22.3214 56.4999 21.8648C55.4181 21.4083 54.4407 20.7242 53.6302 19.8563C52.8057 18.9911 52.1587 17.9638 51.7276 16.8357C51.2965 15.7076 51.0901 14.5016 51.1208 13.2896C51.1155 12.2822 51.258 11.2798 51.5436 10.3164C51.8082 9.39923 52.2215 8.53482 52.7661 7.75977C53.2912 7.01533 53.9218 6.35622 54.6367 5.80444C55.3672 5.24165 56.1844 4.80952 57.0541 4.52614C57.9766 4.21296 58.9416 4.05314 59.9128 4.05269C61.5158 4.02907 63.0948 4.45455 64.4812 5.28365C65.798 6.06642 66.8746 7.21483 67.5881 8.59777C68.3197 10.0252 68.6927 11.6187 68.6727 13.2328ZM59.9128 8.08645C58.9757 8.05555 58.058 8.36565 57.3207 8.96232C56.5959 9.58416 56.0929 10.4371 55.8914 11.3864H64.0859C63.9044 10.7287 63.5913 10.1175 63.1668 9.59201C62.7781 9.11342 62.2895 8.73147 61.7374 8.47467C61.1626 8.21406 60.5408 8.08175 59.9128 8.08645Z" fill="#3A3A43"/>
<path d="M78.7838 11.2585L80.0201 11.5C80.2821 11.5521 80.6819 11.6562 81.215 11.8077C81.6371 11.9224 82.0467 12.0811 82.4376 12.2812C82.7876 12.4708 83.1239 12.6859 83.4441 12.9251C83.7928 13.1645 84.0913 13.4736 84.3219 13.8341C84.5473 14.2121 84.722 14.6198 84.8412 15.0461C84.9932 15.5649 85.0676 16.1045 85.0619 16.6464C85.0885 17.4683 84.9258 18.2851 84.5871 19.0298C84.2484 19.7746 83.7433 20.4261 83.1132 20.931C81.8171 22.001 80.1013 22.5344 77.9657 22.5313C75.8301 22.5281 74.1128 21.9568 72.8137 20.8174C72.1769 20.263 71.6689 19.5687 71.3269 18.7854C70.9849 18.0021 70.8176 17.1499 70.8374 16.2913H75.2955C75.2883 16.6237 75.3569 16.9532 75.4958 17.2533C75.6347 17.5534 75.84 17.8158 76.0952 18.0193C76.6875 18.4454 77.4004 18.6569 78.122 18.6206C78.7303 18.6379 79.3305 18.4735 79.8501 18.1472C80.0668 18.0151 80.2451 17.8254 80.3663 17.5981C80.4876 17.3707 80.5474 17.114 80.5394 16.8547C80.5435 16.587 80.461 16.3255 80.305 16.1114C80.1102 15.867 79.8544 15.682 79.5651 15.5764C79.2395 15.438 78.9047 15.324 78.5632 15.2355C78.2277 15.1503 77.7957 15.065 77.2763 14.9751C76.5823 14.8709 76.0124 14.762 75.562 14.6531C75.0145 14.512 74.4794 14.3236 73.9626 14.0897C73.4231 13.8714 72.9241 13.5591 72.4873 13.1665C72.0787 12.7636 71.7521 12.2807 71.5268 11.7462C71.0911 10.7012 70.9994 9.53802 71.2658 8.43432C71.5322 7.33063 72.142 6.34711 73.0021 5.634C74.2614 4.59873 75.9098 4.0811 77.9473 4.0811C79.9849 4.0811 81.6287 4.61452 82.8788 5.68135C83.4864 6.18833 83.9715 6.83357 84.2961 7.56636C84.6206 8.29914 84.7758 9.09949 84.7493 9.90449H80.3832C80.3832 8.52202 79.5329 7.83553 77.8416 7.83553C77.2509 7.80785 76.6669 7.97359 76.1733 8.30898C75.9839 8.44816 75.8307 8.6333 75.7273 8.848C75.6239 9.06271 75.5734 9.30036 75.5804 9.53993C75.5785 9.75173 75.6377 9.95935 75.7505 10.1365C75.8561 10.3105 75.9954 10.4604 76.1595 10.5768C76.3906 10.7141 76.6399 10.8162 76.8994 10.8798C77.1776 10.9657 77.4599 11.0368 77.7451 11.0928L78.7838 11.2585ZM96.5517 17.8252H98.6245V22.0294H95.3844C93.5184 22.0294 92.0569 21.4755 90.986 20.3629C89.9152 19.2503 89.3866 17.7258 89.3866 15.7847V8.34685H86.3074V7.34314L92.9945 0H93.8769V4.56402H98.5556V8.35158H93.9596V15.1692C93.9381 15.526 93.9869 15.8835 94.103 16.2203C94.2191 16.5572 94.4002 16.8663 94.6352 17.1293C94.8933 17.3714 95.1958 17.5577 95.525 17.6772C95.8542 17.7968 96.2033 17.8471 96.5517 17.8252Z" fill="#3A3A43"/>
<path d="M110.055 22.5124C108.411 22.5364 106.789 22.1256 105.344 21.3193C103.971 20.5512 102.835 19.4033 102.062 18.0052C101.273 16.5711 100.867 14.9473 100.886 13.2991C100.852 12.073 101.066 10.853 101.515 9.71674C101.963 8.5805 102.636 7.55289 103.492 6.69927C105.28 5.01484 107.615 4.08075 110.039 4.08075C112.462 4.08075 114.797 5.01484 116.585 6.69927C118.26 8.46022 119.198 10.827 119.198 13.292C119.198 15.757 118.26 18.1238 116.585 19.8847C115.724 20.7522 114.702 21.4319 113.58 21.8834C112.458 22.3348 111.259 22.5488 110.055 22.5124ZM110.055 18.0809C110.652 18.1006 111.246 17.9915 111.8 17.7608C112.354 17.5301 112.856 17.1828 113.272 16.7411C114.082 15.7926 114.532 14.5743 114.539 13.3109C114.545 12.0476 114.108 10.8243 113.309 9.86663C112.434 9.00373 111.27 8.52201 110.059 8.52201C108.848 8.52201 107.684 9.00373 106.81 9.86663C106.388 10.3248 106.059 10.8653 105.842 11.4565C105.626 12.0476 105.527 12.6773 105.551 13.3086C105.545 13.971 105.658 14.6288 105.881 15.2497C106.077 15.8192 106.391 16.3379 106.801 16.7695C107.21 17.1792 107.694 17.5011 108.225 17.7164C108.806 17.9608 109.428 18.0847 110.055 18.0809Z" fill="#3A3A43"/>
<path d="M131.155 4.4646H132.662V8.91973H130.686C129.385 8.91973 128.461 9.2322 127.905 9.86662C127.349 10.501 127.073 11.5142 127.073 12.9393V22.0294H122.5V4.56403H125.451L126.265 6.69453C127.413 5.20791 129.044 4.4646 131.155 4.4646Z" fill="#3A3A43"/>
<path d="M151.345 13.2328C151.343 13.6968 151.312 14.1601 151.253 14.62H138.439C138.561 15.6743 139.051 16.6469 139.818 17.3565C140.596 18.0054 141.575 18.3418 142.576 18.3034C143.31 18.3153 144.035 18.1309 144.681 17.7684C145.294 17.4281 145.804 16.9203 146.156 16.3007H150.995C150.416 18.1226 149.289 19.7076 147.778 20.8269C146.262 21.951 144.434 22.5405 142.566 22.5076C141.398 22.5396 140.237 22.3204 139.156 21.8639C138.075 21.4074 137.098 20.7236 136.288 19.8563C135.462 18.992 134.814 17.965 134.382 16.8367C133.95 15.7084 133.743 14.502 133.774 13.2896C133.771 12.2824 133.914 11.2804 134.197 10.3164C134.465 9.39977 134.88 8.5357 135.424 7.75977C135.948 7.01549 136.577 6.35636 137.29 5.80443C138.022 5.24346 138.839 4.81149 139.708 4.52613C140.63 4.21327 141.595 4.05346 142.566 4.05269C144.169 4.02835 145.749 4.45388 147.135 5.28365C148.453 6.06633 149.531 7.21465 150.246 8.59777C150.983 10.0239 151.36 11.6175 151.345 13.2328ZM142.585 8.08645C141.649 8.05626 140.733 8.36634 139.997 8.96232C139.271 9.58271 138.767 10.4363 138.568 11.3864H146.762C146.577 10.7303 146.264 10.1199 145.843 9.592C145.454 9.11448 144.965 8.73272 144.414 8.47467C143.838 8.21367 143.214 8.08136 142.585 8.08645Z" fill="#3A3A43"/>
<path d="M179.187 4.95224H180.694V9.39316H178.713C177.417 9.39316 176.489 9.70564 175.956 10.3401C175.423 10.9745 175.124 11.9877 175.124 13.4127V22.4981H170.528V5.04693H173.479L174.297 7.18217C175.44 5.69555 177.07 4.95224 179.187 4.95224Z" fill="#3A3A43"/>
<path d="M196.817 20.8506C195.359 22.2804 193.433 22.9968 191.04 23C188.647 23.0032 186.721 22.2804 185.263 20.8316C183.807 19.3892 183.08 17.4954 183.08 15.1503V5.04694H187.676V14.6011C187.62 15.6599 187.947 16.7024 188.595 17.527C189.256 18.2 190.147 18.5775 191.077 18.5775C192.006 18.5775 192.898 18.2 193.558 17.527C194.194 16.6973 194.511 15.656 194.45 14.6011V5.04694H199.046V15.1408C199.015 17.5143 198.272 19.4176 196.817 20.8506Z" fill="#3A3A43"/>
<path d="M160.932 22.5124C162.734 22.5124 164.195 21.0074 164.195 19.1509C164.195 17.2944 162.734 15.7894 160.932 15.7894C159.13 15.7894 157.669 17.2944 157.669 19.1509C157.669 21.0074 159.13 22.5124 160.932 22.5124Z" fill="#E30337"/>
</g>
<defs>
<clipPath id="clip0_88_891">
<rect width="199" height="23" fill="white"/>
</clipPath>
</defs>
</svg>
