<svg width="167" height="46" viewBox="0 0 167 46" fill="none" xmlns="http://www.w3.org/2000/svg">
<path d="M140.539 8.34783C140.539 8.34783 140.317 7.68381 139.649 7.97893C138.239 8.56917 135.494 11.1515 135.197 11.6679C133.713 11.4466 131.709 11.3728 131.561 11.3728C131.412 11.3728 129.409 11.4466 127.925 11.6679C127.628 11.1515 124.883 8.56917 123.473 7.97893C122.731 7.68381 122.582 8.34783 122.582 8.34783C122.211 11.4466 123.77 15.1356 123.918 15.4307C123.547 16.6112 123.25 18.3819 123.77 20.3002C124.066 21.3331 124.289 21.4069 124.437 22.2923V22.3661H138.684V22.2923C138.833 21.4069 139.055 21.3331 139.352 20.3002C139.871 18.3819 139.575 16.6112 139.204 15.4307C139.352 15.1356 140.91 11.4466 140.539 8.34783Z" fill="#242628"/>
<path d="M61.5875 23.3993V23.0304C61.2165 22.5139 60.5487 20.6694 59.6583 20.2267C59.0646 19.9316 58.7678 19.7103 58.7678 19.4889C58.9904 19.3414 59.213 18.9725 59.213 18.9725L59.2873 18.8249L59.3615 18.6036C59.3615 18.5298 59.4357 18.5298 59.4357 18.456V18.3822L59.5099 18.2347V18.1609L59.5841 17.9395L59.6583 17.4231C59.6583 17.3493 59.7325 17.2755 59.7325 17.2017C59.7325 17.2017 59.8067 16.7591 59.8067 16.6853C59.8067 16.6853 59.8067 16.5377 59.8067 16.3902V16.3164C59.8067 16.1688 59.8067 15.9475 59.8067 15.6524C59.8067 15.5048 58.9162 10.7091 58.9162 10.7091C58.9904 10.5615 59.213 10.0451 59.4357 9.89751C59.4357 9.89751 59.8067 9.52861 60.0293 9.30727C60.2519 9.08593 60.1035 7.68411 60.1035 7.68411L59.8809 7.75789V6.50363H59.6583C59.6583 6.50363 59.5841 4.80668 59.2873 3.92132C58.9904 3.03596 58.3968 0.970119 58.1 0.527439C57.8032 0.0847578 57.2838 -0.284144 56.4676 0.306097C55.5771 0.896338 54.3899 2.07682 53.4253 3.9951C52.4606 5.91339 52.238 6.42985 52.3864 7.09387C52.3864 7.09387 52.1638 7.09387 51.3476 7.09387C50.5314 7.16765 50.6056 7.16765 50.1604 7.09387C49.641 7.02009 49.1215 7.09387 49.1215 7.09387C49.1215 7.09387 48.3795 3.33108 46.8955 1.7817C45.4114 0.232317 44.521 0.0847578 44.2984 0.158538C44.0758 0.232318 43.2596 0.306098 43.1111 1.56036C43.1111 1.56036 42.8885 2.59328 42.6659 3.2573C42.3691 3.92132 42.2949 4.95425 42.2949 5.61827C42.2949 6.28229 42.1465 7.53655 41.9981 7.83167C41.8497 8.12679 41.6271 8.93837 41.7755 9.08593C41.9239 9.23349 42.5917 9.67617 42.6659 10.1926C42.6659 10.1926 42.7401 10.2664 42.8143 10.3402C42.8143 10.414 42.8143 10.4878 42.8143 10.5615C42.8143 10.6353 42.8143 10.6353 42.7401 10.7091L42.8143 10.7829C42.8143 10.8567 42.8143 10.8567 42.8143 10.9304H42.6659C42.6659 10.9304 42.6659 11.2256 42.8885 11.5207C42.8885 11.742 42.9627 11.9634 42.9627 12.1847V12.2585C42.9627 12.4798 42.9627 12.6274 42.9627 12.7012C42.9627 13.3652 42.7401 15.8737 42.6659 16.5377C42.5917 16.8328 42.5175 17.128 42.5175 17.4969C42.5175 17.5706 42.5175 17.6444 42.5175 17.7182C42.5175 17.8658 42.5175 18.3822 42.5175 18.3822L42.6659 18.3084C42.7401 18.5298 42.9627 19.1938 43.1111 19.12C43.1853 19.1938 43.1853 19.1938 43.2595 19.2676C43.1853 19.3414 43.3338 19.3414 43.3338 19.3414C43.4822 19.5627 43.6306 19.7103 43.7048 19.8578C43.9274 20.153 44.0758 20.3743 44.15 20.5218L43.8532 21.1121L44.2242 21.0383C44.2242 21.0383 44.0016 21.4072 43.779 21.7761C43.5564 22.145 43.1111 22.9566 43.0369 23.1779C43.0369 23.1779 43.3338 22.809 43.6306 22.6615C43.6306 22.6615 43.5564 23.1779 43.3338 23.3993H61.5875Z" fill="#242628"/>
<path d="M166.139 31.5155L165.545 28.0478C164.952 24.8015 163.616 22.2192 161.613 20.3747C159.461 18.4564 156.789 17.4973 153.599 17.4973C151.373 17.4973 148.998 18.1613 147.143 19.1942C147.143 19.1942 147.143 18.7515 147.143 18.1613C147.143 18.1613 140.242 18.1613 140.168 18.1613H128.815V20.0796C128.296 19.7107 127.776 19.3418 127.257 19.0467C125.402 18.0137 123.25 17.4973 120.876 17.4973C118.501 17.4973 116.349 18.0137 114.494 19.0467C114.272 19.1204 114.123 19.268 113.901 19.4156V18.1613H110.265V11.7424H99.5053L98.4665 11.0784C97.205 10.2668 95.7952 9.52903 94.3111 9.01257C92.6045 8.34855 90.4526 8.05343 87.9297 8.05343H87.7813C85.6295 8.12721 83.7002 8.64367 81.9935 9.52903C80.1385 10.4882 78.7286 11.8162 77.6898 13.5132C76.651 15.2101 76.1316 17.2022 76.1316 19.3418C76.1316 19.4893 76.1316 19.7107 76.1316 19.8582C74.1281 18.3089 71.6794 17.4973 68.8597 17.4973C66.5595 17.4973 64.4818 18.0137 62.5525 19.0467C61.3653 19.7107 60.2523 20.5223 59.3618 21.5552C58.9908 20.8912 58.5456 20.3009 57.952 19.7845C56.839 18.6778 54.7613 17.4235 51.6448 17.4235C50.0124 17.4235 48.4541 17.8662 47.0443 18.6778C46.599 18.3826 46.1538 18.1613 45.6344 18.0137C44.5956 17.6448 43.3341 17.4235 42.0727 17.4235C40.5887 17.4235 39.253 17.6448 38.0658 18.1613H27.9001V24.0637L20.4798 7.02051H17.6601H14.8405L0 41.0331H13.8016L15.8793 36.1637H18.699L20.6282 41.0331H27.9001H35.3203H60.5491V38.8935C61.0685 39.2624 61.5879 39.6313 62.1815 39.9264C64.0366 40.9594 66.2627 41.402 68.7113 41.402C69.8986 41.402 71.16 41.1807 72.4957 40.8118C73.6829 40.4429 74.8701 40.0002 75.909 39.3362L77.5414 38.4508C78.3576 38.9673 79.2481 39.41 80.0643 39.7789C81.2515 40.2953 82.513 40.6642 83.7744 40.8856C85.0358 41.1069 86.2231 41.2545 87.4845 41.2545C90.0074 41.2545 92.2335 40.738 94.0885 39.7789C95.4242 39.1149 96.5372 38.2295 97.4276 37.1228V40.9594H109.003C109.374 40.9594 110.339 40.9594 110.339 40.9594V36.9752C110.339 36.9752 112.045 38.3033 112.491 38.6722C113.159 39.1886 113.901 39.7051 114.643 40.074C116.498 40.9594 118.575 41.4758 120.801 41.4758C123.25 41.4758 125.402 40.9594 127.331 39.9264C127.925 39.6313 128.444 39.2624 128.889 38.8935V41.1069H141.801V33.8765C142.023 34.4667 142.246 34.9832 142.543 35.5734C143.581 37.4917 145.066 38.9673 147.069 40.0002C148.924 41.0331 151.15 41.4758 153.599 41.4758C154.786 41.4758 156.047 41.2545 157.383 40.8856C158.57 40.5167 159.758 40.074 160.796 39.41L164.432 37.049L161.687 32.8435L166.139 31.5155Z" fill="url(#paint0_linear_2999_131529)"/>
<g opacity="0.52">
<path d="M18.5502 12.2588L7.19727 38.1556H12.0946L14.1723 33.2861H22.4829L24.4122 38.1556H30.1258L18.7728 12.2588H18.5502ZM15.8789 29.1544L18.4018 23.1045L20.7763 29.1544H15.8789Z" fill="#7F0920"/>
<path d="M52.609 22.588C51.6443 22.588 50.6797 22.8831 49.7893 23.3996C48.973 23.916 48.231 24.6538 47.6374 25.4654C47.489 24.8014 47.1922 24.2849 46.8212 23.8423C46.376 23.3996 45.8565 23.1045 45.2629 22.8093C44.6693 22.588 43.9273 22.4404 43.1111 22.4404C41.8496 22.4404 40.8108 22.7355 39.9204 23.252C39.0299 23.7685 38.2879 24.5801 37.7685 25.5392L37.3975 23.1782H33.0938V38.008H37.8427V31.8843C37.8427 30.9989 37.9911 30.1873 38.2137 29.3758C38.5105 28.5642 38.8815 27.9002 39.4009 27.3837C39.9204 26.8672 40.514 26.5721 41.256 26.5721C41.9238 26.6459 42.369 26.8672 42.5916 27.2361C42.8143 27.6788 42.9627 28.1953 42.9627 28.8593V38.008H47.7116V31.9581C47.7116 31.0727 47.86 30.2611 48.0826 29.3758C48.3794 28.5642 48.7504 27.9002 49.2699 27.3099C49.7893 26.7935 50.4571 26.4983 51.1991 26.4983C51.8669 26.5721 52.3121 26.7935 52.4606 27.1624C52.609 27.605 52.7574 28.1215 52.7574 28.7855V37.9343H57.5063V27.0886C57.5063 25.7605 57.0611 24.7276 56.1707 23.916C55.2802 23.0307 54.093 22.588 52.609 22.588Z" fill="#7F0920"/>
<path d="M75.0926 24.5056C73.6828 23.2514 71.9761 22.6611 69.8243 22.6611C68.266 22.6611 66.782 23.03 65.5205 23.6941C64.2591 24.4319 63.2203 25.391 62.404 26.5715C61.662 27.752 61.2168 29.08 61.2168 30.6294C61.2168 32.1788 61.5136 33.5806 62.1814 34.7611C62.8492 35.9416 63.8139 36.9007 65.0753 37.5647C66.3368 38.2287 67.895 38.5976 69.6759 38.5976C70.4921 38.5976 71.3825 38.4501 72.2729 38.155C73.1634 37.8598 74.0538 37.4909 74.87 37.0483L72.7924 33.5068C72.3471 33.8019 71.8277 34.0233 71.3083 34.2446C70.7889 34.3922 70.3437 34.5397 69.8243 34.5397C69.0822 34.5397 68.4144 34.3922 67.8208 34.0971C67.4498 33.8757 67.153 33.5806 66.8562 33.2855L77.6897 29.8178C77.3187 27.5306 76.4283 25.7599 75.0926 24.5056ZM66.3368 28.1946C66.6336 27.6044 67.0046 27.1617 67.5982 26.7928C68.1176 26.4977 68.7854 26.2764 69.4533 26.2764C70.4179 26.2764 71.0857 26.4977 71.5309 26.9404C71.9761 27.3831 72.2729 27.8257 72.4955 28.416L65.9657 30.6294C65.9657 30.5556 65.9657 30.408 65.9657 30.3343C65.8915 29.5227 66.0399 28.8587 66.3368 28.1946Z" fill="#7F0920"/>
<path d="M87.1869 18.0874C87.7805 17.6447 88.6709 17.4233 89.7098 17.4233C90.6002 17.4233 91.4906 17.5709 92.4552 17.9398C93.4199 18.3087 94.3845 18.6776 95.3491 19.1941L97.2784 15.5051C96.3138 14.841 95.1265 14.2508 93.8651 13.8081C92.6036 13.3654 90.9712 13.0703 88.9677 13.0703C87.4095 13.1441 86.0739 13.513 84.8866 14.1032C83.6994 14.6935 82.8089 15.5788 82.1411 16.6118C81.4733 17.6447 81.1765 18.8989 81.1765 20.3745C81.1765 21.555 81.3991 22.5879 81.8443 23.3995C82.2895 24.2111 82.8832 24.9489 83.551 25.4654C84.293 26.0556 85.035 26.4983 85.8512 26.8672C86.6675 27.2361 87.4837 27.605 88.2257 27.9001C88.8935 28.1215 89.4872 28.4166 90.0808 28.7855C90.6002 29.1544 91.0454 29.5233 91.4164 29.8922C91.7132 30.3349 91.9358 30.7775 91.9358 31.2202C91.9358 31.958 91.7132 32.4745 91.3422 32.9172C90.9712 33.3598 90.4518 33.5812 89.8582 33.8025C89.2645 33.9501 88.6709 34.0239 88.0773 34.0239C87.4837 34.0239 86.8159 33.9501 86.1481 33.7287C85.4802 33.5812 84.7382 33.2861 84.0704 32.9909C83.4026 32.6958 82.7347 32.2531 82.1411 31.8842L79.9893 35.7208C80.8797 36.3111 81.7701 36.8275 82.7347 37.1964C83.6994 37.5653 84.664 37.8604 85.6286 38.0818C86.5933 38.3031 87.5579 38.3769 88.5225 38.3769C90.3776 38.3769 91.9358 38.008 93.1973 37.344C94.4587 36.68 95.4233 35.7946 96.0912 34.6879C96.759 33.5812 97.0558 32.4007 97.0558 31.1464C97.0558 29.966 96.9074 28.933 96.5364 28.1215C96.1654 27.3099 95.7201 26.5721 95.2007 26.0556C94.6071 25.4654 94.0135 25.0227 93.2715 24.6538C92.5295 24.2849 91.8616 23.9898 91.1196 23.6946C90.3034 23.3995 89.5614 23.1044 88.8193 22.7355C88.0773 22.3666 87.4837 21.9977 87.0385 21.4812C86.5933 21.0386 86.3707 20.5221 86.3707 19.9319C86.2965 19.1941 86.5933 18.53 87.1869 18.0874Z" fill="#7F0920"/>
<path d="M107.222 16.833H102.473V23.3257H100.173V27.0147H102.473V38.1555H107.222V27.0147H110.858V23.3257H107.222V16.833Z" fill="#7F0920"/>
<path d="M126.366 23.6941C125.105 23.03 123.621 22.6611 121.914 22.6611C120.207 22.6611 118.723 23.03 117.462 23.6941C116.201 24.3581 115.162 25.3172 114.42 26.4977C113.678 27.6782 113.381 29.08 113.381 30.5556C113.381 32.2525 113.752 33.6544 114.494 34.8349C115.236 36.0153 116.201 36.9745 117.536 37.5647C118.798 38.2287 120.282 38.5239 121.914 38.5239C123.695 38.5239 125.179 38.155 126.44 37.4909C127.702 36.8269 128.667 35.8678 129.334 34.6135C130.002 33.433 130.373 32.0312 130.373 30.5556C130.373 29.0062 130.002 27.6782 129.334 26.4977C128.518 25.3172 127.628 24.3581 126.366 23.6941ZM124.956 32.6952C124.66 33.2855 124.214 33.8019 123.695 34.1708C123.176 34.5397 122.508 34.6873 121.766 34.6873C121.098 34.6873 120.504 34.5397 119.911 34.1708C119.391 33.8019 118.946 33.2855 118.649 32.6952C118.352 32.105 118.204 31.3672 118.204 30.6294C118.204 29.8178 118.352 29.1538 118.649 28.5635C118.946 27.9733 119.391 27.4568 119.911 27.0879C120.43 26.719 121.098 26.5715 121.766 26.5715C122.508 26.5715 123.176 26.719 123.695 27.0879C124.214 27.4568 124.66 27.8995 124.956 28.5635C125.253 29.1538 125.402 29.8916 125.402 30.6294C125.402 31.3672 125.253 32.105 124.956 32.6952Z" fill="#7F0920"/>
<path d="M140.391 24.5794C139.649 25.1697 139.056 25.9075 138.685 26.7928L138.314 23.3989H134.01V38.2287H138.759V32.4001C138.759 31.5147 138.981 30.7032 139.427 29.8916C139.872 29.08 140.465 28.416 141.282 27.8995C142.098 27.3831 143.062 27.2355 144.175 27.3831L144.398 22.6611C144.027 22.6611 143.433 22.8087 142.691 23.1776C141.875 23.4727 141.133 23.9154 140.391 24.5794Z" fill="#7F0920"/>
<path d="M156.195 34.2446C155.676 34.3922 155.23 34.5397 154.711 34.5397C153.969 34.5397 153.301 34.3922 152.708 34.0971C152.336 33.8757 152.04 33.5806 151.743 33.2855L162.576 29.8178C162.131 27.4568 161.241 25.6861 159.905 24.5056C158.495 23.2514 156.789 22.6611 154.637 22.6611C153.079 22.6611 151.594 23.03 150.333 23.6941C149.072 24.4319 148.033 25.391 147.217 26.5715C146.475 27.752 146.029 29.08 146.029 30.6294C146.029 32.1788 146.326 33.5806 146.994 34.7611C147.662 35.9416 148.626 36.9007 149.888 37.5647C151.149 38.2287 152.708 38.5976 154.488 38.5976C155.305 38.5976 156.195 38.4501 157.085 38.155C157.976 37.8598 158.866 37.4909 159.683 37.0483L157.605 33.5068C157.16 33.8757 156.714 34.0971 156.195 34.2446ZM151.223 28.1946C151.52 27.6044 151.891 27.1617 152.485 26.7928C153.004 26.4977 153.672 26.2764 154.34 26.2764C155.305 26.2764 155.972 26.4977 156.418 26.9404C156.863 27.3831 157.16 27.8257 157.382 28.416L150.852 30.6294C150.852 30.5556 150.852 30.408 150.852 30.3343C150.778 29.5227 150.927 28.8587 151.223 28.1946Z" fill="#7F0920"/>
</g>
<path d="M17.3637 11.1514L6.08496 37.0482H10.9823L13.06 32.1787H21.3706L23.2999 37.0482H29.0135L17.6605 11.1514H17.3637ZM14.6924 28.047L17.2153 21.997L19.5898 28.047H14.6924Z" fill="white"/>
<path d="M51.4967 21.5538C50.532 21.5538 49.5674 21.8489 48.677 22.3654C47.8607 22.8819 47.1187 23.6197 46.5251 24.4312C46.3767 23.7672 46.0799 23.2508 45.7089 22.8081C45.2637 22.3654 44.7442 22.0703 44.1506 21.7752C43.557 21.5538 42.815 21.4062 41.9988 21.4062C40.7373 21.4062 39.6985 21.7014 38.8081 22.2178C37.9176 22.7343 37.1756 23.5459 36.6562 24.505L36.2852 22.1441H31.9814V36.9739H36.7304V30.8501C36.7304 29.9647 36.8788 29.1532 37.1014 28.3416C37.3982 27.53 37.7692 26.866 38.2886 26.3495C38.8081 25.8331 39.4017 25.5379 40.1437 25.5379C40.8115 25.6117 41.2567 25.8331 41.4793 26.202C41.7019 26.6446 41.8504 27.1611 41.8504 27.8251V36.9739H46.5993V30.9977C46.5993 30.1123 46.7477 29.3007 46.9703 28.4154C47.2671 27.6038 47.6381 26.9398 48.1576 26.3495C48.677 25.8331 49.3448 25.5379 50.0868 25.5379C50.7546 25.6117 51.1998 25.8331 51.3482 26.202C51.4967 26.6446 51.6451 27.1611 51.6451 27.8251V36.9739H56.394V25.9806C56.394 24.6526 55.9488 23.6197 55.0584 22.8081C54.0937 21.9227 52.9807 21.5538 51.4967 21.5538Z" fill="white"/>
<path d="M73.9051 23.3982C72.4953 22.144 70.7886 21.5537 68.6368 21.5537C67.0785 21.5537 65.5945 21.9226 64.333 22.5866C63.0716 23.3244 62.0328 24.2836 61.2165 25.4641C60.4745 26.6445 60.0293 27.9726 60.0293 29.522C60.0293 31.0713 60.3261 32.4732 60.9939 33.6536C61.6617 34.8341 62.6264 35.7933 63.8878 36.4573C65.1493 37.1213 66.7075 37.4902 68.4884 37.4902C69.3046 37.4902 70.195 37.3427 71.0854 37.0475C71.9759 36.7524 72.8663 36.3835 73.6825 35.9408L71.6049 32.3994C71.1596 32.6945 70.6402 32.9158 70.1208 33.1372C69.6014 33.2848 69.1562 33.4323 68.6368 33.4323C67.8947 33.4323 67.2269 33.2847 66.6333 32.9896C66.2623 32.7683 65.9655 32.4732 65.6687 32.178L76.5022 28.7104C76.2054 26.4232 75.315 24.6525 73.9051 23.3982ZM65.2235 27.161C65.5203 26.5708 65.8913 26.1281 66.4849 25.7592C67.0043 25.4641 67.6721 25.2427 68.34 25.2427C69.3046 25.2427 69.9724 25.4641 70.4176 25.9067C70.8628 26.3494 71.1596 26.7921 71.3822 27.3823L64.8524 29.5957C64.8524 29.522 64.8524 29.3744 64.8524 29.3006C64.7782 28.4153 64.9266 27.7512 65.2235 27.161Z" fill="white"/>
<path d="M86.0755 16.9795C86.6691 16.5368 87.5596 16.3155 88.5984 16.3155C89.4888 16.3155 90.3793 16.463 91.3439 16.8319C92.3085 17.2008 93.2731 17.5697 94.2378 18.0862L96.0928 14.3234C95.1282 13.6594 93.941 13.0692 92.6795 12.6265C91.4181 12.1838 89.7856 11.8887 87.7822 11.8887C86.2239 11.9625 84.8883 12.3314 83.701 12.9216C82.5138 13.5118 81.6234 14.3972 80.9556 15.4301C80.2877 16.463 79.9909 17.7173 79.9909 19.1929C79.9909 20.3734 80.2135 21.4063 80.6588 22.2179C81.104 23.0295 81.6976 23.7673 82.3654 24.2837C83.1074 24.874 83.8495 25.3167 84.6657 25.6856C85.4819 26.0545 86.2981 26.4234 87.0401 26.7185C87.708 26.9398 88.3016 27.2349 88.8952 27.6038C89.4146 27.9727 89.8598 28.3416 90.2308 28.7105C90.5277 29.1532 90.7503 29.5959 90.7503 30.0386C90.7503 30.7764 90.5277 31.2928 90.1566 31.7355C89.7856 32.1782 89.2662 32.3995 88.6726 32.6209C88.079 32.7684 87.4854 32.8422 86.8917 32.8422C86.2981 32.8422 85.6303 32.7684 84.9625 32.5471C84.2947 32.3995 83.5526 32.1044 82.8848 31.8093C82.217 31.5142 81.5492 31.0715 80.9556 30.7026L78.7295 34.6867C79.6199 35.277 80.5103 35.7934 81.475 36.1623C82.4396 36.5312 83.4042 36.8264 84.3689 37.0477C85.3335 37.269 86.2981 37.3428 87.2628 37.3428C89.1178 37.3428 90.6761 36.9739 91.9375 36.3099C93.1989 35.6459 94.1636 34.7605 94.8314 33.6538C95.4992 32.5471 95.796 31.3666 95.796 30.1124C95.796 28.9319 95.6476 27.899 95.2766 27.0874C94.9056 26.2758 94.4604 25.538 93.941 25.0215C93.3473 24.4313 92.7537 23.9886 92.0117 23.6197C91.2697 23.2508 90.6019 22.9557 89.8598 22.6606C89.0436 22.3655 88.3016 22.0703 87.5596 21.7014C86.8175 21.3325 86.2239 20.9636 85.7787 20.4472C85.3335 20.0045 85.1109 19.488 85.1109 18.8978C85.1109 18.0862 85.4819 17.4222 86.0755 16.9795Z" fill="white"/>
<path d="M106.11 15.7256H101.361V22.2182H99.0605V25.9072H101.361V37.048H106.11V25.9072H109.746V22.2182H106.11V15.7256Z" fill="white"/>
<path d="M125.18 22.5866C123.918 21.9226 122.434 21.5537 120.728 21.5537C119.021 21.5537 117.537 21.9226 116.275 22.5866C115.014 23.2507 113.975 24.2098 113.233 25.3903C112.491 26.5708 112.194 27.9726 112.194 29.4482C112.194 31.1451 112.565 32.5469 113.307 33.7274C114.049 34.9079 115.014 35.8671 116.35 36.4573C117.611 37.1213 119.095 37.4164 120.728 37.4164C122.508 37.4164 123.992 37.0475 125.254 36.3835C126.515 35.7195 127.48 34.7604 128.148 33.5061C128.816 32.3256 129.187 30.9238 129.187 29.4482C129.187 27.9726 128.816 26.5708 128.148 25.3903C127.406 24.2098 126.441 23.2507 125.18 22.5866ZM123.844 31.5878C123.547 32.178 123.102 32.6945 122.583 33.0634C122.063 33.4323 121.395 33.5799 120.653 33.5799C119.986 33.5799 119.392 33.4323 118.798 33.0634C118.279 32.6945 117.834 32.178 117.537 31.5878C117.24 30.9976 117.092 30.2598 117.092 29.522C117.092 28.7104 117.24 28.0464 117.537 27.4561C117.834 26.8659 118.279 26.3494 118.798 25.9805C119.318 25.6116 119.986 25.4641 120.653 25.4641C121.395 25.4641 122.063 25.6116 122.583 25.9805C123.102 26.3494 123.547 26.7921 123.844 27.4561C124.141 28.0464 124.289 28.7842 124.289 29.522C124.289 30.2598 124.141 30.9976 123.844 31.5878Z" fill="white"/>
<path d="M139.279 23.472C138.537 24.0622 137.943 24.8 137.572 25.6854L137.201 22.2915H132.897V37.1213H137.646V31.2927C137.646 30.4073 137.869 29.5957 138.314 28.7842C138.759 27.9726 139.353 27.3086 140.169 26.7921C140.986 26.2756 141.95 26.1281 143.063 26.2756L143.286 21.5537C142.915 21.5537 142.321 21.7013 141.579 22.0702C140.763 22.3653 140.021 22.808 139.279 23.472Z" fill="white"/>
<path d="M155.083 33.1372C154.563 33.2848 154.118 33.4323 153.599 33.4323C152.857 33.4323 152.189 33.2847 151.595 32.9896C151.224 32.7683 150.927 32.4732 150.631 32.178L161.464 28.7104C161.019 26.3494 160.128 24.5787 158.793 23.3982C157.383 22.144 155.676 21.5537 153.524 21.5537C151.966 21.5537 150.482 21.9226 149.221 22.5866C147.959 23.3244 146.92 24.2836 146.104 25.4641C145.362 26.6445 144.917 27.9726 144.917 29.522C144.917 31.0713 145.214 32.4732 145.882 33.6536C146.549 34.8341 147.514 35.7933 148.776 36.4573C150.037 37.1213 151.595 37.4902 153.376 37.4902C154.192 37.4902 155.083 37.3427 155.973 37.0475C156.864 36.7524 157.754 36.3835 158.57 35.9408L156.493 32.3994C156.047 32.7683 155.602 32.9896 155.083 33.1372ZM150.111 27.161C150.408 26.5708 150.779 26.1281 151.373 25.7592C151.892 25.4641 152.56 25.2427 153.228 25.2427C154.192 25.2427 154.86 25.4641 155.305 25.9067C155.751 26.3494 156.047 26.7921 156.27 27.3823L149.74 29.5957C149.74 29.522 149.74 29.3744 149.74 29.3006C149.666 28.4153 149.814 27.7512 150.111 27.161Z" fill="white"/>
<path d="M114.642 40.0735C114.345 40.5162 112.935 42.2131 110.709 42.4345C109.374 42.582 107.073 42.3607 106.257 40.7375C105.886 39.9259 105.886 38.7455 106.405 37.9339C107.741 35.6467 112.787 35.3516 116.72 36.7534C120.801 38.229 123.991 41.6967 127.405 42.5082C129.037 42.8771 129.853 42.5083 130.15 42.2869C130.744 41.918 131.115 41.3278 131.189 40.9589C131.783 39.1144 127.85 35.868 124.437 34.0973C117.462 30.4821 106.331 29.9656 102.695 35.4991C101.434 37.3436 101.063 39.9259 101.879 41.918C103.512 45.607 109.374 47.0088 113.529 45.2381C115.903 44.2052 117.387 42.1393 117.981 41.1802C117.981 41.1802 117.165 41.0326 116.274 40.7375C115.384 40.3686 114.642 40.0735 114.642 40.0735Z" fill="#242628"/>
<path d="M66.1145 16.7598C67.0049 16.8335 68.2664 17.2762 68.3406 18.4567C68.4148 19.6372 67.5986 19.5634 67.5986 19.5634C67.5244 21.039 66.4113 20.6701 66.0403 20.6701C65.7435 21.4079 64.6305 21.4079 64.2595 20.8177C64.0368 20.9652 63.2206 21.1128 62.9238 20.4488C62.627 19.6372 62.4786 19.2683 62.4786 19.2683C62.256 19.2683 61.9592 19.4896 61.9592 19.4896C61.9592 19.4896 61.6624 16.1695 66.1145 16.7598Z" fill="#242628"/>
<path d="M33.6132 16.8328C32.797 17.2754 31.6839 18.0132 32.055 19.2675C32.3518 20.448 33.0938 20.0791 33.0938 20.0791C33.6132 21.4809 34.652 20.7431 34.9488 20.6693C35.4683 21.2596 36.5071 20.8907 36.7297 20.2266C37.0265 20.3004 37.8427 20.2266 37.8427 19.4888C37.9169 18.6035 37.8427 18.2346 37.8427 18.2346C38.0653 18.2346 38.4364 18.2346 38.4364 18.2346C38.4364 18.2346 37.7685 14.8407 33.6132 16.8328Z" fill="#242628"/>
<defs>
<linearGradient id="paint0_linear_2999_131529" x1="85.8924" y1="55.1425" x2="77.8588" y2="0.830073" gradientUnits="userSpaceOnUse">
<stop offset="0.0170786" stop-color="#AF1339"/>
<stop offset="0.2235" stop-color="#B41238"/>
<stop offset="0.4522" stop-color="#C10F37"/>
<stop offset="0.6916" stop-color="#D70934"/>
<stop offset="0.9369" stop-color="#F60231"/>
<stop offset="1" stop-color="#FF0030"/>
</linearGradient>
</defs>
</svg>
