<svg width="72" height="72" viewBox="0 0 72 72" fill="none" xmlns="http://www.w3.org/2000/svg">
<path d="M7.36757 49.18C6.54449 50.0029 6.54379 51.3394 7.36757 52.1631L16.4051 61.2006C17.2286 62.0242 18.5643 62.0245 19.3882 61.2006L22.9229 57.666L10.9025 45.6455L7.36757 49.18Z" fill="#2C877F"/>
<path d="M43.8881 50.8838L29.0765 57.854L39.202 67.9794C40.0255 68.8031 41.3613 68.8034 42.185 67.9794L50.0928 60.0717C50.9166 59.2479 50.9166 57.9124 50.0928 57.0886L43.8881 50.8838Z" fill="#2C877F"/>
<path d="M35.203 3.9928C34.7173 3.50708 34.0254 3.28841 33.3487 3.4064C32.672 3.52452 32.0953 3.96468 31.8028 4.58624L13.8845 42.6624L25.905 54.6831L63.9813 36.7648C64.6029 36.4723 65.043 35.8954 65.1612 35.2187C65.2793 34.542 65.0605 33.8503 64.5748 33.3646L35.203 3.9928Z" fill="#2C877F"/>
</svg>
