<svg width="170" height="17" viewBox="0 0 170 17" fill="none" xmlns="http://www.w3.org/2000/svg">
<path d="M1.416 13V4.6H4.56C5.272 4.6 5.884 4.716 6.396 4.948C6.908 5.172 7.3 5.5 7.572 5.932C7.852 6.356 7.992 6.872 7.992 7.48C7.992 8.072 7.852 8.584 7.572 9.016C7.3 9.44 6.908 9.768 6.396 10C5.884 10.232 5.272 10.348 4.56 10.348H1.908L2.304 9.928V13H1.416ZM2.304 10L1.908 9.568H4.536C5.376 9.568 6.012 9.388 6.444 9.028C6.884 8.66 7.104 8.144 7.104 7.48C7.104 6.808 6.884 6.288 6.444 5.92C6.012 5.552 5.376 5.368 4.536 5.368H1.908L2.304 4.948V10ZM13.696 13V11.608L13.66 11.38V9.052C13.66 8.516 13.508 8.104 13.204 7.816C12.908 7.528 12.464 7.384 11.872 7.384C11.464 7.384 11.076 7.452 10.708 7.588C10.34 7.724 10.028 7.904 9.77203 8.128L9.38803 7.492C9.70803 7.22 10.092 7.012 10.54 6.868C10.988 6.716 11.46 6.64 11.956 6.64C12.772 6.64 13.4 6.844 13.84 7.252C14.288 7.652 14.512 8.264 14.512 9.088V13H13.696ZM11.524 13.06C11.052 13.06 10.64 12.984 10.288 12.832C9.94403 12.672 9.68003 12.456 9.49603 12.184C9.31203 11.904 9.22003 11.584 9.22003 11.224C9.22003 10.896 9.29603 10.6 9.44803 10.336C9.60803 10.064 9.86403 9.848 10.216 9.688C10.576 9.52 11.056 9.436 11.656 9.436H13.828V10.072H11.68C11.072 10.072 10.648 10.18 10.408 10.396C10.176 10.612 10.06 10.88 10.06 11.2C10.06 11.56 10.2 11.848 10.48 12.064C10.76 12.28 11.152 12.388 11.656 12.388C12.136 12.388 12.548 12.28 12.892 12.064C13.244 11.84 13.5 11.52 13.66 11.104L13.852 11.692C13.692 12.108 13.412 12.44 13.012 12.688C12.62 12.936 12.124 13.06 11.524 13.06ZM18.5832 13.072C19.1032 13.072 19.5712 12.992 19.9872 12.832C20.4112 12.672 20.7472 12.452 20.9952 12.172C21.2432 11.884 21.3672 11.552 21.3672 11.176C21.3672 10.696 21.1632 10.316 20.7552 10.036C20.3552 9.756 19.7952 9.616 19.0752 9.616L19.0392 9.844C19.4472 9.844 19.8112 9.78 20.1312 9.652C20.4512 9.524 20.7072 9.344 20.8992 9.112C21.0912 8.88 21.1872 8.608 21.1872 8.296C21.1872 7.944 21.0672 7.644 20.8272 7.396C20.5872 7.14 20.2632 6.944 19.8552 6.808C19.4552 6.672 19.0032 6.612 18.4992 6.628C18.1312 6.628 17.7632 6.68 17.3952 6.784C17.0352 6.88 16.6712 7.024 16.3032 7.216L16.5432 7.876C16.8712 7.708 17.2032 7.584 17.5392 7.504C17.8752 7.416 18.1992 7.368 18.5112 7.36C18.8552 7.36 19.1632 7.4 19.4352 7.48C19.7072 7.56 19.9192 7.68 20.0712 7.84C20.2312 8 20.3112 8.192 20.3112 8.416C20.3112 8.624 20.2432 8.804 20.1072 8.956C19.9792 9.108 19.7952 9.224 19.5552 9.304C19.3152 9.384 19.0392 9.424 18.7272 9.424H17.7072V10.048H18.7872C19.3152 10.048 19.7312 10.144 20.0352 10.336C20.3392 10.52 20.4912 10.78 20.4912 11.116C20.4912 11.348 20.4112 11.556 20.2512 11.74C20.0912 11.924 19.8672 12.068 19.5792 12.172C19.2912 12.276 18.9512 12.332 18.5592 12.34C18.1672 12.34 17.7712 12.284 17.3712 12.172C16.9712 12.052 16.6192 11.88 16.3152 11.656L16.0392 12.292C16.3832 12.556 16.7792 12.752 17.2272 12.88C17.6752 13.008 18.1272 13.072 18.5832 13.072ZM26.7934 13.06C26.2494 13.06 25.7574 12.936 25.3174 12.688C24.8774 12.432 24.5254 12.068 24.2614 11.596C24.0054 11.116 23.8774 10.532 23.8774 9.844C23.8774 9.156 24.0054 8.576 24.2614 8.104C24.5174 7.624 24.8654 7.26 25.3054 7.012C25.7454 6.764 26.2414 6.64 26.7934 6.64C27.3934 6.64 27.9294 6.776 28.4014 7.048C28.8814 7.312 29.2574 7.688 29.5294 8.176C29.8014 8.656 29.9374 9.212 29.9374 9.844C29.9374 10.484 29.8014 11.044 29.5294 11.524C29.2574 12.004 28.8814 12.38 28.4014 12.652C27.9294 12.924 27.3934 13.06 26.7934 13.06ZM23.5414 15.328V6.7H24.3574V8.596L24.2734 9.856L24.3934 11.128V15.328H23.5414ZM26.7334 12.304C27.1814 12.304 27.5814 12.204 27.9334 12.004C28.2854 11.796 28.5654 11.508 28.7734 11.14C28.9814 10.764 29.0854 10.332 29.0854 9.844C29.0854 9.356 28.9814 8.928 28.7734 8.56C28.5654 8.192 28.2854 7.904 27.9334 7.696C27.5814 7.488 27.1814 7.384 26.7334 7.384C26.2854 7.384 25.8814 7.488 25.5214 7.696C25.1694 7.904 24.8894 8.192 24.6814 8.56C24.4814 8.928 24.3814 9.356 24.3814 9.844C24.3814 10.332 24.4814 10.764 24.6814 11.14C24.8894 11.508 25.1694 11.796 25.5214 12.004C25.8814 12.204 26.2854 12.304 26.7334 12.304ZM35.8848 13V11.608L35.8488 11.38V9.052C35.8488 8.516 35.6968 8.104 35.3928 7.816C35.0968 7.528 34.6528 7.384 34.0608 7.384C33.6528 7.384 33.2648 7.452 32.8968 7.588C32.5288 7.724 32.2168 7.904 31.9608 8.128L31.5768 7.492C31.8968 7.22 32.2808 7.012 32.7288 6.868C33.1768 6.716 33.6488 6.64 34.1448 6.64C34.9608 6.64 35.5888 6.844 36.0288 7.252C36.4768 7.652 36.7008 8.264 36.7008 9.088V13H35.8848ZM33.7128 13.06C33.2408 13.06 32.8288 12.984 32.4768 12.832C32.1328 12.672 31.8688 12.456 31.6848 12.184C31.5008 11.904 31.4088 11.584 31.4088 11.224C31.4088 10.896 31.4848 10.6 31.6368 10.336C31.7968 10.064 32.0528 9.848 32.4048 9.688C32.7648 9.52 33.2448 9.436 33.8448 9.436H36.0168V10.072H33.8688C33.2608 10.072 32.8368 10.18 32.5968 10.396C32.3648 10.612 32.2488 10.88 32.2488 11.2C32.2488 11.56 32.3888 11.848 32.6688 12.064C32.9488 12.28 33.3408 12.388 33.8448 12.388C34.3248 12.388 34.7368 12.28 35.0808 12.064C35.4328 11.84 35.6888 11.52 35.8488 11.104L36.0408 11.692C35.8808 12.108 35.6008 12.44 35.2008 12.688C34.8088 12.936 34.3128 13.06 33.7128 13.06ZM42.0409 13.072C41.5289 13.072 41.0729 12.988 40.6729 12.82C40.2809 12.652 39.9449 12.396 39.6649 12.052C39.3849 11.708 39.1729 11.284 39.0289 10.78C38.8849 10.268 38.8129 9.676 38.8129 9.004C38.8129 8.404 38.8689 7.88 38.9809 7.432C39.0929 6.976 39.2489 6.584 39.4489 6.256C39.6489 5.928 39.8809 5.652 40.1449 5.428C40.4169 5.196 40.7089 5.012 41.0209 4.876C41.3409 4.732 41.6689 4.624 42.0049 4.552L44.8369 3.892L44.9809 4.684L42.3169 5.284C42.1489 5.324 41.9449 5.38 41.7049 5.452C41.4729 5.524 41.2329 5.632 40.9849 5.776C40.7449 5.92 40.5209 6.12 40.3129 6.376C40.1049 6.632 39.9369 6.964 39.8089 7.372C39.6889 7.772 39.6289 8.272 39.6289 8.872C39.6289 9 39.6329 9.104 39.6409 9.184C39.6489 9.256 39.6569 9.336 39.6649 9.424C39.6809 9.504 39.6929 9.624 39.7009 9.784L39.3289 9.472C39.4169 8.984 39.5969 8.56 39.8689 8.2C40.1409 7.832 40.4809 7.548 40.8889 7.348C41.3049 7.14 41.7649 7.036 42.2689 7.036C42.8529 7.036 43.3729 7.164 43.8289 7.42C44.2849 7.668 44.6409 8.016 44.8969 8.464C45.1609 8.912 45.2929 9.432 45.2929 10.024C45.2929 10.608 45.1569 11.132 44.8849 11.596C44.6209 12.06 44.2449 12.424 43.7569 12.688C43.2689 12.944 42.6969 13.072 42.0409 13.072ZM42.1369 12.364C42.5849 12.364 42.9809 12.264 43.3249 12.064C43.6689 11.856 43.9369 11.576 44.1289 11.224C44.3289 10.872 44.4289 10.476 44.4289 10.036C44.4289 9.604 44.3289 9.22 44.1289 8.884C43.9369 8.548 43.6689 8.284 43.3249 8.092C42.9809 7.892 42.5809 7.792 42.1249 7.792C41.6769 7.792 41.2809 7.888 40.9369 8.08C40.5929 8.264 40.3209 8.524 40.1209 8.86C39.9289 9.196 39.8329 9.584 39.8329 10.024C39.8329 10.464 39.9289 10.86 40.1209 11.212C40.3209 11.564 40.5929 11.844 40.9369 12.052C41.2889 12.26 41.6889 12.364 42.1369 12.364ZM49.951 13.06C49.343 13.06 48.795 12.924 48.307 12.652C47.827 12.372 47.447 11.992 47.167 11.512C46.887 11.024 46.747 10.468 46.747 9.844C46.747 9.212 46.887 8.656 47.167 8.176C47.447 7.696 47.827 7.32 48.307 7.048C48.787 6.776 49.335 6.64 49.951 6.64C50.575 6.64 51.127 6.776 51.607 7.048C52.095 7.32 52.475 7.696 52.747 8.176C53.027 8.656 53.167 9.212 53.167 9.844C53.167 10.468 53.027 11.024 52.747 11.512C52.475 11.992 52.095 12.372 51.607 12.652C51.119 12.924 50.567 13.06 49.951 13.06ZM49.951 12.304C50.407 12.304 50.811 12.204 51.163 12.004C51.515 11.796 51.791 11.508 51.991 11.14C52.199 10.764 52.303 10.332 52.303 9.844C52.303 9.348 52.199 8.916 51.991 8.548C51.791 8.18 51.515 7.896 51.163 7.696C50.811 7.488 50.411 7.384 49.963 7.384C49.515 7.384 49.115 7.488 48.763 7.696C48.411 7.896 48.131 8.18 47.923 8.548C47.715 8.916 47.611 9.348 47.611 9.844C47.611 10.332 47.715 10.764 47.923 11.14C48.131 11.508 48.411 11.796 48.763 12.004C49.115 12.204 49.511 12.304 49.951 12.304ZM56.1936 13V7.216L56.4096 7.444H53.8056V6.7H59.4336V7.444H56.8296L57.0456 7.216V13H56.1936ZM64.8174 13V11.608L64.7814 11.38V9.052C64.7814 8.516 64.6294 8.104 64.3254 7.816C64.0294 7.528 63.5854 7.384 62.9934 7.384C62.5854 7.384 62.1974 7.452 61.8294 7.588C61.4614 7.724 61.1494 7.904 60.8934 8.128L60.5094 7.492C60.8294 7.22 61.2134 7.012 61.6614 6.868C62.1094 6.716 62.5814 6.64 63.0774 6.64C63.8934 6.64 64.5214 6.844 64.9614 7.252C65.4094 7.652 65.6334 8.264 65.6334 9.088V13H64.8174ZM62.6454 13.06C62.1734 13.06 61.7614 12.984 61.4094 12.832C61.0654 12.672 60.8014 12.456 60.6174 12.184C60.4334 11.904 60.3414 11.584 60.3414 11.224C60.3414 10.896 60.4174 10.6 60.5694 10.336C60.7294 10.064 60.9854 9.848 61.3374 9.688C61.6974 9.52 62.1774 9.436 62.7774 9.436H64.9494V10.072H62.8014C62.1934 10.072 61.7694 10.18 61.5294 10.396C61.2974 10.612 61.1814 10.88 61.1814 11.2C61.1814 11.56 61.3214 11.848 61.6014 12.064C61.8814 12.28 62.2734 12.388 62.7774 12.388C63.2574 12.388 63.6694 12.28 64.0134 12.064C64.3654 11.84 64.6214 11.52 64.7814 11.104L64.9734 11.692C64.8134 12.108 64.5334 12.44 64.1334 12.688C63.7414 12.936 63.2454 13.06 62.6454 13.06ZM68.1415 13V6.7H68.9935V9.484H72.9655V6.7H73.8175V13H72.9655V10.216H68.9935V13H68.1415ZM79.0712 13.06C78.4632 13.06 77.9152 12.924 77.4272 12.652C76.9472 12.372 76.5672 11.992 76.2872 11.512C76.0072 11.024 75.8672 10.468 75.8672 9.844C75.8672 9.212 76.0072 8.656 76.2872 8.176C76.5672 7.696 76.9472 7.32 77.4272 7.048C77.9072 6.776 78.4552 6.64 79.0712 6.64C79.6952 6.64 80.2472 6.776 80.7272 7.048C81.2152 7.32 81.5952 7.696 81.8672 8.176C82.1472 8.656 82.2872 9.212 82.2872 9.844C82.2872 10.468 82.1472 11.024 81.8672 11.512C81.5952 11.992 81.2152 12.372 80.7272 12.652C80.2392 12.924 79.6872 13.06 79.0712 13.06ZM79.0712 12.304C79.5272 12.304 79.9312 12.204 80.2832 12.004C80.6352 11.796 80.9112 11.508 81.1112 11.14C81.3192 10.764 81.4232 10.332 81.4232 9.844C81.4232 9.348 81.3192 8.916 81.1112 8.548C80.9112 8.18 80.6352 7.896 80.2832 7.696C79.9312 7.488 79.5312 7.384 79.0832 7.384C78.6352 7.384 78.2352 7.488 77.8832 7.696C77.5312 7.896 77.2512 8.18 77.0432 8.548C76.8352 8.916 76.7312 9.348 76.7312 9.844C76.7312 10.332 76.8352 10.764 77.0432 11.14C77.2512 11.508 77.5312 11.796 77.8832 12.004C78.2352 12.204 78.6312 12.304 79.0712 12.304ZM87.7287 13V6.7H90.5127C91.2247 6.7 91.7847 6.836 92.1927 7.108C92.6087 7.38 92.8167 7.78 92.8167 8.308C92.8167 8.82 92.6207 9.216 92.2287 9.496C91.8367 9.768 91.3207 9.904 90.6807 9.904L90.8487 9.652C91.6007 9.652 92.1527 9.792 92.5047 10.072C92.8567 10.352 93.0327 10.756 93.0327 11.284C93.0327 11.828 92.8327 12.252 92.4327 12.556C92.0407 12.852 91.4287 13 90.5967 13H87.7287ZM88.5567 12.328H90.5607C91.0967 12.328 91.5007 12.244 91.7727 12.076C92.0527 11.9 92.1927 11.62 92.1927 11.236C92.1927 10.852 92.0687 10.572 91.8207 10.396C91.5727 10.22 91.1807 10.132 90.6447 10.132H88.5567V12.328ZM88.5567 9.496H90.4527C90.9407 9.496 91.3127 9.404 91.5687 9.22C91.8327 9.036 91.9647 8.768 91.9647 8.416C91.9647 8.064 91.8327 7.8 91.5687 7.624C91.3127 7.448 90.9407 7.36 90.4527 7.36H88.5567V9.496Z" fill="#69676D"/>
<path fill-rule="evenodd" clip-rule="evenodd" d="M115.153 16.0349H111.474L110.955 15.2212C110.235 15.5562 109.595 15.7955 109.036 15.987C108.476 16.1306 107.876 16.2263 107.197 16.2263C104.958 16.2263 103.198 15.5562 101.959 14.2638C100.64 12.9236 100 10.8654 100 8.23282C100 5.55237 100.6 3.49416 101.759 2.10607C102.959 0.717979 104.758 0 107.197 0C109.555 0 111.355 0.765844 112.594 2.24967C113.673 3.54203 114.193 5.21731 114.193 7.22765C114.193 8.71148 114.153 9.81238 114.033 10.4825C113.873 11.5355 113.474 12.5407 112.914 13.4501L115.153 16.0349ZM110.955 8.08923C110.955 6.65327 110.715 5.5045 110.195 4.59506C109.555 3.4463 108.516 2.87192 107.157 2.87192C105.877 2.87192 104.878 3.3027 104.238 4.21214C103.598 5.07372 103.278 6.36608 103.278 8.04136C103.278 9.90811 103.638 11.2962 104.398 12.1578C105.078 12.9236 106.077 13.3065 107.396 13.3065C108.596 13.3065 109.475 12.8758 110.075 12.0142C110.675 11.1047 110.955 9.81238 110.955 8.08923Z" fill="#69676D"/>
<path fill-rule="evenodd" clip-rule="evenodd" d="M129.026 11.1047C129.026 12.4927 128.626 13.6415 127.867 14.5988C127.107 15.5561 126.148 15.9869 124.948 15.9869H115.753V13.1629H123.389C123.909 13.1629 124.349 13.0193 124.668 12.7321C125.068 12.397 125.268 11.9662 125.268 11.3918C125.268 10.0516 124.468 9.38151 122.909 9.38151H119.071C117.952 9.38151 116.992 8.95072 116.152 8.13701C115.313 7.3233 114.913 6.27027 114.913 4.9779C114.913 3.58981 115.313 2.44105 116.152 1.57947C116.952 0.717897 118.032 0.287109 119.391 0.287109H128.227V2.96756H120.39C120.031 2.96756 119.671 3.15902 119.351 3.49408C118.951 3.82914 118.791 4.25993 118.791 4.73858C118.791 5.2651 118.951 5.74375 119.311 6.07881C119.671 6.46173 120.071 6.60532 120.55 6.60532H124.788C126.108 6.60532 127.147 7.03611 127.907 7.84982C128.666 8.66353 129.026 9.76443 129.026 11.1047Z" fill="#69676D"/>
<path fill-rule="evenodd" clip-rule="evenodd" d="M144.138 8.09019C144.138 11.1536 143.418 13.3075 142.019 14.6477C140.86 15.7008 139.18 16.2273 137.022 16.2273C134.583 16.2273 132.784 15.605 131.624 14.4084C130.345 13.0682 129.705 10.9142 129.705 7.94659C129.705 5.50547 130.265 3.59086 131.424 2.25063C132.664 0.766807 134.503 0.0488281 136.982 0.0488281C139.7 0.0488281 141.579 0.766807 142.699 2.1549C143.658 3.3994 144.138 5.36187 144.138 8.09019ZM140.78 7.99446C140.78 6.46277 140.46 5.21827 139.86 4.30884C139.18 3.30366 138.141 2.77715 136.822 2.77715C135.502 2.77715 134.503 3.30367 133.823 4.40457C133.263 5.31401 132.983 6.51064 132.983 7.94659C132.983 9.62188 133.223 10.8664 133.663 11.6801C134.303 12.781 135.422 13.3554 137.141 13.3554C138.581 13.3554 139.58 12.8288 140.14 11.7279C140.58 10.9621 140.78 9.66974 140.78 7.99446Z" fill="#69676D"/>
<path fill-rule="evenodd" clip-rule="evenodd" d="M157.292 9.42937H148.256V15.939H145.018V6.31813C145.018 5.74375 145.098 5.07364 145.297 4.35566C145.657 3.06329 146.337 2.10599 147.336 1.43588C148.496 0.670031 150.415 0.287109 153.054 0.287109C158.691 0.287109 164.328 0.287109 169.966 0.287109V2.9197H165.088V15.939H162.049V2.9197C158.931 2.9197 155.972 2.87183 152.854 2.87183C151.654 2.87183 150.815 2.96756 150.335 3.11116C149.495 3.35049 148.936 3.92487 148.576 4.73858C148.296 5.36083 148.176 6.03094 148.176 6.79678H157.292V9.42937Z" fill="#69676D"/>
</svg>
