<svg width="56" height="56" viewBox="0 0 56 56" fill="none" xmlns="http://www.w3.org/2000/svg">
<path d="M51.4239 5.54714C48.0467 2.56849 43.4952 1.29322 39.062 2.08338C34.4663 2.90571 30.441 5.6527 28 9.63252C25.5591 5.6527 21.5338 2.90571 16.938 2.08338C12.5049 1.29442 7.95392 2.56958 4.57614 5.54714C0.51439 9.2697 -0.93578 15.561 0.59741 22.8093C0.603098 22.8365 0.621364 22.8568 0.629349 22.8829C0.668398 23.0011 0.728229 23.1114 0.806109 23.2085C0.823719 23.2297 0.830938 23.256 0.850955 23.276C0.876769 23.2953 0.903567 23.3131 0.93135 23.3295C0.97893 23.3686 1.03034 23.4028 1.08481 23.4314C1.18883 23.486 1.30248 23.5202 1.41941 23.5317C1.45036 23.5348 1.47978 23.5496 1.51074 23.5496C1.5441 23.5449 1.57724 23.5384 1.60984 23.5302C1.64123 23.5316 1.67262 23.5314 1.70391 23.5295C1.73125 23.5237 1.75149 23.5055 1.77785 23.4975C1.83691 23.4789 1.8939 23.4543 1.94783 23.424C2.0035 23.3949 2.056 23.36 2.10446 23.3199C2.12524 23.3025 2.15105 23.2955 2.17052 23.276L5.45381 19.9936L5.46474 19.9864C6.18447 19.2646 7.35058 19.2549 8.08234 19.9644C8.81409 20.674 8.84024 21.8398 8.14086 22.5814L2.75571 27.9666C2.51901 28.2019 2.42604 28.5458 2.51179 28.8683C2.59755 29.1909 2.84912 29.4431 3.17136 29.5298C3.49359 29.6164 3.83771 29.5244 4.07375 29.2884L9.39994 23.9623C9.40727 23.9553 9.417 23.9533 9.42433 23.9461C9.43822 23.9322 9.44708 23.9155 9.46075 23.9015L12.6978 20.6644C12.706 20.6568 12.7169 20.6545 12.7249 20.6465C13.4627 19.9391 14.6268 19.9391 15.3646 20.6465C16.088 21.3725 16.0917 22.5458 15.3728 23.2762L15.3618 23.2835L5.42373 33.2226C5.18801 33.4584 5.09591 33.8019 5.18221 34.1241C5.26852 34.4462 5.52009 34.6977 5.84211 34.784C6.16413 34.8703 6.5078 34.7782 6.74362 34.5424L15.371 25.9251L15.3936 25.9025C16.1311 25.1931 17.3025 25.2105 18.0187 25.9414C18.7349 26.6723 18.7285 27.8438 18.0044 28.5668L16.0258 30.5457L16.0247 30.5466L16.0243 30.5471L8.81278 37.7589C8.57696 37.9947 8.48497 38.3383 8.57127 38.6604C8.65757 38.9824 8.90915 39.234 9.23116 39.3203C9.55318 39.4066 9.89685 39.3145 10.1327 39.0788L17.3457 31.8652C18.0748 31.1363 19.2568 31.1367 19.9857 31.8658C20.7146 32.5949 20.7144 33.7769 19.9852 34.5058C19.9812 34.5097 19.9801 34.5153 19.9762 34.5194L12.7424 41.7532C12.7377 41.7579 12.7365 41.7643 12.7319 41.769C12.7271 41.7739 12.7205 41.7756 12.7159 41.7805C12.6818 41.8261 12.6523 41.8748 12.6275 41.9261C12.5913 41.9744 12.5599 42.0263 12.5337 42.0806C12.5164 42.1384 12.5048 42.1977 12.4992 42.2576C12.4613 42.3704 12.4638 42.4929 12.5061 42.6041C12.5142 42.664 12.5282 42.7229 12.5478 42.78C12.5769 42.8346 12.6111 42.8862 12.6503 42.9343C12.6765 42.9833 12.7074 43.0297 12.7425 43.0729C12.7472 43.0777 12.7537 43.079 12.7584 43.0835C12.7633 43.0882 12.7649 43.0947 12.7698 43.0993C17.3283 47.194 22.265 50.847 27.5135 54.0092C27.8124 54.1915 28.1882 54.1915 28.487 54.0092C33.7354 50.847 38.6721 47.194 43.2305 43.0993C43.2356 43.0947 43.2371 43.0882 43.242 43.0835C43.2467 43.0789 43.2532 43.0775 43.2579 43.0729C43.2929 43.0297 43.3237 42.9833 43.3501 42.9343C43.3891 42.8863 43.4235 42.8346 43.4526 42.78C43.4823 42.6651 43.5075 42.5489 43.5277 42.4319C43.5243 42.373 43.5155 42.3147 43.501 42.2576C43.4955 42.1976 43.484 42.1383 43.4666 42.0806C43.4403 42.0263 43.4088 41.9744 43.3727 41.9261C43.348 41.8748 43.3184 41.8261 43.2842 41.7805C43.2796 41.7755 43.2731 41.7739 43.2683 41.769C43.2637 41.7643 43.2625 41.7579 43.2578 41.7532L36.024 34.5194C36.02 34.5153 36.019 34.5099 36.015 34.5058C35.2859 33.7769 35.2857 32.5949 36.0145 31.8658C36.7434 31.1367 37.9254 31.1364 38.6545 31.8652L45.8675 39.0788C46.2319 39.4433 46.8228 39.4433 47.1874 39.0788C47.5518 38.7143 47.5518 38.1234 47.1874 37.7589L39.976 30.5468L39.9756 30.5462L39.9745 30.5453L37.9959 28.5663C37.5241 28.0948 37.3399 27.4074 37.5124 26.7632C37.6849 26.1189 38.1881 25.6156 38.8323 25.4429C39.4766 25.2701 40.164 25.4542 40.6357 25.9258L40.6469 25.9332L49.2568 34.5422C49.6218 34.9035 50.2101 34.9021 50.5733 34.5388C50.9364 34.1757 50.9379 33.5873 50.5765 33.2223L41.9627 24.6167L41.9555 24.6059C41.9496 24.5999 41.9422 24.596 41.9362 24.5901L40.6383 23.2832L40.6356 23.2814C39.9074 22.5529 39.9076 21.3721 40.636 20.644C41.3645 19.9158 42.5453 19.9159 43.2734 20.6444C43.2814 20.6524 43.2923 20.6548 43.3004 20.6625L46.4491 23.8111C46.4867 23.856 46.5265 23.8974 46.5762 23.9472L46.5775 23.9487L46.5777 23.9488L46.5784 23.9496L51.9262 29.2882C52.1621 29.5243 52.5062 29.6164 52.8286 29.5296C53.1509 29.443 53.4024 29.1908 53.4882 28.8682C53.5739 28.5457 53.4809 28.2019 53.2442 27.9665L47.8882 22.6224C47.872 22.6016 47.8536 22.5825 47.836 22.563L47.8316 22.5559C47.1592 21.8193 47.1882 20.6831 47.8973 19.9818C48.6347 19.2763 49.7969 19.2763 50.5342 19.9818L53.8293 23.276C53.8488 23.2955 53.8747 23.3025 53.8954 23.3199C53.9928 23.3981 54.1034 23.4582 54.2221 23.4974C54.2485 23.5054 54.2687 23.5235 54.296 23.5293C54.3593 23.5425 54.4237 23.5491 54.4882 23.5491L54.4892 23.5494H54.4895H54.4901C54.6035 23.5483 54.7157 23.5264 54.8212 23.4847C54.8502 23.4705 54.8784 23.4547 54.9057 23.4376C54.9805 23.4014 55.05 23.3552 55.1125 23.3004C55.1236 23.2902 55.1383 23.2867 55.1491 23.276C55.1688 23.2563 55.1759 23.2303 55.1934 23.2093C55.2415 23.1532 55.2827 23.0913 55.3157 23.0251C55.3367 22.9829 55.3544 22.939 55.3684 22.8941C55.3812 22.8664 55.3926 22.8382 55.4024 22.8094C56.9357 15.561 55.4856 9.2697 51.4239 5.54714ZM53.8788 20.686L51.8541 18.6619C50.3777 17.2522 48.0539 17.2522 46.5774 18.6619C46.1159 19.1271 45.7845 19.7052 45.616 20.3385L44.6021 19.3245C44.5877 19.3101 44.5684 19.3053 44.5532 19.292C43.2602 18.025 41.2427 17.8732 39.7747 18.9325C38.3067 19.9919 37.8149 21.9544 38.6099 23.5808C37.3238 23.8259 36.2616 24.7296 35.8136 25.9597C35.3657 27.1898 35.5981 28.565 36.4254 29.5796C35.7712 29.7379 35.1728 30.0721 34.6949 30.546C33.248 31.998 33.2407 34.3446 34.6786 35.8055C34.6855 35.8129 34.6876 35.8228 34.6949 35.83L41.2383 42.3734C37.112 45.9934 32.6829 49.2532 27.9999 52.1168C23.3169 49.2531 18.8878 45.9934 14.7616 42.3734L21.3049 35.83C21.3123 35.8228 21.3142 35.8129 21.3212 35.8055C22.7592 34.3445 22.7518 31.998 21.3049 30.546C20.8266 30.0725 20.2282 29.7385 19.5741 29.58C20.4011 28.5658 20.6338 27.1913 20.1866 25.9614C19.7395 24.7315 18.6785 23.8274 17.3932 23.5811C18.0852 22.1563 17.8009 20.4498 16.6845 19.3263C15.2244 17.9303 12.929 17.9144 11.4497 19.2902C11.4333 19.3045 11.4124 19.3098 11.3969 19.3254L10.3752 20.3471C10.2131 19.7124 9.88482 19.1323 9.42433 18.6664C7.97514 17.22 5.63144 17.2106 4.17066 18.6453C4.16311 18.6524 4.15316 18.6545 4.14583 18.6618L2.12108 20.6859C1.27831 14.8509 2.59241 9.897 5.83751 6.92337C8.80469 4.35675 12.7666 3.25605 16.6325 3.92448C21.0214 4.65274 24.7677 7.48482 27.1804 11.9002C27.3587 12.1803 27.6678 12.3501 27.9999 12.3501C28.332 12.3501 28.6411 12.1804 28.8194 11.9002C31.2322 7.48482 34.9784 4.65285 39.3673 3.92448C43.2332 3.25627 47.1949 4.35686 50.1623 6.92337C53.4074 9.89711 54.7216 14.851 53.8788 20.686Z" fill="#3887B5"/>
</svg>
