<svg width="125" height="14" viewBox="0 0 125 14" fill="none" xmlns="http://www.w3.org/2000/svg">
<path d="M9.27647 2.65864H11.409V13.1869H9.16985L8.9566 12.2298C7.99696 13.0805 6.82407 13.5059 5.54456 13.5059C3.94517 13.5059 2.66565 12.9742 1.59939 11.9107C0.533131 10.8473 0 9.46478 0 7.86959C0 6.2744 0.533131 4.99825 1.59939 3.93479C2.66565 2.87133 3.94517 2.3396 5.54456 2.3396C6.9307 2.3396 7.99696 2.76498 9.06322 3.61575L9.27647 2.65864ZM3.62529 10.1029C4.15842 10.6346 4.9048 10.9536 5.65119 10.9536C6.50419 10.9536 7.14395 10.6346 7.67708 10.1029C8.21021 9.57113 8.53009 8.8267 8.53009 8.08228C8.53009 7.23152 8.21021 6.59344 7.67708 6.06171C7.14395 5.52998 6.39757 5.21094 5.65119 5.21094C5.11805 5.21094 4.58492 5.31729 4.15842 5.63632C3.73192 5.84902 3.41204 6.2744 3.09216 6.69978C2.87891 7.12517 2.77228 7.6569 2.77228 8.18863C2.87891 8.8267 3.09216 9.46478 3.62529 10.1029Z" fill="#3A3A43"/>
<path d="M26.1234 2.44595C27.1897 2.44595 28.1493 2.87133 28.7891 3.61575C29.5354 4.36017 29.8553 5.42363 29.8553 6.59344V13.1869H26.9764V7.01882C26.9764 5.63633 26.4433 4.8919 25.377 4.8919C24.9505 4.8919 24.6306 4.99825 24.3108 5.21094C23.9909 5.42363 23.7776 5.74267 23.5644 6.06171C23.4577 6.48709 23.3511 6.91248 23.3511 7.44421V13.1869H20.5788V7.01882C20.5788 5.63633 20.0457 4.8919 18.9795 4.8919C18.3397 4.8919 17.8066 5.10459 17.4867 5.52998C17.1668 5.95536 16.9536 6.59344 16.9536 7.44421V13.1869H14.1813V2.65864H16.2072L16.7403 3.93479C17.1668 3.40306 17.5933 3.08402 18.1264 2.76498C18.6596 2.44595 19.2993 2.3396 19.8325 2.3396C20.4722 2.3396 21.112 2.44595 21.6451 2.76498C22.1782 3.08402 22.6047 3.50941 22.9246 4.04114C23.0312 3.82844 23.2445 3.7221 23.3511 3.50941C23.4577 3.40306 23.671 3.19037 23.7776 3.08402C23.9909 2.97768 24.0975 2.87133 24.3108 2.76498C24.524 2.65864 24.7373 2.55229 24.8439 2.55229C25.0571 2.44595 25.2704 2.44595 25.4836 2.44595C25.6969 2.44595 25.9102 2.44595 26.1234 2.44595Z" fill="#3A3A43"/>
<path d="M42.7571 7.97601C42.7571 8.29505 42.7571 8.50774 42.6505 8.82678H34.6535C34.7602 9.5712 35.08 10.1029 35.5066 10.5283C35.9331 10.9537 36.5728 11.06 37.2126 11.06C37.7457 11.06 38.1722 10.9537 38.4921 10.741C38.9186 10.5283 39.2385 10.2093 39.4517 9.89024H42.4373C42.0107 11.06 41.371 11.9108 40.4114 12.6552C39.4517 13.3997 38.3855 13.7187 37.2126 13.7187C35.6132 13.7187 34.3337 13.187 33.2674 12.1235C32.2011 11.06 31.668 9.78389 31.668 8.1887C31.668 7.55063 31.7746 6.91255 31.8813 6.38082C32.0945 5.84909 32.3078 5.31736 32.6276 4.78563C32.9475 4.36025 33.374 3.93487 33.8005 3.61583C34.227 3.29679 34.7602 2.97775 35.2933 2.87141C35.8264 2.65871 36.4662 2.55237 37.1059 2.55237C38.1722 2.55237 39.1318 2.76506 39.9849 3.29679C40.8379 3.82852 41.4776 4.4666 41.9041 5.31736C42.5439 6.06179 42.7571 6.91255 42.7571 7.97601ZM37.3192 4.89198C36.6794 4.89198 36.1463 5.10467 35.7198 5.42371C35.2933 5.74275 34.9734 6.27448 34.8668 6.91255H39.9849C39.8782 6.48717 39.665 6.16813 39.4517 5.84909C39.2385 5.53006 38.9186 5.31736 38.5987 5.21102C38.1722 4.89198 37.7457 4.89198 37.3192 4.89198Z" fill="#3A3A43"/>
<path d="M49.048 6.80614C49.3679 6.91249 49.6878 6.91249 49.7944 6.91249C50.0077 6.91249 50.2209 7.01883 50.5408 7.12518C50.8607 7.23152 51.1805 7.33787 51.2872 7.44422C51.5004 7.55056 51.7137 7.65691 51.9269 7.8696C52.1402 8.08229 52.3534 8.18864 52.4601 8.40133C52.5667 8.61402 52.6733 8.82672 52.7799 9.14575C52.8866 9.46479 52.8866 9.78383 52.8866 10.1029C52.8866 11.1663 52.4601 12.0171 51.7137 12.6552C50.8607 13.2932 49.7944 13.6123 48.5149 13.6123C47.2354 13.6123 46.0625 13.2932 45.3161 12.5488C44.4631 11.9107 44.1432 10.9536 44.0366 9.78383H46.8089C46.8089 10.2092 47.0221 10.6346 47.342 10.8473C47.6619 11.06 48.0884 11.1663 48.6215 11.1663C49.048 11.1663 49.3679 11.06 49.6878 10.8473C50.0077 10.6346 50.1143 10.4219 50.1143 10.1029C50.1143 9.89017 50.1143 9.78383 50.0077 9.67748C49.901 9.57114 49.7944 9.46479 49.5812 9.35844C49.3679 9.2521 49.1546 9.2521 48.9414 9.14575C48.7281 9.14575 48.5149 9.03941 48.0884 9.03941C47.6619 8.93306 47.342 8.93306 47.0221 8.82671C46.7022 8.72037 46.3824 8.61402 46.0625 8.50768C45.636 8.29498 45.4227 8.18864 45.1029 7.97595C44.8896 7.76326 44.6763 7.44422 44.4631 7.12518C44.2498 6.80614 44.2498 6.38076 44.2498 5.84903C44.2498 4.89191 44.6763 4.04115 45.4227 3.40307C46.1691 2.76499 47.2354 2.44596 48.5149 2.44596C49.7944 2.44596 50.8607 2.76499 51.607 3.40307C52.3534 4.04115 52.7799 4.89191 52.7799 5.95537H50.0077C50.0077 5.10461 49.4745 4.67922 48.4083 4.67922C47.9818 4.67922 47.6619 4.78557 47.342 4.99826C47.1287 5.21095 47.0221 5.42364 47.0221 5.74268C47.0221 5.84903 47.0221 5.95537 47.1288 6.06172C47.2354 6.16806 47.2354 6.27441 47.342 6.27441C47.4486 6.38076 47.5553 6.38076 47.7685 6.4871C47.9818 6.59345 48.195 6.59345 48.3016 6.59345C48.6215 6.69979 48.8348 6.6998 49.048 6.80614ZM60.1371 10.7409H61.4167V13.2932H59.3908C58.2179 13.2932 57.3649 12.9742 56.6185 12.3361C55.9787 11.6981 55.6588 10.7409 55.6588 9.57114V5.10461H53.7396V4.46653L57.898 0H58.4311V2.765H61.31V4.99826H58.4311V9.14575C58.4311 9.67748 58.5377 9.99652 58.8576 10.3156C59.2841 10.6346 59.7106 10.7409 60.1371 10.7409Z" fill="#3A3A43"/>
<path d="M68.5606 13.6122C67.4943 13.6122 66.5347 13.3996 65.5751 12.8678C64.7221 12.3361 63.9757 11.698 63.5492 10.8473C63.0161 9.99649 62.8028 9.03937 62.8028 7.97591C62.8028 6.38072 63.3359 4.99823 64.4022 4.04111C65.4684 2.97765 66.8546 2.44592 68.454 2.44592C70.0534 2.44592 71.4395 2.97765 72.5058 4.04111C73.572 5.10457 74.1052 6.38072 74.1052 7.97591C74.1052 9.5711 73.572 10.8473 72.5058 11.9107C71.5461 13.0805 70.2666 13.6122 68.5606 13.6122ZM68.5606 10.8473C69.4136 10.8473 70.0534 10.5282 70.5865 9.99649C71.1196 9.46476 71.3329 8.72034 71.3329 7.86957C71.3329 7.0188 71.1196 6.38072 70.5865 5.74265C70.0534 5.21092 69.4136 4.89188 68.5606 4.89188C67.7076 4.89188 67.0678 5.21092 66.5347 5.74265C66.0016 6.27438 65.7883 7.0188 65.7883 7.86957C65.7883 8.29495 65.895 8.72034 66.0016 9.03937C66.1082 9.35841 66.3215 9.67745 66.5347 9.99649C66.748 10.2092 67.0678 10.4219 67.3877 10.6346C67.8142 10.8473 68.2407 10.8473 68.5606 10.8473Z" fill="#3A3A43"/>
<path d="M81.7823 2.65857H82.7419V5.31722H81.4624C80.6094 5.31722 80.0762 5.52991 79.7564 5.84895C79.4365 6.27433 79.2232 6.80606 79.2232 7.65683V13.1868H76.3443V2.65857H78.157L78.6901 3.93472C79.4365 3.08395 80.5027 2.65857 81.7823 2.65857Z" fill="#3A3A43"/>
<path d="M94.3641 7.97601C94.3641 8.29505 94.3641 8.50774 94.2575 8.82678H86.2605C86.3672 9.5712 86.687 10.1029 87.1135 10.5283C87.5401 10.9537 88.1798 11.06 88.8196 11.06C89.3527 11.06 89.7792 10.9537 90.0991 10.741C90.5256 10.5283 90.8455 10.2093 91.0587 9.89024H94.0443C93.6177 11.06 92.978 11.9108 92.0184 12.6552C91.0587 13.2933 89.9925 13.7187 88.8196 13.7187C87.2202 13.7187 85.9407 13.187 84.8744 12.1235C83.8081 11.06 83.275 9.78389 83.275 8.1887C83.275 7.55063 83.3816 6.91255 83.4883 6.38082C83.7015 5.84909 83.9148 5.31736 84.2346 4.78563C84.5545 4.36025 84.981 3.93487 85.4075 3.61583C85.834 3.29679 86.3672 2.97775 86.9003 2.87141C87.4334 2.65871 88.0732 2.55237 88.7129 2.55237C89.7792 2.55237 90.7388 2.76506 91.5918 3.29679C92.4449 3.82852 93.0846 4.4666 93.5111 5.31736C94.1509 6.06179 94.3641 6.91255 94.3641 7.97601ZM88.9262 4.89198C88.2864 4.89198 87.7533 5.10467 87.3268 5.42371C86.9003 5.74275 86.5804 6.27448 86.4738 6.91255H91.5918C91.4852 6.48717 91.272 6.16813 91.0587 5.84909C90.8455 5.53006 90.5256 5.31736 90.2057 5.21102C89.6726 4.89198 89.3527 4.89198 88.9262 4.89198Z" fill="#3A3A43"/>
<path d="M111.744 2.97766H112.704V5.63631H111.424C110.571 5.63631 110.038 5.849 109.718 6.16804C109.398 6.59342 109.185 7.12515 109.185 7.97592V13.5059H106.306V2.97766H108.119L108.652 4.25381C109.398 3.40305 110.465 2.97766 111.744 2.97766Z" fill="#3A3A43"/>
<path d="M122.727 12.5489C121.767 13.3997 120.594 13.825 119.101 13.825C117.609 13.825 116.436 13.3997 115.476 12.5489C114.516 11.6981 114.09 10.5283 114.09 9.14583V3.08411H116.969V8.82679C116.969 9.57121 117.182 10.2093 117.502 10.6347C117.822 11.0601 118.355 11.2727 119.101 11.2727C119.848 11.2727 120.274 11.0601 120.701 10.6347C121.021 10.2093 121.234 9.57121 121.234 8.82679V3.08411H124.113V9.14583C124.113 10.5283 123.686 11.6981 122.727 12.5489Z" fill="#3A3A43"/>
<path d="M100.335 13.6123C101.454 13.6123 102.361 12.7077 102.361 11.5917C102.361 10.4758 101.454 9.57117 100.335 9.57117C99.2164 9.57117 98.3093 10.4758 98.3093 11.5917C98.3093 12.7077 99.2164 13.6123 100.335 13.6123Z" fill="#E30337"/>
</svg>
