<svg width="12" height="12" viewBox="0 0 12 12" fill="none" xmlns="http://www.w3.org/2000/svg">
<path d="M5.08492 9.50014C5.15962 9.50039 5.23342 9.48391 5.30091 9.45189C5.3684 9.41988 5.42786 9.37315 5.47492 9.31514L7.88992 6.31514C7.96346 6.22567 8.00366 6.11345 8.00366 5.99764C8.00366 5.88183 7.96346 5.7696 7.88992 5.68014L5.38992 2.68014C5.30505 2.57803 5.18309 2.51382 5.05088 2.50163C4.91867 2.48944 4.78703 2.53027 4.68492 2.61514C4.58281 2.70001 4.5186 2.82196 4.50641 2.95418C4.49422 3.08639 4.53505 3.21803 4.61992 3.32014L6.85492 6.00014L4.69492 8.68014C4.63378 8.75353 4.59494 8.8429 4.583 8.93768C4.57106 9.03245 4.58652 9.12866 4.62755 9.21493C4.66857 9.30119 4.73345 9.3739 4.81451 9.42444C4.89556 9.47499 4.9894 9.50125 5.08492 9.50014Z" fill="#69676D"/>
</svg>
