<svg width="36" height="36" viewBox="0 0 36 36" fill="none" xmlns="http://www.w3.org/2000/svg">
<g clip-path="url(#clip0_3271_68608)">
<circle cx="6" cy="21" r="4" fill="#FAD0D3"/>
<circle cx="30" cy="21" r="4" fill="#FAD0D3"/>
<path d="M17.6484 19.6875H18.3516V22.5H17.6484V19.6875Z" fill="black"/>
<path d="M21.375 22.8516H14.625C13.6547 22.8516 12.8672 22.0641 12.8672 21.0938H13.5703C13.5703 21.6773 14.0414 22.1484 14.625 22.1484H21.375C21.9586 22.1484 22.4297 21.6773 22.4297 21.0938H23.1328C23.1328 22.0641 22.3453 22.8516 21.375 22.8516Z" fill="black"/>
<path d="M14.4774 9.4219C13.479 9.4219 12.4032 7.31956 11.8899 5.97659L12.5438 5.72346C13.3665 7.88909 14.2594 8.73987 14.4774 8.71174C14.6391 8.60627 14.7868 7.52346 14.1399 5.50549L14.8079 5.29456C15.0047 5.89924 15.9047 8.93674 14.7165 9.37268C14.6321 9.40784 14.5547 9.4219 14.4774 9.4219Z" fill="black"/>
<path d="M21.5227 9.42183C21.4453 9.42183 21.361 9.40776 21.2836 9.37964C20.0883 8.9437 20.9953 5.9062 21.1922 5.30151L21.8602 5.51245C21.2133 7.53042 21.361 8.6062 21.5297 8.7187C21.7407 8.73979 22.6336 7.89604 23.4563 5.73042L24.1102 5.98354C23.6039 7.31948 22.5282 9.42183 21.5227 9.42183Z" fill="black"/>
<path d="M18 10.5469C16.6289 10.5469 15.8906 7.83281 15.8906 5.27344H16.5938C16.5938 8.06484 17.4234 9.84375 18 9.84375C18.5766 9.84375 19.4062 8.06484 19.4062 5.27344H20.1094C20.1094 7.83281 19.3711 10.5469 18 10.5469Z" fill="black"/>
<path d="M8.91943 22.0968L9.09029 22.7788L6.28032 23.4828L6.10946 22.8007L8.91943 22.0968Z" fill="black"/>
<path d="M6.26355 19.9795L9.07352 20.6834L8.90266 21.3655L6.09269 20.6615L6.26355 19.9795Z" fill="black"/>
<path d="M29.7404 19.9838L29.9112 20.6658L27.1012 21.3697L26.9304 20.6877L29.7404 19.9838Z" fill="black"/>
<path d="M27.0721 22.0981L29.8821 22.8021L29.7113 23.4841L26.9013 22.7802L27.0721 22.0981Z" fill="black"/>
<path d="M18 20.0391C17.9086 20.0391 17.8172 20.0039 17.7539 19.9336L16.6359 18.8156C16.3828 18.5625 16.2422 18.225 16.2422 17.8664C16.2422 17.1211 16.8469 16.5234 17.5852 16.5234H18.4078C19.1531 16.5234 19.7508 17.1281 19.7508 17.8664C19.7508 18.225 19.6102 18.5625 19.357 18.8156L18.2391 19.9336C18.1828 20.0039 18.0914 20.0391 18 20.0391ZM17.5852 17.2266C17.2336 17.2266 16.9453 17.5148 16.9453 17.8664C16.9453 18.0352 17.0156 18.1969 17.1352 18.3234L18 19.1883L18.8648 18.3234C18.9844 18.2039 19.0547 18.0422 19.0547 17.8664C19.0547 17.5148 18.7664 17.2266 18.4148 17.2266H17.5852Z" fill="black"/>
<path d="M3.57185 11.6508C3.52966 11.5805 3.48748 11.5172 3.44529 11.4469C2.41873 9.77344 1.87732 7.85391 1.87732 5.89219C1.87732 3.92344 2.42576 2.00391 3.46638 0.3375L3.57185 0.16875C3.63513 0.0632813 3.74763 0 3.86716 0H3.97263C7.84685 0 11.4047 2.10938 13.2539 5.50547L12.6351 5.84297C10.9195 2.7 7.63591 0.73125 4.05701 0.703125C2.07419 3.90234 2.06716 7.875 4.03591 11.0742C4.0781 11.1375 4.11326 11.2008 4.15544 11.2641L3.57185 11.6508Z" fill="black"/>
<path d="M4.11475 0.0992432L10.3485 6.33299L9.85139 6.8301L3.61764 0.596353L4.11475 0.0992432Z" fill="black"/>
<path d="M4.11475 0.0992432L10.3485 6.33299L9.85139 6.8301L3.61764 0.596353L4.11475 0.0992432Z" fill="black"/>
<path d="M32.4281 11.6508L31.8375 11.2711C31.8796 11.2078 31.9148 11.1445 31.957 11.0813C33.9257 7.88203 33.9187 3.90234 31.9359 0.710156C28.357 0.745313 25.0734 2.70703 23.3578 5.85L22.739 5.5125C24.5953 2.10938 28.1531 0 32.0273 0H32.1328C32.2523 0 32.3648 0.0632813 32.4281 0.16875L32.5335 0.3375C33.5671 2.01094 34.1156 3.93047 34.1226 5.89219C34.1226 7.85391 33.5812 9.77344 32.5546 11.4469C32.5125 11.5172 32.4703 11.5875 32.4281 11.6508Z" fill="black"/>
<path d="M31.8842 0.098877L32.3813 0.595986L26.1475 6.82974L25.6504 6.33263L31.8842 0.098877Z" fill="black"/>
<path d="M18.5766 36H17.4305C14.7797 36 12.1852 35.5289 9.70312 34.6008C6.84141 33.5321 4.40859 31.6336 2.66484 29.1235C0.921094 26.6133 0 23.6672 0 20.6157C0 16.9805 1.32187 13.486 3.7125 10.7578C3.93047 10.5047 4.1625 10.2586 4.40156 10.0196L4.90078 10.5117C4.67578 10.7367 4.45078 10.9758 4.23984 11.2219C1.96172 13.8164 0.703125 17.1563 0.703125 20.6157C0.703125 26.5219 4.41563 31.8727 9.94922 33.9469C12.3469 34.8469 14.8641 35.3039 17.4305 35.3039H18.5766C21.143 35.3039 23.6602 34.8469 26.0578 33.9469C31.5844 31.8727 35.2969 26.5149 35.2969 20.6157C35.2969 17.1563 34.0383 13.8235 31.7531 11.2219C31.5141 10.9547 31.268 10.6875 31.0148 10.4344L31.5141 9.93518C31.7812 10.1953 32.0344 10.4766 32.2805 10.7578C34.6781 13.486 35.993 16.9875 35.993 20.6157C35.993 23.6742 35.0719 26.6133 33.3281 29.1235C31.5844 31.6336 29.1516 33.5321 26.2898 34.6008C23.8219 35.5289 21.2203 36 18.5766 36Z" fill="black"/>
<path d="M28.9055 8.65547C26.1141 6.67266 22.8235 5.625 19.3922 5.625H16.6079C13.1836 5.625 9.89302 6.67266 7.09458 8.65547L6.68677 8.07891C9.60474 6.01172 13.036 4.92188 16.6079 4.92188H19.3922C22.9641 4.92188 26.3954 6.01172 29.3133 8.07891L28.9055 8.65547Z" fill="black"/>
<path d="M15.2578 18.2812H14.5547V16.875C14.5547 16.2914 14.0836 15.8203 13.5 15.8203C12.9164 15.8203 12.4453 16.2914 12.4453 16.875V18.2812H11.7422V16.875C11.7422 15.9047 12.5297 15.1172 13.5 15.1172C14.4703 15.1172 15.2578 15.9047 15.2578 16.875V18.2812Z" fill="black"/>
<path d="M24.2578 18.2812H23.5547V16.875C23.5547 16.2914 23.0836 15.8203 22.5 15.8203C21.9164 15.8203 21.4453 16.2914 21.4453 16.875V18.2812H20.7422V16.875C20.7422 15.9047 21.5297 15.1172 22.5 15.1172C23.4703 15.1172 24.2578 15.9047 24.2578 16.875V18.2812Z" fill="black"/>
<path d="M18 29.4609C15.9469 29.4609 14.2734 27.7875 14.2734 25.7344V22.5C14.2734 22.3031 14.4281 22.1484 14.625 22.1484H21.375C21.5719 22.1484 21.7266 22.3031 21.7266 22.5V25.7344C21.7266 27.7875 20.0531 29.4609 18 29.4609ZM14.9766 22.8516V25.7344C14.9766 27.4008 16.3336 28.7578 18 28.7578C19.6664 28.7578 21.0234 27.4008 21.0234 25.7344V22.8516H14.9766Z" fill="black"/>
<path d="M18 29.4609C16.6781 29.4609 15.4406 28.7437 14.7727 27.5977C14.7094 27.4922 14.7094 27.3516 14.7727 27.2461C15.4406 26.1 16.6711 25.3828 18 25.3828C19.3289 25.3828 20.5594 26.1 21.2274 27.2461C21.2906 27.3516 21.2906 27.4922 21.2274 27.5977C20.5594 28.7437 19.3219 29.4609 18 29.4609ZM15.4899 27.4219C16.0524 28.2516 16.9946 28.7578 18 28.7578C19.0055 28.7578 19.9477 28.2516 20.5102 27.4219C19.9477 26.5922 19.0055 26.0859 18 26.0859C16.9946 26.0859 16.0524 26.5922 15.4899 27.4219Z" fill="black"/>
</g>
<defs>
<clipPath id="clip0_3271_68608">
<rect width="36" height="36" fill="white"/>
</clipPath>
</defs>
</svg>
