<svg width="36" height="36" viewBox="0 0 36 36" fill="none" xmlns="http://www.w3.org/2000/svg">
<g clip-path="url(#clip0_1289_58302)">
<circle cx="30" cy="21" r="4" fill="#FAD0D3"/>
<circle cx="6" cy="21" r="4" fill="#FAD0D3"/>
<path d="M17.6484 19.6875H18.3516V22.5H17.6484V19.6875Z" fill="black"/>
<path d="M21.375 22.8516H14.625C13.6547 22.8516 12.8672 22.0641 12.8672 21.0938H13.5703C13.5703 21.6773 14.0414 22.1484 14.625 22.1484H21.375C21.9586 22.1484 22.4297 21.6773 22.4297 21.0938H23.1328C23.1328 22.0641 22.3453 22.8516 21.375 22.8516Z" fill="black"/>
<path d="M14.4771 9.42178C13.4787 9.42178 12.4029 7.31943 11.8896 5.97646L12.5436 5.72334C13.3662 7.88896 14.2521 8.73975 14.4771 8.71162C14.6389 8.60615 14.7865 7.52334 14.1396 5.50537L14.8076 5.29443C15.0045 5.89912 15.9045 8.93662 14.7162 9.37256C14.6318 9.40771 14.5545 9.42178 14.4771 9.42178Z" fill="black"/>
<path d="M21.5231 9.42183C21.4457 9.42183 21.3613 9.40776 21.284 9.37964C20.0887 8.9437 20.9957 5.9062 21.1926 5.30151L21.8606 5.51245C21.2137 7.53042 21.3613 8.6062 21.5301 8.7187H21.5371C21.7621 8.7187 22.641 7.86089 23.4496 5.73042L24.1035 5.98354C23.6043 7.31948 22.5285 9.42183 21.5231 9.42183Z" fill="black"/>
<path d="M18 10.5469C16.6289 10.5469 15.8906 7.83281 15.8906 5.27344H16.5938C16.5938 8.06484 17.4234 9.84375 18 9.84375C18.5766 9.84375 19.4062 8.06484 19.4062 5.27344H20.1094C20.1094 7.83281 19.3711 10.5469 18 10.5469Z" fill="black"/>
<path d="M8.91895 22.0967L9.0898 22.7787L6.27984 23.4827L6.10898 22.8006L8.91895 22.0967Z" fill="black"/>
<path d="M6.26367 19.9795L9.07364 20.6834L8.90278 21.3655L6.09281 20.6615L6.26367 19.9795Z" fill="black"/>
<path d="M29.7402 19.9839L29.9111 20.6659L27.1011 21.3699L26.9303 20.6878L29.7402 19.9839Z" fill="black"/>
<path d="M27.0723 22.0981L29.8822 22.8021L29.7114 23.4841L26.9014 22.7802L27.0723 22.0981Z" fill="black"/>
<path d="M18 20.0391C17.9086 20.0391 17.8172 20.0039 17.7539 19.9336L16.6359 18.8156C16.3828 18.5625 16.2422 18.225 16.2422 17.8664C16.2422 17.1211 16.8469 16.5234 17.5852 16.5234H18.4078C19.1531 16.5234 19.7508 17.1281 19.7508 17.8664C19.7508 18.225 19.6102 18.5625 19.357 18.8156L18.2391 19.9336C18.1828 20.0039 18.0914 20.0391 18 20.0391ZM17.5852 17.2266C17.2336 17.2266 16.9453 17.5148 16.9453 17.8664C16.9453 18.0352 17.0156 18.1969 17.1352 18.3234L18 19.1883L18.8648 18.3234C18.9844 18.2039 19.0547 18.0422 19.0547 17.8664C19.0547 17.5148 18.7664 17.2266 18.4148 17.2266H17.5852Z" fill="black"/>
<path d="M3.57148 11.6508C3.5293 11.5805 3.48711 11.5172 3.44492 11.4469C2.41836 9.77344 1.87695 7.85391 1.87695 5.89219C1.87695 3.92344 2.42539 2.00391 3.46602 0.3375L3.57148 0.16875C3.63477 0.0632813 3.74727 0 3.8668 0H3.97227C7.84648 0 11.4043 2.10938 13.2535 5.50547L12.6348 5.84297C10.9191 2.7 7.63555 0.73125 4.05664 0.703125C2.07383 3.90234 2.0668 7.875 4.03555 11.0742C4.07773 11.1375 4.11289 11.2008 4.15508 11.2641L3.57148 11.6508Z" fill="black"/>
<path d="M4.11426 0.0991211L10.348 6.33287L9.8509 6.82998L3.61715 0.59623L4.11426 0.0991211Z" fill="black"/>
<path d="M4.11426 0.0991211L10.348 6.33287L9.8509 6.82998L3.61715 0.59623L4.11426 0.0991211Z" fill="black"/>
<path d="M32.4283 11.6508L31.8377 11.2711C31.8799 11.2078 31.915 11.1445 31.9572 11.0813C33.926 7.88203 33.9189 3.90234 31.9361 0.710156C28.3572 0.745313 25.0736 2.70703 23.358 5.85L22.7393 5.5125C24.5955 2.10938 28.1533 0 32.0275 0H32.133C32.2525 0 32.365 0.0632813 32.4354 0.16875L32.5408 0.3375C33.5744 2.01094 34.1229 3.93047 34.1299 5.89219C34.1299 7.85391 33.5885 9.77344 32.5619 11.4469C32.5127 11.5172 32.4705 11.5875 32.4283 11.6508Z" fill="black"/>
<path d="M31.8857 0.0976562L32.3829 0.594766L26.1491 6.82852L25.652 6.33141L31.8857 0.0976562Z" fill="black"/>
<path d="M18.5766 35.9999H17.4305C14.7797 35.9999 12.1852 35.5288 9.70312 34.6007C6.84141 33.5319 4.40859 31.6335 2.66484 29.1233C0.921094 26.6132 0 23.6671 0 20.6155C0 16.9804 1.32187 13.4858 3.7125 10.7577C3.93047 10.5046 4.1625 10.2585 4.40156 10.0194L4.90078 10.5116C4.67578 10.7366 4.45078 10.9757 4.23984 11.2218C1.96172 13.8163 0.703125 17.1562 0.703125 20.6155C0.703125 26.5218 4.41563 31.8726 9.94922 33.9468C12.3469 34.8468 14.8641 35.3038 17.4305 35.3038H18.5766C21.143 35.3038 23.6602 34.8468 26.0578 33.9468C31.5844 31.8726 35.2969 26.5147 35.2969 20.6155C35.2969 17.1562 34.0383 13.8233 31.7531 11.2218C31.5141 10.9546 31.268 10.6874 31.0148 10.4343L31.5141 9.93506C31.7812 10.1952 32.0344 10.4765 32.2805 10.7577C34.6781 13.4858 35.993 16.9874 35.993 20.6155C35.993 23.6741 35.0719 26.6132 33.3281 29.1233C31.5844 31.6335 29.1516 33.5319 26.2898 34.6007C23.8219 35.5288 21.2203 35.9999 18.5766 35.9999Z" fill="black"/>
<path d="M28.9053 8.65547C26.1139 6.67266 22.8232 5.625 19.392 5.625H16.6076C13.1834 5.625 9.89277 6.67266 7.09434 8.65547L6.68652 8.07891C9.60449 6.01172 13.0357 4.92188 16.6076 4.92188H19.392C22.9639 4.92188 26.3951 6.01172 29.3131 8.07891L28.9053 8.65547Z" fill="black"/>
<path d="M25.4531 20.0391H24.0469C22.2258 20.0391 20.7422 18.5555 20.7422 16.7344V15.8203H15.2578V16.7344C15.2578 18.5555 13.7742 20.0391 11.9531 20.0391H10.5469C8.72578 20.0391 7.24219 18.5555 7.24219 16.7344V15.8203H6.1875C5.99063 15.8203 5.83594 15.6656 5.83594 15.4688V14.0625C5.83594 13.8656 5.99063 13.7109 6.1875 13.7109H29.8125C30.0094 13.7109 30.1641 13.8656 30.1641 14.0625V15.4688C30.1641 15.6656 30.0094 15.8203 29.8125 15.8203H28.7578V16.7344C28.7578 18.5555 27.2742 20.0391 25.4531 20.0391ZM14.9062 15.1172H21.0938C21.2906 15.1172 21.4453 15.2719 21.4453 15.4688V16.7344C21.4453 18.1687 22.6125 19.3359 24.0469 19.3359H25.4531C26.8875 19.3359 28.0547 18.1687 28.0547 16.7344V15.4688C28.0547 15.2719 28.2094 15.1172 28.4062 15.1172H29.4609V14.4141H6.53906V15.1172H7.59375C7.79062 15.1172 7.94531 15.2719 7.94531 15.4688V16.7344C7.94531 18.1687 9.1125 19.3359 10.5469 19.3359H11.9531C13.3875 19.3359 14.5547 18.1687 14.5547 16.7344V15.4688C14.5547 15.2719 14.7094 15.1172 14.9062 15.1172Z" fill="black"/>
</g>
<defs>
<clipPath id="clip0_1289_58302">
<rect width="36" height="36" fill="white"/>
</clipPath>
</defs>
</svg>
