<svg width="37" height="36" viewBox="0 0 37 36" fill="none" xmlns="http://www.w3.org/2000/svg">
<g clip-path="url(#clip0_3271_68550)">
<circle cx="6.5" cy="21" r="4" fill="#FAD0D3"/>
<circle cx="30.5" cy="21" r="4" fill="#FAD0D3"/>
<path d="M18.1484 19.6875H18.8516V22.5H18.1484V19.6875Z" fill="black"/>
<path d="M18.5 20.0391C18.4086 20.0391 18.3172 20.0039 18.2539 19.9336L17.1359 18.8156C16.8828 18.5625 16.7422 18.225 16.7422 17.8664C16.7422 17.1211 17.3469 16.5234 18.0852 16.5234H18.9078C19.6531 16.5234 20.2508 17.1281 20.2508 17.8664C20.2508 18.225 20.1102 18.5625 19.857 18.8156L18.7391 19.9336C18.6828 20.0039 18.5914 20.0391 18.5 20.0391ZM18.0852 17.2266C17.7336 17.2266 17.4453 17.5148 17.4453 17.8664C17.4453 18.0352 17.5156 18.1969 17.6352 18.3234L18.5 19.1883L19.3648 18.3234C19.4844 18.2039 19.5547 18.0422 19.5547 17.8664C19.5547 17.5148 19.2664 17.2266 18.9148 17.2266H18.0852Z" fill="black"/>
<path d="M15.7578 18.2812H15.0547V16.875C15.0547 16.2914 14.5836 15.8203 14 15.8203C13.4164 15.8203 12.9453 16.2914 12.9453 16.875V18.2812H12.2422V16.875C12.2422 15.9047 13.0297 15.1172 14 15.1172C14.9703 15.1172 15.7578 15.9047 15.7578 16.875V18.2812Z" fill="black"/>
<path d="M24.7578 18.2812H24.0547V16.875C24.0547 16.2914 23.5836 15.8203 23 15.8203C22.4164 15.8203 21.9453 16.2914 21.9453 16.875V18.2812H21.2422V16.875C21.2422 15.9047 22.0297 15.1172 23 15.1172C23.9703 15.1172 24.7578 15.9047 24.7578 16.875V18.2812Z" fill="black"/>
<path d="M9.19897 22.0972L9.36983 22.7792L6.55986 23.4831L6.389 22.8011L9.19897 22.0972Z" fill="black"/>
<path d="M6.54541 19.9775L9.35538 20.6815L9.18452 21.3635L6.37455 20.6596L6.54541 19.9775Z" fill="black"/>
<path d="M30.4609 19.9834L30.6318 20.6654L27.8218 21.3694L27.651 20.6873L30.4609 19.9834Z" fill="black"/>
<path d="M27.7903 22.1001L30.6003 22.804L30.4294 23.4861L27.6194 22.7821L27.7903 22.1001Z" fill="black"/>
<path d="M21.875 22.8516H15.125C14.1547 22.8516 13.3672 22.0641 13.3672 21.0938H14.0703C14.0703 21.6773 14.5414 22.1484 15.125 22.1484H21.875C22.4586 22.1484 22.9297 21.6773 22.9297 21.0938H23.6328C23.6328 22.0641 22.8453 22.8516 21.875 22.8516Z" fill="black"/>
<path d="M18.5 26.2266C16.4469 26.2266 14.7734 24.5531 14.7734 22.5C14.7734 22.3031 14.9281 22.1484 15.125 22.1484H21.875C22.0719 22.1484 22.2266 22.3031 22.2266 22.5C22.2266 24.5531 20.5531 26.2266 18.5 26.2266ZM15.4977 22.8516C15.6734 24.3563 16.9531 25.5234 18.5 25.5234C20.0469 25.5234 21.3266 24.3563 21.5023 22.8516H15.4977Z" fill="black"/>
<path d="M14.9774 9.4219C13.979 9.4219 12.9032 7.31956 12.3899 5.97659L13.0438 5.72346C13.8524 7.85393 14.7313 8.71174 14.9633 8.71174H14.9704C15.1321 8.60627 15.2797 7.52346 14.6329 5.50549L15.3008 5.29456C15.4977 5.89924 16.3977 8.93674 15.2094 9.37268C15.1321 9.40784 15.0547 9.4219 14.9774 9.4219Z" fill="black"/>
<path d="M22.0227 9.42183C21.9453 9.42183 21.861 9.40776 21.7836 9.37964C20.5883 8.9437 21.4953 5.9062 21.6922 5.30151L22.3602 5.51245C21.7133 7.53042 21.861 8.6062 22.0297 8.7187H22.0368C22.2617 8.7187 23.1407 7.86089 23.9493 5.73042L24.6032 5.98354C24.1039 7.31948 23.0282 9.42183 22.0227 9.42183Z" fill="black"/>
<path d="M18.5 10.5469C17.1289 10.5469 16.3906 7.83281 16.3906 5.27344H17.0938C17.0938 8.06484 17.9234 9.84375 18.5 9.84375C19.0766 9.84375 19.9062 8.06484 19.9062 5.27344H20.6094C20.6094 7.83281 19.8711 10.5469 18.5 10.5469Z" fill="black"/>
<path d="M4.07185 11.6508C4.02966 11.5805 3.98748 11.5172 3.94529 11.4469C2.91873 9.77344 2.37732 7.85391 2.37732 5.89219C2.37732 3.92344 2.92576 2.00391 3.96638 0.3375L4.07185 0.16875C4.13513 0.0632813 4.24763 0 4.36716 0H4.47263C8.34685 0 11.9047 2.10938 13.7539 5.50547L13.1351 5.84297C11.4195 2.7 8.13591 0.73125 4.55701 0.703125C2.57419 3.90234 2.56716 7.875 4.53591 11.0742C4.5781 11.1375 4.61326 11.2008 4.65544 11.2641L4.07185 11.6508Z" fill="black"/>
<path d="M4.61475 0.0992432L10.8485 6.33299L10.3514 6.8301L4.11764 0.596353L4.61475 0.0992432Z" fill="black"/>
<path d="M4.61475 0.0992432L10.8485 6.33299L10.3514 6.8301L4.11764 0.596353L4.61475 0.0992432Z" fill="black"/>
<path d="M32.9281 11.6508L32.3375 11.2711C32.3796 11.2078 32.4148 11.1445 32.457 11.0813C34.4257 7.88203 34.4187 3.90234 32.4359 0.710156C28.857 0.745313 25.5734 2.70703 23.8578 5.85L23.239 5.5125C25.0953 2.10938 28.6531 0 32.5273 0H32.6328C32.7523 0 32.8648 0.0632813 32.9351 0.16875L33.0406 0.3375C34.0742 2.01094 34.6226 3.93047 34.6296 5.89219C34.6296 7.85391 34.0882 9.77344 33.0617 11.4469C33.0125 11.5172 32.9703 11.5875 32.9281 11.6508Z" fill="black"/>
<path d="M32.3842 0.098877L32.8813 0.595986L26.6475 6.82974L26.1504 6.33263L32.3842 0.098877Z" fill="black"/>
<path d="M19.0766 36H17.9305C15.2797 36 12.6852 35.5289 10.2031 34.6008C7.34141 33.5321 4.90859 31.6336 3.16484 29.1235C1.42109 26.6133 0.5 23.6672 0.5 20.6157C0.5 16.9805 1.82187 13.486 4.2125 10.7578C4.43047 10.5047 4.6625 10.2586 4.90156 10.0196L5.40078 10.5117C5.17578 10.7367 4.95078 10.9758 4.73984 11.2219C2.46172 13.8164 1.20312 17.1563 1.20312 20.6157C1.20312 26.5219 4.91563 31.8727 10.4492 33.9469C12.8469 34.8469 15.3641 35.3039 17.9305 35.3039H19.0766C21.643 35.3039 24.1602 34.8469 26.5578 33.9469C32.0844 31.8727 35.7969 26.5149 35.7969 20.6157C35.7969 17.1563 34.5383 13.8235 32.2531 11.2219C32.0141 10.9547 31.768 10.6875 31.5148 10.4344L32.0141 9.93518C32.2812 10.2024 32.5344 10.4766 32.7805 10.7578C35.1781 13.486 36.493 16.9875 36.493 20.6157C36.493 23.6742 35.5719 26.6133 33.8281 29.1235C32.0844 31.6336 29.6516 33.5321 26.7898 34.6008C24.3219 35.5289 21.7203 36 19.0766 36Z" fill="black"/>
<path d="M7.59458 8.65547L7.18677 8.07891C10.1047 6.01172 13.536 4.92188 17.1079 4.92188H19.8922C23.4641 4.92188 26.8954 6.01172 29.8133 8.07891L29.4055 8.65547C26.6141 6.67266 23.3235 5.625 19.8922 5.625H17.1079C13.6766 5.625 10.393 6.67266 7.59458 8.65547Z" fill="black"/>
</g>
<defs>
<clipPath id="clip0_3271_68550">
<rect width="36" height="36" fill="white" transform="translate(0.5)"/>
</clipPath>
</defs>
</svg>
