<svg width="36" height="36" viewBox="0 0 36 36" fill="none" xmlns="http://www.w3.org/2000/svg">
<g clip-path="url(#clip0_1289_57458)">
<circle cx="6" cy="21" r="4" fill="#FAD0D3"/>
<circle cx="30" cy="21" r="4" fill="#FAD0D3"/>
<path d="M17.6484 19.6875H18.3516V22.5H17.6484V19.6875Z" fill="black"/>
<path d="M18 20.0391C17.9086 20.0391 17.8172 20.0039 17.7539 19.9336L16.6359 18.8156C16.3828 18.5625 16.2422 18.225 16.2422 17.8664C16.2422 17.1211 16.8469 16.5234 17.5852 16.5234H18.4078C19.1531 16.5234 19.7508 17.1281 19.7508 17.8664C19.7508 18.225 19.6102 18.5625 19.357 18.8156L18.2391 19.9336C18.1828 20.0039 18.0914 20.0391 18 20.0391ZM17.5852 17.2266C17.2336 17.2266 16.9453 17.5148 16.9453 17.8664C16.9453 18.0352 17.0156 18.1969 17.1352 18.3234L18 19.1883L18.8648 18.3234C18.9844 18.2039 19.0547 18.0422 19.0547 17.8664C19.0547 17.5148 18.7664 17.2266 18.4148 17.2266H17.5852Z" fill="black"/>
<path d="M15.2578 18.2812H14.5547V16.875C14.5547 16.2914 14.0836 15.8203 13.5 15.8203C12.9164 15.8203 12.4453 16.2914 12.4453 16.875V18.2812H11.7422V16.875C11.7422 15.9047 12.5297 15.1172 13.5 15.1172C14.4703 15.1172 15.2578 15.9047 15.2578 16.875V18.2812Z" fill="black"/>
<path d="M24.2578 18.2812H23.5547V16.875C23.5547 16.2914 23.0836 15.8203 22.5 15.8203C21.9164 15.8203 21.4453 16.2914 21.4453 16.875V18.2812H20.7422V16.875C20.7422 15.9047 21.5297 15.1172 22.5 15.1172C23.4703 15.1172 24.2578 15.9047 24.2578 16.875V18.2812Z" fill="black"/>
<path d="M8.69897 22.0972L8.86983 22.7792L6.05986 23.4831L5.889 22.8011L8.69897 22.0972Z" fill="black"/>
<path d="M6.04541 19.9775L8.85538 20.6815L8.68452 21.3635L5.87455 20.6596L6.04541 19.9775Z" fill="black"/>
<path d="M29.9609 19.9834L30.1318 20.6654L27.3218 21.3694L27.151 20.6873L29.9609 19.9834Z" fill="black"/>
<path d="M27.2903 22.1001L30.1003 22.804L29.9294 23.4861L27.1194 22.7821L27.2903 22.1001Z" fill="black"/>
<path d="M21.375 22.8516H14.625C13.6547 22.8516 12.8672 22.0641 12.8672 21.0938H13.5703C13.5703 21.6773 14.0414 22.1484 14.625 22.1484H21.375C21.9586 22.1484 22.4297 21.6773 22.4297 21.0938H23.1328C23.1328 22.0641 22.3453 22.8516 21.375 22.8516Z" fill="black"/>
<path d="M18 26.2266C15.9469 26.2266 14.2734 24.5531 14.2734 22.5C14.2734 22.3031 14.4281 22.1484 14.625 22.1484H21.375C21.5719 22.1484 21.7266 22.3031 21.7266 22.5C21.7266 24.5531 20.0531 26.2266 18 26.2266ZM14.9977 22.8516C15.1734 24.3563 16.4531 25.5234 18 25.5234C19.5469 25.5234 20.8266 24.3563 21.0023 22.8516H14.9977Z" fill="black"/>
<path d="M14.4774 9.42178C13.479 9.42178 12.4032 7.31943 11.8899 5.97646L12.5438 5.72334C13.3524 7.85381 14.2313 8.71162 14.4633 8.71162H14.4704C14.6321 8.60615 14.7797 7.52334 14.1329 5.50537L14.8008 5.29443C14.9977 5.89912 15.8977 8.93662 14.7094 9.37256C14.6321 9.40771 14.5547 9.42178 14.4774 9.42178Z" fill="black"/>
<path d="M21.5226 9.42183C21.4452 9.42183 21.3608 9.40776 21.2835 9.37964C20.0882 8.9437 20.9952 5.9062 21.1921 5.30151L21.8601 5.51245C21.2132 7.53042 21.3608 8.6062 21.5296 8.7187H21.5366C21.7616 8.7187 22.6405 7.86089 23.4491 5.73042L24.103 5.98354C23.6038 7.31948 22.528 9.42183 21.5226 9.42183Z" fill="black"/>
<path d="M18 10.5469C16.6289 10.5469 15.8906 7.83281 15.8906 5.27344H16.5938C16.5938 8.06484 17.4234 9.84375 18 9.84375C18.5766 9.84375 19.4062 8.06484 19.4062 5.27344H20.1094C20.1094 7.83281 19.3711 10.5469 18 10.5469Z" fill="black"/>
<path d="M3.57197 11.6508C3.52979 11.5805 3.4876 11.5172 3.44541 11.4469C2.41885 9.77344 1.87744 7.85391 1.87744 5.89219C1.87744 3.92344 2.42588 2.00391 3.4665 0.3375L3.57197 0.16875C3.63525 0.0632813 3.74775 0 3.86729 0H3.97275C7.84697 0 11.4048 2.10938 13.254 5.50547L12.6353 5.84297C10.9196 2.7 7.63604 0.73125 4.05713 0.703125C2.07432 3.90234 2.06729 7.875 4.03604 11.0742C4.07822 11.1375 4.11338 11.2008 4.15557 11.2641L3.57197 11.6508Z" fill="black"/>
<path d="M4.11475 0.0991211L10.3485 6.33287L9.85139 6.82998L3.61764 0.59623L4.11475 0.0991211Z" fill="black"/>
<path d="M4.11475 0.0991211L10.3485 6.33287L9.85139 6.82998L3.61764 0.59623L4.11475 0.0991211Z" fill="black"/>
<path d="M32.4281 11.6508L31.8375 11.2711C31.8796 11.2078 31.9148 11.1445 31.957 11.0813C33.9257 7.88203 33.9187 3.90234 31.9359 0.710156C28.357 0.745313 25.0734 2.70703 23.3578 5.85L22.739 5.5125C24.5953 2.10938 28.1531 0 32.0273 0H32.1328C32.2523 0 32.3648 0.0632813 32.4351 0.16875L32.5406 0.3375C33.5742 2.01094 34.1226 3.93047 34.1296 5.89219C34.1296 7.85391 33.5882 9.77344 32.5617 11.4469C32.5125 11.5172 32.4703 11.5875 32.4281 11.6508Z" fill="black"/>
<path d="M31.884 0.098877L32.3811 0.595986L26.1474 6.82974L25.6503 6.33263L31.884 0.098877Z" fill="black"/>
<path d="M18.5766 35.9999H17.4305C14.7797 35.9999 12.1852 35.5288 9.70312 34.6007C6.84141 33.5319 4.40859 31.6335 2.66484 29.1233C0.921094 26.6132 0 23.6671 0 20.6155C0 16.9804 1.32187 13.4858 3.7125 10.7577C3.93047 10.5046 4.1625 10.2585 4.40156 10.0194L4.90078 10.5116C4.67578 10.7366 4.45078 10.9757 4.23984 11.2218C1.96172 13.8163 0.703125 17.1562 0.703125 20.6155C0.703125 26.5218 4.41563 31.8726 9.94922 33.9468C12.3469 34.8468 14.8641 35.3038 17.4305 35.3038H18.5766C21.143 35.3038 23.6602 34.8468 26.0578 33.9468C31.5844 31.8726 35.2969 26.5147 35.2969 20.6155C35.2969 17.1562 34.0383 13.8233 31.7531 11.2218C31.5141 10.9546 31.268 10.6874 31.0148 10.4343L31.5141 9.93506C31.7812 10.2022 32.0344 10.4765 32.2805 10.7577C34.6781 13.4858 35.993 16.9874 35.993 20.6155C35.993 23.6741 35.0719 26.6132 33.3281 29.1233C31.5844 31.6335 29.1516 33.5319 26.2898 34.6007C23.8219 35.5288 21.2203 35.9999 18.5766 35.9999Z" fill="black"/>
<path d="M7.09458 8.65547L6.68677 8.07891C9.60474 6.01172 13.036 4.92188 16.6079 4.92188H19.3922C22.9641 4.92188 26.3954 6.01172 29.3133 8.07891L28.9055 8.65547C26.1141 6.67266 22.8235 5.625 19.3922 5.625H16.6079C13.1766 5.625 9.89302 6.67266 7.09458 8.65547Z" fill="black"/>
</g>
<defs>
<clipPath id="clip0_1289_57458">
<rect width="36" height="36" fill="white"/>
</clipPath>
</defs>
</svg>
