<svg width="188" height="72" viewBox="0 0 188 72" fill="none" xmlns="http://www.w3.org/2000/svg">
<path d="M149.701 20.2012C149.701 20.2012 149.478 19.5352 148.809 19.8312C147.396 20.4232 144.644 23.0131 144.347 23.5311C142.859 23.3091 140.851 23.2351 140.703 23.2351C140.554 23.2351 138.546 23.3091 137.059 23.5311C136.761 23.0131 134.01 20.4232 132.597 19.8312C131.853 19.5352 131.704 20.2012 131.704 20.2012C131.332 23.3091 132.894 27.009 133.043 27.305C132.671 28.489 132.373 30.2649 132.894 32.1889C133.191 33.2248 133.415 33.2988 133.563 34.1868V34.2608H147.842V34.1868C147.991 33.2988 148.214 33.2248 148.511 32.1889C149.032 30.2649 148.734 28.489 148.362 27.305C148.511 27.009 150.073 23.3091 149.701 20.2012Z" fill="#242628"/>
<path d="M70.5744 35.297V34.927C70.2025 34.409 69.5332 32.559 68.6408 32.1151C68.0459 31.8191 67.7484 31.5971 67.7484 31.3751C67.9715 31.2271 68.1946 30.8571 68.1946 30.8571L68.269 30.7091L68.3434 30.4871C68.3434 30.4131 68.4177 30.4131 68.4177 30.3391V30.2651L68.4921 30.1171V30.0431L68.5665 29.8211L68.6408 29.3031C68.6408 29.2291 68.7152 29.1551 68.7152 29.0811C68.7152 29.0811 68.7896 28.6372 68.7896 28.5632C68.7896 28.5632 68.7896 28.4152 68.7896 28.2672V28.1932C68.7896 28.0452 68.7896 27.8232 68.7896 27.5272C68.7896 27.3792 67.8972 22.5693 67.8972 22.5693C67.9715 22.4213 68.1946 21.9033 68.4177 21.7553C68.4177 21.7553 68.7896 21.3854 69.0127 21.1634C69.2358 20.9414 69.087 19.5354 69.087 19.5354L68.8639 19.6094V18.3514H68.6408C68.6408 18.3514 68.5665 16.6495 68.269 15.7615C67.9715 14.8735 67.3766 12.8016 67.0791 12.3576C66.7817 11.9136 66.2611 11.5436 65.443 12.1356C64.5506 12.7276 63.3608 13.9116 62.394 15.8355C61.4272 17.7595 61.2041 18.2774 61.3529 18.9434C61.3529 18.9434 61.1298 18.9434 60.3117 18.9434C59.4937 19.0174 59.568 19.0174 59.1218 18.9434C58.6013 18.8694 58.0807 18.9434 58.0807 18.9434C58.0807 18.9434 57.337 15.1695 55.8497 13.6156C54.3623 12.0616 53.4699 11.9136 53.2468 11.9876C53.0237 12.0616 52.2057 12.1356 52.057 13.3936C52.057 13.3936 51.8339 14.4296 51.6108 15.0955C51.3133 15.7615 51.2389 16.7975 51.2389 17.4635C51.2389 18.1294 51.0902 19.3874 50.9415 19.6834C50.7927 19.9794 50.5696 20.7934 50.7184 20.9414C50.8671 21.0894 51.5364 21.5334 51.6108 22.0513C51.6108 22.0513 51.6851 22.1253 51.7595 22.1993C51.7595 22.2733 51.7595 22.3473 51.7595 22.4213C51.7595 22.4953 51.7595 22.4953 51.6851 22.5693L51.7595 22.6433C51.7595 22.7173 51.7595 22.7173 51.7595 22.7913H51.6108C51.6108 22.7913 51.6108 23.0873 51.8339 23.3833C51.8339 23.6053 51.9082 23.8273 51.9082 24.0493V24.1233C51.9082 24.3453 51.9082 24.4933 51.9082 24.5673C51.9082 25.2333 51.6851 27.7492 51.6108 28.4152C51.5364 28.7112 51.462 29.0071 51.462 29.3771C51.462 29.4511 51.462 29.5251 51.462 29.5991C51.462 29.7471 51.462 30.2651 51.462 30.2651L51.6108 30.1911C51.6851 30.4131 51.9082 31.0791 52.057 31.0051C52.1313 31.0791 52.1313 31.0791 52.2057 31.1531C52.1313 31.2271 52.2801 31.2271 52.2801 31.2271C52.4288 31.4491 52.5775 31.5971 52.6519 31.7451C52.875 32.0411 53.0237 32.2631 53.0981 32.4111L52.8006 33.003L53.1725 32.929C53.1725 32.929 52.9494 33.299 52.7263 33.669C52.5032 34.039 52.057 34.853 51.9826 35.075C51.9826 35.075 52.2801 34.705 52.5775 34.557C52.5775 34.557 52.5032 35.075 52.2801 35.297H70.5744Z" fill="#242628"/>
<path d="M175.358 43.4369L174.763 39.959C174.168 36.7031 172.829 34.1132 170.821 32.2633C168.665 30.3393 165.987 29.3773 162.79 29.3773C160.559 29.3773 158.179 30.0433 156.32 31.0793C156.32 31.0793 156.32 30.6353 156.32 30.0433C156.32 30.0433 149.403 30.0433 149.329 30.0433H137.951V31.9673C137.43 31.5973 136.91 31.2273 136.389 30.9313C134.53 29.8953 132.373 29.3773 129.994 29.3773C127.614 29.3773 125.457 29.8953 123.598 30.9313C123.375 31.0053 123.226 31.1533 123.003 31.3013V30.0433H119.359V23.6055H108.576L107.535 22.9395C106.271 22.1255 104.858 21.3856 103.37 20.8676C101.66 20.2016 99.5031 19.9056 96.9747 19.9056H96.8259C94.6693 19.9796 92.7357 20.4976 91.0253 21.3856C89.1661 22.3475 87.7531 23.6795 86.712 25.3814C85.6709 27.0834 85.1503 29.0813 85.1503 31.2273C85.1503 31.3753 85.1503 31.5973 85.1503 31.7453C83.1424 30.1913 80.6883 29.3773 77.8623 29.3773C75.5569 29.3773 73.4747 29.8953 71.5411 30.9313C70.3512 31.5973 69.2357 32.4113 68.3433 33.4472C67.9715 32.7812 67.5253 32.1893 66.9304 31.6713C65.8149 30.5613 63.7326 29.3033 60.6092 29.3033C58.9731 29.3033 57.4114 29.7473 55.9984 30.5613C55.5522 30.2653 55.106 30.0433 54.5854 29.8953C53.5443 29.5253 52.28 29.3033 51.0158 29.3033C49.5285 29.3033 48.1899 29.5253 47 30.0433H36.8117V35.9632L29.375 18.8696H26.549H23.7231L8.84967 52.9827H22.6819L24.7642 48.0988H27.5902L29.5237 52.9827H36.8117H44.2484H69.5332V50.8367C70.0538 51.2067 70.5743 51.5767 71.1693 51.8727C73.0285 52.9087 75.2595 53.3527 77.7136 53.3527C78.9035 53.3527 80.1677 53.1307 81.5063 52.7607C82.6962 52.3907 83.8861 51.9467 84.9272 51.2807L86.5633 50.3928C87.3813 50.9107 88.2737 51.3547 89.0918 51.7247C90.2816 52.2427 91.5459 52.6127 92.8101 52.8347C94.0743 53.0567 95.2642 53.2047 96.5285 53.2047C99.0569 53.2047 101.288 52.6867 103.147 51.7247C104.486 51.0587 105.601 50.1708 106.494 49.0608V52.9087H118.095C118.467 52.9087 119.434 52.9087 119.434 52.9087V48.9128C119.434 48.9128 121.144 50.2448 121.59 50.6147C122.259 51.1327 123.003 51.6507 123.747 52.0207C125.606 52.9087 127.688 53.4267 129.919 53.4267C132.373 53.4267 134.53 52.9087 136.464 51.8727C137.059 51.5767 137.579 51.2067 138.025 50.8367V53.0567H150.965V45.8049C151.188 46.3969 151.411 46.9148 151.709 47.5068C152.75 49.4308 154.237 50.9107 156.245 51.9467C158.104 52.9827 160.335 53.4267 162.79 53.4267C163.979 53.4267 165.244 53.2047 166.582 52.8347C167.772 52.4647 168.962 52.0207 170.003 51.3547L173.647 48.9868L170.896 44.7689L175.358 43.4369Z" fill="url(#paint0_linear_2942_26084)"/>
<g opacity="0.52">
<path d="M27.4415 24.1235L16.0633 50.0968H20.9715L23.0538 45.2129H31.3829L33.3165 50.0968H39.0427L27.6646 24.1235H27.4415ZM24.7642 41.0691L27.2927 35.0012L29.6725 41.0691H24.7642Z" fill="#7F0920"/>
<path d="M61.5759 34.4834C60.6092 34.4834 59.6424 34.7794 58.75 35.2974C57.932 35.8154 57.1883 36.5554 56.5933 37.3694C56.4446 36.7034 56.1471 36.1854 55.7753 35.7414C55.3291 35.2974 54.8085 35.0014 54.2136 34.7054C53.6187 34.4834 52.875 34.3354 52.057 34.3354C50.7927 34.3354 49.7516 34.6314 48.8592 35.1494C47.9668 35.6674 47.2231 36.4814 46.7025 37.4434L46.3307 35.0754H42.0174V49.949H46.7769V43.8072C46.7769 42.9192 46.9256 42.1052 47.1487 41.2913C47.4462 40.4773 47.818 39.8113 48.3386 39.2933C48.8592 38.7753 49.4541 38.4793 50.1978 38.4793C50.8671 38.5533 51.3133 38.7753 51.5364 39.1453C51.7595 39.5893 51.9082 40.1073 51.9082 40.7733V49.949H56.6677V43.8812C56.6677 42.9932 56.8164 42.1792 57.0395 41.2913C57.337 40.4773 57.7089 39.8113 58.2294 39.2193C58.75 38.7013 59.4193 38.4053 60.163 38.4053C60.8323 38.4793 61.2785 38.7013 61.4272 39.0713C61.5759 39.5153 61.7247 40.0333 61.7247 40.6993V49.875H66.4842V38.9973C66.4842 37.6654 66.038 36.6294 65.1456 35.8154C64.2532 34.9274 63.0633 34.4834 61.5759 34.4834Z" fill="#7F0920"/>
<path d="M84.1092 36.4071C82.6962 35.1491 80.9857 34.5571 78.8291 34.5571C77.2674 34.5571 75.78 34.9271 74.5158 35.5931C73.2516 36.3331 72.2104 37.2951 71.3924 38.479C70.6487 39.663 70.2025 40.9949 70.2025 42.5489C70.2025 44.1029 70.5 45.5088 71.1693 46.6928C71.8386 47.8768 72.8054 48.8387 74.0696 49.5047C75.3338 50.1707 76.8956 50.5407 78.6804 50.5407C79.4984 50.5407 80.3908 50.3927 81.2832 50.0967C82.1756 49.8007 83.068 49.4307 83.8861 48.9867L81.8038 45.4348C81.3576 45.7308 80.837 45.9528 80.3164 46.1748C79.7959 46.3228 79.3497 46.4708 78.8291 46.4708C78.0854 46.4708 77.4161 46.3228 76.8212 46.0268C76.4494 45.8048 76.1519 45.5088 75.8544 45.2128L86.712 41.7349C86.3402 39.441 85.4478 37.665 84.1092 36.4071ZM75.3338 40.107C75.6313 39.515 76.0031 39.071 76.5981 38.701C77.1187 38.405 77.788 38.183 78.4573 38.183C79.424 38.183 80.0933 38.405 80.5395 38.849C80.9857 39.293 81.2832 39.737 81.5063 40.329L74.962 42.5489C74.962 42.4749 74.962 42.3269 74.962 42.2529C74.8876 41.4389 75.0364 40.773 75.3338 40.107Z" fill="#7F0920"/>
<path d="M96.231 29.9694C96.8259 29.5254 97.7183 29.3034 98.7595 29.3034C99.6519 29.3034 100.544 29.4514 101.511 29.8214C102.478 30.1914 103.445 30.5613 104.411 31.0793L106.345 27.3794C105.378 26.7135 104.188 26.1215 102.924 25.6775C101.66 25.2335 100.024 24.9375 98.0158 24.9375C96.4541 25.0115 95.1155 25.3815 93.9256 25.9735C92.7358 26.5655 91.8433 27.4534 91.174 28.4894C90.5047 29.5254 90.2073 30.7833 90.2073 32.2633C90.2073 33.4473 90.4304 34.4832 90.8766 35.2972C91.3228 36.1112 91.9177 36.8512 92.587 37.3692C93.3307 37.9611 94.0744 38.4051 94.8924 38.7751C95.7104 39.1451 96.5285 39.5151 97.2721 39.8111C97.9415 40.0331 98.5364 40.3291 99.1313 40.6991C99.6519 41.0691 100.098 41.439 100.47 41.809C100.767 42.253 100.991 42.697 100.991 43.141C100.991 43.881 100.767 44.399 100.396 44.8429C100.024 45.2869 99.5032 45.5089 98.9082 45.7309C98.3133 45.8789 97.7184 45.9529 97.1234 45.9529C96.5285 45.9529 95.8592 45.8789 95.1899 45.6569C94.5206 45.5089 93.7769 45.2129 93.1076 44.9169C92.4383 44.621 91.769 44.177 91.174 43.807L89.0174 47.6549C89.9098 48.2469 90.8022 48.7648 91.769 49.1348C92.7358 49.5048 93.7025 49.8008 94.6693 50.0228C95.6361 50.2448 96.6028 50.3188 97.5696 50.3188C99.4288 50.3188 100.99 49.9488 102.255 49.2828C103.519 48.6168 104.486 47.7289 105.155 46.6189C105.824 45.5089 106.122 44.325 106.122 43.067C106.122 41.883 105.973 40.8471 105.601 40.0331C105.229 39.2191 104.783 38.4791 104.263 37.9611C103.668 37.3692 103.073 36.9252 102.329 36.5552C101.585 36.1852 100.916 35.8892 100.172 35.5932C99.3544 35.2972 98.6108 35.0012 97.8671 34.6312C97.1234 34.2612 96.5285 33.8912 96.0823 33.3733C95.6361 32.9293 95.413 32.4113 95.413 31.8193C95.3386 31.0793 95.6361 30.4133 96.231 29.9694Z" fill="#7F0920"/>
<path d="M116.31 28.7114H111.551V35.2232H109.245V38.9231H111.551V50.0968H116.31V38.9231H119.954V35.2232H116.31V28.7114Z" fill="#7F0920"/>
<path d="M135.497 35.5931C134.233 34.9271 132.745 34.5571 131.035 34.5571C129.324 34.5571 127.837 34.9271 126.573 35.5931C125.309 36.2591 124.267 37.2211 123.524 38.405C122.78 39.589 122.483 40.995 122.483 42.4749C122.483 44.1769 122.854 45.5828 123.598 46.7668C124.342 47.9508 125.309 48.9127 126.647 49.5047C127.911 50.1707 129.399 50.4667 131.035 50.4667C132.82 50.4667 134.307 50.0967 135.571 49.4307C136.835 48.7647 137.802 47.8028 138.472 46.5448C139.141 45.3608 139.513 43.9549 139.513 42.4749C139.513 40.921 139.141 39.589 138.472 38.405C137.653 37.2211 136.761 36.2591 135.497 35.5931ZM134.084 44.6208C133.786 45.2128 133.34 45.7308 132.82 46.1008C132.299 46.4708 131.63 46.6188 130.886 46.6188C130.217 46.6188 129.622 46.4708 129.027 46.1008C128.506 45.7308 128.06 45.2128 127.763 44.6208C127.465 44.0289 127.316 43.2889 127.316 42.5489C127.316 41.7349 127.465 41.0689 127.763 40.477C128.06 39.885 128.506 39.367 129.027 38.997C129.547 38.627 130.217 38.479 130.886 38.479C131.63 38.479 132.299 38.627 132.82 38.997C133.34 39.367 133.786 39.811 134.084 40.477C134.381 41.0689 134.53 41.8089 134.53 42.5489C134.53 43.2889 134.381 44.0289 134.084 44.6208Z" fill="#7F0920"/>
<path d="M149.552 36.4811C148.809 37.0731 148.214 37.813 147.842 38.701L147.47 35.2971H143.157V50.1707H147.916V44.3249C147.916 43.4369 148.139 42.6229 148.585 41.8089C149.032 40.9949 149.627 40.329 150.445 39.811C151.263 39.293 152.229 39.145 153.345 39.293L153.568 34.5571C153.196 34.5571 152.601 34.7051 151.858 35.0751C151.04 35.3711 150.296 35.8151 149.552 36.4811Z" fill="#7F0920"/>
<path d="M165.392 46.1748C164.872 46.3228 164.426 46.4708 163.905 46.4708C163.161 46.4708 162.492 46.3228 161.897 46.0268C161.525 45.8048 161.228 45.5088 160.93 45.2128L171.788 41.7349C171.342 39.367 170.449 37.591 169.111 36.4071C167.698 35.1491 165.987 34.5571 163.831 34.5571C162.269 34.5571 160.782 34.9271 159.517 35.5931C158.253 36.3331 157.212 37.2951 156.394 38.479C155.65 39.663 155.204 40.9949 155.204 42.5489C155.204 44.1029 155.502 45.5088 156.171 46.6928C156.84 47.8768 157.807 48.8387 159.071 49.5047C160.335 50.1707 161.897 50.5407 163.682 50.5407C164.5 50.5407 165.392 50.3927 166.285 50.0967C167.177 49.8007 168.07 49.4307 168.888 48.9867L166.805 45.4348C166.359 45.8048 165.913 46.0268 165.392 46.1748ZM160.41 40.107C160.707 39.515 161.079 39.071 161.674 38.701C162.195 38.405 162.864 38.183 163.533 38.183C164.5 38.183 165.169 38.405 165.615 38.849C166.062 39.293 166.359 39.737 166.582 40.329L160.038 42.5489C160.038 42.4749 160.038 42.3269 160.038 42.2529C159.964 41.4389 160.112 40.773 160.41 40.107Z" fill="#7F0920"/>
</g>
<path d="M26.2516 23.0132L14.9478 48.9865H19.856L21.9383 44.1026H30.2674L32.2009 48.9865H37.9272L26.5491 23.0132H26.2516ZM23.5744 39.9587L26.1028 33.8909L28.4826 39.9587H23.5744Z" fill="white"/>
<path d="M60.4604 33.4468C59.4937 33.4468 58.5269 33.7428 57.6345 34.2608C56.8164 34.7788 56.0728 35.5188 55.4778 36.3327C55.3291 35.6668 55.0316 35.1488 54.6598 34.7048C54.2136 34.2608 53.693 33.9648 53.0981 33.6688C52.5032 33.4468 51.7595 33.2988 50.9414 33.2988C49.6772 33.2988 48.6361 33.5948 47.7437 34.1128C46.8513 34.6308 46.1076 35.4448 45.587 36.4067L45.2152 34.0388H40.9019V48.9124H45.6614V42.7706C45.6614 41.8826 45.8101 41.0686 46.0332 40.2546C46.3307 39.4407 46.7025 38.7747 47.2231 38.2567C47.7437 37.7387 48.3386 37.4427 49.0823 37.4427C49.7516 37.5167 50.1978 37.7387 50.4209 38.1087C50.644 38.5527 50.7927 39.0707 50.7927 39.7366V48.9124H55.5522V42.9186C55.5522 42.0306 55.7009 41.2166 55.924 40.3286C56.2215 39.5147 56.5933 38.8487 57.1139 38.2567C57.6345 37.7387 58.3038 37.4427 59.0475 37.4427C59.7168 37.5167 60.163 37.7387 60.3117 38.1087C60.4604 38.5527 60.6092 39.0707 60.6092 39.7366V48.9124H65.3687V37.8867C65.3687 36.5547 64.9225 35.5188 64.03 34.7048C63.0633 33.8168 61.9478 33.4468 60.4604 33.4468Z" fill="white"/>
<path d="M82.9193 35.2967C81.5063 34.0388 79.7959 33.4468 77.6392 33.4468C76.0775 33.4468 74.5902 33.8168 73.3259 34.4827C72.0617 35.2227 71.0205 36.1847 70.2025 37.3687C69.4588 38.5526 69.0126 39.8846 69.0126 41.4386C69.0126 42.9925 69.3101 44.3985 69.9794 45.5824C70.6487 46.7664 71.6155 47.7284 72.8797 48.3944C74.144 49.0603 75.7057 49.4303 77.4905 49.4303C78.3085 49.4303 79.2009 49.2823 80.0933 48.9863C80.9857 48.6903 81.8781 48.3204 82.6962 47.8764L80.6139 44.3245C80.1677 44.6205 79.6471 44.8425 79.1266 45.0645C78.606 45.2125 78.1598 45.3604 77.6392 45.3604C76.8955 45.3604 76.2262 45.2125 75.6313 44.9165C75.2595 44.6945 74.962 44.3985 74.6645 44.1025L85.5221 40.6246C85.2247 38.3306 84.3323 36.5547 82.9193 35.2967ZM74.2183 39.0706C74.5158 38.4786 74.8876 38.0347 75.4826 37.6647C76.0031 37.3687 76.6724 37.1467 77.3417 37.1467C78.3085 37.1467 78.9778 37.3687 79.424 37.8127C79.8702 38.2566 80.1677 38.7006 80.3908 39.2926L73.8465 41.5126C73.8465 41.4386 73.8465 41.2906 73.8465 41.2166C73.7721 40.3286 73.9209 39.6626 74.2183 39.0706Z" fill="white"/>
<path d="M95.1155 28.8588C95.7105 28.4148 96.6029 28.1928 97.644 28.1928C98.5364 28.1928 99.4288 28.3408 100.396 28.7108C101.362 29.0808 102.329 29.4508 103.296 29.9688L105.155 26.1949C104.188 25.5289 102.998 24.9369 101.734 24.4929C100.47 24.0489 98.8339 23.7529 96.826 23.7529C95.2642 23.8269 93.9256 24.1969 92.7358 24.7889C91.5459 25.3809 90.6535 26.2689 89.9842 27.3048C89.3149 28.3408 89.0174 29.5988 89.0174 31.0787C89.0174 32.2627 89.2405 33.2987 89.6867 34.1126C90.1329 34.9266 90.7279 35.6666 91.3972 36.1846C92.1408 36.7766 92.8845 37.2206 93.7025 37.5905C94.5206 37.9605 95.3386 38.3305 96.0823 38.6265C96.7516 38.8485 97.3465 39.1445 97.9415 39.5145C98.462 39.8845 98.9082 40.2545 99.2801 40.6245C99.5775 41.0685 99.8006 41.5124 99.8006 41.9564C99.8006 42.6964 99.5775 43.2144 99.2057 43.6584C98.8339 44.1024 98.3133 44.3244 97.7184 44.5464C97.1234 44.6943 96.5285 44.7683 95.9336 44.7683C95.3386 44.7683 94.6693 44.6943 94 44.4724C93.3307 44.3244 92.587 44.0284 91.9177 43.7324C91.2484 43.4364 90.5791 42.9924 89.9842 42.6224L87.7532 46.6183C88.6456 47.2103 89.538 47.7283 90.5048 48.0983C91.4715 48.4682 92.4383 48.7642 93.4051 48.9862C94.3718 49.2082 95.3386 49.2822 96.3054 49.2822C98.1646 49.2822 99.7263 48.9122 100.991 48.2462C102.255 47.5803 103.222 46.6923 103.891 45.5823C104.56 44.4724 104.858 43.2884 104.858 42.0304C104.858 40.8465 104.709 39.8105 104.337 38.9965C103.965 38.1825 103.519 37.4426 102.998 36.9246C102.403 36.3326 101.809 35.8886 101.065 35.5186C100.321 35.1486 99.6519 34.8526 98.9082 34.5566C98.0902 34.2606 97.3465 33.9646 96.6029 33.5947C95.8592 33.2247 95.2642 32.8547 94.818 32.3367C94.3718 31.8927 94.1487 31.3747 94.1487 30.7827C94.1487 29.9688 94.5206 29.3028 95.1155 28.8588Z" fill="white"/>
<path d="M115.195 27.6011H110.435V34.1129H108.13V37.8128H110.435V48.9865H115.195V37.8128H118.839V34.1129H115.195V27.6011Z" fill="white"/>
<path d="M134.307 34.4827C133.043 33.8168 131.555 33.4468 129.845 33.4468C128.134 33.4468 126.647 33.8168 125.383 34.4827C124.119 35.1487 123.078 36.1107 122.334 37.2947C121.59 38.4786 121.293 39.8846 121.293 41.3646C121.293 43.0665 121.665 44.4725 122.408 45.6564C123.152 46.8404 124.119 47.8024 125.457 48.3944C126.722 49.0603 128.209 49.3563 129.845 49.3563C131.63 49.3563 133.117 48.9863 134.381 48.3204C135.646 47.6544 136.612 46.6924 137.282 45.4344C137.951 44.2505 138.323 42.8445 138.323 41.3646C138.323 39.8846 137.951 38.4786 137.282 37.2947C136.538 36.1107 135.571 35.1487 134.307 34.4827ZM132.968 43.5105C132.671 44.1025 132.225 44.6205 131.704 44.9905C131.184 45.3604 130.514 45.5084 129.771 45.5084C129.101 45.5084 128.506 45.3604 127.911 44.9905C127.391 44.6205 126.945 44.1025 126.647 43.5105C126.35 42.9185 126.201 42.1785 126.201 41.4386C126.201 40.6246 126.35 39.9586 126.647 39.3666C126.945 38.7746 127.391 38.2566 127.911 37.8867C128.432 37.5167 129.101 37.3687 129.771 37.3687C130.514 37.3687 131.184 37.5167 131.704 37.8867C132.225 38.2566 132.671 38.7006 132.968 39.3666C133.266 39.9586 133.415 40.6986 133.415 41.4386C133.415 42.1785 133.266 42.9185 132.968 43.5105Z" fill="white"/>
<path d="M148.437 35.3707C147.693 35.9627 147.098 36.7027 146.726 37.5907L146.354 34.1868H142.041V49.0603H146.801V43.2145C146.801 42.3265 147.024 41.5126 147.47 40.6986C147.916 39.8846 148.511 39.2186 149.329 38.7006C150.147 38.1826 151.114 38.0346 152.229 38.1826L152.453 33.4468C152.081 33.4468 151.486 33.5948 150.742 33.9648C149.924 34.2608 149.18 34.7047 148.437 35.3707Z" fill="white"/>
<path d="M164.277 45.0645C163.756 45.2125 163.31 45.3604 162.79 45.3604C162.046 45.3604 161.377 45.2125 160.782 44.9165C160.41 44.6945 160.112 44.3985 159.815 44.1025L170.672 40.6246C170.226 38.2566 169.334 36.4807 167.995 35.2967C166.582 34.0388 164.872 33.4468 162.715 33.4468C161.154 33.4468 159.666 33.8168 158.402 34.4827C157.138 35.2227 156.097 36.1847 155.279 37.3687C154.535 38.5526 154.089 39.8846 154.089 41.4386C154.089 42.9925 154.386 44.3985 155.055 45.5824C155.725 46.7664 156.691 47.7284 157.956 48.3944C159.22 49.0603 160.782 49.4303 162.566 49.4303C163.385 49.4303 164.277 49.2823 165.169 48.9863C166.062 48.6903 166.954 48.3204 167.772 47.8764L165.69 44.3245C165.244 44.6945 164.797 44.9165 164.277 45.0645ZM159.294 39.0706C159.592 38.4786 159.964 38.0347 160.559 37.6647C161.079 37.3687 161.748 37.1467 162.418 37.1467C163.385 37.1467 164.054 37.3687 164.5 37.8127C164.946 38.2566 165.244 38.7006 165.467 39.2926L158.922 41.5126C158.922 41.4386 158.922 41.2906 158.922 41.2166C158.848 40.3286 158.997 39.6626 159.294 39.0706Z" fill="white"/>
<path d="M175.878 25.8994C173.945 25.8994 172.383 27.3794 172.383 29.3033C172.383 31.1533 173.945 32.7072 175.804 32.7072C177.737 32.7072 179.225 31.1533 179.225 29.3033C179.299 27.3794 177.737 25.8994 175.878 25.8994ZM175.878 31.9672C174.316 31.9672 173.127 30.7833 173.127 29.3033C173.127 27.8234 174.316 26.6394 175.878 26.6394C177.366 26.6394 178.63 27.8234 178.63 29.3033C178.63 30.7833 177.366 31.9672 175.878 31.9672Z" fill="#BC1639"/>
<path d="M176.994 29.7473C176.845 29.5993 176.696 29.3773 176.473 29.3773C176.548 29.3773 176.622 29.3033 176.696 29.3033C176.919 29.2293 177.068 29.0073 177.142 28.7853C177.217 28.6373 177.217 28.4153 177.142 28.2673C177.142 28.1193 177.068 28.0453 176.994 27.8973C176.919 27.7493 176.771 27.6753 176.548 27.6013C176.324 27.5273 176.101 27.5273 175.878 27.5273C175.432 27.5273 174.911 27.5273 174.465 27.5273C174.391 27.5273 174.391 27.5273 174.391 27.6013C174.391 28.7113 174.391 29.8953 174.391 31.0052C174.391 31.0792 174.391 31.0792 174.465 31.0792C174.763 31.0792 175.06 31.0792 175.283 31.0792C175.358 31.0792 175.358 31.0792 175.358 31.0052C175.358 30.5613 175.358 30.1913 175.358 29.7473C175.432 29.7473 175.581 29.7473 175.655 29.7473C175.804 29.7473 175.953 29.8213 176.027 29.9693C176.101 30.0433 176.101 30.1173 176.176 30.1913C176.324 30.4873 176.473 30.7833 176.622 31.0792C176.622 31.0792 176.622 31.0792 176.696 31.0792C176.994 31.0792 177.291 31.0792 177.589 31.0792C177.663 31.0792 177.663 31.0792 177.589 31.0052C177.44 30.7093 177.291 30.4133 177.142 30.1173C177.068 29.8953 176.994 29.8213 176.994 29.7473ZM175.878 29.0073C175.804 29.0073 175.729 29.0073 175.655 29.0073C175.581 29.0073 175.432 29.0073 175.358 29.0073C175.283 29.0073 175.283 29.0073 175.283 29.0073C175.283 28.8593 175.283 28.7113 175.283 28.5633C175.283 28.4153 175.283 28.2673 175.283 28.1193C175.432 28.1193 175.581 28.1193 175.729 28.1193C175.804 28.1193 175.878 28.1193 175.953 28.1933C176.027 28.2673 176.101 28.3413 176.176 28.4153C176.176 28.4893 176.176 28.6373 176.176 28.7113C176.176 28.8593 176.101 28.9333 175.878 29.0073Z" fill="#BC1639"/>
<path d="M123.747 52.0206C123.449 52.4646 122.036 54.1666 119.805 54.3886C118.467 54.5365 116.161 54.3146 115.343 52.6866C114.971 51.8726 114.971 50.6887 115.492 49.8747C116.831 47.5807 121.888 47.2848 125.829 48.6907C129.919 50.1707 133.117 53.6486 136.538 54.4625C138.174 54.8325 138.992 54.4626 139.29 54.2406C139.884 53.8706 140.256 53.2786 140.331 52.9086C140.926 51.0586 136.984 47.8027 133.563 46.0268C126.573 42.4009 115.418 41.8829 111.774 47.4327C110.509 49.2827 110.138 51.8726 110.956 53.8706C112.592 57.5705 118.467 58.9764 122.631 57.2005C125.011 56.1645 126.498 54.0926 127.093 53.1306C127.093 53.1306 126.275 52.9826 125.383 52.6866C124.49 52.3166 123.747 52.0206 123.747 52.0206Z" fill="#242628"/>
<path d="M75.1108 28.6374C76.0032 28.7114 77.2674 29.1554 77.3418 30.3394C77.4161 31.5233 76.5981 31.4493 76.5981 31.4493C76.5237 32.9293 75.4082 32.5593 75.0364 32.5593C74.7389 33.2993 73.6234 33.2993 73.2516 32.7073C73.0285 32.8553 72.2104 33.0033 71.913 32.3373C71.6155 31.5233 71.4668 31.1533 71.4668 31.1533C71.2437 31.1533 70.9462 31.3753 70.9462 31.3753C70.9462 31.3753 70.6487 28.0454 75.1108 28.6374Z" fill="#242628"/>
<path d="M42.538 28.7111C41.7199 29.1551 40.6044 29.895 40.9763 31.153C41.2737 32.337 42.0174 31.967 42.0174 31.967C42.538 33.3729 43.5791 32.633 43.8766 32.559C44.3971 33.1509 45.4383 32.781 45.6614 32.115C45.9589 32.189 46.7769 32.115 46.7769 31.375C46.8513 30.487 46.7769 30.117 46.7769 30.117C47 30.117 47.3718 30.117 47.3718 30.117C47.3718 30.117 46.7025 26.7131 42.538 28.7111Z" fill="#242628"/>
<defs>
<linearGradient id="paint0_linear_2942_26084" x1="94.9328" y1="67.1337" x2="86.8699" y2="12.6626" gradientUnits="userSpaceOnUse">
<stop offset="0.0170786" stop-color="#AF1339"/>
<stop offset="0.2235" stop-color="#B41238"/>
<stop offset="0.4522" stop-color="#C10F37"/>
<stop offset="0.6916" stop-color="#D70934"/>
<stop offset="0.9369" stop-color="#F60231"/>
<stop offset="1" stop-color="#FF0030"/>
</linearGradient>
</defs>
</svg>
