<svg xmlns="http://www.w3.org/2000/svg" xmlns:xlink="http://www.w3.org/1999/xlink"><defs><symbol fill="none" viewBox="0 0 20 20" id="icon-add-circle"><path d="M10 18.333c4.583 0 8.333-3.75 8.333-8.333S14.583 1.667 10 1.667 1.667 5.417 1.667 10s3.75 8.333 8.333 8.333zM6.667 10h6.666M10 13.333V6.667" stroke="currentColor" stroke-width="1.5" stroke-linecap="round" stroke-linejoin="round" /></symbol><symbol fill="none" viewBox="0 0 5 10" id="icon-angle-left"><path d="M4.22 9.667a.667.667 0 01-.52-.247l-3.22-4a.667.667 0 010-.847l3.333-4a.667.667 0 111.027.854L1.86 5l2.88 3.573a.667.667 0 01-.52 1.094z" fill="currentColor" /></symbol><symbol fill="none" viewBox="0 0 20 20" id="icon-arrow-down"><path d="M4 7l4.94 4.94a1.504 1.504 0 002.12 0L16 7" stroke="currentColor" stroke-width="1.5" stroke-miterlimit="10" stroke-linecap="round" stroke-linejoin="round" /></symbol><symbol fill="none" viewBox="0 0 20 20" id="icon-arrow-left"><g clip-path="url(#icon-arrow-left_clip0_818_52664)"><path d="M18.798 8.596a1.43 1.43 0 00-.248-.018H4.44l.308-.143c.301-.143.575-.336.809-.573l3.957-3.956A1.481 1.481 0 009.72 2.01a1.431 1.431 0 00-2.146-.187L.42 8.978a1.431 1.431 0 000 2.025l7.155 7.155a1.431 1.431 0 002.146-.143 1.481 1.481 0 00-.207-1.896l-3.95-3.964a2.864 2.864 0 00-.715-.522l-.43-.193h14.053a1.481 1.481 0 001.51-1.202 1.431 1.431 0 00-1.184-1.642z" fill="currentColor" /></g><defs></defs></symbol><clipPath id="icon-arrow-left_clip0_818_52664"><path fill="currentColor" d="M0 0h20v20H0z" /></clipPath><symbol fill="none" viewBox="0 0 12 12" id="icon-arrow-right"><path d="M5.085 9.5a.5.5 0 00.39-.185l2.415-3a.5.5 0 000-.635l-2.5-3a.5.5 0 00-.77.64L6.855 6l-2.16 2.68a.5.5 0 00.39.82z" fill="currentColor" /></symbol><symbol fill="none" viewBox="0 0 12 12" id="icon-arrow-up"><path d="M2.4 7.426l2.964-2.964a.903.903 0 011.272 0L9.6 7.426" stroke="currentColor" stroke-width="1.5" stroke-miterlimit="10" stroke-linecap="round" stroke-linejoin="round" /></symbol><symbol fill="none" viewBox="0 0 24 24" id="icon-basket"><path d="M8.81 2L5.19 5.63M15.19 2l3.62 3.63" stroke="currentColor" stroke-width="1.5" stroke-miterlimit="10" stroke-linecap="round" stroke-linejoin="round" /><path d="M2 7.85c0-1.85.99-2 2.22-2h15.56c1.23 0 2.22.15 2.22 2 0 2.15-.99 2-2.22 2H4.22C2.99 9.85 2 10 2 7.85z" stroke="currentColor" stroke-width="1.5" /><path d="M9.76 14v3.55M14.36 14v3.55M3.5 10l1.41 8.64C5.23 20.58 6 22 8.86 22h6.03c3.11 0 3.57-1.36 3.93-3.24L20.5 10" stroke="currentColor" stroke-width="1.5" stroke-linecap="round" /></symbol><symbol fill="none" viewBox="0 0 24 24" id="icon-burger"><path d="M3 7h18M3 12h18M3 17h18" stroke="currentColor" stroke-width="1.5" stroke-linecap="round" /></symbol><symbol fill="none" viewBox="0 0 24 24" id="icon-calendar"><path d="M8 2v3M16 2v3M3.5 9.09h17M21 8.5V17c0 3-1.5 5-5 5H8c-3.5 0-5-2-5-5V8.5c0-3 1.5-5 5-5h8c3.5 0 5 2 5 5z" stroke="currentColor" stroke-width="1.5" stroke-miterlimit="10" stroke-linecap="round" stroke-linejoin="round" /></symbol><symbol fill="none" viewBox="0 0 72 72" id="icon-camera"><path d="M20.28 66h31.44C60 66 63.3 60.93 63.69 54.75l1.56-24.78C65.67 23.49 60.51 18 54 18c-1.83 0-3.51-1.05-4.35-2.67l-2.16-4.35C46.11 8.25 42.51 6 39.45 6h-6.87c-3.09 0-6.69 2.25-8.07 4.98l-2.16 4.35C21.51 16.95 19.83 18 18 18c-6.51 0-11.67 5.49-11.25 11.97l1.56 24.78C8.67 60.93 12 66 20.28 66zM31.5 24h9" stroke="currentColor" stroke-width="1.5" stroke-linecap="round" stroke-linejoin="round" /><path d="M36 54c5.37 0 9.75-4.38 9.75-9.75S41.37 34.5 36 34.5s-9.75 4.38-9.75 9.75S30.63 54 36 54z" stroke="currentColor" stroke-width="1.5" stroke-linecap="round" stroke-linejoin="round" /></symbol><symbol fill="none" viewBox="0 0 60 60" id="icon-cat"><circle cx="30" cy="30" r="27" fill="#F9DBC0" stroke="#fff" stroke-width="2" /><circle cx="30" cy="30" r="29" stroke="#D26925" stroke-width="2" /><g clip-path="url(#icon-cat_clip0_1199_46669)"><path d="M39.722 16.323c-.275-.229-.756-.447-1.226-.24-.893.606 3.138 3.09 1.1 11.403-.424 1.717-1.466.825-2.702.447-2.817-.882-5.828-1.077-8.748-1.386-1.03-.114-2.084-.194-3.08-.47-1.053-.285-1.099-.343-.835-1.304.732-.928.435-2.199.4-2.725.55-1.214.756-2.267.32-2.805-1.178-1.397-1.373 2.22-2.907 2.232-.699-.069-1.157-.011-1.328-.39-.31-.652-.79-1.499-1.409-1.9-.95-.63-1.145 1.11-.744 2.76-.126 1.007-.034 1.694.481 2.427.263.366.32.824.4 1.26.15.755.241 1.694.241 2.46 0 .436.08 1.787.149 2.222.32 1.97.424 2.359 1.9 3.801.619.607 1.558 1.134 1.947 1.947.286.618.538 1.294.802 1.912.515 1.19.835 2.404 1.053 3.675.126.687-1.512.836-1.237 1.786.218.779 2.302.767 2.428-.126.08-.504.32-1.42.435-2.118.607-2.622-.287-3.64.412-6.022.183-.86 3.538.801 3.996 1.11.927.63 1.923 1.134 2.862 1.74 1.454.94.447 1.764-.492 2.53-.504.413-.504.436-1.145.287a.898.898 0 00-1.054.595c-.171.538.607.905 1.145.836 1.615-.172 3.847-1.855 4.546-3.309.47.55.274 1.065.011 1.764-.114.297-.24.584-.343.881-.23.676-.447.492-.996.618-.813.264-.447 1.455.446 1.317.31-.046 1.477-.183 1.603-.721.057-.24.298-.733.412-.973.252-.596 1.649-3.71 1.03-4.305a5.093 5.093 0 01-.812-.974c-.378-.595-.206-.664.126-1.167.343-.527.652-1.145.95-1.695.675-1.305.172-2.427.767-4.168 1.843-5.575.928-11.678-.904-13.212z" fill="#D26925" /></g><defs></defs></symbol><clipPath id="icon-cat_clip0_1199_46669"><path fill="#fff" transform="translate(16 16)" d="M0 0h28v28H0z" /></clipPath><symbol fill="none" viewBox="0 0 108 108" id="icon-cat-cheerful"><g clip-path="url(#icon-cat-cheerful_clip0_1318_57863)"><circle cx="90" cy="66" r="15" fill="#FAD0D3" /><circle cx="21" cy="66" r="15" fill="#FAD0D3" /><path d="M108 58.855C106.5 70.5 106.5 75 93.089 71.766 82.5 73.5 76.686 74.803 78.177 58.856c0-10.632 0-15.188 14.912-12.91C105 45 108 50.467 108 58.855z" fill="#fff" /><path d="M53.156 59.063h2.11v11.18h-2.11v-11.18zM64.716 28.266c-.232 0-.485-.043-.717-.127-3.587-1.308-.865-10.42-.275-12.234l2.004.633c-1.94 6.053-1.497 9.28-.991 9.618h.02c.676 0 3.313-2.573 5.738-8.965l1.962.76c-1.519 4.008-4.746 10.315-7.741 10.315zM26.899 66.3l.512 2.046-8.43 2.112-.512-2.046 8.43-2.112zM18.918 59.936l8.43 2.111-.513 2.047-8.43-2.112.513-2.046z" fill="#000" /><path d="M54.148 60.117a.99.99 0 01-.738-.316l-3.354-3.354a4.029 4.029 0 012.848-6.877h2.467a4.029 4.029 0 012.848 6.877L54.865 59.8a.978.978 0 01-.717.316zm-1.245-8.437c-1.054 0-1.92.864-1.92 1.92 0 .505.212.99.57 1.37l2.595 2.595 2.594-2.595a1.926 1.926 0 00-1.35-3.29h-2.489zM12.49.305l18.7 18.7-1.49 1.492L10.997 1.796 12.489.305z" fill="#000" /><path d="M12.49.305l18.7 18.7-1.49 1.492L10.997 1.796 12.489.305zM97.432 34.952l-1.772-1.139c.127-.19.233-.38.36-.57 5.905-9.597 5.884-21.536-.064-31.113-10.737.106-20.588 5.991-25.734 15.42l-1.857-1.012A31.712 31.712 0 0196.23 0h.316c.36 0 .697.19.907.506l.317.506a31.901 31.901 0 014.767 16.665 31.841 31.841 0 01-4.704 16.664c-.147.21-.274.422-.4.611z" fill="#000" /><path d="M95.783.289l1.491 1.491-18.701 18.701-1.491-1.491L95.782.289zM45.921 54.844h-2.109v-4.219a3.16 3.16 0 00-3.164-3.164 3.16 3.16 0 00-3.164 3.164v4.219h-2.11v-4.219a5.275 5.275 0 015.274-5.273 5.275 5.275 0 015.273 5.273v4.219zM72.921 54.844h-2.109v-4.219a3.16 3.16 0 00-3.164-3.164 3.16 3.16 0 00-3.164 3.164v4.219h-2.11v-4.219a5.275 5.275 0 015.274-5.273 5.275 5.275 0 015.273 5.273v4.219zM37.02 31.64c-1.561 0-2.995-.695-3.987-1.898-.991-1.202-1.35-2.763-1.034-4.282L37.294.844c.084-.338.316-.633.654-.76.337-.126.696-.084.991.127l21.094 14.766c.4.295.57.822.359 1.286A25.444 25.444 0 0137.02 31.641zm2.004-28.813l-4.936 23.055c-.19.886.02 1.814.611 2.531a2.98 2.98 0 002.342 1.118c9.05 0 17.234-5.21 21.073-13.352L39.023 2.827z" fill="#000" /><path d="M48.24 6.94l.035 2.11-11.454.194-.036-2.109L48.24 6.94zM52.948 10.72l.968 1.875-19.54 10.089-.968-1.876 19.54-10.088zM44.086 81.422v-2.11c4.852 0 9.07-4.07 9.07-9.07 0-4.999-4.218-9.07-9.07-9.07v-2.11c6.117 0 11.18 5.02 11.18 11.18s-5.063 11.18-11.18 11.18zM70.39 74.04a3.808 3.808 0 01-3.797-3.798 3.808 3.808 0 013.797-3.797v2.11c-.928 0-1.687.76-1.687 1.687 0 .928.759 1.688 1.687 1.688v2.11zM81.675 74.04c-3.46 0-5.273-7.215-5.273-14.345 0-7.13 1.814-14.343 5.273-14.343 3.46 0 5.274 7.214 5.274 14.343 0 7.13-1.814 14.344-5.274 14.344zm0-26.58c-.4 0-1.244.845-1.983 3.165-.759 2.405-1.18 5.632-1.18 9.07 0 3.439.421 6.666 1.18 9.07.739 2.32 1.583 3.165 1.983 3.165.401 0 1.245-.844 1.983-3.164.76-2.405 1.181-5.632 1.181-9.07 0-3.439-.421-6.666-1.18-9.071-.74-2.32-1.604-3.164-1.984-3.164z" fill="#000" /><path d="M102.769 74.04H81.675c-3.46 0-5.273-7.215-5.273-14.345 0-7.13 1.814-14.343 5.273-14.343h21.094c3.459 0 5.273 7.214 5.273 14.343 0 7.13-1.814 14.344-5.273 14.344zM81.675 47.46c-.4 0-1.244.845-1.983 3.165-.759 2.405-1.18 5.632-1.18 9.07 0 3.439.421 6.666 1.18 9.07.739 2.32 1.583 3.165 1.983 3.165h21.094c.401 0 1.245-.844 1.983-3.164.759-2.405 1.181-5.632 1.181-9.07 0-3.439-.422-6.666-1.181-9.071-.738-2.32-1.582-3.164-1.983-3.164H81.675z" fill="#000" /><path d="M80.79 54.844h2.108v9.703H80.79v-9.703zM6.814 27.422H.907c-.422 0-.801-.253-.97-.654-.169-.4-.063-.844.232-1.14l1.73-1.729c2.489-2.51 3.86-5.822 3.86-9.344 0-.59.464-1.055 1.055-1.055h5.906c.59 0 1.054.464 1.054 1.055 0 4.092-1.603 7.93-4.492 10.82l-1.73 1.73a.958.958 0 01-.738.317zm-3.354-2.11h2.932L7.805 23.9c2.236-2.257 3.586-5.168 3.839-8.29H7.847c-.253 3.67-1.793 7.067-4.387 9.704zM83.363 99.14h-5.906c-.422 0-.802-.252-.97-.653-.17-.401-.064-.844.231-1.14l1.73-1.729c2.49-2.49 3.86-5.8 3.86-9.345 0-.59.464-1.054 1.055-1.054h5.906c.59 0 1.055.464 1.055 1.054 0 4.093-1.603 7.932-4.493 10.822l-1.73 1.73a.989.989 0 01-.738.316zm-3.375-2.109h2.932l1.413-1.413c2.236-2.236 3.586-5.147 3.818-8.29h-3.797a15.015 15.015 0 01-4.366 9.703zM12.72 59.273H6.813a.99.99 0 01-.738-.316l-1.73-1.73c-2.89-2.89-4.492-6.729-4.492-10.82 0-.591.464-1.055 1.054-1.055h5.906c.591 0 1.055.464 1.055 1.054 0 3.523 1.371 6.835 3.86 9.345l1.73 1.73c.295.295.4.759.232 1.139-.148.4-.527.653-.97.653zm-5.464-2.109h2.932c-2.594-2.637-4.134-6.033-4.387-9.703H2.004a13.244 13.244 0 003.818 8.29l1.434 1.413zM86 39.234h-5.907a.99.99 0 01-.738-.316l-1.73-1.73c-2.89-2.89-4.493-6.729-4.493-10.82 0-.591.464-1.055 1.055-1.055h5.906c.59 0 1.055.464 1.055 1.054 0 3.523 1.371 6.835 3.86 9.345l1.73 1.73c.295.295.4.759.232 1.139-.169.4-.549.653-.97.653zm-5.485-2.109h2.932c-2.594-2.637-4.134-6.033-4.387-9.703h-3.797a13.243 13.243 0 003.818 8.29l1.434 1.413z" fill="#000" /><path d="M8.037 14.66l-2.088-.21a31.768 31.768 0 014.577-13.438l.316-.506C11.032.19 11.37 0 11.75 0h.317c9.619 0 18.605 4.282 24.658 11.75l-1.645 1.328A29.53 29.53 0 0012.34 2.11 29.7 29.7 0 008.037 14.66zM10.864 34.952c-.127-.21-.254-.4-.38-.611a31.277 31.277 0 01-3.692-8.691l2.047-.527a29.561 29.561 0 003.438 8.1c.126.19.232.38.358.57l-1.771 1.16zM54.148 31.64c-1.287 0-3.143-.822-4.62-4.745l1.983-.739c.928 2.49 1.983 3.396 2.658 3.396 1.73 0 4.219-5.336 4.219-13.71h2.11c-.022 7.656-2.258 15.799-6.35 15.799z" fill="#000" /><path d="M86.864 25.966c-8.079-5.716-17.57-8.859-27.464-9.07l.043-2.11c10.314.233 20.228 3.502 28.645 9.472l-1.224 1.708zM21.41 25.966l-1.223-1.73a51.106 51.106 0 0114.07-7.024l.632 2.004a49.55 49.55 0 00-13.479 6.75zM5 46.786l-1.983-.738c1.92-5.063 4.682-9.704 8.268-13.775.654-.759 1.35-1.497 2.067-2.214l1.498 1.476a38.158 38.158 0 00-1.983 2.13A42.633 42.633 0 005 46.786zM55.857 108h-3.439a65.89 65.89 0 01-23.182-4.198c-8.585-3.206-15.883-8.901-21.115-16.432A44.56 44.56 0 01.127 61.847c0-3.249.359-6.518 1.055-9.682l2.067.464a42.463 42.463 0 00-1.013 9.239c0 17.719 11.138 33.771 27.739 39.994a64.566 64.566 0 0022.443 4.029h3.439c7.699 0 15.25-1.371 22.443-4.071 16.58-6.202 27.739-22.275 27.739-39.994a42.67 42.67 0 00-10.632-28.181 58.753 58.753 0 00-2.214-2.363l1.497-1.498a50.474 50.474 0 012.3 2.468 44.77 44.77 0 0111.137 29.574 44.505 44.505 0 01-7.995 25.523c-5.23 7.53-12.53 13.226-21.114 16.432A65.242 65.242 0 0155.857 108z" fill="#000" /><path d="M94.226 74.04H54.148c-.59 0-1.055-.465-1.055-1.056V67.5c0-.59.464-1.055 1.055-1.055h24.11v2.11H55.203v3.375h39.023v2.11z" fill="#000" /></g><defs></defs></symbol><clipPath id="icon-cat-cheerful_clip0_1318_57863"><path fill="#fff" d="M0 0h108v108H0z" /></clipPath><symbol fill="none" viewBox="0 0 80 80" id="icon-cat-serious"><g clip-path="url(#icon-cat-serious_clip0_2086_98250)"><circle cx="13.333" cy="46.667" fill="#FAD0D3" r="8.889" /><circle cx="66.667" cy="46.667" r="8.889" fill="#FAD0D3" /><path d="M39.219 43.75h1.562V50H39.22v-6.25zM19.82 49.104l.38 1.516-6.244 1.564-.38-1.516 6.245-1.564zM13.919 44.399l6.244 1.564-.38 1.516-6.244-1.565.38-1.515zM66.09 44.408l.38 1.516-6.245 1.564-.38-1.515 6.245-1.565zM60.16 49.107l6.245 1.564-.38 1.516-6.245-1.564.38-1.516zM50 34.375h3.125v6.25H50v-6.25z" fill="#000" /><path d="M40 44.531a.733.733 0 01-.547-.234l-2.484-2.484a2.984 2.984 0 012.11-5.094h1.827a2.984 2.984 0 012.11 5.093l-2.485 2.485a.677.677 0 01-.531.234zm-.922-6.25c-.781 0-1.422.64-1.422 1.422 0 .375.157.734.422 1.016L40 42.64l1.922-1.922a1.427 1.427 0 00-1-2.438h-1.844zM33.906 31.25h-1.562A2.34 2.34 0 0030 28.906a2.34 2.34 0 00-2.344 2.344h-1.562A3.908 3.908 0 0130 27.344a3.908 3.908 0 013.906 3.906zM53.906 31.25h-1.562A2.34 2.34 0 0050 28.906a2.34 2.34 0 00-2.344 2.344h-1.562A3.908 3.908 0 0150 27.344a3.908 3.908 0 013.906 3.906zM46.875 33.594h6.25v1.562h-6.25v-1.562zM30 34.375h3.125v6.25H30v-6.25z" fill="#000" /><path d="M26.875 33.594h6.25v1.562h-6.25v-1.562zM47.5 50.781H33.125V49.22H47.5a2.34 2.34 0 002.344-2.344h1.562a3.908 3.908 0 01-3.906 3.906zM32.172 20.938c-2.219 0-4.61-4.672-5.75-7.657l1.453-.562c1.797 4.734 3.75 6.64 4.266 6.64h.015c.36-.234.688-2.64-.75-7.125l1.485-.468c.437 1.343 2.437 8.093-.203 9.062-.172.078-.344.11-.516.11zM47.828 20.938c-.172 0-.36-.032-.531-.094-2.656-.969-.64-7.719-.203-9.063l1.484.469c-1.437 4.484-1.11 6.875-.734 7.125h.015c.5 0 2.454-1.906 4.25-6.64l1.454.562c-1.11 2.969-3.5 7.64-5.735 7.64zM40 23.438c-3.047 0-4.688-6.032-4.688-11.72h1.563c0 6.204 1.844 10.157 3.125 10.157s3.125-3.953 3.125-10.156h1.563c0 5.687-1.641 11.719-4.688 11.719z" fill="#000" /><path d="M7.938 25.89c-.094-.156-.188-.296-.282-.453a23.587 23.587 0 01-3.484-12.343c0-4.375 1.219-8.64 3.531-12.344l.234-.375A.767.767 0 018.595 0h.234c8.61 0 16.516 4.688 20.625 12.234l-1.375.75A21.92 21.92 0 009.016 1.563C4.609 8.671 4.594 17.5 8.969 24.608c.094.141.172.282.265.422l-1.296.86z" fill="#000" /><path d="M9.144.22l13.852 13.853-1.104 1.105L8.039 1.325 9.144.221z" fill="#000" /><path d="M9.144.22l13.852 13.853-1.104 1.105L8.039 1.325 9.144.221zM72.063 25.89l-1.313-.843c.094-.14.172-.281.266-.422 4.375-7.11 4.359-15.953-.047-23.047A21.952 21.952 0 0051.906 13l-1.375-.75A23.49 23.49 0 0171.171 0h.235c.266 0 .516.14.672.375l.234.375a23.634 23.634 0 013.532 12.344c0 4.36-1.203 8.625-3.485 12.344-.109.156-.203.312-.296.453z" fill="#000" /><path d="M70.857.217l1.105 1.105-13.853 13.852-1.105-1.104L70.857.217zM41.281 80h-2.547a48.818 48.818 0 01-17.172-3.11c-6.359-2.374-11.765-6.593-15.64-12.171A33.007 33.007 0 010 45.813a33.21 33.21 0 018.25-21.907c.484-.562 1-1.11 1.531-1.64l1.11 1.093c-.5.5-1 1.032-1.47 1.578a31.642 31.642 0 00-7.858 20.875c0 13.126 8.25 25.016 20.546 29.626a47.148 47.148 0 0016.625 3.015h2.547a47.149 47.149 0 0016.625-3.016c12.282-4.609 20.532-16.515 20.532-29.624a31.608 31.608 0 00-7.876-20.876 43.429 43.429 0 00-1.64-1.75l1.11-1.109a31.472 31.472 0 011.702 1.828 33.161 33.161 0 018.25 21.907 32.971 32.971 0 01-5.921 18.906c-3.876 5.578-9.282 9.797-15.641 12.172A48.584 48.584 0 0141.282 80z" fill="#000" /><path d="M64.234 19.234C58.031 14.828 50.72 12.5 43.094 12.5h-6.188a36.38 36.38 0 00-21.14 6.734l-.907-1.28a37.937 37.937 0 0122.047-7.017h6.188a37.937 37.937 0 0122.047 7.016l-.907 1.281z" fill="#000" /></g><defs></defs></symbol><clipPath id="icon-cat-serious_clip0_2086_98250"><path fill="#fff" d="M0 0h80v80H0z" /></clipPath><symbol fill="none" viewBox="0 0 16 16" id="icon-check"><path d="M2.667 8l4 4 6.666-8" stroke="currentColor" stroke-width="2" stroke-linecap="round" stroke-linejoin="round" /></symbol><symbol fill="none" viewBox="0 0 20 20" id="icon-clock"><path d="M10 18.958c-4.942 0-8.958-4.016-8.958-8.958S5.058 1.042 10 1.042c4.941 0 8.958 4.016 8.958 8.958 0 4.941-4.016 8.958-8.958 8.958zm0-16.666C5.75 2.291 2.292 5.75 2.292 10S5.75 17.708 10 17.708 17.708 14.25 17.708 10 14.25 2.292 10 2.292z" fill="currentColor" /><path d="M13.092 13.275a.558.558 0 01-.317-.092l-2.583-1.541c-.642-.384-1.117-1.225-1.117-1.967V6.258a.63.63 0 01.625-.625.63.63 0 01.625.625v3.417c0 .3.25.742.509.892l2.583 1.541c.3.175.392.559.216.859a.642.642 0 01-.541.308z" fill="currentColor" /></symbol><symbol fill="none" viewBox="0 0 24 24" id="icon-close-square"><path d="M9.17 14.83l5.66-5.66M14.83 14.83L9.17 9.17M9 22h6c5 0 7-2 7-7V9c0-5-2-7-7-7H9C4 2 2 4 2 9v6c0 5 2 7 7 7z" stroke="currentColor" stroke-width="1.5" stroke-linecap="round" stroke-linejoin="round" /></symbol><symbol fill="none" viewBox="0 0 32 32" id="icon-delete"><path d="M25 9.98c-3.33-.33-6.68-.5-10.02-.5-1.98 0-3.96.1-5.94.3L7 9.98M12.5 8.97l.22-1.31C12.88 6.71 13 6 14.69 6h2.62c1.69 0 1.82.75 1.97 1.67l.22 1.3M22.85 13.14l-.65 10.07C22.09 24.78 22 26 19.21 26h-6.42C10 26 9.91 24.78 9.8 23.21l-.65-10.07" stroke="currentColor" stroke-width="1.5" stroke-linecap="round" stroke-linejoin="round" /></symbol><symbol fill="none" viewBox="0 0 24 24" id="icon-discount"><path d="M21.3 10.84c.39 0 .7-.31.7-.7v-.93c0-4.1-1.25-5.35-5.35-5.35h-9.3C3.25 3.86 2 5.11 2 9.21v.47c0 .39.31.7.7.7.9 0 1.63.73 1.63 1.63 0 .9-.73 1.62-1.63 1.62-.39 0-.7.31-.7.7v.47c0 4.1 1.25 5.35 5.35 5.35h9.3c4.1 0 5.35-1.25 5.35-5.35 0-.39-.31-.7-.7-.7a1.63 1.63 0 010-3.26zM9 8.88c.55 0 1 .45 1 1s-.44 1-1 1c-.55 0-1-.45-1-1s.44-1 1-1zm6 7c-.56 0-1.01-.45-1.01-1s.45-1 1-1 1 .45 1 1-.43 1-.99 1zm.9-6.4l-6.73 6.73c-.15.15-.34.22-.53.22s-.38-.07-.53-.22a.754.754 0 010-1.06l6.73-6.73c.29-.29.77-.29 1.06 0 .29.29.29.77 0 1.06z" fill="currentColor" /></symbol><symbol fill="none" viewBox="0 0 60 60" id="icon-dog"><circle cx="30" cy="30" r="27" fill="#D0EDFE" stroke="#fff" stroke-width="2" /><circle cx="30" cy="30" r="29" stroke="#3887B5" stroke-width="2" /><g clip-path="url(#icon-dog_clip0_2729_51347)"><path d="M40.513 22.448l-2.86-1.153a2.423 2.423 0 00-1.778-1.891l-.155-1.782a.642.642 0 00-1.114-.375l-.748.825-.46-1.607a.642.642 0 00-1.22-.042L28.22 27.346c-2.848.74-5.335 2.562-6.862 5.042-1.4 2.271-1.834 4.874-1.224 7.328.356 1.434 1.033 2.379 1.726 2.999h-.545a6.576 6.576 0 01-6.094-3.729.642.642 0 10-1.157.554A7.862 7.862 0 0021.142 44h12.25a.642.642 0 00.641-.642c0-1.727-1.377-2.514-2.593-2.803.568-1.108.617-2.083.553-2.72l.168-.023 3.846 5.897c.118.181.32.29.537.29h2.335a.642.642 0 00.543-.983c-.025-.04-2.436-3.867-3.732-6.01V26.224a5.4 5.4 0 00.594.033c1.862 0 3.612-1.05 4.555-2.912l.029-.061a.642.642 0 00-.355-.835z" fill="#3887B5" /></g><defs></defs></symbol><clipPath id="icon-dog_clip0_2729_51347"><path fill="#fff" transform="matrix(-1 0 0 1 44 16)" d="M0 0h28v28H0z" /></clipPath><symbol fill="none" viewBox="0 0 20 20" id="icon-edit"><path d="M9.167 1.667H7.5c-4.167 0-5.833 1.666-5.833 5.833v5c0 4.167 1.666 5.833 5.833 5.833h5c4.167 0 5.833-1.666 5.833-5.833v-1.667" stroke="currentColor" stroke-width="1.5" stroke-linecap="round" stroke-linejoin="round" /><path d="M13.367 2.517L6.8 9.083c-.25.25-.5.742-.55 1.1l-.358 2.509c-.134.908.508 1.541 1.416 1.416l2.509-.358c.35-.05.841-.3 1.1-.55l6.566-6.567c1.134-1.133 1.667-2.45 0-4.116-1.666-1.667-2.983-1.134-4.116 0zM12.425 3.458a5.954 5.954 0 004.117 4.117" stroke="currentColor" stroke-width="1.5" stroke-miterlimit="10" stroke-linecap="round" stroke-linejoin="round" /></symbol><symbol fill="none" viewBox="0 0 24 24" id="icon-eye"><path d="M15.58 12c0 1.98-1.6 3.58-3.58 3.58S8.42 13.98 8.42 12s1.6-3.58 3.58-3.58 3.58 1.6 3.58 3.58z" stroke="currentColor" stroke-width="1.5" stroke-linecap="round" stroke-linejoin="round" /><path d="M12 20.27c3.53 0 6.82-2.08 9.11-5.68.9-1.41.9-3.78 0-5.19-2.29-3.6-5.58-5.68-9.11-5.68-3.53 0-6.82 2.08-9.11 5.68-.9 1.41-.9 3.78 0 5.19 2.29 3.6 5.58 5.68 9.11 5.68z" stroke="currentColor" stroke-width="1.5" stroke-linecap="round" stroke-linejoin="round" /></symbol><symbol fill="none" viewBox="0 0 24 24" id="icon-eye-off"><path d="M14.53 9.47l-5.06 5.06a3.576 3.576 0 115.06-5.06z" stroke="currentColor" stroke-width="1.5" stroke-linecap="round" stroke-linejoin="round" /><path d="M17.82 5.77C16.07 4.45 14.07 3.73 12 3.73c-3.53 0-6.82 2.08-9.11 5.68-.9 1.41-.9 3.78 0 5.19.79 1.24 1.71 2.31 2.71 3.17M8.42 19.53c1.14.48 2.35.74 3.58.74 3.53 0 6.82-2.08 9.11-5.68.9-1.41.9-3.78 0-5.19-.33-.52-.69-1.01-1.06-1.47M15.51 12.7a3.565 3.565 0 01-2.82 2.82M9.47 14.53L2 22M22 2l-7.47 7.47" stroke="currentColor" stroke-width="1.5" stroke-linecap="round" stroke-linejoin="round" /></symbol><symbol fill="none" viewBox="0 0 20 20" id="icon-filter"><path d="M4 5h13M4 10h13M4 15h13" stroke="currentColor" stroke-width="1.5" stroke-linecap="round" /><circle cx="7" cy="10" r="1.5" fill="currentColor" /><circle cx="14" cy="15" r="1.5" fill="currentColor" /><circle cx="14" cy="5" r="1.5" fill="currentColor" /></symbol><symbol fill="none" viewBox="0 0 32 32" id="icon-gallery"><path d="M12 29.333h8c6.667 0 9.334-2.666 9.334-9.333v-8c0-6.667-2.667-9.333-9.334-9.333h-8c-6.666 0-9.333 2.666-9.333 9.333v8c0 6.667 2.667 9.333 9.333 9.333z" stroke="currentColor" stroke-width="1.5" stroke-linecap="round" stroke-linejoin="round" /><path d="M12 13.333A2.667 2.667 0 1012 8a2.667 2.667 0 000 5.333zM3.56 25.267l6.573-4.414c1.053-.706 2.573-.626 3.52.187l.44.387c1.04.893 2.72.893 3.76 0l5.547-4.76c1.04-.894 2.72-.894 3.76 0l2.173 1.866" stroke="currentColor" stroke-width="1.5" stroke-linecap="round" stroke-linejoin="round" /></symbol><symbol fill="none" viewBox="0 0 32 32" id="icon-heart"><circle cx="16" cy="16" r="16" /><path d="M16 25.65c-.31 0-.61-.04-.86-.13-3.82-1.31-9.89-5.96-9.89-12.83 0-3.5 2.83-6.34 6.31-6.34 1.69 0 3.27.66 4.44 1.84a6.214 6.214 0 014.44-1.84c3.48 0 6.31 2.85 6.31 6.34 0 6.88-6.07 11.52-9.89 12.83-.25.09-.55.13-.86.13zm-4.44-17.8c-2.65 0-4.81 2.17-4.81 4.84 0 6.83 6.57 10.63 8.88 11.42.18.06.57.06.75 0 2.3-.79 8.88-4.58 8.88-11.42 0-2.67-2.16-4.84-4.81-4.84-1.52 0-2.93.71-3.84 1.94-.28.38-.92.38-1.2 0a4.77 4.77 0 00-3.85-1.94z" fill="currentColor" /></symbol><symbol fill="none" viewBox="0 0 32 32" id="icon-heart-fill"><circle cx="16" cy="16" r="16" fill="#fff" /><path d="M20.44 7.07c-1.81 0-3.43.878-4.44 2.226a5.552 5.552 0 00-4.44-2.227C8.49 7.07 6 9.565 6 12.65c0 1.188.19 2.286.52 3.305 1.58 4.992 6.45 7.977 8.86 8.796.34.12.9.12 1.24 0 2.41-.82 7.28-3.804 8.86-8.796.33-1.019.52-2.117.52-3.305 0-3.085-2.49-5.58-5.56-5.58z" fill="#D82F49" /></symbol><symbol fill="none" viewBox="0 0 24 24" id="icon-import"><path d="M9.32 11.68l2.56 2.56 2.56-2.56M11.88 4v10.17" stroke="currentColor" stroke-width="1.5" stroke-miterlimit="10" stroke-linecap="round" stroke-linejoin="round" /><path d="M20 12.18c0 4.42-3 8-8 8s-8-3.58-8-8" stroke="currentColor" stroke-width="1.5" stroke-miterlimit="10" stroke-linecap="round" stroke-linejoin="round" /></symbol><symbol fill="none" viewBox="0 0 24 24" id="icon-lock"><path d="M6 10V8c0-3.31 1-6 6-6s6 2.69 6 6v2M17 22H7c-4 0-5-1-5-5v-2c0-4 1-5 5-5h10c4 0 5 1 5 5v2c0 4-1 5-5 5z" stroke="currentColor" stroke-width="1.5" stroke-linecap="round" stroke-linejoin="round" /><path d="M15.996 16h.01M11.995 16h.01M7.995 16h.008" stroke="currentColor" stroke-width="2" stroke-linecap="round" stroke-linejoin="round" /></symbol><symbol fill="none" viewBox="0 0 25 24" id="icon-login"><path d="M12.18 14.62l2.56-2.56-2.56-2.56M4.5 12.06h10.17" stroke="currentColor" stroke-width="1.5" stroke-miterlimit="10" stroke-linecap="round" stroke-linejoin="round" /><path d="M12.5 4c4.42 0 8 3 8 8s-3.58 8-8 8" stroke="currentColor" stroke-width="1.5" stroke-miterlimit="10" stroke-linecap="round" stroke-linejoin="round" /></symbol><symbol fill="none" viewBox="0 0 24 24" id="icon-man"><g clip-path="url(#clip0_2729_51357)" fill="#3887B5"><path d="M20.19 7.734v1.208a.905.905 0 001.81 0V7.734h-1.81z" /><path d="M20.793 2h-5.735a.905.905 0 100 1.81h3.85l-4.19 4.191a7.847 7.847 0 101.28 1.28l4.191-4.19v2.643a.905.905 0 001.811 0V3.207A1.21 1.21 0 0020.793 2zM9.847 20.19a6.036 6.036 0 110-12.073 6.036 6.036 0 010 12.072z" /></g></symbol><symbol fill="none" viewBox="0 0 16 16" id="icon-minus"><g clip-path="url(#clip0_2333_36067)"><path d="M15.219 8.781H.78a.781.781 0 010-1.562H15.22a.781.781 0 110 1.562z" fill="currentColor" /></g></symbol><symbol fill="none" viewBox="0 0 25 24" id="icon-notification"><path d="M12.968 2.91c-3.31 0-6 2.69-6 6v2.89c0 .61-.26 1.54-.57 2.06l-1.15 1.91c-.71 1.18-.22 2.49 1.08 2.93 4.31 1.44 8.96 1.44 13.27 0 1.21-.4 1.74-1.83 1.08-2.93l-1.15-1.91c-.3-.52-.56-1.45-.56-2.06V8.91c0-3.3-2.7-6-6-6z" stroke="currentColor" stroke-width="1.5" stroke-miterlimit="10" stroke-linecap="round" /><path d="M14.818 3.2a6.754 6.754 0 00-3.7 0c.29-.74 1.01-1.26 1.85-1.26.84 0 1.56.52 1.85 1.26z" stroke="currentColor" stroke-width="1.5" stroke-miterlimit="10" stroke-linecap="round" stroke-linejoin="round" /><path d="M15.968 19.06c0 1.65-1.35 3-3 3-.82 0-1.58-.34-2.12-.88a3.01 3.01 0 01-.88-2.12" stroke="currentColor" stroke-width="1.5" stroke-miterlimit="10" /></symbol><symbol fill="none" viewBox="0 0 24 24" id="icon-pet"><circle cx="12" cy="12" r="10.286" fill="#F4F3F6" stroke="#fff" stroke-width="2" /><circle cx="12" cy="12" r="11" stroke="#69676D" stroke-width="2" /><path d="M15.372 13.771c-.28-1.68-1.895-3.047-3.6-3.047-1.852 0-3.48 1.5-3.638 3.347-.062.715.167 1.39.638 1.9.467.51 1.124.79 1.838.79h2.229c.804 0 1.51-.314 1.99-.88.481-.567.672-1.32.543-2.11zM11.181 10.028a1.395 1.395 0 100-2.79 1.395 1.395 0 000 2.79zM14.352 10.585a1.162 1.162 0 100-2.323 1.162 1.162 0 000 2.323zM16.072 12.443a.929.929 0 100-1.857.929.929 0 000 1.857zM8.162 11.514a1.162 1.162 0 100-2.324 1.162 1.162 0 000 2.324z" fill="#69676D" /></symbol><symbol fill="none" viewBox="0 0 16 16" id="icon-plus"><g clip-path="url(#clip0_2333_36062)" fill="currentColor"><path d="M8 16a.781.781 0 01-.781-.781V.78a.781.781 0 011.562 0V15.22A.781.781 0 018 16z" /><path d="M15.219 8.781H.78a.781.781 0 010-1.562H15.22a.781.781 0 110 1.562z" /></g></symbol><symbol fill="none" viewBox="0 0 24 24" id="icon-rotate"><path d="M9.11 5.08c.87-.26 1.83-.43 2.89-.43 4.79 0 8.67 3.88 8.67 8.67s-3.88 8.67-8.67 8.67-8.67-3.88-8.67-8.67c0-1.78.54-3.44 1.46-4.82M7.87 5.32L10.76 2M7.87 5.32l3.37 2.46" stroke="currentColor" stroke-width="1.5" stroke-linecap="round" stroke-linejoin="round" /></symbol><symbol fill="none" viewBox="0 0 28 28" id="icon-search"><path d="M13.45 23.9c5.771 0 10.45-4.679 10.45-10.45C23.9 7.679 19.221 3 13.45 3 7.679 3 3 7.679 3 13.45 3 19.221 7.679 23.9 13.45 23.9zM25 25l-2.2-2.2" stroke="currentColor" stroke-width="1.5" stroke-linecap="round" stroke-linejoin="round" /></symbol><symbol fill="none" viewBox="0 0 20 20" id="icon-sort"><path d="M17.945 13.57l-3.125 3.125h-.008c-.007.016-.023.024-.039.04l-.023.015-.031.023-.024.016-.023.016h-.031l-.024.015h-.031l-.031.016h-.36l-.03-.016h-.032l-.024-.015h-.03l-.024-.016-.024-.016L14 16.75l-.023-.016-.04-.039h-.007l-3.125-3.125a.633.633 0 01.89-.89l2.055 2.062V8.75a.625.625 0 111.25 0v5.992l2.055-2.062a.633.633 0 01.89.89zm-8.57-4.195H3.75a.625.625 0 000 1.25h5.625a.625.625 0 100-1.25zM3.75 5.625h10.625a.625.625 0 100-1.25H3.75a.625.625 0 000 1.25zm4.375 8.75H3.75a.625.625 0 100 1.25h4.375a.625.625 0 100-1.25z" fill="currentColor" /></symbol><symbol fill="none" viewBox="0 0 24 24" id="icon-telegram"><path fill-rule="evenodd" clip-rule="evenodd" d="M12 24C5.373 24 0 18.627 0 12S5.373 0 12 0s12 5.373 12 12-5.373 12-12 12zm.519-14.994a526.069 526.069 0 00-6.444 2.775c-.523.208-.797.412-.822.61-.042.337.379.47.952.65l.242.077c.564.183 1.323.397 1.718.406.358.008.757-.14 1.198-.443 3.01-2.031 4.563-3.058 4.66-3.08.07-.016.165-.035.23.022.064.057.058.166.05.195-.04.178-1.694 1.715-2.55 2.51-.266.248-.455.424-.494.464-.086.09-.175.175-.26.257-.524.505-.917.884.022 1.503.451.297.813.543 1.173.789.393.267.785.535 1.293.867.13.085.253.173.373.26.458.325.87.619 1.378.572.295-.027.6-.305.755-1.133.366-1.957 1.085-6.197 1.252-7.944a1.954 1.954 0 00-.019-.435.465.465 0 00-.157-.3c-.133-.107-.337-.13-.428-.128-.416.007-1.053.23-4.122 1.506z" fill="currentColor" /></symbol><symbol fill="none" viewBox="0 0 48 48" id="icon-tick-circle"><path d="M24 44c11 0 20-9 20-20S35 4 24 4 4 13 4 24s9 20 20 20z" stroke="currentColor" stroke-width="1.5" stroke-linecap="round" stroke-linejoin="round" /><path d="M15.5 24l5.66 5.66L32.5 18.34" stroke="currentColor" stroke-width="1.5" stroke-linecap="round" stroke-linejoin="round" /></symbol><symbol fill="none" viewBox="0 0 24 24" id="icon-user"><path d="M12 12a5 5 0 100-10 5 5 0 000 10zM20.59 22c0-3.87-3.85-7-8.59-7s-8.59 3.13-8.59 7" stroke="currentColor" stroke-width="1.5" stroke-linecap="round" stroke-linejoin="round" /></symbol><symbol fill="none" viewBox="0 0 24 24" id="icon-viber"><g clip-path="url(#icon-viber_clip0_2888_17784)" fill="currentColor"><path d="M17.665 8.392c-.105-.41-.41-.876-.791-1.275-.47-.491-1.07-.89-1.594-1.008a17.455 17.455 0 00-6.56 0c-.955.213-2.151 1.363-2.385 2.283a12.545 12.545 0 000 5.385c.189.744 1.005 1.636 1.814 2.064.18.099.371.173.57.22a.088.088 0 01.074.087v2.618a.144.144 0 00.25.1l1.244-1.275 1.167-1.2a.085.085 0 01.066-.028 17.61 17.61 0 003.758-.302c.955-.213 2.15-1.364 2.385-2.284.39-1.774.39-3.611.002-5.385zm-2.351 5.517c-.177.404-.482.74-.868.954-.12.053-.246.093-.375.12-.146-.045-.285-.073-.409-.128a10.307 10.307 0 01-2.843-1.677 7.487 7.487 0 01-.713-.7 9.224 9.224 0 01-1.364-2.082c-.174-.354-.322-.724-.472-1.09-.136-.335.066-.683.273-.93.203-.233.452-.419.732-.546a.469.469 0 01.588.136c.346.392.65.818.91 1.272a.607.607 0 01-.17.819 2.016 2.016 0 00-.196.154.62.62 0 00-.147.156.427.427 0 00-.033.38c.263.724.663 1.326 1.26 1.75.202.144.42.264.65.358.149.081.317.122.487.118.298-.035.396-.362.603-.533a.572.572 0 01.682-.03c.221.137.434.29.646.44.21.144.413.298.607.463a.483.483 0 01.152.596zm-1.959-3.273a.287.287 0 01-.016-.07 1.933 1.933 0 00-.04-.272.791.791 0 00-.293-.458.804.804 0 00-.236-.115c-.107-.03-.22-.022-.327-.048a.202.202 0 01-.085-.36.211.211 0 01.144-.043c.624.046 1.09.346 1.21 1.016.013.062.022.125.027.188a.548.548 0 010 .17.176.176 0 01-.145.137h-.03a.205.205 0 01-.209-.145zm-.199-1.69a2.454 2.454 0 00-.662-.203c-.101-.016-.202-.026-.303-.04a.192.192 0 01-.182-.215.188.188 0 01.133-.179.19.19 0 01.079-.007c.4.015.793.117 1.15.3.435.219.79.57 1.015 1.002.127.253.212.525.251.806.008.036.013.073.017.11.006.082.01.162.016.265v.038a.545.545 0 01-.016.12.201.201 0 01-.377.019.578.578 0 01-.02-.17 2.195 2.195 0 00-.178-.885 1.997 1.997 0 00-.923-.96zm2.253 2.515c-.136 0-.203-.116-.213-.243-.017-.25-.031-.5-.065-.748a3.137 3.137 0 00-2.528-2.624c-.197-.034-.397-.042-.595-.064-.125-.012-.29-.02-.318-.177a.217.217 0 01.212-.242h.146A3.62 3.62 0 0115 9c.258.401.433.85.515 1.32.052.296.071.598.095.898a.21.21 0 01-.2.243z" /><path d="M12 0a12 12 0 100 24 12 12 0 000-24zm6.931 14.063v.016c-.349 1.417-1.928 2.935-3.377 3.252h-.017c-1.166.224-2.35.338-3.537.339-.346 0-.695-.01-1.042-.031l-1.6 1.665a.635.635 0 01-1.092-.44v-1.581a4.05 4.05 0 01-1.062-.492c-1.006-.64-1.88-1.702-2.13-2.712v-.016a13.848 13.848 0 010-5.958v-.017c.35-1.416 1.927-2.933 3.38-3.25h.017a18.774 18.774 0 017.066 0h.017c.782.17 1.602.692 2.245 1.364.546.566.971 1.24 1.132 1.891v.018c.432 1.96.432 3.991 0 5.952z" /></g><defs></defs></symbol><clipPath id="icon-viber_clip0_2888_17784"><path fill="currentColor" d="M0 0h24v24H0z" /></clipPath><symbol fill="none" viewBox="0 0 24 24" id="icon-vk"><path d="M8.024 9.652c.064 3.12 1.624 4.992 4.36 4.992h.16V12.86c1.004.1 1.764.836 2.068 1.784h1.42a3.947 3.947 0 00-2.052-2.504 3.81 3.81 0 001.752-2.492h-1.288c-.28.992-1.112 1.892-1.9 1.976V9.652h-1.292v3.456c-.8-.2-1.808-1.168-1.852-3.456H8.024z" fill="currentColor" /><path fill-rule="evenodd" clip-rule="evenodd" d="M12 0c6.627 0 12 5.373 12 12s-5.373 12-12 12S0 18.627 0 12 5.373 0 12 0zM6 11.76c0-2.716 0-4.072.84-4.92C7.692 6 9.048 6 11.76 6h.48c2.716 0 4.072 0 4.92.84.84.852.84 2.208.84 4.92v.48c0 2.716 0 4.072-.84 4.92-.852.84-2.208.84-4.92.84h-.48c-2.716 0-4.072 0-4.92-.84C6 16.308 6 14.952 6 12.24v-.48z" fill="currentColor" /></symbol><symbol fill="none" viewBox="0 0 24 24" id="icon-whatsapp"><path fill-rule="evenodd" clip-rule="evenodd" d="M9.45 16.275c.75.45 1.65.675 2.55.675 2.775 0 4.95-2.25 4.95-4.875 0-1.35-.45-2.55-1.425-3.525-.975-.9-2.175-1.425-3.525-1.425-2.7 0-4.95 2.25-4.95 4.95 0 .9.225 1.8.75 2.625l.15.225-.525 1.8L9.3 16.2l.15.075zm4.2-3.525c.15 0 .9.375 1.05.45.023.012.047.022.07.031.125.053.242.102.305.419.075 0 .075.3-.075.675-.075.3-.675.675-.975.675-.05 0-.1.004-.152.009-.254.022-.589.052-1.648-.384-1.314-.526-2.226-1.8-2.482-2.158a1.274 1.274 0 00-.068-.092 1.783 1.783 0 00-.073-.12c-.166-.262-.527-.833-.527-1.455 0-.75.375-1.125.525-1.275.15-.15.3-.15.375-.15h.3c.075 0 .225 0 .3.225.15.3.45 1.05.45 1.125 0 .025.008.05.017.075.016.05.033.1-.017.15-.037.038-.056.075-.075.113a.391.391 0 01-.075.112l-.225.225c-.075.075-.15.15-.075.3s.375.675.825 1.05c.506.443.906.619 1.108.708.038.017.069.03.092.042.15 0 .225 0 .3-.075.037-.075.131-.188.225-.3.094-.113.188-.225.225-.3.075-.15.15-.15.3-.075z" fill="currentColor" /><path fill-rule="evenodd" clip-rule="evenodd" d="M0 12C0 5.373 5.373 0 12 0s12 5.373 12 12-5.373 12-12 12S0 18.627 0 12zm12-6c1.575 0 3.075.6 4.2 1.725s1.8 2.625 1.8 4.2c0 3.3-2.7 6-6 6-.975 0-1.95-.3-2.85-.75L6 18l.825-3A6.013 6.013 0 016 12c0-3.3 2.7-6 6-6z" fill="currentColor" /></symbol><symbol fill="none" viewBox="0 0 24 24" id="icon-woman"><g clip-path="url(#clip0_1199_46681)"><path d="M14.946 18.881h-1.449v2.173h1.449a1.087 1.087 0 000-2.173z" fill="#D63D76" /><path d="M19.968 7.968a7.968 7.968 0 10-9.054 7.894v3.02h-1.86a1.087 1.087 0 000 2.172h1.86v1.86a1.087 1.087 0 002.172 0v-1.86h.411a1.087 1.087 0 000-2.173h-.41v-3.02a7.97 7.97 0 006.88-7.893zM12 13.763a5.795 5.795 0 110-11.59 5.795 5.795 0 010 11.59z" fill="#C73C5E" /></g></symbol><symbol fill="none" viewBox="0 0 24 24" id="icon-youtube"><path d="M13.95 12l-3.15-1.8v3.6l3.15-1.8z" fill="currentColor" /><path fill-rule="evenodd" clip-rule="evenodd" d="M0 12C0 5.373 5.373 0 12 0s12 5.373 12 12-5.373 12-12 12S0 18.627 0 12zm16.65-3.975c.525.15.9.525 1.05 1.05C18 10.05 18 12 18 12s0 1.95-.225 2.925c-.15.525-.525.9-1.05 1.05C15.75 16.2 12 16.2 12 16.2s-3.825 0-4.725-.225c-.525-.15-.9-.525-1.05-1.05C6 13.95 6 12 6 12s0-1.95.15-2.925c.15-.525.525-.9 1.05-1.05.975-.225 4.725-.225 4.725-.225s3.825 0 4.725.225z" fill="currentColor" /></symbol></defs></svg>