<svg xmlns="http://www.w3.org/2000/svg" xmlns:xlink="http://www.w3.org/1999/xlink"><defs><symbol fill="none" viewBox="0 0 20 20" id="icon-arrow-down"><path d="M4 7l4.94 4.94a1.504 1.504 0 002.12 0L16 7" stroke="currentColor" stroke-width="1.5" stroke-miterlimit="10" stroke-linecap="round" stroke-linejoin="round" /></symbol><symbol fill="none" viewBox="0 0 12 12" id="icon-arrow-up"><path d="M2.4 7.426l2.964-2.964a.903.903 0 011.272 0L9.6 7.426" stroke="currentColor" stroke-width="1.5" stroke-miterlimit="10" stroke-linecap="round" stroke-linejoin="round" /></symbol><symbol fill="none" viewBox="0 0 24 24" id="icon-basket"><path d="M8.81 2L5.19 5.63M15.19 2l3.62 3.63" stroke="currentColor" stroke-width="1.5" stroke-miterlimit="10" stroke-linecap="round" stroke-linejoin="round" /><path d="M2 7.85c0-1.85.99-2 2.22-2h15.56c1.23 0 2.22.15 2.22 2 0 2.15-.99 2-2.22 2H4.22C2.99 9.85 2 10 2 7.85z" stroke="currentColor" stroke-width="1.5" /><path d="M9.76 14v3.55M14.36 14v3.55M3.5 10l1.41 8.64C5.23 20.58 6 22 8.86 22h6.03c3.11 0 3.57-1.36 3.93-3.24L20.5 10" stroke="currentColor" stroke-width="1.5" stroke-linecap="round" /></symbol><symbol fill="none" viewBox="0 0 24 24" id="icon-calendar"><path d="M8 2v3M16 2v3M3.5 9.09h17M21 8.5V17c0 3-1.5 5-5 5H8c-3.5 0-5-2-5-5V8.5c0-3 1.5-5 5-5h8c3.5 0 5 2 5 5z" stroke="currentColor" stroke-width="1.5" stroke-miterlimit="10" stroke-linecap="round" stroke-linejoin="round" /></symbol><symbol fill="none" viewBox="0 0 72 72" id="icon-camera"><path d="M20.28 66h31.44C60 66 63.3 60.93 63.69 54.75l1.56-24.78C65.67 23.49 60.51 18 54 18c-1.83 0-3.51-1.05-4.35-2.67l-2.16-4.35C46.11 8.25 42.51 6 39.45 6h-6.87c-3.09 0-6.69 2.25-8.07 4.98l-2.16 4.35C21.51 16.95 19.83 18 18 18c-6.51 0-11.67 5.49-11.25 11.97l1.56 24.78C8.67 60.93 12 66 20.28 66zM31.5 24h9" stroke="currentColor" stroke-width="1.5" stroke-linecap="round" stroke-linejoin="round" /><path d="M36 54c5.37 0 9.75-4.38 9.75-9.75S41.37 34.5 36 34.5s-9.75 4.38-9.75 9.75S30.63 54 36 54z" stroke="currentColor" stroke-width="1.5" stroke-linecap="round" stroke-linejoin="round" /></symbol><symbol fill="none" viewBox="0 0 60 60" id="icon-cat"><circle cx="30" cy="30" r="27" fill="#F9DBC0" stroke="#fff" stroke-width="2" /><circle cx="30" cy="30" r="29" stroke="#D26925" stroke-width="2" /><g clip-path="url(#icon-cat_clip0_1199_46669)"><path d="M39.722 16.323c-.275-.229-.756-.447-1.226-.24-.893.606 3.138 3.09 1.1 11.403-.424 1.717-1.466.825-2.702.447-2.817-.882-5.828-1.077-8.748-1.386-1.03-.114-2.084-.194-3.08-.47-1.053-.285-1.099-.343-.835-1.304.732-.928.435-2.199.4-2.725.55-1.214.756-2.267.32-2.805-1.178-1.397-1.373 2.22-2.907 2.232-.699-.069-1.157-.011-1.328-.39-.31-.652-.79-1.499-1.409-1.9-.95-.63-1.145 1.11-.744 2.76-.126 1.007-.034 1.694.481 2.427.263.366.32.824.4 1.26.15.755.241 1.694.241 2.46 0 .436.08 1.787.149 2.222.32 1.97.424 2.359 1.9 3.801.619.607 1.558 1.134 1.947 1.947.286.618.538 1.294.802 1.912.515 1.19.835 2.404 1.053 3.675.126.687-1.512.836-1.237 1.786.218.779 2.302.767 2.428-.126.08-.504.32-1.42.435-2.118.607-2.622-.287-3.64.412-6.022.183-.86 3.538.801 3.996 1.11.927.63 1.923 1.134 2.862 1.74 1.454.94.447 1.764-.492 2.53-.504.413-.504.436-1.145.287a.898.898 0 00-1.054.595c-.171.538.607.905 1.145.836 1.615-.172 3.847-1.855 4.546-3.309.47.55.274 1.065.011 1.764-.114.297-.24.584-.343.881-.23.676-.447.492-.996.618-.813.264-.447 1.455.446 1.317.31-.046 1.477-.183 1.603-.721.057-.24.298-.733.412-.973.252-.596 1.649-3.71 1.03-4.305a5.093 5.093 0 01-.812-.974c-.378-.595-.206-.664.126-1.167.343-.527.652-1.145.95-1.695.675-1.305.172-2.427.767-4.168 1.843-5.575.928-11.678-.904-13.212z" fill="#D26925" /></g><defs></defs></symbol><clipPath id="icon-cat_clip0_1199_46669"><path fill="#fff" transform="translate(16 16)" d="M0 0h28v28H0z" /></clipPath><symbol fill="none" viewBox="0 0 16 16" id="icon-check"><path d="M2.667 8l4 4 6.666-8" stroke="currentColor" stroke-width="2" stroke-linecap="round" stroke-linejoin="round" /></symbol><symbol fill="none" viewBox="0 0 32 32" id="icon-delete"><path d="M25 9.98c-3.33-.33-6.68-.5-10.02-.5-1.98 0-3.96.1-5.94.3L7 9.98M12.5 8.97l.22-1.31C12.88 6.71 13 6 14.69 6h2.62c1.69 0 1.82.75 1.97 1.67l.22 1.3M22.85 13.14l-.65 10.07C22.09 24.78 22 26 19.21 26h-6.42C10 26 9.91 24.78 9.8 23.21l-.65-10.07" stroke="currentColor" stroke-width="1.5" stroke-linecap="round" stroke-linejoin="round" /></symbol><symbol fill="none" viewBox="0 0 60 60" id="icon-dog"><circle cx="30" cy="30" r="27" fill="#D0EDFE" stroke="#fff" stroke-width="2" /><circle cx="30" cy="30" r="29" stroke="#3887B5" stroke-width="2" /><g clip-path="url(#icon-dog_clip0_2729_51347)"><path d="M40.513 22.448l-2.86-1.153a2.423 2.423 0 00-1.778-1.891l-.155-1.782a.642.642 0 00-1.114-.375l-.748.825-.46-1.607a.642.642 0 00-1.22-.042L28.22 27.346c-2.848.74-5.335 2.562-6.862 5.042-1.4 2.271-1.834 4.874-1.224 7.328.356 1.434 1.033 2.379 1.726 2.999h-.545a6.576 6.576 0 01-6.094-3.729.642.642 0 10-1.157.554A7.862 7.862 0 0021.142 44h12.25a.642.642 0 00.641-.642c0-1.727-1.377-2.514-2.593-2.803.568-1.108.617-2.083.553-2.72l.168-.023 3.846 5.897c.118.181.32.29.537.29h2.335a.642.642 0 00.543-.983c-.025-.04-2.436-3.867-3.732-6.01V26.224a5.4 5.4 0 00.594.033c1.862 0 3.612-1.05 4.555-2.912l.029-.061a.642.642 0 00-.355-.835z" fill="#3887B5" /></g><defs></defs></symbol><clipPath id="icon-dog_clip0_2729_51347"><path fill="#fff" transform="matrix(-1 0 0 1 44 16)" d="M0 0h28v28H0z" /></clipPath><symbol fill="none" viewBox="0 0 20 20" id="icon-edit"><path d="M9.167 1.667H7.5c-4.167 0-5.833 1.666-5.833 5.833v5c0 4.167 1.666 5.833 5.833 5.833h5c4.167 0 5.833-1.666 5.833-5.833v-1.667" stroke="currentColor" stroke-width="1.5" stroke-linecap="round" stroke-linejoin="round" /><path d="M13.367 2.517L6.8 9.083c-.25.25-.5.742-.55 1.1l-.358 2.509c-.134.908.508 1.541 1.416 1.416l2.509-.358c.35-.05.841-.3 1.1-.55l6.566-6.567c1.134-1.133 1.667-2.45 0-4.116-1.666-1.667-2.983-1.134-4.116 0zM12.425 3.458a5.954 5.954 0 004.117 4.117" stroke="currentColor" stroke-width="1.5" stroke-miterlimit="10" stroke-linecap="round" stroke-linejoin="round" /></symbol><symbol fill="none" viewBox="0 0 24 24" id="icon-eye"><path d="M15.58 12c0 1.98-1.6 3.58-3.58 3.58S8.42 13.98 8.42 12s1.6-3.58 3.58-3.58 3.58 1.6 3.58 3.58z" stroke="currentColor" stroke-width="1.5" stroke-linecap="round" stroke-linejoin="round" /><path d="M12 20.27c3.53 0 6.82-2.08 9.11-5.68.9-1.41.9-3.78 0-5.19-2.29-3.6-5.58-5.68-9.11-5.68-3.53 0-6.82 2.08-9.11 5.68-.9 1.41-.9 3.78 0 5.19 2.29 3.6 5.58 5.68 9.11 5.68z" stroke="currentColor" stroke-width="1.5" stroke-linecap="round" stroke-linejoin="round" /></symbol><symbol fill="none" viewBox="0 0 24 24" id="icon-eye-off"><path d="M14.53 9.47l-5.06 5.06a3.576 3.576 0 115.06-5.06z" stroke="currentColor" stroke-width="1.5" stroke-linecap="round" stroke-linejoin="round" /><path d="M17.82 5.77C16.07 4.45 14.07 3.73 12 3.73c-3.53 0-6.82 2.08-9.11 5.68-.9 1.41-.9 3.78 0 5.19.79 1.24 1.71 2.31 2.71 3.17M8.42 19.53c1.14.48 2.35.74 3.58.74 3.53 0 6.82-2.08 9.11-5.68.9-1.41.9-3.78 0-5.19-.33-.52-.69-1.01-1.06-1.47M15.51 12.7a3.565 3.565 0 01-2.82 2.82M9.47 14.53L2 22M22 2l-7.47 7.47" stroke="currentColor" stroke-width="1.5" stroke-linecap="round" stroke-linejoin="round" /></symbol><symbol fill="none" viewBox="0 0 32 32" id="icon-gallery"><path d="M12 29.333h8c6.667 0 9.334-2.666 9.334-9.333v-8c0-6.667-2.667-9.333-9.334-9.333h-8c-6.666 0-9.333 2.666-9.333 9.333v8c0 6.667 2.667 9.333 9.333 9.333z" stroke="currentColor" stroke-width="1.5" stroke-linecap="round" stroke-linejoin="round" /><path d="M12 13.333A2.667 2.667 0 1012 8a2.667 2.667 0 000 5.333zM3.56 25.267l6.573-4.414c1.053-.706 2.573-.626 3.52.187l.44.387c1.04.893 2.72.893 3.76 0l5.547-4.76c1.04-.894 2.72-.894 3.76 0l2.173 1.866" stroke="currentColor" stroke-width="1.5" stroke-linecap="round" stroke-linejoin="round" /></symbol><symbol fill="none" viewBox="0 0 24 24" id="icon-import"><path d="M9.32 11.68l2.56 2.56 2.56-2.56M11.88 4v10.17" stroke="currentColor" stroke-width="1.5" stroke-miterlimit="10" stroke-linecap="round" stroke-linejoin="round" /><path d="M20 12.18c0 4.42-3 8-8 8s-8-3.58-8-8" stroke="currentColor" stroke-width="1.5" stroke-miterlimit="10" stroke-linecap="round" stroke-linejoin="round" /></symbol><symbol fill="none" viewBox="0 0 24 24" id="icon-man"><g clip-path="url(#clip0_2729_51357)" fill="#3887B5"><path d="M20.19 7.734v1.208a.905.905 0 001.81 0V7.734h-1.81z" /><path d="M20.793 2h-5.735a.905.905 0 100 1.81h3.85l-4.19 4.191a7.847 7.847 0 101.28 1.28l4.191-4.19v2.643a.905.905 0 001.811 0V3.207A1.21 1.21 0 0020.793 2zM9.847 20.19a6.036 6.036 0 110-12.073 6.036 6.036 0 010 12.072z" /></g></symbol><symbol fill="none" viewBox="0 0 16 16" id="icon-minus"><g clip-path="url(#clip0_2333_36067)"><path d="M15.219 8.781H.78a.781.781 0 010-1.562H15.22a.781.781 0 110 1.562z" fill="currentColor" /></g></symbol><symbol fill="none" viewBox="0 0 25 24" id="icon-notification"><path d="M12.968 2.91c-3.31 0-6 2.69-6 6v2.89c0 .61-.26 1.54-.57 2.06l-1.15 1.91c-.71 1.18-.22 2.49 1.08 2.93 4.31 1.44 8.96 1.44 13.27 0 1.21-.4 1.74-1.83 1.08-2.93l-1.15-1.91c-.3-.52-.56-1.45-.56-2.06V8.91c0-3.3-2.7-6-6-6z" stroke="currentColor" stroke-width="1.5" stroke-miterlimit="10" stroke-linecap="round" /><path d="M14.818 3.2a6.754 6.754 0 00-3.7 0c.29-.74 1.01-1.26 1.85-1.26.84 0 1.56.52 1.85 1.26z" stroke="currentColor" stroke-width="1.5" stroke-miterlimit="10" stroke-linecap="round" stroke-linejoin="round" /><path d="M15.968 19.06c0 1.65-1.35 3-3 3-.82 0-1.58-.34-2.12-.88a3.01 3.01 0 01-.88-2.12" stroke="currentColor" stroke-width="1.5" stroke-miterlimit="10" /></symbol><symbol fill="none" viewBox="0 0 16 16" id="icon-plus"><g clip-path="url(#clip0_2333_36062)" fill="currentColor"><path d="M8 16a.781.781 0 01-.781-.781V.78a.781.781 0 011.562 0V15.22A.781.781 0 018 16z" /><path d="M15.219 8.781H.78a.781.781 0 010-1.562H15.22a.781.781 0 110 1.562z" /></g></symbol><symbol fill="none" viewBox="0 0 24 24" id="icon-rotate"><path d="M9.11 5.08c.87-.26 1.83-.43 2.89-.43 4.79 0 8.67 3.88 8.67 8.67s-3.88 8.67-8.67 8.67-8.67-3.88-8.67-8.67c0-1.78.54-3.44 1.46-4.82M7.87 5.32L10.76 2M7.87 5.32l3.37 2.46" stroke="currentColor" stroke-width="1.5" stroke-linecap="round" stroke-linejoin="round" /></symbol><symbol fill="none" viewBox="0 0 24 24" id="icon-woman"><g clip-path="url(#clip0_1199_46681)"><path d="M14.946 18.881h-1.449v2.173h1.449a1.087 1.087 0 000-2.173z" fill="#D63D76" /><path d="M19.968 7.968a7.968 7.968 0 10-9.054 7.894v3.02h-1.86a1.087 1.087 0 000 2.172h1.86v1.86a1.087 1.087 0 002.172 0v-1.86h.411a1.087 1.087 0 000-2.173h-.41v-3.02a7.97 7.97 0 006.88-7.893zM12 13.763a5.795 5.795 0 110-11.59 5.795 5.795 0 010 11.59z" fill="#C73C5E" /></g></symbol></defs></svg>