<svg xmlns="http://www.w3.org/2000/svg" xmlns:xlink="http://www.w3.org/1999/xlink"><defs><symbol fill="none" viewBox="0 0 12 12" id="icon-arrow-up"><path d="M2.4 7.426l2.964-2.964a.903.903 0 011.272 0L9.6 7.426" stroke="currentColor" stroke-width="1.5" stroke-miterlimit="10" stroke-linecap="round" stroke-linejoin="round" /></symbol><symbol fill="none" viewBox="0 0 24 24" id="icon-basket"><path d="M8.81 2L5.19 5.63M15.19 2l3.62 3.63" stroke="currentColor" stroke-width="1.5" stroke-miterlimit="10" stroke-linecap="round" stroke-linejoin="round" /><path d="M2 7.85c0-1.85.99-2 2.22-2h15.56c1.23 0 2.22.15 2.22 2 0 2.15-.99 2-2.22 2H4.22C2.99 9.85 2 10 2 7.85z" stroke="currentColor" stroke-width="1.5" /><path d="M9.76 14v3.55M14.36 14v3.55M3.5 10l1.41 8.64C5.23 20.58 6 22 8.86 22h6.03c3.11 0 3.57-1.36 3.93-3.24L20.5 10" stroke="currentColor" stroke-width="1.5" stroke-linecap="round" /></symbol><symbol fill="none" viewBox="0 0 72 72" id="icon-camera"><path d="M20.28 66h31.44C60 66 63.3 60.93 63.69 54.75l1.56-24.78C65.67 23.49 60.51 18 54 18c-1.83 0-3.51-1.05-4.35-2.67l-2.16-4.35C46.11 8.25 42.51 6 39.45 6h-6.87c-3.09 0-6.69 2.25-8.07 4.98l-2.16 4.35C21.51 16.95 19.83 18 18 18c-6.51 0-11.67 5.49-11.25 11.97l1.56 24.78C8.67 60.93 12 66 20.28 66zM31.5 24h9" stroke="currentColor" stroke-width="1.5" stroke-linecap="round" stroke-linejoin="round" /><path d="M36 54c5.37 0 9.75-4.38 9.75-9.75S41.37 34.5 36 34.5s-9.75 4.38-9.75 9.75S30.63 54 36 54z" stroke="currentColor" stroke-width="1.5" stroke-linecap="round" stroke-linejoin="round" /></symbol><symbol fill="none" viewBox="0 0 16 16" id="icon-check"><path d="M2.667 8l4 4 6.666-8" stroke="currentColor" stroke-width="2" stroke-linecap="round" stroke-linejoin="round" /></symbol><symbol fill="none" viewBox="0 0 32 32" id="icon-delete"><path d="M25 9.98c-3.33-.33-6.68-.5-10.02-.5-1.98 0-3.96.1-5.94.3L7 9.98M12.5 8.97l.22-1.31C12.88 6.71 13 6 14.69 6h2.62c1.69 0 1.82.75 1.97 1.67l.22 1.3M22.85 13.14l-.65 10.07C22.09 24.78 22 26 19.21 26h-6.42C10 26 9.91 24.78 9.8 23.21l-.65-10.07" stroke="currentColor" stroke-width="1.5" stroke-linecap="round" stroke-linejoin="round" /></symbol><symbol fill="none" viewBox="0 0 24 24" id="icon-eye"><path d="M15.58 12c0 1.98-1.6 3.58-3.58 3.58S8.42 13.98 8.42 12s1.6-3.58 3.58-3.58 3.58 1.6 3.58 3.58z" stroke="currentColor" stroke-width="1.5" stroke-linecap="round" stroke-linejoin="round" /><path d="M12 20.27c3.53 0 6.82-2.08 9.11-5.68.9-1.41.9-3.78 0-5.19-2.29-3.6-5.58-5.68-9.11-5.68-3.53 0-6.82 2.08-9.11 5.68-.9 1.41-.9 3.78 0 5.19 2.29 3.6 5.58 5.68 9.11 5.68z" stroke="currentColor" stroke-width="1.5" stroke-linecap="round" stroke-linejoin="round" /></symbol><symbol fill="none" viewBox="0 0 24 24" id="icon-eye-off"><path d="M14.53 9.47l-5.06 5.06a3.576 3.576 0 115.06-5.06z" stroke="currentColor" stroke-width="1.5" stroke-linecap="round" stroke-linejoin="round" /><path d="M17.82 5.77C16.07 4.45 14.07 3.73 12 3.73c-3.53 0-6.82 2.08-9.11 5.68-.9 1.41-.9 3.78 0 5.19.79 1.24 1.71 2.31 2.71 3.17M8.42 19.53c1.14.48 2.35.74 3.58.74 3.53 0 6.82-2.08 9.11-5.68.9-1.41.9-3.78 0-5.19-.33-.52-.69-1.01-1.06-1.47M15.51 12.7a3.565 3.565 0 01-2.82 2.82M9.47 14.53L2 22M22 2l-7.47 7.47" stroke="currentColor" stroke-width="1.5" stroke-linecap="round" stroke-linejoin="round" /></symbol><symbol fill="none" viewBox="0 0 32 32" id="icon-gallery"><path d="M12 29.333h8c6.667 0 9.334-2.666 9.334-9.333v-8c0-6.667-2.667-9.333-9.334-9.333h-8c-6.666 0-9.333 2.666-9.333 9.333v8c0 6.667 2.667 9.333 9.333 9.333z" stroke="currentColor" stroke-width="1.5" stroke-linecap="round" stroke-linejoin="round" /><path d="M12 13.333A2.667 2.667 0 1012 8a2.667 2.667 0 000 5.333zM3.56 25.267l6.573-4.414c1.053-.706 2.573-.626 3.52.187l.44.387c1.04.893 2.72.893 3.76 0l5.547-4.76c1.04-.894 2.72-.894 3.76 0l2.173 1.866" stroke="currentColor" stroke-width="1.5" stroke-linecap="round" stroke-linejoin="round" /></symbol><symbol fill="none" viewBox="0 0 24 24" id="icon-import"><path d="M9.32 11.68l2.56 2.56 2.56-2.56M11.88 4v10.17" stroke="currentColor" stroke-width="1.5" stroke-miterlimit="10" stroke-linecap="round" stroke-linejoin="round" /><path d="M20 12.18c0 4.42-3 8-8 8s-8-3.58-8-8" stroke="currentColor" stroke-width="1.5" stroke-miterlimit="10" stroke-linecap="round" stroke-linejoin="round" /></symbol><symbol fill="none" viewBox="0 0 16 16" id="icon-minus"><g clip-path="url(#clip0_2333_36067)"><path d="M15.219 8.781H.78a.781.781 0 010-1.562H15.22a.781.781 0 110 1.562z" fill="currentColor" /></g></symbol><symbol fill="none" viewBox="0 0 25 24" id="icon-notification"><path d="M12.968 2.91c-3.31 0-6 2.69-6 6v2.89c0 .61-.26 1.54-.57 2.06l-1.15 1.91c-.71 1.18-.22 2.49 1.08 2.93 4.31 1.44 8.96 1.44 13.27 0 1.21-.4 1.74-1.83 1.08-2.93l-1.15-1.91c-.3-.52-.56-1.45-.56-2.06V8.91c0-3.3-2.7-6-6-6z" stroke="currentColor" stroke-width="1.5" stroke-miterlimit="10" stroke-linecap="round" /><path d="M14.818 3.2a6.754 6.754 0 00-3.7 0c.29-.74 1.01-1.26 1.85-1.26.84 0 1.56.52 1.85 1.26z" stroke="currentColor" stroke-width="1.5" stroke-miterlimit="10" stroke-linecap="round" stroke-linejoin="round" /><path d="M15.968 19.06c0 1.65-1.35 3-3 3-.82 0-1.58-.34-2.12-.88a3.01 3.01 0 01-.88-2.12" stroke="currentColor" stroke-width="1.5" stroke-miterlimit="10" /></symbol><symbol fill="none" viewBox="0 0 16 16" id="icon-plus"><g clip-path="url(#clip0_2333_36062)" fill="currentColor"><path d="M8 16a.781.781 0 01-.781-.781V.78a.781.781 0 011.562 0V15.22A.781.781 0 018 16z" /><path d="M15.219 8.781H.78a.781.781 0 010-1.562H15.22a.781.781 0 110 1.562z" /></g></symbol><symbol fill="none" viewBox="0 0 24 24" id="icon-rotate"><path d="M9.11 5.08c.87-.26 1.83-.43 2.89-.43 4.79 0 8.67 3.88 8.67 8.67s-3.88 8.67-8.67 8.67-8.67-3.88-8.67-8.67c0-1.78.54-3.44 1.46-4.82M7.87 5.32L10.76 2M7.87 5.32l3.37 2.46" stroke="currentColor" stroke-width="1.5" stroke-linecap="round" stroke-linejoin="round" /></symbol></defs></svg>